<svg width="353" height="525" viewBox="0 0 353 525" fill="none" xmlns="http://www.w3.org/2000/svg">
<rect width="353" height="525" fill="#242424"/>
<path d="M43.988 59V32.4H55.274C56.8447 32.4 58.2633 32.78 59.53 33.54C60.822 34.2747 61.8353 35.288 62.57 36.58C63.33 37.872 63.71 39.3287 63.71 40.95C63.71 42.5967 63.33 44.0787 62.57 45.396C61.8353 46.7133 60.822 47.7647 59.53 48.55C58.2633 49.31 56.8447 49.69 55.274 49.69H49.688V59H43.988ZM49.612 44.56H54.628C55.236 44.56 55.7807 44.408 56.262 44.104C56.7433 43.7747 57.1233 43.344 57.402 42.812C57.706 42.28 57.858 41.672 57.858 40.988C57.858 40.304 57.706 39.7087 57.402 39.202C57.1233 38.67 56.7433 38.2647 56.262 37.986C55.7807 37.682 55.236 37.53 54.628 37.53H49.612V44.56ZM75.5871 59.38C73.9151 59.38 72.4077 58.924 71.0651 58.012C69.7224 57.1 68.6584 55.8587 67.8731 54.288C67.0877 52.7173 66.6951 50.9187 66.6951 48.892C66.6951 46.8653 67.0877 45.0793 67.8731 43.534C68.6837 41.9633 69.7731 40.7347 71.1411 39.848C72.5091 38.936 74.0671 38.48 75.8151 38.48C76.8031 38.48 77.7024 38.632 78.5131 38.936C79.3491 39.2147 80.0711 39.6073 80.6791 40.114C81.3124 40.6207 81.8444 41.2033 82.2751 41.862C82.7057 42.5207 83.0097 43.23 83.1871 43.99L82.0471 43.8V38.898H87.4051V59H81.9711V54.174L83.1871 54.06C82.9844 54.7693 82.6551 55.4407 82.1991 56.074C81.7431 56.7073 81.1731 57.2773 80.4891 57.784C79.8304 58.2653 79.0831 58.658 78.2471 58.962C77.4111 59.2407 76.5244 59.38 75.5871 59.38ZM77.0691 54.706C78.0824 54.706 78.9691 54.4653 79.7291 53.984C80.4891 53.5027 81.0717 52.8313 81.4771 51.97C81.9077 51.0833 82.1231 50.0573 82.1231 48.892C82.1231 47.752 81.9077 46.7513 81.4771 45.89C81.0717 45.0287 80.4891 44.3573 79.7291 43.876C78.9691 43.3693 78.0824 43.116 77.0691 43.116C76.0811 43.116 75.2071 43.3693 74.4471 43.876C73.7124 44.3573 73.1297 45.0287 72.6991 45.89C72.2684 46.7513 72.0531 47.752 72.0531 48.892C72.0531 50.0573 72.2684 51.0833 72.6991 51.97C73.1297 52.8313 73.7124 53.5027 74.4471 53.984C75.2071 54.4653 76.0811 54.706 77.0691 54.706ZM93.651 59V38.898H99.047V59H93.651ZM96.311 34.756C95.2724 34.756 94.4617 34.5027 93.879 33.996C93.2964 33.4893 93.005 32.7673 93.005 31.83C93.005 30.9687 93.2964 30.272 93.879 29.74C94.487 29.1827 95.2977 28.904 96.311 28.904C97.3497 28.904 98.1604 29.17 98.743 29.702C99.3257 30.2087 99.617 30.918 99.617 31.83C99.617 32.7167 99.313 33.426 98.705 33.958C98.1224 34.49 97.3244 34.756 96.311 34.756ZM105.19 59V38.898H110.396L110.586 45.358L109.674 44.028C109.978 42.9893 110.472 42.052 111.156 41.216C111.84 40.3547 112.638 39.6833 113.55 39.202C114.488 38.7207 115.463 38.48 116.476 38.48C116.907 38.48 117.325 38.518 117.73 38.594C118.136 38.67 118.478 38.7587 118.756 38.86L117.312 44.788C117.008 44.636 116.641 44.5093 116.21 44.408C115.78 44.2813 115.336 44.218 114.88 44.218C114.272 44.218 113.702 44.332 113.17 44.56C112.664 44.7627 112.22 45.0667 111.84 45.472C111.46 45.852 111.156 46.308 110.928 46.84C110.726 47.372 110.624 47.9547 110.624 48.588V59H105.19ZM137.077 67.74L141.485 57.404L141.561 60.52L131.757 38.898H137.875L142.777 50.488C142.979 50.9187 143.169 51.4253 143.347 52.008C143.549 52.5653 143.714 53.11 143.841 53.642L142.929 54.022C143.081 53.5913 143.258 53.0973 143.461 52.54C143.663 51.9827 143.866 51.3873 144.069 50.754L148.287 38.898H154.443L146.007 59L142.549 67.74H137.077ZM166.704 59.38C164.652 59.38 162.815 58.9367 161.194 58.05C159.598 57.138 158.331 55.8967 157.394 54.326C156.482 52.7553 156.026 50.9567 156.026 48.93C156.026 46.9033 156.482 45.1173 157.394 43.572C158.331 42.0013 159.598 40.76 161.194 39.848C162.815 38.936 164.652 38.48 166.704 38.48C168.73 38.48 170.542 38.936 172.138 39.848C173.759 40.76 175.026 42.0013 175.938 43.572C176.85 45.1173 177.306 46.9033 177.306 48.93C177.306 50.9567 176.85 52.7553 175.938 54.326C175.026 55.8967 173.759 57.138 172.138 58.05C170.542 58.9367 168.73 59.38 166.704 59.38ZM166.704 54.668C167.692 54.668 168.578 54.4273 169.364 53.946C170.149 53.4393 170.757 52.7553 171.188 51.894C171.644 51.0073 171.872 50.0193 171.872 48.93C171.872 47.8153 171.644 46.8273 171.188 45.966C170.757 45.0793 170.149 44.3953 169.364 43.914C168.578 43.4073 167.692 43.154 166.704 43.154C165.69 43.154 164.791 43.4073 164.006 43.914C163.22 44.4207 162.6 45.1047 162.144 45.966C161.688 46.8273 161.472 47.8153 161.498 48.93C161.472 50.0193 161.688 51.0073 162.144 51.894C162.6 52.7553 163.22 53.4393 164.006 53.946C164.791 54.4273 165.69 54.668 166.704 54.668ZM188.661 59.38C187.192 59.38 185.925 59.0633 184.861 58.43C183.823 57.7713 183.012 56.8467 182.429 55.656C181.872 54.44 181.593 52.9833 181.593 51.286V38.898H186.989V50.412C186.989 51.324 187.141 52.122 187.445 52.806C187.749 53.4647 188.18 53.9713 188.737 54.326C189.295 54.6807 189.979 54.858 190.789 54.858C191.372 54.858 191.917 54.7693 192.423 54.592C192.93 54.3893 193.361 54.1107 193.715 53.756C194.07 53.4013 194.349 52.9833 194.551 52.502C194.754 52.0207 194.855 51.5013 194.855 50.944V38.898H200.251V59H195.121L194.931 54.858L195.919 54.402C195.615 55.3393 195.109 56.188 194.399 56.948C193.69 57.708 192.841 58.3033 191.853 58.734C190.865 59.1647 189.801 59.38 188.661 59.38ZM206.061 59V38.898H211.267L211.457 45.358L210.545 44.028C210.849 42.9893 211.343 42.052 212.027 41.216C212.711 40.3547 213.509 39.6833 214.421 39.202C215.358 38.7207 216.334 38.48 217.347 38.48C217.778 38.48 218.196 38.518 218.601 38.594C219.006 38.67 219.348 38.7587 219.627 38.86L218.183 44.788C217.879 44.636 217.512 44.5093 217.081 44.408C216.65 44.2813 216.207 44.218 215.751 44.218C215.143 44.218 214.573 44.332 214.041 44.56C213.534 44.7627 213.091 45.0667 212.711 45.472C212.331 45.852 212.027 46.308 211.799 46.84C211.596 47.372 211.495 47.9547 211.495 48.588V59H206.061ZM241.443 59L233.007 38.898H238.935L244.293 53.908L243.039 54.136L248.663 38.898H254.439L245.585 59H241.443ZM267.096 59.38C264.918 59.38 263.018 58.9367 261.396 58.05C259.775 57.1633 258.508 55.9473 257.596 54.402C256.684 52.8567 256.228 51.0833 256.228 49.082C256.228 47.5367 256.482 46.118 256.988 44.826C257.495 43.534 258.204 42.4193 259.116 41.482C260.028 40.5193 261.105 39.7847 262.346 39.278C263.613 38.746 264.981 38.48 266.45 38.48C267.818 38.48 269.085 38.7333 270.25 39.24C271.416 39.7213 272.416 40.418 273.252 41.33C274.114 42.2167 274.772 43.268 275.228 44.484C275.684 45.7 275.887 47.03 275.836 48.474L275.798 50.146H259.648L258.774 46.84H271.352L270.744 47.524V46.688C270.694 46.004 270.466 45.3833 270.06 44.826C269.68 44.2687 269.186 43.838 268.578 43.534C267.97 43.23 267.286 43.078 266.526 43.078C265.412 43.078 264.462 43.2933 263.676 43.724C262.916 44.1547 262.334 44.788 261.928 45.624C261.523 46.46 261.32 47.4733 261.32 48.664C261.32 49.88 261.574 50.9313 262.08 51.818C262.612 52.7047 263.347 53.4013 264.284 53.908C265.247 54.3893 266.374 54.63 267.666 54.63C268.553 54.63 269.364 54.4907 270.098 54.212C270.833 53.9333 271.618 53.452 272.454 52.768L275.038 56.378C274.304 57.0367 273.493 57.594 272.606 58.05C271.72 58.4807 270.808 58.81 269.87 59.038C268.933 59.266 268.008 59.38 267.096 59.38ZM286.968 59.38C285.093 59.38 283.421 59.076 281.952 58.468C280.508 57.8347 279.343 56.9733 278.456 55.884L281.8 52.996C282.585 53.832 283.459 54.44 284.422 54.82C285.385 55.1747 286.347 55.352 287.31 55.352C287.69 55.352 288.032 55.314 288.336 55.238C288.665 55.1367 288.944 55.01 289.172 54.858C289.4 54.6807 289.565 54.478 289.666 54.25C289.793 53.9967 289.856 53.7307 289.856 53.452C289.856 52.8947 289.628 52.4513 289.172 52.122C288.919 51.9953 288.526 51.8433 287.994 51.666C287.462 51.4633 286.778 51.248 285.942 51.02C284.65 50.6907 283.548 50.3107 282.636 49.88C281.749 49.424 281.04 48.9173 280.508 48.36C280.052 47.828 279.697 47.258 279.444 46.65C279.216 46.0167 279.102 45.32 279.102 44.56C279.102 43.648 279.305 42.8247 279.71 42.09C280.115 41.33 280.673 40.684 281.382 40.152C282.117 39.62 282.953 39.2147 283.89 38.936C284.827 38.632 285.815 38.48 286.854 38.48C287.893 38.48 288.906 38.6067 289.894 38.86C290.882 39.1133 291.794 39.4807 292.63 39.962C293.491 40.418 294.239 40.9627 294.872 41.596L291.984 44.788C291.528 44.3573 291.009 43.9647 290.426 43.61C289.869 43.2553 289.286 42.9767 288.678 42.774C288.07 42.5713 287.525 42.47 287.044 42.47C286.613 42.47 286.221 42.508 285.866 42.584C285.537 42.66 285.258 42.774 285.03 42.926C284.802 43.078 284.625 43.2807 284.498 43.534C284.397 43.762 284.346 44.0153 284.346 44.294C284.346 44.5727 284.409 44.8387 284.536 45.092C284.688 45.3453 284.891 45.5607 285.144 45.738C285.423 45.89 285.828 46.0673 286.36 46.27C286.917 46.4727 287.665 46.7007 288.602 46.954C289.818 47.2833 290.844 47.6507 291.68 48.056C292.541 48.4613 293.225 48.93 293.732 49.462C294.163 49.918 294.479 50.4373 294.682 51.02C294.885 51.6027 294.986 52.2487 294.986 52.958C294.986 54.1993 294.631 55.314 293.922 56.302C293.238 57.2647 292.288 58.0247 291.072 58.582C289.856 59.114 288.488 59.38 286.968 59.38ZM301.151 59V33.806H306.547V59H301.151ZM297.389 43.724V38.898H310.651V43.724H297.389ZM91.7354 103V86.75H86.6104V85.5H98.2854V86.75H92.9854V103H91.7354ZM102.91 103.25C101.843 103.25 100.96 103.058 100.26 102.675C99.5768 102.292 99.0602 101.708 98.7102 100.925C98.3768 100.125 98.2102 99.1083 98.2102 97.875V90H99.4602V97.825C99.4602 98.7917 99.5852 99.5917 99.8352 100.225C100.085 100.842 100.468 101.3 100.985 101.6C101.502 101.9 102.152 102.05 102.935 102.05C103.552 102.05 104.127 101.942 104.66 101.725C105.193 101.492 105.66 101.192 106.06 100.825C106.46 100.442 106.768 100.008 106.985 99.525C107.218 99.025 107.335 98.5 107.335 97.95V90H108.585V103H107.385L107.26 100.25H107.41C107.227 100.8 106.902 101.3 106.435 101.75C105.968 102.2 105.418 102.567 104.785 102.85C104.168 103.117 103.543 103.25 102.91 103.25ZM112.224 103V90H113.424L113.549 92.9H113.374C113.558 92.35 113.841 91.8333 114.224 91.35C114.608 90.8667 115.074 90.475 115.624 90.175C116.191 89.875 116.841 89.725 117.574 89.725C117.858 89.725 118.116 89.75 118.349 89.8C118.599 89.8333 118.824 89.875 119.024 89.925L118.649 91.375C118.416 91.275 118.191 91.2083 117.974 91.175C117.758 91.1417 117.566 91.125 117.399 91.125C116.733 91.125 116.149 91.2417 115.649 91.475C115.166 91.7083 114.758 92.0333 114.424 92.45C114.108 92.85 113.866 93.3083 113.699 93.825C113.549 94.3417 113.474 94.8833 113.474 95.45V103H112.224ZM120.843 103V90H122.043L122.168 92.75H122.018C122.201 92.2 122.534 91.7 123.018 91.25C123.501 90.7833 124.076 90.4167 124.743 90.15C125.426 89.8667 126.143 89.725 126.893 89.725C127.809 89.725 128.584 89.9167 129.218 90.3C129.868 90.6833 130.351 91.275 130.668 92.075C131.001 92.875 131.168 93.8917 131.168 95.125V103H129.918V95.175C129.918 94.2083 129.784 93.4167 129.518 92.8C129.268 92.1667 128.893 91.7 128.393 91.4C127.893 91.0833 127.268 90.925 126.518 90.925C125.868 90.925 125.276 91.0417 124.743 91.275C124.209 91.4917 123.743 91.7917 123.343 92.175C122.943 92.5583 122.634 93 122.418 93.5C122.201 93.9833 122.093 94.5 122.093 95.05V103H121.468C121.451 103 121.393 103 121.293 103C121.209 103 121.059 103 120.843 103ZM147.465 103.25C146.165 103.25 145.007 102.958 143.99 102.375C142.99 101.792 142.198 100.983 141.615 99.95C141.048 98.9167 140.765 97.7417 140.765 96.425C140.765 95.125 141.048 93.975 141.615 92.975C142.198 91.9583 142.99 91.1667 143.99 90.6C145.007 90.0167 146.165 89.725 147.465 89.725C148.765 89.725 149.915 90.0167 150.915 90.6C151.932 91.1667 152.723 91.9583 153.29 92.975C153.857 93.975 154.14 95.125 154.14 96.425C154.14 97.7417 153.857 98.9167 153.29 99.95C152.723 100.983 151.932 101.792 150.915 102.375C149.915 102.958 148.765 103.25 147.465 103.25ZM147.465 102C148.498 102 149.415 101.758 150.215 101.275C151.032 100.792 151.665 100.133 152.115 99.3C152.582 98.4667 152.815 97.5083 152.815 96.425C152.815 95.375 152.582 94.4417 152.115 93.625C151.665 92.7917 151.032 92.1417 150.215 91.675C149.415 91.2083 148.498 90.975 147.465 90.975C146.415 90.975 145.482 91.2083 144.665 91.675C143.865 92.1417 143.232 92.7917 142.765 93.625C142.315 94.4417 142.09 95.375 142.09 96.425C142.09 97.5083 142.315 98.4667 142.765 99.3C143.232 100.133 143.865 100.792 144.665 101.275C145.482 101.758 146.415 102 147.465 102ZM156.756 103V90H157.956L158.081 92.75H157.931C158.114 92.2 158.447 91.7 158.931 91.25C159.414 90.7833 159.989 90.4167 160.656 90.15C161.339 89.8667 162.056 89.725 162.806 89.725C163.722 89.725 164.497 89.9167 165.131 90.3C165.781 90.6833 166.264 91.275 166.581 92.075C166.914 92.875 167.081 93.8917 167.081 95.125V103H165.831V95.175C165.831 94.2083 165.697 93.4167 165.431 92.8C165.181 92.1667 164.806 91.7 164.306 91.4C163.806 91.0833 163.181 90.925 162.431 90.925C161.781 90.925 161.189 91.0417 160.656 91.275C160.122 91.4917 159.656 91.7917 159.256 92.175C158.856 92.5583 158.547 93 158.331 93.5C158.114 93.9833 158.006 94.5 158.006 95.05V103H157.381C157.364 103 157.306 103 157.206 103C157.122 103 156.972 103 156.756 103ZM179.678 103V86.525H180.928V103H179.678ZM176.553 91.15V90H184.428V91.15H176.553ZM186.687 103V84.5H187.937V93L187.637 93.475C187.821 92.6917 188.171 92.025 188.687 91.475C189.204 90.9083 189.804 90.475 190.487 90.175C191.187 89.875 191.887 89.725 192.587 89.725C193.587 89.725 194.412 89.9167 195.062 90.3C195.729 90.6833 196.221 91.275 196.537 92.075C196.854 92.875 197.012 93.8917 197.012 95.125V103H195.762V95.175C195.762 94.2083 195.637 93.4167 195.387 92.8C195.137 92.1667 194.754 91.7 194.237 91.4C193.737 91.0833 193.096 90.925 192.312 90.925C191.696 90.925 191.121 91.0417 190.587 91.275C190.054 91.4917 189.587 91.7917 189.187 92.175C188.804 92.5583 188.496 93 188.262 93.5C188.046 93.9833 187.937 94.5 187.937 95.05V103H187.312C187.296 103 187.237 103 187.137 103C187.054 103 186.904 103 186.687 103ZM206.053 103.25C204.803 103.25 203.686 102.967 202.703 102.4C201.736 101.833 200.978 101.042 200.428 100.025C199.878 99.0083 199.603 97.825 199.603 96.475C199.603 95.4917 199.753 94.5917 200.053 93.775C200.369 92.9583 200.803 92.25 201.353 91.65C201.903 91.0333 202.561 90.5583 203.328 90.225C204.111 89.8917 204.961 89.725 205.878 89.725C206.778 89.725 207.586 89.875 208.303 90.175C209.036 90.475 209.653 90.9083 210.153 91.475C210.653 92.025 211.028 92.6833 211.278 93.45C211.528 94.2 211.636 95.0333 211.603 95.95L211.578 96.625H200.528V95.475H210.903L210.353 95.925V95.325C210.353 94.6583 210.186 93.9917 209.853 93.325C209.536 92.6583 209.044 92.1 208.378 91.65C207.711 91.2 206.869 90.975 205.853 90.975C204.903 90.975 204.053 91.1833 203.303 91.6C202.569 92.0167 201.986 92.625 201.553 93.425C201.136 94.225 200.928 95.2167 200.928 96.4C200.928 97.5333 201.136 98.525 201.553 99.375C201.969 100.208 202.569 100.858 203.353 101.325C204.153 101.775 205.128 102 206.278 102C206.894 102 207.528 101.9 208.178 101.7C208.828 101.5 209.561 101.067 210.378 100.4L211.028 101.325C210.661 101.675 210.228 102 209.728 102.3C209.228 102.583 208.669 102.817 208.053 103C207.436 103.167 206.769 103.25 206.053 103.25ZM224.986 103L219.511 90H220.961L225.611 101.475L225.086 101.825L230.336 90H231.736L225.836 103H224.986ZM238.816 103.25C237.566 103.25 236.45 102.967 235.466 102.4C234.5 101.833 233.741 101.042 233.191 100.025C232.641 99.0083 232.366 97.825 232.366 96.475C232.366 95.4917 232.516 94.5917 232.816 93.775C233.133 92.9583 233.566 92.25 234.116 91.65C234.666 91.0333 235.325 90.5583 236.091 90.225C236.875 89.8917 237.725 89.725 238.641 89.725C239.541 89.725 240.35 89.875 241.066 90.175C241.8 90.475 242.416 90.9083 242.916 91.475C243.416 92.025 243.791 92.6833 244.041 93.45C244.291 94.2 244.4 95.0333 244.366 95.95L244.341 96.625H233.291V95.475H243.666L243.116 95.925V95.325C243.116 94.6583 242.95 93.9917 242.616 93.325C242.3 92.6583 241.808 92.1 241.141 91.65C240.475 91.2 239.633 90.975 238.616 90.975C237.666 90.975 236.816 91.1833 236.066 91.6C235.333 92.0167 234.75 92.625 234.316 93.425C233.9 94.225 233.691 95.2167 233.691 96.4C233.691 97.5333 233.9 98.525 234.316 99.375C234.733 100.208 235.333 100.858 236.116 101.325C236.916 101.775 237.891 102 239.041 102C239.658 102 240.291 101.9 240.941 101.7C241.591 101.5 242.325 101.067 243.141 100.4L243.791 101.325C243.425 101.675 242.991 102 242.491 102.3C241.991 102.583 241.433 102.817 240.816 103C240.2 103.167 239.533 103.25 238.816 103.25ZM251.117 103.25C249.984 103.25 248.976 103.033 248.092 102.6C247.209 102.15 246.534 101.608 246.067 100.975L247.017 100.15C247.467 100.75 248.051 101.217 248.767 101.55C249.484 101.867 250.292 102.025 251.192 102.025C251.692 102.025 252.151 101.975 252.567 101.875C252.984 101.758 253.334 101.6 253.617 101.4C253.917 101.2 254.151 100.958 254.317 100.675C254.484 100.375 254.567 100.042 254.567 99.675C254.567 99.025 254.259 98.475 253.642 98.025C253.359 97.825 253.001 97.6417 252.567 97.475C252.134 97.3083 251.626 97.1417 251.042 96.975C250.159 96.7083 249.409 96.4583 248.792 96.225C248.176 95.9917 247.684 95.7 247.317 95.35C247.051 95.0667 246.851 94.7667 246.717 94.45C246.584 94.1167 246.517 93.7583 246.517 93.375C246.517 92.8417 246.626 92.3583 246.842 91.925C247.059 91.475 247.367 91.0833 247.767 90.75C248.167 90.4167 248.634 90.1667 249.167 90C249.701 89.8167 250.292 89.725 250.942 89.725C251.559 89.725 252.167 89.8167 252.767 90C253.367 90.1667 253.926 90.4083 254.442 90.725C254.959 91.0417 255.409 91.4083 255.792 91.825L254.942 92.75C254.609 92.3833 254.242 92.0583 253.842 91.775C253.459 91.4917 253.034 91.275 252.567 91.125C252.101 90.9583 251.584 90.875 251.017 90.875C250.567 90.875 250.142 90.9333 249.742 91.05C249.359 91.1667 249.026 91.3417 248.742 91.575C248.459 91.7917 248.234 92.05 248.067 92.35C247.917 92.6333 247.842 92.95 247.842 93.3C247.842 93.5667 247.892 93.8083 247.992 94.025C248.092 94.225 248.251 94.4167 248.467 94.6C248.751 94.8333 249.126 95.0333 249.592 95.2C250.076 95.3667 250.667 95.55 251.367 95.75C252.001 95.9167 252.559 96.0833 253.042 96.25C253.526 96.4167 253.942 96.6167 254.292 96.85C254.826 97.1833 255.217 97.575 255.467 98.025C255.734 98.475 255.867 98.9917 255.867 99.575C255.867 100.292 255.667 100.925 255.267 101.475C254.867 102.025 254.309 102.458 253.592 102.775C252.876 103.092 252.051 103.25 251.117 103.25ZM260.83 103V86.525H262.08V103H260.83ZM257.705 91.15V90H265.58V91.15H257.705Z" fill="white"/>
<rect width="136" height="53" rx="6" transform="matrix(1 0 0 -1 108 502)" fill="#2CA0C0"/>
<path d="M149.366 485V466.8H152.85L162.912 480.398H162.184C162.115 479.861 162.054 479.341 162.002 478.838C161.95 478.318 161.898 477.798 161.846 477.278C161.811 476.741 161.777 476.195 161.742 475.64C161.725 475.068 161.707 474.47 161.69 473.846C161.673 473.205 161.664 472.511 161.664 471.766V466.8H165.486V485H161.95L151.68 471.272L152.668 471.298C152.755 472.199 152.824 472.971 152.876 473.612C152.945 474.236 152.997 474.782 153.032 475.25C153.067 475.718 153.093 476.125 153.11 476.472C153.145 476.819 153.162 477.148 153.162 477.46C153.179 477.772 153.188 478.101 153.188 478.448V485H149.366ZM174.918 485.26C173.427 485.26 172.127 484.957 171.018 484.35C169.908 483.743 169.042 482.911 168.418 481.854C167.794 480.797 167.482 479.583 167.482 478.214C167.482 477.157 167.655 476.186 168.002 475.302C168.348 474.418 168.834 473.655 169.458 473.014C170.082 472.355 170.818 471.853 171.668 471.506C172.534 471.142 173.47 470.96 174.476 470.96C175.412 470.96 176.278 471.133 177.076 471.48C177.873 471.809 178.558 472.286 179.13 472.91C179.719 473.517 180.17 474.236 180.482 475.068C180.794 475.9 180.932 476.81 180.898 477.798L180.872 478.942H169.822L169.224 476.68H177.83L177.414 477.148V476.576C177.379 476.108 177.223 475.683 176.946 475.302C176.686 474.921 176.348 474.626 175.932 474.418C175.516 474.21 175.048 474.106 174.528 474.106C173.765 474.106 173.115 474.253 172.578 474.548C172.058 474.843 171.659 475.276 171.382 475.848C171.104 476.42 170.966 477.113 170.966 477.928C170.966 478.76 171.139 479.479 171.486 480.086C171.85 480.693 172.352 481.169 172.994 481.516C173.652 481.845 174.424 482.01 175.308 482.01C175.914 482.01 176.469 481.915 176.972 481.724C177.474 481.533 178.012 481.204 178.584 480.736L180.352 483.206C179.849 483.657 179.294 484.038 178.688 484.35C178.081 484.645 177.457 484.87 176.816 485.026C176.174 485.182 175.542 485.26 174.918 485.26ZM190.934 485L187.528 480.138L186.488 478.682L180.924 471.246H185.396L188.724 475.952L189.868 477.512L195.354 485H190.934ZM180.872 485L186.358 477.486L188.386 479.904L185.214 485H180.872ZM189.712 478.812L187.736 476.394L190.674 471.246H195.016L189.712 478.812ZM197.663 485V467.762H201.355V485H197.663ZM195.089 474.548V471.246H204.163V474.548H195.089Z" fill="white"/>
<path d="M74.7159 315.091C74.6307 314.371 74.285 313.812 73.679 313.415C73.0729 313.017 72.3295 312.818 71.4489 312.818C70.8049 312.818 70.2415 312.922 69.7585 313.131C69.2803 313.339 68.9063 313.625 68.6364 313.99C68.3712 314.355 68.2386 314.769 68.2386 315.233C68.2386 315.621 68.331 315.955 68.5156 316.234C68.705 316.509 68.9465 316.739 69.2401 316.923C69.5336 317.103 69.8414 317.252 70.1634 317.371C70.4853 317.484 70.7812 317.577 71.0511 317.648L72.5284 318.045C72.9072 318.145 73.3286 318.282 73.7926 318.457C74.2614 318.633 74.7088 318.872 75.1349 319.175C75.5658 319.473 75.9209 319.857 76.2003 320.325C76.4796 320.794 76.6193 321.369 76.6193 322.051C76.6193 322.837 76.4134 323.547 76.0014 324.182C75.5942 324.816 74.9976 325.321 74.2116 325.695C73.4304 326.069 72.4811 326.256 71.3636 326.256C70.322 326.256 69.42 326.088 68.6577 325.751C67.9001 325.415 67.3035 324.946 66.8679 324.345C66.437 323.744 66.1932 323.045 66.1364 322.25H67.9545C68.0019 322.799 68.1866 323.254 68.5085 323.614C68.8352 323.969 69.2472 324.234 69.7443 324.409C70.2462 324.58 70.786 324.665 71.3636 324.665C72.036 324.665 72.6397 324.556 73.1747 324.338C73.7098 324.116 74.1335 323.808 74.446 323.415C74.7585 323.017 74.9148 322.553 74.9148 322.023C74.9148 321.54 74.7798 321.147 74.5099 320.844C74.2401 320.541 73.8849 320.295 73.4446 320.105C73.0043 319.916 72.5284 319.75 72.017 319.608L70.2273 319.097C69.0909 318.77 68.1913 318.304 67.5284 317.697C66.8655 317.091 66.5341 316.298 66.5341 315.318C66.5341 314.504 66.7543 313.794 67.1946 313.188C67.6397 312.577 68.2363 312.103 68.9844 311.767C69.7372 311.426 70.5777 311.256 71.5057 311.256C72.4432 311.256 73.2765 311.424 74.0057 311.76C74.7348 312.091 75.3125 312.546 75.7386 313.124C76.1695 313.701 76.3968 314.357 76.4205 315.091H74.7159ZM83.8619 326.227C82.8107 326.227 81.904 325.995 81.1417 325.531C80.3841 325.062 79.7994 324.409 79.3874 323.571C78.9802 322.728 78.7766 321.748 78.7766 320.631C78.7766 319.513 78.9802 318.528 79.3874 317.676C79.7994 316.819 80.3723 316.152 81.1062 315.673C81.8448 315.19 82.7066 314.949 83.6914 314.949C84.2596 314.949 84.8207 315.044 85.3746 315.233C85.9286 315.422 86.4329 315.73 86.8874 316.156C87.342 316.578 87.7042 317.136 87.9741 317.832C88.244 318.528 88.3789 319.385 88.3789 320.403V321.114H79.9698V319.665H86.6744C86.6744 319.049 86.5513 318.5 86.305 318.017C86.0636 317.534 85.7179 317.153 85.2681 316.874C84.823 316.594 84.2975 316.455 83.6914 316.455C83.0238 316.455 82.4461 316.62 81.9585 316.952C81.4755 317.278 81.1038 317.705 80.8434 318.23C80.583 318.756 80.4528 319.319 80.4528 319.92V320.886C80.4528 321.71 80.5948 322.409 80.8789 322.982C81.1677 323.55 81.5678 323.983 82.0792 324.281C82.5906 324.575 83.1848 324.722 83.8619 324.722C84.3022 324.722 84.6999 324.66 85.055 324.537C85.4149 324.409 85.725 324.22 85.9854 323.969C86.2459 323.713 86.4471 323.396 86.5891 323.017L88.2085 323.472C88.038 324.021 87.7515 324.504 87.3491 324.92C86.9466 325.332 86.4495 325.654 85.8576 325.886C85.2657 326.114 84.6005 326.227 83.8619 326.227ZM94.1388 326.256C93.4476 326.256 92.8202 326.125 92.2567 325.865C91.6933 325.6 91.2459 325.219 90.9144 324.722C90.583 324.22 90.4173 323.614 90.4173 322.903C90.4173 322.278 90.5404 321.772 90.7866 321.384C91.0328 320.991 91.3619 320.683 91.7738 320.46C92.1857 320.238 92.6403 320.072 93.1374 319.963C93.6393 319.849 94.1436 319.759 94.6502 319.693C95.3131 319.608 95.8505 319.544 96.2624 319.501C96.6791 319.454 96.9821 319.376 97.1715 319.267C97.3656 319.158 97.4627 318.969 97.4627 318.699V318.642C97.4627 317.941 97.271 317.397 96.8874 317.009C96.5086 316.62 95.9334 316.426 95.1616 316.426C94.3614 316.426 93.734 316.601 93.2795 316.952C92.8249 317.302 92.5053 317.676 92.3207 318.074L90.7298 317.506C91.0138 316.843 91.3926 316.327 91.8661 315.957C92.3443 315.583 92.8652 315.323 93.4286 315.176C93.9968 315.025 94.5555 314.949 95.1048 314.949C95.4551 314.949 95.8576 314.991 96.3121 315.077C96.7714 315.157 97.2141 315.325 97.6403 315.581C98.0711 315.837 98.4286 316.223 98.7127 316.739C98.9968 317.255 99.1388 317.946 99.1388 318.812V326H97.4627V324.523H97.3775C97.2638 324.759 97.0745 325.013 96.8093 325.283C96.5442 325.553 96.1914 325.782 95.7511 325.972C95.3107 326.161 94.7733 326.256 94.1388 326.256ZM94.3945 324.75C95.0574 324.75 95.6161 324.62 96.0707 324.359C96.5299 324.099 96.8756 323.763 97.1076 323.351C97.3443 322.939 97.4627 322.506 97.4627 322.051V320.517C97.3917 320.602 97.2354 320.68 96.994 320.751C96.7572 320.818 96.4826 320.877 96.1701 320.929C95.8623 320.976 95.5617 321.019 95.2681 321.057C94.9793 321.09 94.7449 321.118 94.565 321.142C94.1294 321.199 93.7222 321.291 93.3434 321.419C92.9693 321.542 92.6663 321.729 92.4343 321.98C92.207 322.226 92.0934 322.562 92.0934 322.989C92.0934 323.571 92.3088 324.011 92.7397 324.31C93.1753 324.603 93.7269 324.75 94.3945 324.75ZM102.198 326V315.091H103.817V316.739H103.931C104.13 316.199 104.49 315.761 105.011 315.425C105.531 315.089 106.119 314.92 106.772 314.92C106.895 314.92 107.049 314.923 107.234 314.928C107.418 314.932 107.558 314.939 107.653 314.949V316.653C107.596 316.639 107.466 316.618 107.262 316.589C107.063 316.556 106.853 316.54 106.63 316.54C106.1 316.54 105.626 316.651 105.21 316.874C104.798 317.091 104.471 317.394 104.229 317.783C103.993 318.166 103.874 318.604 103.874 319.097V326H102.198ZM113.739 326.227C112.717 326.227 111.836 325.986 111.097 325.503C110.359 325.02 109.79 324.355 109.393 323.507C108.995 322.66 108.796 321.691 108.796 320.602C108.796 319.494 109 318.517 109.407 317.669C109.819 316.817 110.392 316.152 111.126 315.673C111.864 315.19 112.726 314.949 113.711 314.949C114.478 314.949 115.169 315.091 115.785 315.375C116.4 315.659 116.905 316.057 117.298 316.568C117.691 317.08 117.934 317.676 118.029 318.358H116.353C116.225 317.861 115.941 317.42 115.501 317.037C115.065 316.649 114.478 316.455 113.739 316.455C113.086 316.455 112.513 316.625 112.021 316.966C111.533 317.302 111.152 317.778 110.877 318.393C110.607 319.004 110.472 319.722 110.472 320.545C110.472 321.388 110.605 322.122 110.87 322.747C111.14 323.372 111.519 323.857 112.006 324.203C112.499 324.549 113.076 324.722 113.739 324.722C114.175 324.722 114.57 324.646 114.925 324.494C115.281 324.343 115.581 324.125 115.827 323.841C116.074 323.557 116.249 323.216 116.353 322.818H118.029C117.934 323.462 117.7 324.042 117.326 324.558C116.957 325.07 116.467 325.477 115.856 325.78C115.25 326.078 114.544 326.227 113.739 326.227ZM122.156 319.438V326H120.479V311.455H122.156V316.795H122.298C122.553 316.232 122.937 315.785 123.448 315.453C123.964 315.117 124.651 314.949 125.508 314.949C126.251 314.949 126.902 315.098 127.461 315.396C128.02 315.69 128.453 316.142 128.761 316.753C129.073 317.359 129.229 318.131 129.229 319.068V326H127.553V319.182C127.553 318.315 127.328 317.645 126.879 317.172C126.433 316.694 125.816 316.455 125.025 316.455C124.476 316.455 123.983 316.571 123.548 316.803C123.117 317.035 122.776 317.373 122.525 317.818C122.279 318.263 122.156 318.803 122.156 319.438ZM132.296 326V315.091H133.972V326H132.296ZM133.148 313.273C132.821 313.273 132.54 313.161 132.303 312.939C132.071 312.716 131.955 312.449 131.955 312.136C131.955 311.824 132.071 311.556 132.303 311.334C132.54 311.111 132.821 311 133.148 311C133.475 311 133.754 311.111 133.986 311.334C134.223 311.556 134.341 311.824 134.341 312.136C134.341 312.449 134.223 312.716 133.986 312.939C133.754 313.161 133.475 313.273 133.148 313.273ZM138.718 319.438V326H137.042V315.091H138.661V316.795H138.803C139.059 316.241 139.447 315.796 139.968 315.46C140.489 315.119 141.161 314.949 141.985 314.949C142.724 314.949 143.37 315.1 143.924 315.403C144.478 315.702 144.909 316.156 145.217 316.767C145.524 317.373 145.678 318.14 145.678 319.068V326H144.002V319.182C144.002 318.325 143.78 317.657 143.335 317.179C142.889 316.696 142.279 316.455 141.502 316.455C140.967 316.455 140.489 316.571 140.067 316.803C139.651 317.035 139.322 317.373 139.08 317.818C138.839 318.263 138.718 318.803 138.718 319.438ZM153.145 330.318C152.335 330.318 151.639 330.214 151.056 330.006C150.474 329.802 149.989 329.532 149.6 329.196C149.217 328.865 148.912 328.509 148.684 328.131L150.02 327.193C150.171 327.392 150.363 327.619 150.595 327.875C150.827 328.135 151.144 328.36 151.547 328.55C151.954 328.744 152.486 328.841 153.145 328.841C154.025 328.841 154.752 328.628 155.325 328.202C155.898 327.776 156.184 327.108 156.184 326.199V323.983H156.042C155.919 324.182 155.744 324.428 155.517 324.722C155.294 325.01 154.972 325.268 154.551 325.496C154.134 325.718 153.571 325.83 152.86 325.83C151.98 325.83 151.189 325.621 150.488 325.205C149.792 324.788 149.241 324.182 148.833 323.386C148.431 322.591 148.23 321.625 148.23 320.489C148.23 319.371 148.426 318.398 148.819 317.57C149.212 316.736 149.759 316.092 150.46 315.638C151.161 315.179 151.97 314.949 152.889 314.949C153.599 314.949 154.163 315.067 154.579 315.304C155.001 315.536 155.323 315.801 155.545 316.099C155.772 316.393 155.948 316.634 156.071 316.824H156.241V315.091H157.86V326.312C157.86 327.25 157.647 328.012 157.221 328.599C156.8 329.191 156.232 329.625 155.517 329.899C154.806 330.179 154.016 330.318 153.145 330.318ZM153.088 324.324C153.76 324.324 154.328 324.17 154.792 323.862C155.256 323.554 155.609 323.112 155.85 322.534C156.092 321.956 156.213 321.265 156.213 320.46C156.213 319.674 156.094 318.981 155.858 318.379C155.621 317.778 155.27 317.307 154.806 316.966C154.342 316.625 153.77 316.455 153.088 316.455C152.377 316.455 151.786 316.634 151.312 316.994C150.843 317.354 150.491 317.837 150.254 318.443C150.022 319.049 149.906 319.722 149.906 320.46C149.906 321.218 150.024 321.888 150.261 322.47C150.502 323.048 150.858 323.502 151.326 323.834C151.8 324.161 152.387 324.324 153.088 324.324ZM171.412 315.091V316.511H165.531V315.091H171.412ZM167.292 326V313.585C167.292 312.96 167.439 312.439 167.733 312.023C168.026 311.606 168.407 311.294 168.876 311.085C169.345 310.877 169.84 310.773 170.36 310.773C170.772 310.773 171.109 310.806 171.369 310.872C171.629 310.938 171.824 311 171.951 311.057L171.468 312.506C171.383 312.477 171.265 312.442 171.113 312.399C170.967 312.357 170.772 312.335 170.531 312.335C169.977 312.335 169.577 312.475 169.331 312.754C169.089 313.034 168.968 313.443 168.968 313.983V326H167.292ZM177.743 326.227C176.758 326.227 175.894 325.993 175.151 325.524C174.412 325.055 173.835 324.4 173.418 323.557C173.006 322.714 172.8 321.729 172.8 320.602C172.8 319.466 173.006 318.474 173.418 317.626C173.835 316.779 174.412 316.121 175.151 315.652C175.894 315.183 176.758 314.949 177.743 314.949C178.728 314.949 179.59 315.183 180.328 315.652C181.072 316.121 181.65 316.779 182.061 317.626C182.478 318.474 182.686 319.466 182.686 320.602C182.686 321.729 182.478 322.714 182.061 323.557C181.65 324.4 181.072 325.055 180.328 325.524C179.59 325.993 178.728 326.227 177.743 326.227ZM177.743 324.722C178.491 324.722 179.107 324.53 179.59 324.146C180.073 323.763 180.43 323.259 180.662 322.634C180.894 322.009 181.01 321.331 181.01 320.602C181.01 319.873 180.894 319.194 180.662 318.564C180.43 317.934 180.073 317.425 179.59 317.037C179.107 316.649 178.491 316.455 177.743 316.455C176.995 316.455 176.38 316.649 175.897 317.037C175.414 317.425 175.056 317.934 174.824 318.564C174.592 319.194 174.476 319.873 174.476 320.602C174.476 321.331 174.592 322.009 174.824 322.634C175.056 323.259 175.414 323.763 175.897 324.146C176.38 324.53 176.995 324.722 177.743 324.722ZM185.245 326V315.091H186.864V316.739H186.978C187.177 316.199 187.537 315.761 188.058 315.425C188.578 315.089 189.165 314.92 189.819 314.92C189.942 314.92 190.096 314.923 190.281 314.928C190.465 314.932 190.605 314.939 190.7 314.949V316.653C190.643 316.639 190.513 316.618 190.309 316.589C190.11 316.556 189.899 316.54 189.677 316.54C189.147 316.54 188.673 316.651 188.256 316.874C187.844 317.091 187.518 317.394 187.276 317.783C187.04 318.166 186.921 318.604 186.921 319.097V326H185.245ZM202.431 326.227C201.522 326.227 200.719 325.998 200.023 325.538C199.327 325.074 198.783 324.421 198.39 323.578C197.997 322.731 197.8 321.729 197.8 320.574C197.8 319.428 197.997 318.434 198.39 317.591C198.783 316.748 199.329 316.097 200.03 315.638C200.731 315.179 201.541 314.949 202.459 314.949C203.169 314.949 203.73 315.067 204.142 315.304C204.559 315.536 204.876 315.801 205.094 316.099C205.317 316.393 205.489 316.634 205.613 316.824H205.755V311.455H207.431V326H205.811V324.324H205.613C205.489 324.523 205.314 324.774 205.087 325.077C204.86 325.375 204.535 325.643 204.114 325.879C203.693 326.111 203.132 326.227 202.431 326.227ZM202.658 324.722C203.33 324.722 203.899 324.546 204.363 324.196C204.827 323.841 205.179 323.351 205.421 322.726C205.662 322.096 205.783 321.369 205.783 320.545C205.783 319.731 205.665 319.018 205.428 318.408C205.191 317.792 204.841 317.314 204.377 316.973C203.913 316.627 203.34 316.455 202.658 316.455C201.948 316.455 201.356 316.637 200.882 317.001C200.414 317.361 200.061 317.851 199.824 318.472C199.592 319.087 199.476 319.778 199.476 320.545C199.476 321.322 199.595 322.027 199.831 322.662C200.073 323.292 200.428 323.794 200.897 324.168C201.37 324.537 201.957 324.722 202.658 324.722ZM215.307 326.227C214.256 326.227 213.349 325.995 212.587 325.531C211.829 325.062 211.245 324.409 210.833 323.571C210.426 322.728 210.222 321.748 210.222 320.631C210.222 319.513 210.426 318.528 210.833 317.676C211.245 316.819 211.818 316.152 212.551 315.673C213.29 315.19 214.152 314.949 215.137 314.949C215.705 314.949 216.266 315.044 216.82 315.233C217.374 315.422 217.878 315.73 218.333 316.156C218.787 316.578 219.15 317.136 219.419 317.832C219.689 318.528 219.824 319.385 219.824 320.403V321.114H211.415V319.665H218.12C218.12 319.049 217.997 318.5 217.75 318.017C217.509 317.534 217.163 317.153 216.713 316.874C216.268 316.594 215.743 316.455 215.137 316.455C214.469 316.455 213.891 316.62 213.404 316.952C212.921 317.278 212.549 317.705 212.289 318.23C212.028 318.756 211.898 319.319 211.898 319.92V320.886C211.898 321.71 212.04 322.409 212.324 322.982C212.613 323.55 213.013 323.983 213.525 324.281C214.036 324.575 214.63 324.722 215.307 324.722C215.748 324.722 216.145 324.66 216.5 324.537C216.86 324.409 217.17 324.22 217.431 323.969C217.691 323.713 217.892 323.396 218.034 323.017L219.654 323.472C219.483 324.021 219.197 324.504 218.794 324.92C218.392 325.332 217.895 325.654 217.303 325.886C216.711 326.114 216.046 326.227 215.307 326.227ZM230.962 315.091L226.928 326H225.224L221.19 315.091H223.008L226.019 323.784H226.133L229.144 315.091H230.962ZM233.175 326V315.091H234.851V326H233.175ZM234.027 313.273C233.7 313.273 233.419 313.161 233.182 312.939C232.95 312.716 232.834 312.449 232.834 312.136C232.834 311.824 232.95 311.556 233.182 311.334C233.419 311.111 233.7 311 234.027 311C234.354 311 234.633 311.111 234.865 311.334C235.102 311.556 235.22 311.824 235.22 312.136C235.22 312.449 235.102 312.716 234.865 312.939C234.633 313.161 234.354 313.273 234.027 313.273ZM242.353 326.227C241.33 326.227 240.449 325.986 239.711 325.503C238.972 325.02 238.404 324.355 238.006 323.507C237.608 322.66 237.409 321.691 237.409 320.602C237.409 319.494 237.613 318.517 238.02 317.669C238.432 316.817 239.005 316.152 239.739 315.673C240.478 315.19 241.339 314.949 242.324 314.949C243.091 314.949 243.783 315.091 244.398 315.375C245.014 315.659 245.518 316.057 245.911 316.568C246.304 317.08 246.548 317.676 246.642 318.358H244.966C244.838 317.861 244.554 317.42 244.114 317.037C243.678 316.649 243.091 316.455 242.353 316.455C241.699 316.455 241.126 316.625 240.634 316.966C240.146 317.302 239.765 317.778 239.49 318.393C239.221 319.004 239.086 319.722 239.086 320.545C239.086 321.388 239.218 322.122 239.483 322.747C239.753 323.372 240.132 323.857 240.62 324.203C241.112 324.549 241.69 324.722 242.353 324.722C242.788 324.722 243.184 324.646 243.539 324.494C243.894 324.343 244.194 324.125 244.441 323.841C244.687 323.557 244.862 323.216 244.966 322.818H246.642C246.548 323.462 246.313 324.042 245.939 324.558C245.57 325.07 245.08 325.477 244.469 325.78C243.863 326.078 243.158 326.227 242.353 326.227ZM253.667 326.227C252.615 326.227 251.709 325.995 250.946 325.531C250.189 325.062 249.604 324.409 249.192 323.571C248.785 322.728 248.581 321.748 248.581 320.631C248.581 319.513 248.785 318.528 249.192 317.676C249.604 316.819 250.177 316.152 250.911 315.673C251.65 315.19 252.511 314.949 253.496 314.949C254.064 314.949 254.625 315.044 255.179 315.233C255.733 315.422 256.238 315.73 256.692 316.156C257.147 316.578 257.509 317.136 257.779 317.832C258.049 318.528 258.184 319.385 258.184 320.403V321.114H249.775V319.665H256.479C256.479 319.049 256.356 318.5 256.11 318.017C255.868 317.534 255.523 317.153 255.073 316.874C254.628 316.594 254.102 316.455 253.496 316.455C252.828 316.455 252.251 316.62 251.763 316.952C251.28 317.278 250.908 317.705 250.648 318.23C250.388 318.756 250.257 319.319 250.257 319.92V320.886C250.257 321.71 250.4 322.409 250.684 322.982C250.972 323.55 251.373 323.983 251.884 324.281C252.395 324.575 252.989 324.722 253.667 324.722C254.107 324.722 254.505 324.66 254.86 324.537C255.22 324.409 255.53 324.22 255.79 323.969C256.051 323.713 256.252 323.396 256.394 323.017L258.013 323.472C257.843 324.021 257.556 324.504 257.154 324.92C256.751 325.332 256.254 325.654 255.662 325.886C255.07 326.114 254.405 326.227 253.667 326.227ZM268.461 317.534L266.955 317.96C266.86 317.709 266.721 317.465 266.536 317.229C266.356 316.987 266.11 316.788 265.797 316.632C265.485 316.476 265.085 316.398 264.597 316.398C263.929 316.398 263.373 316.552 262.928 316.859C262.488 317.162 262.267 317.548 262.267 318.017C262.267 318.434 262.419 318.763 262.722 319.004C263.025 319.246 263.498 319.447 264.142 319.608L265.762 320.006C266.737 320.242 267.464 320.605 267.942 321.092C268.42 321.575 268.659 322.198 268.659 322.96C268.659 323.585 268.48 324.144 268.12 324.636C267.765 325.129 267.267 325.517 266.628 325.801C265.989 326.085 265.246 326.227 264.398 326.227C263.285 326.227 262.364 325.986 261.635 325.503C260.906 325.02 260.444 324.314 260.25 323.386L261.841 322.989C261.993 323.576 262.279 324.016 262.701 324.31C263.127 324.603 263.683 324.75 264.37 324.75C265.151 324.75 265.771 324.584 266.23 324.253C266.694 323.917 266.926 323.514 266.926 323.045C266.926 322.667 266.794 322.349 266.529 322.094C266.264 321.833 265.856 321.639 265.307 321.511L263.489 321.085C262.49 320.848 261.756 320.482 261.287 319.984C260.823 319.482 260.591 318.855 260.591 318.102C260.591 317.487 260.764 316.942 261.11 316.469C261.46 315.995 261.936 315.624 262.537 315.354C263.143 315.084 263.83 314.949 264.597 314.949C265.676 314.949 266.524 315.186 267.14 315.659C267.76 316.133 268.2 316.758 268.461 317.534ZM272.404 326.114C272.054 326.114 271.753 325.988 271.502 325.737C271.251 325.486 271.126 325.186 271.126 324.835C271.126 324.485 271.251 324.184 271.502 323.933C271.753 323.682 272.054 323.557 272.404 323.557C272.754 323.557 273.055 323.682 273.306 323.933C273.557 324.184 273.683 324.485 273.683 324.835C273.683 325.067 273.623 325.28 273.505 325.474C273.391 325.669 273.237 325.825 273.043 325.943C272.854 326.057 272.641 326.114 272.404 326.114ZM277.912 326.114C277.562 326.114 277.261 325.988 277.01 325.737C276.759 325.486 276.634 325.186 276.634 324.835C276.634 324.485 276.759 324.184 277.01 323.933C277.261 323.682 277.562 323.557 277.912 323.557C278.262 323.557 278.563 323.682 278.814 323.933C279.065 324.184 279.19 324.485 279.19 324.835C279.19 325.067 279.131 325.28 279.013 325.474C278.899 325.669 278.745 325.825 278.551 325.943C278.362 326.057 278.149 326.114 277.912 326.114ZM283.42 326.114C283.069 326.114 282.769 325.988 282.518 325.737C282.267 325.486 282.141 325.186 282.141 324.835C282.141 324.485 282.267 324.184 282.518 323.933C282.769 323.682 283.069 323.557 283.42 323.557C283.77 323.557 284.071 323.682 284.322 323.933C284.573 324.184 284.698 324.485 284.698 324.835C284.698 325.067 284.639 325.28 284.521 325.474C284.407 325.669 284.253 325.825 284.059 325.943C283.87 326.057 283.656 326.114 283.42 326.114Z" fill="white"/>
<path d="M199.82 173.661C207.374 175.854 213.993 179.708 219.4 184.707C219.322 186.841 218.423 188.464 216.496 188.838C211.553 184.126 205.437 180.498 198.426 178.463C175.089 171.688 150.679 185.114 143.904 208.451C141.309 217.391 141.681 226.487 144.436 234.69C143.988 237.754 142.268 238.459 140.156 237.591C136.673 228.119 136.073 217.492 139.102 207.057C146.647 181.068 173.832 166.116 199.82 173.661Z" fill="#2CA0C0"/>
</svg>
