<svg width="353" height="525" viewBox="0 0 353 525" fill="none" xmlns="http://www.w3.org/2000/svg">
<rect width="353" height="525" fill="#242424"/>
<path d="M43.988 59V32.4H55.274C56.8447 32.4 58.2633 32.78 59.53 33.54C60.822 34.2747 61.8353 35.288 62.57 36.58C63.33 37.872 63.71 39.3287 63.71 40.95C63.71 42.5967 63.33 44.0787 62.57 45.396C61.8353 46.7133 60.822 47.7647 59.53 48.55C58.2633 49.31 56.8447 49.69 55.274 49.69H49.688V59H43.988ZM49.612 44.56H54.628C55.236 44.56 55.7807 44.408 56.262 44.104C56.7433 43.7747 57.1233 43.344 57.402 42.812C57.706 42.28 57.858 41.672 57.858 40.988C57.858 40.304 57.706 39.7087 57.402 39.202C57.1233 38.67 56.7433 38.2647 56.262 37.986C55.7807 37.682 55.236 37.53 54.628 37.53H49.612V44.56ZM75.5871 59.38C73.9151 59.38 72.4077 58.924 71.0651 58.012C69.7224 57.1 68.6584 55.8587 67.8731 54.288C67.0877 52.7173 66.6951 50.9187 66.6951 48.892C66.6951 46.8653 67.0877 45.0793 67.8731 43.534C68.6837 41.9633 69.7731 40.7347 71.1411 39.848C72.5091 38.936 74.0671 38.48 75.8151 38.48C76.8031 38.48 77.7024 38.632 78.5131 38.936C79.3491 39.2147 80.0711 39.6073 80.6791 40.114C81.3124 40.6207 81.8444 41.2033 82.2751 41.862C82.7057 42.5207 83.0097 43.23 83.1871 43.99L82.0471 43.8V38.898H87.4051V59H81.9711V54.174L83.1871 54.06C82.9844 54.7693 82.6551 55.4407 82.1991 56.074C81.7431 56.7073 81.1731 57.2773 80.4891 57.784C79.8304 58.2653 79.0831 58.658 78.2471 58.962C77.4111 59.2407 76.5244 59.38 75.5871 59.38ZM77.0691 54.706C78.0824 54.706 78.9691 54.4653 79.7291 53.984C80.4891 53.5027 81.0717 52.8313 81.4771 51.97C81.9077 51.0833 82.1231 50.0573 82.1231 48.892C82.1231 47.752 81.9077 46.7513 81.4771 45.89C81.0717 45.0287 80.4891 44.3573 79.7291 43.876C78.9691 43.3693 78.0824 43.116 77.0691 43.116C76.0811 43.116 75.2071 43.3693 74.4471 43.876C73.7124 44.3573 73.1297 45.0287 72.6991 45.89C72.2684 46.7513 72.0531 47.752 72.0531 48.892C72.0531 50.0573 72.2684 51.0833 72.6991 51.97C73.1297 52.8313 73.7124 53.5027 74.4471 53.984C75.2071 54.4653 76.0811 54.706 77.0691 54.706ZM93.651 59V38.898H99.047V59H93.651ZM96.311 34.756C95.2724 34.756 94.4617 34.5027 93.879 33.996C93.2964 33.4893 93.005 32.7673 93.005 31.83C93.005 30.9687 93.2964 30.272 93.879 29.74C94.487 29.1827 95.2977 28.904 96.311 28.904C97.3497 28.904 98.1604 29.17 98.743 29.702C99.3257 30.2087 99.617 30.918 99.617 31.83C99.617 32.7167 99.313 33.426 98.705 33.958C98.1224 34.49 97.3244 34.756 96.311 34.756ZM105.19 59V38.898H110.396L110.586 45.358L109.674 44.028C109.978 42.9893 110.472 42.052 111.156 41.216C111.84 40.3547 112.638 39.6833 113.55 39.202C114.488 38.7207 115.463 38.48 116.476 38.48C116.907 38.48 117.325 38.518 117.73 38.594C118.136 38.67 118.478 38.7587 118.756 38.86L117.312 44.788C117.008 44.636 116.641 44.5093 116.21 44.408C115.78 44.2813 115.336 44.218 114.88 44.218C114.272 44.218 113.702 44.332 113.17 44.56C112.664 44.7627 112.22 45.0667 111.84 45.472C111.46 45.852 111.156 46.308 110.928 46.84C110.726 47.372 110.624 47.9547 110.624 48.588V59H105.19ZM137.077 67.74L141.485 57.404L141.561 60.52L131.757 38.898H137.875L142.777 50.488C142.979 50.9187 143.169 51.4253 143.347 52.008C143.549 52.5653 143.714 53.11 143.841 53.642L142.929 54.022C143.081 53.5913 143.258 53.0973 143.461 52.54C143.663 51.9827 143.866 51.3873 144.069 50.754L148.287 38.898H154.443L146.007 59L142.549 67.74H137.077ZM166.704 59.38C164.652 59.38 162.815 58.9367 161.194 58.05C159.598 57.138 158.331 55.8967 157.394 54.326C156.482 52.7553 156.026 50.9567 156.026 48.93C156.026 46.9033 156.482 45.1173 157.394 43.572C158.331 42.0013 159.598 40.76 161.194 39.848C162.815 38.936 164.652 38.48 166.704 38.48C168.73 38.48 170.542 38.936 172.138 39.848C173.759 40.76 175.026 42.0013 175.938 43.572C176.85 45.1173 177.306 46.9033 177.306 48.93C177.306 50.9567 176.85 52.7553 175.938 54.326C175.026 55.8967 173.759 57.138 172.138 58.05C170.542 58.9367 168.73 59.38 166.704 59.38ZM166.704 54.668C167.692 54.668 168.578 54.4273 169.364 53.946C170.149 53.4393 170.757 52.7553 171.188 51.894C171.644 51.0073 171.872 50.0193 171.872 48.93C171.872 47.8153 171.644 46.8273 171.188 45.966C170.757 45.0793 170.149 44.3953 169.364 43.914C168.578 43.4073 167.692 43.154 166.704 43.154C165.69 43.154 164.791 43.4073 164.006 43.914C163.22 44.4207 162.6 45.1047 162.144 45.966C161.688 46.8273 161.472 47.8153 161.498 48.93C161.472 50.0193 161.688 51.0073 162.144 51.894C162.6 52.7553 163.22 53.4393 164.006 53.946C164.791 54.4273 165.69 54.668 166.704 54.668ZM188.661 59.38C187.192 59.38 185.925 59.0633 184.861 58.43C183.823 57.7713 183.012 56.8467 182.429 55.656C181.872 54.44 181.593 52.9833 181.593 51.286V38.898H186.989V50.412C186.989 51.324 187.141 52.122 187.445 52.806C187.749 53.4647 188.18 53.9713 188.737 54.326C189.295 54.6807 189.979 54.858 190.789 54.858C191.372 54.858 191.917 54.7693 192.423 54.592C192.93 54.3893 193.361 54.1107 193.715 53.756C194.07 53.4013 194.349 52.9833 194.551 52.502C194.754 52.0207 194.855 51.5013 194.855 50.944V38.898H200.251V59H195.121L194.931 54.858L195.919 54.402C195.615 55.3393 195.109 56.188 194.399 56.948C193.69 57.708 192.841 58.3033 191.853 58.734C190.865 59.1647 189.801 59.38 188.661 59.38ZM206.061 59V38.898H211.267L211.457 45.358L210.545 44.028C210.849 42.9893 211.343 42.052 212.027 41.216C212.711 40.3547 213.509 39.6833 214.421 39.202C215.358 38.7207 216.334 38.48 217.347 38.48C217.778 38.48 218.196 38.518 218.601 38.594C219.006 38.67 219.348 38.7587 219.627 38.86L218.183 44.788C217.879 44.636 217.512 44.5093 217.081 44.408C216.65 44.2813 216.207 44.218 215.751 44.218C215.143 44.218 214.573 44.332 214.041 44.56C213.534 44.7627 213.091 45.0667 212.711 45.472C212.331 45.852 212.027 46.308 211.799 46.84C211.596 47.372 211.495 47.9547 211.495 48.588V59H206.061ZM241.443 59L233.007 38.898H238.935L244.293 53.908L243.039 54.136L248.663 38.898H254.439L245.585 59H241.443ZM267.096 59.38C264.918 59.38 263.018 58.9367 261.396 58.05C259.775 57.1633 258.508 55.9473 257.596 54.402C256.684 52.8567 256.228 51.0833 256.228 49.082C256.228 47.5367 256.482 46.118 256.988 44.826C257.495 43.534 258.204 42.4193 259.116 41.482C260.028 40.5193 261.105 39.7847 262.346 39.278C263.613 38.746 264.981 38.48 266.45 38.48C267.818 38.48 269.085 38.7333 270.25 39.24C271.416 39.7213 272.416 40.418 273.252 41.33C274.114 42.2167 274.772 43.268 275.228 44.484C275.684 45.7 275.887 47.03 275.836 48.474L275.798 50.146H259.648L258.774 46.84H271.352L270.744 47.524V46.688C270.694 46.004 270.466 45.3833 270.06 44.826C269.68 44.2687 269.186 43.838 268.578 43.534C267.97 43.23 267.286 43.078 266.526 43.078C265.412 43.078 264.462 43.2933 263.676 43.724C262.916 44.1547 262.334 44.788 261.928 45.624C261.523 46.46 261.32 47.4733 261.32 48.664C261.32 49.88 261.574 50.9313 262.08 51.818C262.612 52.7047 263.347 53.4013 264.284 53.908C265.247 54.3893 266.374 54.63 267.666 54.63C268.553 54.63 269.364 54.4907 270.098 54.212C270.833 53.9333 271.618 53.452 272.454 52.768L275.038 56.378C274.304 57.0367 273.493 57.594 272.606 58.05C271.72 58.4807 270.808 58.81 269.87 59.038C268.933 59.266 268.008 59.38 267.096 59.38ZM286.968 59.38C285.093 59.38 283.421 59.076 281.952 58.468C280.508 57.8347 279.343 56.9733 278.456 55.884L281.8 52.996C282.585 53.832 283.459 54.44 284.422 54.82C285.385 55.1747 286.347 55.352 287.31 55.352C287.69 55.352 288.032 55.314 288.336 55.238C288.665 55.1367 288.944 55.01 289.172 54.858C289.4 54.6807 289.565 54.478 289.666 54.25C289.793 53.9967 289.856 53.7307 289.856 53.452C289.856 52.8947 289.628 52.4513 289.172 52.122C288.919 51.9953 288.526 51.8433 287.994 51.666C287.462 51.4633 286.778 51.248 285.942 51.02C284.65 50.6907 283.548 50.3107 282.636 49.88C281.749 49.424 281.04 48.9173 280.508 48.36C280.052 47.828 279.697 47.258 279.444 46.65C279.216 46.0167 279.102 45.32 279.102 44.56C279.102 43.648 279.305 42.8247 279.71 42.09C280.115 41.33 280.673 40.684 281.382 40.152C282.117 39.62 282.953 39.2147 283.89 38.936C284.827 38.632 285.815 38.48 286.854 38.48C287.893 38.48 288.906 38.6067 289.894 38.86C290.882 39.1133 291.794 39.4807 292.63 39.962C293.491 40.418 294.239 40.9627 294.872 41.596L291.984 44.788C291.528 44.3573 291.009 43.9647 290.426 43.61C289.869 43.2553 289.286 42.9767 288.678 42.774C288.07 42.5713 287.525 42.47 287.044 42.47C286.613 42.47 286.221 42.508 285.866 42.584C285.537 42.66 285.258 42.774 285.03 42.926C284.802 43.078 284.625 43.2807 284.498 43.534C284.397 43.762 284.346 44.0153 284.346 44.294C284.346 44.5727 284.409 44.8387 284.536 45.092C284.688 45.3453 284.891 45.5607 285.144 45.738C285.423 45.89 285.828 46.0673 286.36 46.27C286.917 46.4727 287.665 46.7007 288.602 46.954C289.818 47.2833 290.844 47.6507 291.68 48.056C292.541 48.4613 293.225 48.93 293.732 49.462C294.163 49.918 294.479 50.4373 294.682 51.02C294.885 51.6027 294.986 52.2487 294.986 52.958C294.986 54.1993 294.631 55.314 293.922 56.302C293.238 57.2647 292.288 58.0247 291.072 58.582C289.856 59.114 288.488 59.38 286.968 59.38ZM301.151 59V33.806H306.547V59H301.151ZM297.389 43.724V38.898H310.651V43.724H297.389ZM91.7354 103V86.75H86.6104V85.5H98.2854V86.75H92.9854V103H91.7354ZM102.91 103.25C101.843 103.25 100.96 103.058 100.26 102.675C99.5768 102.292 99.0602 101.708 98.7102 100.925C98.3768 100.125 98.2102 99.1083 98.2102 97.875V90H99.4602V97.825C99.4602 98.7917 99.5852 99.5917 99.8352 100.225C100.085 100.842 100.468 101.3 100.985 101.6C101.502 101.9 102.152 102.05 102.935 102.05C103.552 102.05 104.127 101.942 104.66 101.725C105.193 101.492 105.66 101.192 106.06 100.825C106.46 100.442 106.768 100.008 106.985 99.525C107.218 99.025 107.335 98.5 107.335 97.95V90H108.585V103H107.385L107.26 100.25H107.41C107.227 100.8 106.902 101.3 106.435 101.75C105.968 102.2 105.418 102.567 104.785 102.85C104.168 103.117 103.543 103.25 102.91 103.25ZM112.224 103V90H113.424L113.549 92.9H113.374C113.558 92.35 113.841 91.8333 114.224 91.35C114.608 90.8667 115.074 90.475 115.624 90.175C116.191 89.875 116.841 89.725 117.574 89.725C117.858 89.725 118.116 89.75 118.349 89.8C118.599 89.8333 118.824 89.875 119.024 89.925L118.649 91.375C118.416 91.275 118.191 91.2083 117.974 91.175C117.758 91.1417 117.566 91.125 117.399 91.125C116.733 91.125 116.149 91.2417 115.649 91.475C115.166 91.7083 114.758 92.0333 114.424 92.45C114.108 92.85 113.866 93.3083 113.699 93.825C113.549 94.3417 113.474 94.8833 113.474 95.45V103H112.224ZM120.843 103V90H122.043L122.168 92.75H122.018C122.201 92.2 122.534 91.7 123.018 91.25C123.501 90.7833 124.076 90.4167 124.743 90.15C125.426 89.8667 126.143 89.725 126.893 89.725C127.809 89.725 128.584 89.9167 129.218 90.3C129.868 90.6833 130.351 91.275 130.668 92.075C131.001 92.875 131.168 93.8917 131.168 95.125V103H129.918V95.175C129.918 94.2083 129.784 93.4167 129.518 92.8C129.268 92.1667 128.893 91.7 128.393 91.4C127.893 91.0833 127.268 90.925 126.518 90.925C125.868 90.925 125.276 91.0417 124.743 91.275C124.209 91.4917 123.743 91.7917 123.343 92.175C122.943 92.5583 122.634 93 122.418 93.5C122.201 93.9833 122.093 94.5 122.093 95.05V103H121.468C121.451 103 121.393 103 121.293 103C121.209 103 121.059 103 120.843 103ZM147.465 103.25C146.165 103.25 145.007 102.958 143.99 102.375C142.99 101.792 142.198 100.983 141.615 99.95C141.048 98.9167 140.765 97.7417 140.765 96.425C140.765 95.125 141.048 93.975 141.615 92.975C142.198 91.9583 142.99 91.1667 143.99 90.6C145.007 90.0167 146.165 89.725 147.465 89.725C148.765 89.725 149.915 90.0167 150.915 90.6C151.932 91.1667 152.723 91.9583 153.29 92.975C153.857 93.975 154.14 95.125 154.14 96.425C154.14 97.7417 153.857 98.9167 153.29 99.95C152.723 100.983 151.932 101.792 150.915 102.375C149.915 102.958 148.765 103.25 147.465 103.25ZM147.465 102C148.498 102 149.415 101.758 150.215 101.275C151.032 100.792 151.665 100.133 152.115 99.3C152.582 98.4667 152.815 97.5083 152.815 96.425C152.815 95.375 152.582 94.4417 152.115 93.625C151.665 92.7917 151.032 92.1417 150.215 91.675C149.415 91.2083 148.498 90.975 147.465 90.975C146.415 90.975 145.482 91.2083 144.665 91.675C143.865 92.1417 143.232 92.7917 142.765 93.625C142.315 94.4417 142.09 95.375 142.09 96.425C142.09 97.5083 142.315 98.4667 142.765 99.3C143.232 100.133 143.865 100.792 144.665 101.275C145.482 101.758 146.415 102 147.465 102ZM156.756 103V90H157.956L158.081 92.75H157.931C158.114 92.2 158.447 91.7 158.931 91.25C159.414 90.7833 159.989 90.4167 160.656 90.15C161.339 89.8667 162.056 89.725 162.806 89.725C163.722 89.725 164.497 89.9167 165.131 90.3C165.781 90.6833 166.264 91.275 166.581 92.075C166.914 92.875 167.081 93.8917 167.081 95.125V103H165.831V95.175C165.831 94.2083 165.697 93.4167 165.431 92.8C165.181 92.1667 164.806 91.7 164.306 91.4C163.806 91.0833 163.181 90.925 162.431 90.925C161.781 90.925 161.189 91.0417 160.656 91.275C160.122 91.4917 159.656 91.7917 159.256 92.175C158.856 92.5583 158.547 93 158.331 93.5C158.114 93.9833 158.006 94.5 158.006 95.05V103H157.381C157.364 103 157.306 103 157.206 103C157.122 103 156.972 103 156.756 103ZM179.678 103V86.525H180.928V103H179.678ZM176.553 91.15V90H184.428V91.15H176.553ZM186.687 103V84.5H187.937V93L187.637 93.475C187.821 92.6917 188.171 92.025 188.687 91.475C189.204 90.9083 189.804 90.475 190.487 90.175C191.187 89.875 191.887 89.725 192.587 89.725C193.587 89.725 194.412 89.9167 195.062 90.3C195.729 90.6833 196.221 91.275 196.537 92.075C196.854 92.875 197.012 93.8917 197.012 95.125V103H195.762V95.175C195.762 94.2083 195.637 93.4167 195.387 92.8C195.137 92.1667 194.754 91.7 194.237 91.4C193.737 91.0833 193.096 90.925 192.312 90.925C191.696 90.925 191.121 91.0417 190.587 91.275C190.054 91.4917 189.587 91.7917 189.187 92.175C188.804 92.5583 188.496 93 188.262 93.5C188.046 93.9833 187.937 94.5 187.937 95.05V103H187.312C187.296 103 187.237 103 187.137 103C187.054 103 186.904 103 186.687 103ZM206.053 103.25C204.803 103.25 203.686 102.967 202.703 102.4C201.736 101.833 200.978 101.042 200.428 100.025C199.878 99.0083 199.603 97.825 199.603 96.475C199.603 95.4917 199.753 94.5917 200.053 93.775C200.369 92.9583 200.803 92.25 201.353 91.65C201.903 91.0333 202.561 90.5583 203.328 90.225C204.111 89.8917 204.961 89.725 205.878 89.725C206.778 89.725 207.586 89.875 208.303 90.175C209.036 90.475 209.653 90.9083 210.153 91.475C210.653 92.025 211.028 92.6833 211.278 93.45C211.528 94.2 211.636 95.0333 211.603 95.95L211.578 96.625H200.528V95.475H210.903L210.353 95.925V95.325C210.353 94.6583 210.186 93.9917 209.853 93.325C209.536 92.6583 209.044 92.1 208.378 91.65C207.711 91.2 206.869 90.975 205.853 90.975C204.903 90.975 204.053 91.1833 203.303 91.6C202.569 92.0167 201.986 92.625 201.553 93.425C201.136 94.225 200.928 95.2167 200.928 96.4C200.928 97.5333 201.136 98.525 201.553 99.375C201.969 100.208 202.569 100.858 203.353 101.325C204.153 101.775 205.128 102 206.278 102C206.894 102 207.528 101.9 208.178 101.7C208.828 101.5 209.561 101.067 210.378 100.4L211.028 101.325C210.661 101.675 210.228 102 209.728 102.3C209.228 102.583 208.669 102.817 208.053 103C207.436 103.167 206.769 103.25 206.053 103.25ZM224.986 103L219.511 90H220.961L225.611 101.475L225.086 101.825L230.336 90H231.736L225.836 103H224.986ZM238.816 103.25C237.566 103.25 236.45 102.967 235.466 102.4C234.5 101.833 233.741 101.042 233.191 100.025C232.641 99.0083 232.366 97.825 232.366 96.475C232.366 95.4917 232.516 94.5917 232.816 93.775C233.133 92.9583 233.566 92.25 234.116 91.65C234.666 91.0333 235.325 90.5583 236.091 90.225C236.875 89.8917 237.725 89.725 238.641 89.725C239.541 89.725 240.35 89.875 241.066 90.175C241.8 90.475 242.416 90.9083 242.916 91.475C243.416 92.025 243.791 92.6833 244.041 93.45C244.291 94.2 244.4 95.0333 244.366 95.95L244.341 96.625H233.291V95.475H243.666L243.116 95.925V95.325C243.116 94.6583 242.95 93.9917 242.616 93.325C242.3 92.6583 241.808 92.1 241.141 91.65C240.475 91.2 239.633 90.975 238.616 90.975C237.666 90.975 236.816 91.1833 236.066 91.6C235.333 92.0167 234.75 92.625 234.316 93.425C233.9 94.225 233.691 95.2167 233.691 96.4C233.691 97.5333 233.9 98.525 234.316 99.375C234.733 100.208 235.333 100.858 236.116 101.325C236.916 101.775 237.891 102 239.041 102C239.658 102 240.291 101.9 240.941 101.7C241.591 101.5 242.325 101.067 243.141 100.4L243.791 101.325C243.425 101.675 242.991 102 242.491 102.3C241.991 102.583 241.433 102.817 240.816 103C240.2 103.167 239.533 103.25 238.816 103.25ZM251.117 103.25C249.984 103.25 248.976 103.033 248.092 102.6C247.209 102.15 246.534 101.608 246.067 100.975L247.017 100.15C247.467 100.75 248.051 101.217 248.767 101.55C249.484 101.867 250.292 102.025 251.192 102.025C251.692 102.025 252.151 101.975 252.567 101.875C252.984 101.758 253.334 101.6 253.617 101.4C253.917 101.2 254.151 100.958 254.317 100.675C254.484 100.375 254.567 100.042 254.567 99.675C254.567 99.025 254.259 98.475 253.642 98.025C253.359 97.825 253.001 97.6417 252.567 97.475C252.134 97.3083 251.626 97.1417 251.042 96.975C250.159 96.7083 249.409 96.4583 248.792 96.225C248.176 95.9917 247.684 95.7 247.317 95.35C247.051 95.0667 246.851 94.7667 246.717 94.45C246.584 94.1167 246.517 93.7583 246.517 93.375C246.517 92.8417 246.626 92.3583 246.842 91.925C247.059 91.475 247.367 91.0833 247.767 90.75C248.167 90.4167 248.634 90.1667 249.167 90C249.701 89.8167 250.292 89.725 250.942 89.725C251.559 89.725 252.167 89.8167 252.767 90C253.367 90.1667 253.926 90.4083 254.442 90.725C254.959 91.0417 255.409 91.4083 255.792 91.825L254.942 92.75C254.609 92.3833 254.242 92.0583 253.842 91.775C253.459 91.4917 253.034 91.275 252.567 91.125C252.101 90.9583 251.584 90.875 251.017 90.875C250.567 90.875 250.142 90.9333 249.742 91.05C249.359 91.1667 249.026 91.3417 248.742 91.575C248.459 91.7917 248.234 92.05 248.067 92.35C247.917 92.6333 247.842 92.95 247.842 93.3C247.842 93.5667 247.892 93.8083 247.992 94.025C248.092 94.225 248.251 94.4167 248.467 94.6C248.751 94.8333 249.126 95.0333 249.592 95.2C250.076 95.3667 250.667 95.55 251.367 95.75C252.001 95.9167 252.559 96.0833 253.042 96.25C253.526 96.4167 253.942 96.6167 254.292 96.85C254.826 97.1833 255.217 97.575 255.467 98.025C255.734 98.475 255.867 98.9917 255.867 99.575C255.867 100.292 255.667 100.925 255.267 101.475C254.867 102.025 254.309 102.458 253.592 102.775C252.876 103.092 252.051 103.25 251.117 103.25ZM260.83 103V86.525H262.08V103H260.83ZM257.705 91.15V90H265.58V91.15H257.705Z" fill="white"/>
<rect width="136" height="53" rx="6" transform="matrix(1 0 0 -1 108 502)" fill="#2CA0C0"/>
<path d="M149.366 485V466.8H152.85L162.912 480.398H162.184C162.115 479.861 162.054 479.341 162.002 478.838C161.95 478.318 161.898 477.798 161.846 477.278C161.811 476.741 161.777 476.195 161.742 475.64C161.725 475.068 161.707 474.47 161.69 473.846C161.673 473.205 161.664 472.511 161.664 471.766V466.8H165.486V485H161.95L151.68 471.272L152.668 471.298C152.755 472.199 152.824 472.971 152.876 473.612C152.945 474.236 152.997 474.782 153.032 475.25C153.067 475.718 153.093 476.125 153.11 476.472C153.145 476.819 153.162 477.148 153.162 477.46C153.179 477.772 153.188 478.101 153.188 478.448V485H149.366ZM174.918 485.26C173.427 485.26 172.127 484.957 171.018 484.35C169.908 483.743 169.042 482.911 168.418 481.854C167.794 480.797 167.482 479.583 167.482 478.214C167.482 477.157 167.655 476.186 168.002 475.302C168.348 474.418 168.834 473.655 169.458 473.014C170.082 472.355 170.818 471.853 171.668 471.506C172.534 471.142 173.47 470.96 174.476 470.96C175.412 470.96 176.278 471.133 177.076 471.48C177.873 471.809 178.558 472.286 179.13 472.91C179.719 473.517 180.17 474.236 180.482 475.068C180.794 475.9 180.932 476.81 180.898 477.798L180.872 478.942H169.822L169.224 476.68H177.83L177.414 477.148V476.576C177.379 476.108 177.223 475.683 176.946 475.302C176.686 474.921 176.348 474.626 175.932 474.418C175.516 474.21 175.048 474.106 174.528 474.106C173.765 474.106 173.115 474.253 172.578 474.548C172.058 474.843 171.659 475.276 171.382 475.848C171.104 476.42 170.966 477.113 170.966 477.928C170.966 478.76 171.139 479.479 171.486 480.086C171.85 480.693 172.352 481.169 172.994 481.516C173.652 481.845 174.424 482.01 175.308 482.01C175.914 482.01 176.469 481.915 176.972 481.724C177.474 481.533 178.012 481.204 178.584 480.736L180.352 483.206C179.849 483.657 179.294 484.038 178.688 484.35C178.081 484.645 177.457 484.87 176.816 485.026C176.174 485.182 175.542 485.26 174.918 485.26ZM190.934 485L187.528 480.138L186.488 478.682L180.924 471.246H185.396L188.724 475.952L189.868 477.512L195.354 485H190.934ZM180.872 485L186.358 477.486L188.386 479.904L185.214 485H180.872ZM189.712 478.812L187.736 476.394L190.674 471.246H195.016L189.712 478.812ZM197.663 485V467.762H201.355V485H197.663ZM195.089 474.548V471.246H204.163V474.548H195.089Z" fill="white"/>
<circle cx="305" cy="329" r="8.5" stroke="white"/>
<circle cx="305" cy="329" r="6" fill="#D9D9D9"/>
<path d="M41.358 336H39.5114L44.8523 321.455H46.6705L52.0114 336H50.1648L45.8182 323.756H45.7045L41.358 336ZM42.0398 330.318H49.483V331.881H42.0398V330.318ZM55.7259 321.455V336H54.0497V321.455H55.7259ZM63.3697 336.227C62.3185 336.227 61.4118 335.995 60.6495 335.531C59.8919 335.062 59.3072 334.409 58.8952 333.571C58.488 332.728 58.2844 331.748 58.2844 330.631C58.2844 329.513 58.488 328.528 58.8952 327.676C59.3072 326.819 59.8801 326.152 60.614 325.673C61.3526 325.19 62.2144 324.949 63.1992 324.949C63.7674 324.949 64.3285 325.044 64.8825 325.233C65.4364 325.422 65.9407 325.73 66.3952 326.156C66.8498 326.578 67.212 327.136 67.4819 327.832C67.7518 328.528 67.8867 329.385 67.8867 330.403V331.114H59.4776V329.665H66.1822C66.1822 329.049 66.0591 328.5 65.8129 328.017C65.5714 327.534 65.2257 327.153 64.7759 326.874C64.3308 326.594 63.8053 326.455 63.1992 326.455C62.5316 326.455 61.954 326.62 61.4663 326.952C60.9833 327.278 60.6116 327.705 60.3512 328.23C60.0908 328.756 59.9606 329.319 59.9606 329.92V330.886C59.9606 331.71 60.1026 332.409 60.3867 332.982C60.6755 333.55 61.0756 333.983 61.587 334.281C62.0984 334.575 62.6926 334.722 63.3697 334.722C63.81 334.722 64.2077 334.66 64.5629 334.537C64.9227 334.409 65.2328 334.22 65.4933 333.969C65.7537 333.713 65.9549 333.396 66.0969 333.017L67.7163 333.472C67.5458 334.021 67.2594 334.504 66.8569 334.92C66.4544 335.332 65.9573 335.654 65.3654 335.886C64.7736 336.114 64.1083 336.227 63.3697 336.227ZM70.4364 336V325.091H72.0558V326.739H72.1694C72.3683 326.199 72.7281 325.761 73.2489 325.425C73.7698 325.089 74.3569 324.92 75.0103 324.92C75.1334 324.92 75.2873 324.923 75.4719 324.928C75.6566 324.932 75.7963 324.939 75.891 324.949V326.653C75.8342 326.639 75.704 326.618 75.5004 326.589C75.3015 326.556 75.0908 326.54 74.8683 326.54C74.338 326.54 73.8645 326.651 73.4478 326.874C73.0359 327.091 72.7092 327.394 72.4677 327.783C72.2309 328.166 72.1126 328.604 72.1126 329.097V336H70.4364ZM83.3058 325.091V326.511H77.6523V325.091H83.3058ZM79.3001 322.477H80.9762V332.875C80.9762 333.348 81.0449 333.704 81.1822 333.94C81.3242 334.172 81.5041 334.329 81.7219 334.409C81.9445 334.485 82.1789 334.523 82.4251 334.523C82.6097 334.523 82.7612 334.513 82.8796 334.494C82.998 334.471 83.0927 334.452 83.1637 334.438L83.5046 335.943C83.391 335.986 83.2324 336.028 83.0288 336.071C82.8252 336.118 82.5671 336.142 82.2546 336.142C81.7811 336.142 81.3171 336.04 80.8626 335.837C80.4128 335.633 80.0387 335.323 79.7404 334.906C79.4469 334.49 79.3001 333.964 79.3001 333.33V322.477ZM92.2759 321.455L96.5941 333.699H96.7646L101.083 321.455H102.929L97.5884 336H95.7702L90.4293 321.455H92.2759ZM108.526 336.227C107.475 336.227 106.568 335.995 105.806 335.531C105.048 335.062 104.463 334.409 104.051 333.571C103.644 332.728 103.441 331.748 103.441 330.631C103.441 329.513 103.644 328.528 104.051 327.676C104.463 326.819 105.036 326.152 105.77 325.673C106.509 325.19 107.371 324.949 108.355 324.949C108.924 324.949 109.485 325.044 110.039 325.233C110.593 325.422 111.097 325.73 111.551 326.156C112.006 326.578 112.368 327.136 112.638 327.832C112.908 328.528 113.043 329.385 113.043 330.403V331.114H104.634V329.665H111.338C111.338 329.049 111.215 328.5 110.969 328.017C110.728 327.534 110.382 327.153 109.932 326.874C109.487 326.594 108.962 326.455 108.355 326.455C107.688 326.455 107.11 326.62 106.623 326.952C106.14 327.278 105.768 327.705 105.507 328.23C105.247 328.756 105.117 329.319 105.117 329.92V330.886C105.117 331.71 105.259 332.409 105.543 332.982C105.832 333.55 106.232 333.983 106.743 334.281C107.255 334.575 107.849 334.722 108.526 334.722C108.966 334.722 109.364 334.66 109.719 334.537C110.079 334.409 110.389 334.22 110.65 333.969C110.91 333.713 111.111 333.396 111.253 333.017L112.873 333.472C112.702 334.021 112.416 334.504 112.013 334.92C111.611 335.332 111.114 335.654 110.522 335.886C109.93 336.114 109.265 336.227 108.526 336.227ZM123.32 327.534L121.814 327.96C121.72 327.709 121.58 327.465 121.395 327.229C121.215 326.987 120.969 326.788 120.657 326.632C120.344 326.476 119.944 326.398 119.456 326.398C118.789 326.398 118.232 326.552 117.787 326.859C117.347 327.162 117.127 327.548 117.127 328.017C117.127 328.434 117.278 328.763 117.581 329.004C117.884 329.246 118.358 329.447 119.002 329.608L120.621 330.006C121.596 330.242 122.323 330.605 122.801 331.092C123.28 331.575 123.519 332.198 123.519 332.96C123.519 333.585 123.339 334.144 122.979 334.636C122.624 335.129 122.127 335.517 121.488 335.801C120.848 336.085 120.105 336.227 119.257 336.227C118.145 336.227 117.224 335.986 116.495 335.503C115.766 335.02 115.304 334.314 115.11 333.386L116.701 332.989C116.852 333.576 117.139 334.016 117.56 334.31C117.986 334.603 118.542 334.75 119.229 334.75C120.01 334.75 120.631 334.584 121.09 334.253C121.554 333.917 121.786 333.514 121.786 333.045C121.786 332.667 121.653 332.349 121.388 332.094C121.123 331.833 120.716 331.639 120.167 331.511L118.348 331.085C117.349 330.848 116.615 330.482 116.147 329.984C115.683 329.482 115.451 328.855 115.451 328.102C115.451 327.487 115.623 326.942 115.969 326.469C116.319 325.995 116.795 325.624 117.397 325.354C118.003 325.084 118.689 324.949 119.456 324.949C120.536 324.949 121.383 325.186 121.999 325.659C122.619 326.133 123.06 326.758 123.32 327.534ZM130.786 325.091V326.511H125.133V325.091H130.786ZM126.781 322.477H128.457V332.875C128.457 333.348 128.525 333.704 128.663 333.94C128.805 334.172 128.985 334.329 129.202 334.409C129.425 334.485 129.659 334.523 129.906 334.523C130.09 334.523 130.242 334.513 130.36 334.494C130.478 334.471 130.573 334.452 130.644 334.438L130.985 335.943C130.871 335.986 130.713 336.028 130.509 336.071C130.306 336.118 130.048 336.142 129.735 336.142C129.262 336.142 128.798 336.04 128.343 335.837C127.893 335.633 127.519 335.323 127.221 334.906C126.927 334.49 126.781 333.964 126.781 333.33V322.477ZM145.183 327.946V329.509H138.819V327.946H145.183ZM158.359 321.256C158.956 321.26 159.552 321.374 160.149 321.597C160.745 321.819 161.29 322.188 161.782 322.705C162.275 323.216 162.67 323.914 162.968 324.8C163.267 325.685 163.416 326.795 163.416 328.131C163.416 329.423 163.293 330.571 163.047 331.575C162.805 332.574 162.455 333.417 161.995 334.104C161.541 334.79 160.987 335.311 160.333 335.666C159.685 336.021 158.951 336.199 158.132 336.199C157.317 336.199 156.591 336.038 155.951 335.716C155.317 335.389 154.796 334.937 154.389 334.359C153.986 333.777 153.728 333.102 153.615 332.335H155.348C155.504 333.003 155.814 333.554 156.278 333.99C156.747 334.421 157.365 334.636 158.132 334.636C159.254 334.636 160.139 334.146 160.788 333.166C161.441 332.186 161.768 330.801 161.768 329.011H161.654C161.389 329.409 161.074 329.752 160.71 330.041C160.345 330.33 159.94 330.553 159.495 330.709C159.05 330.865 158.577 330.943 158.075 330.943C157.242 330.943 156.477 330.737 155.781 330.325C155.09 329.909 154.536 329.338 154.119 328.614C153.707 327.884 153.501 327.051 153.501 326.114C153.501 325.223 153.7 324.409 154.098 323.67C154.5 322.927 155.064 322.335 155.788 321.895C156.517 321.455 157.374 321.241 158.359 321.256ZM158.359 322.818C157.762 322.818 157.225 322.967 156.747 323.266C156.273 323.559 155.897 323.957 155.618 324.459C155.343 324.956 155.206 325.508 155.206 326.114C155.206 326.72 155.338 327.271 155.603 327.768C155.873 328.261 156.24 328.654 156.704 328.947C157.173 329.236 157.706 329.381 158.302 329.381C158.752 329.381 159.171 329.293 159.559 329.118C159.948 328.938 160.286 328.694 160.575 328.386C160.868 328.074 161.098 327.721 161.264 327.328C161.43 326.93 161.512 326.516 161.512 326.085C161.512 325.517 161.375 324.984 161.1 324.487C160.831 323.99 160.457 323.588 159.978 323.28C159.505 322.972 158.965 322.818 158.359 322.818ZM166.273 336L172.778 323.131V323.017H165.278V321.455H174.597V323.102L168.119 336H166.273ZM181.679 321.256C182.276 321.26 182.873 321.374 183.469 321.597C184.066 321.819 184.61 322.188 185.103 322.705C185.595 323.216 185.99 323.914 186.289 324.8C186.587 325.685 186.736 326.795 186.736 328.131C186.736 329.423 186.613 330.571 186.367 331.575C186.125 332.574 185.775 333.417 185.316 334.104C184.861 334.79 184.307 335.311 183.654 335.666C183.005 336.021 182.271 336.199 181.452 336.199C180.638 336.199 179.911 336.038 179.272 335.716C178.637 335.389 178.116 334.937 177.709 334.359C177.307 333.777 177.049 333.102 176.935 332.335H178.668C178.824 333.003 179.134 333.554 179.598 333.99C180.067 334.421 180.685 334.636 181.452 334.636C182.574 334.636 183.46 334.146 184.108 333.166C184.762 332.186 185.088 330.801 185.088 329.011H184.975C184.71 329.409 184.395 329.752 184.03 330.041C183.666 330.33 183.261 330.553 182.816 330.709C182.371 330.865 181.897 330.943 181.395 330.943C180.562 330.943 179.797 330.737 179.101 330.325C178.41 329.909 177.856 329.338 177.439 328.614C177.027 327.884 176.821 327.051 176.821 326.114C176.821 325.223 177.02 324.409 177.418 323.67C177.82 322.927 178.384 322.335 179.108 321.895C179.837 321.455 180.694 321.241 181.679 321.256ZM181.679 322.818C181.083 322.818 180.545 322.967 180.067 323.266C179.594 323.559 179.217 323.957 178.938 324.459C178.663 324.956 178.526 325.508 178.526 326.114C178.526 326.72 178.658 327.271 178.924 327.768C179.194 328.261 179.56 328.654 180.025 328.947C180.493 329.236 181.026 329.381 181.623 329.381C182.072 329.381 182.491 329.293 182.88 329.118C183.268 328.938 183.606 328.694 183.895 328.386C184.189 328.074 184.418 327.721 184.584 327.328C184.75 326.93 184.833 326.516 184.833 326.085C184.833 325.517 184.695 324.984 184.421 324.487C184.151 323.99 183.777 323.588 183.299 323.28C182.825 322.972 182.285 322.818 181.679 322.818ZM194.444 336.199C193.506 336.199 192.671 336.038 191.937 335.716C191.208 335.394 190.628 334.946 190.197 334.374C189.771 333.796 189.539 333.126 189.501 332.364H191.29C191.328 332.832 191.489 333.237 191.773 333.578C192.058 333.914 192.429 334.175 192.888 334.359C193.348 334.544 193.857 334.636 194.415 334.636C195.04 334.636 195.594 334.527 196.077 334.31C196.56 334.092 196.939 333.789 197.214 333.401C197.488 333.012 197.626 332.562 197.626 332.051C197.626 331.516 197.493 331.045 197.228 330.638C196.963 330.226 196.575 329.904 196.063 329.672C195.552 329.44 194.927 329.324 194.188 329.324H193.023V327.761H194.188C194.766 327.761 195.272 327.657 195.708 327.449C196.148 327.241 196.492 326.947 196.738 326.568C196.989 326.189 197.114 325.744 197.114 325.233C197.114 324.741 197.005 324.312 196.788 323.947C196.57 323.583 196.262 323.299 195.864 323.095C195.471 322.892 195.007 322.79 194.472 322.79C193.97 322.79 193.497 322.882 193.052 323.067C192.612 323.247 192.252 323.509 191.972 323.855C191.693 324.196 191.541 324.608 191.518 325.091H189.813C189.842 324.329 190.071 323.661 190.502 323.088C190.933 322.51 191.496 322.061 192.192 321.739C192.893 321.417 193.663 321.256 194.501 321.256C195.4 321.256 196.172 321.438 196.816 321.803C197.46 322.162 197.955 322.638 198.3 323.23C198.646 323.822 198.819 324.461 198.819 325.148C198.819 325.967 198.603 326.665 198.173 327.243C197.746 327.821 197.166 328.221 196.433 328.443V328.557C197.351 328.708 198.068 329.099 198.585 329.729C199.101 330.354 199.359 331.128 199.359 332.051C199.359 332.842 199.143 333.552 198.712 334.182C198.286 334.807 197.704 335.299 196.965 335.659C196.227 336.019 195.386 336.199 194.444 336.199ZM206.809 336.199C205.976 336.199 205.225 336.033 204.558 335.702C203.89 335.37 203.355 334.916 202.952 334.338C202.55 333.76 202.33 333.102 202.292 332.364H203.996C204.063 333.022 204.361 333.566 204.891 333.997C205.426 334.423 206.066 334.636 206.809 334.636C207.406 334.636 207.936 334.497 208.4 334.217C208.869 333.938 209.236 333.554 209.501 333.067C209.771 332.574 209.906 332.018 209.906 331.398C209.906 330.763 209.766 330.197 209.487 329.7C209.212 329.198 208.833 328.803 208.35 328.514C207.867 328.225 207.316 328.079 206.695 328.074C206.25 328.069 205.793 328.138 205.325 328.28C204.856 328.417 204.47 328.595 204.167 328.812L202.519 328.614L203.4 321.455H210.957V323.017H204.877L204.366 327.307H204.451C204.749 327.07 205.123 326.874 205.573 326.717C206.023 326.561 206.492 326.483 206.979 326.483C207.87 326.483 208.663 326.696 209.359 327.122C210.059 327.544 210.609 328.121 211.006 328.855C211.409 329.589 211.61 330.427 211.61 331.369C211.61 332.297 211.402 333.126 210.985 333.855C210.573 334.58 210.005 335.152 209.281 335.574C208.556 335.991 207.732 336.199 206.809 336.199Z" fill="white"/>
<g opacity="0.4">
<circle cx="305" cy="292" r="8.5" stroke="white"/>
<path d="M40.7614 299V284.455H49.5398V286.017H42.5227V290.932H49.0852V292.494H42.5227V297.438H49.6534V299H40.7614ZM64.2486 284.455V299H62.544L54.6179 287.58H54.4759V299H52.7145V284.455H54.419L62.3736 295.903H62.5156V284.455H64.2486ZM68.3697 284.455L72.6879 296.699H72.8583L77.1765 284.455H79.0231L73.6822 299H71.864L66.5231 284.455H68.3697ZM80.0387 284.455H82.0558L86.0898 291.244H86.2603L90.2944 284.455H92.3114L87.0558 293.006V299H85.2944V293.006L80.0387 284.455ZM100.214 299V284.455H105.129C106.27 284.455 107.203 284.661 107.928 285.072C108.657 285.48 109.196 286.031 109.547 286.727C109.897 287.423 110.072 288.2 110.072 289.057C110.072 289.914 109.897 290.693 109.547 291.393C109.201 292.094 108.666 292.653 107.942 293.07C107.217 293.482 106.289 293.688 105.158 293.688H101.635V292.125H105.101C105.882 292.125 106.509 291.99 106.983 291.72C107.456 291.45 107.8 291.086 108.013 290.626C108.231 290.162 108.339 289.639 108.339 289.057C108.339 288.474 108.231 287.954 108.013 287.494C107.8 287.035 107.454 286.675 106.976 286.415C106.498 286.15 105.863 286.017 105.072 286.017H101.976V299H100.214ZM114.359 292.438V299H112.683V284.455H114.359V289.795H114.501C114.756 289.232 115.14 288.785 115.651 288.453C116.167 288.117 116.854 287.949 117.711 287.949C118.454 287.949 119.105 288.098 119.664 288.396C120.223 288.69 120.656 289.142 120.964 289.753C121.276 290.359 121.433 291.131 121.433 292.068V299H119.756V292.182C119.756 291.315 119.531 290.645 119.082 290.172C118.637 289.694 118.019 289.455 117.228 289.455C116.679 289.455 116.186 289.571 115.751 289.803C115.32 290.035 114.979 290.373 114.728 290.818C114.482 291.263 114.359 291.803 114.359 292.438ZM128.931 299.227C127.946 299.227 127.082 298.993 126.338 298.524C125.6 298.055 125.022 297.4 124.605 296.557C124.194 295.714 123.988 294.729 123.988 293.602C123.988 292.466 124.194 291.474 124.605 290.626C125.022 289.779 125.6 289.121 126.338 288.652C127.082 288.183 127.946 287.949 128.931 287.949C129.916 287.949 130.777 288.183 131.516 288.652C132.259 289.121 132.837 289.779 133.249 290.626C133.666 291.474 133.874 292.466 133.874 293.602C133.874 294.729 133.666 295.714 133.249 296.557C132.837 297.4 132.259 298.055 131.516 298.524C130.777 298.993 129.916 299.227 128.931 299.227ZM128.931 297.722C129.679 297.722 130.294 297.53 130.777 297.146C131.26 296.763 131.618 296.259 131.85 295.634C132.082 295.009 132.198 294.331 132.198 293.602C132.198 292.873 132.082 292.194 131.85 291.564C131.618 290.934 131.26 290.425 130.777 290.037C130.294 289.649 129.679 289.455 128.931 289.455C128.183 289.455 127.567 289.649 127.084 290.037C126.601 290.425 126.244 290.934 126.012 291.564C125.78 292.194 125.664 292.873 125.664 293.602C125.664 294.331 125.78 295.009 126.012 295.634C126.244 296.259 126.601 296.763 127.084 297.146C127.567 297.53 128.183 297.722 128.931 297.722ZM141.177 288.091V289.511H135.523V288.091H141.177ZM137.171 285.477H138.847V295.875C138.847 296.348 138.916 296.704 139.053 296.94C139.195 297.172 139.375 297.329 139.593 297.409C139.816 297.485 140.05 297.523 140.296 297.523C140.481 297.523 140.632 297.513 140.751 297.494C140.869 297.471 140.964 297.452 141.035 297.438L141.376 298.943C141.262 298.986 141.103 299.028 140.9 299.071C140.696 299.118 140.438 299.142 140.126 299.142C139.652 299.142 139.188 299.04 138.734 298.837C138.284 298.633 137.91 298.323 137.612 297.906C137.318 297.49 137.171 296.964 137.171 296.33V285.477ZM148.013 299.227C147.028 299.227 146.164 298.993 145.42 298.524C144.682 298.055 144.104 297.4 143.688 296.557C143.276 295.714 143.07 294.729 143.07 293.602C143.07 292.466 143.276 291.474 143.688 290.626C144.104 289.779 144.682 289.121 145.42 288.652C146.164 288.183 147.028 287.949 148.013 287.949C148.998 287.949 149.859 288.183 150.598 288.652C151.341 289.121 151.919 289.779 152.331 290.626C152.748 291.474 152.956 292.466 152.956 293.602C152.956 294.729 152.748 295.714 152.331 296.557C151.919 297.4 151.341 298.055 150.598 298.524C149.859 298.993 148.998 299.227 148.013 299.227ZM148.013 297.722C148.761 297.722 149.376 297.53 149.859 297.146C150.342 296.763 150.7 296.259 150.932 295.634C151.164 295.009 151.28 294.331 151.28 293.602C151.28 292.873 151.164 292.194 150.932 291.564C150.7 290.934 150.342 290.425 149.859 290.037C149.376 289.649 148.761 289.455 148.013 289.455C147.265 289.455 146.649 289.649 146.166 290.037C145.683 290.425 145.326 290.934 145.094 291.564C144.862 292.194 144.746 292.873 144.746 293.602C144.746 294.331 144.862 295.009 145.094 295.634C145.326 296.259 145.683 296.763 146.166 297.146C146.649 297.53 147.265 297.722 148.013 297.722ZM167.191 299L173.696 286.131V286.017H166.196V284.455H175.515V286.102L169.037 299H167.191ZM183.276 284.455V299H181.514V286.301H181.429L177.878 288.659V286.869L181.514 284.455H183.276ZM192.203 299.199C191.133 299.199 190.222 298.908 189.469 298.325C188.716 297.738 188.141 296.888 187.743 295.776C187.345 294.658 187.146 293.309 187.146 291.727C187.146 290.155 187.345 288.813 187.743 287.7C188.145 286.583 188.723 285.731 189.476 285.143C190.233 284.552 191.143 284.256 192.203 284.256C193.264 284.256 194.17 284.552 194.923 285.143C195.681 285.731 196.259 286.583 196.656 287.7C197.059 288.813 197.26 290.155 197.26 291.727C197.26 293.309 197.061 294.658 196.663 295.776C196.266 296.888 195.69 297.738 194.938 298.325C194.185 298.908 193.273 299.199 192.203 299.199ZM192.203 297.636C193.264 297.636 194.088 297.125 194.675 296.102C195.262 295.08 195.555 293.621 195.555 291.727C195.555 290.468 195.42 289.395 195.151 288.51C194.885 287.625 194.502 286.95 194 286.486C193.503 286.022 192.904 285.79 192.203 285.79C191.152 285.79 190.33 286.308 189.739 287.345C189.147 288.377 188.851 289.838 188.851 291.727C188.851 292.987 188.983 294.057 189.249 294.938C189.514 295.818 189.895 296.488 190.392 296.947C190.894 297.407 191.498 297.636 192.203 297.636ZM204.703 299.199C203.633 299.199 202.722 298.908 201.969 298.325C201.216 297.738 200.641 296.888 200.243 295.776C199.845 294.658 199.646 293.309 199.646 291.727C199.646 290.155 199.845 288.813 200.243 287.7C200.645 286.583 201.223 285.731 201.976 285.143C202.733 284.552 203.643 284.256 204.703 284.256C205.764 284.256 206.67 284.552 207.423 285.143C208.181 285.731 208.759 286.583 209.156 287.7C209.559 288.813 209.76 290.155 209.76 291.727C209.76 293.309 209.561 294.658 209.163 295.776C208.766 296.888 208.19 297.738 207.438 298.325C206.685 298.908 205.773 299.199 204.703 299.199ZM204.703 297.636C205.764 297.636 206.588 297.125 207.175 296.102C207.762 295.08 208.055 293.621 208.055 291.727C208.055 290.468 207.92 289.395 207.651 288.51C207.385 287.625 207.002 286.95 206.5 286.486C206.003 286.022 205.404 285.79 204.703 285.79C203.652 285.79 202.83 286.308 202.239 287.345C201.647 288.377 201.351 289.838 201.351 291.727C201.351 292.987 201.483 294.057 201.749 294.938C202.014 295.818 202.395 296.488 202.892 296.947C203.394 297.407 203.998 297.636 204.703 297.636Z" fill="white"/>
</g>
<g opacity="0.4">
<circle cx="305" cy="366" r="8.5" stroke="white"/>
<path d="M48.7159 362.091C48.6307 361.371 48.285 360.812 47.679 360.415C47.0729 360.017 46.3295 359.818 45.4489 359.818C44.8049 359.818 44.2415 359.922 43.7585 360.131C43.2803 360.339 42.9063 360.625 42.6364 360.99C42.3712 361.355 42.2386 361.769 42.2386 362.233C42.2386 362.621 42.331 362.955 42.5156 363.234C42.705 363.509 42.9465 363.739 43.2401 363.923C43.5336 364.103 43.8414 364.252 44.1634 364.371C44.4853 364.484 44.7812 364.577 45.0511 364.648L46.5284 365.045C46.9072 365.145 47.3286 365.282 47.7926 365.457C48.2614 365.633 48.7088 365.872 49.1349 366.175C49.5658 366.473 49.9209 366.857 50.2003 367.325C50.4796 367.794 50.6193 368.369 50.6193 369.051C50.6193 369.837 50.4134 370.547 50.0014 371.182C49.5942 371.816 48.9976 372.321 48.2116 372.695C47.4304 373.069 46.4811 373.256 45.3636 373.256C44.322 373.256 43.42 373.088 42.6577 372.751C41.9001 372.415 41.3035 371.946 40.8679 371.345C40.437 370.744 40.1932 370.045 40.1364 369.25H41.9545C42.0019 369.799 42.1866 370.254 42.5085 370.614C42.8352 370.969 43.2472 371.234 43.7443 371.409C44.2462 371.58 44.786 371.665 45.3636 371.665C46.036 371.665 46.6397 371.556 47.1747 371.338C47.7098 371.116 48.1335 370.808 48.446 370.415C48.7585 370.017 48.9148 369.553 48.9148 369.023C48.9148 368.54 48.7798 368.147 48.5099 367.844C48.2401 367.541 47.8849 367.295 47.4446 367.105C47.0043 366.916 46.5284 366.75 46.017 366.608L44.2273 366.097C43.0909 365.77 42.1913 365.304 41.5284 364.697C40.8655 364.091 40.5341 363.298 40.5341 362.318C40.5341 361.504 40.7543 360.794 41.1946 360.188C41.6397 359.577 42.2363 359.103 42.9844 358.767C43.7372 358.426 44.5777 358.256 45.5057 358.256C46.4432 358.256 47.2765 358.424 48.0057 358.76C48.7348 359.091 49.3125 359.546 49.7386 360.124C50.1695 360.701 50.3968 361.357 50.4205 362.091H48.7159ZM56.4982 373.256C55.8069 373.256 55.1796 373.125 54.6161 372.865C54.0527 372.6 53.6052 372.219 53.2738 371.722C52.9424 371.22 52.7766 370.614 52.7766 369.903C52.7766 369.278 52.8997 368.772 53.146 368.384C53.3922 367.991 53.7212 367.683 54.1332 367.46C54.5451 367.238 54.9996 367.072 55.4968 366.963C55.9987 366.849 56.503 366.759 57.0096 366.693C57.6725 366.608 58.2099 366.544 58.6218 366.501C59.0385 366.454 59.3415 366.376 59.5309 366.267C59.725 366.158 59.8221 365.969 59.8221 365.699V365.642C59.8221 364.941 59.6303 364.397 59.2468 364.009C58.868 363.62 58.2927 363.426 57.521 363.426C56.7208 363.426 56.0934 363.601 55.6388 363.952C55.1843 364.302 54.8647 364.676 54.68 365.074L53.0891 364.506C53.3732 363.843 53.752 363.327 54.2255 362.957C54.7037 362.583 55.2246 362.323 55.788 362.176C56.3562 362.025 56.9149 361.949 57.4641 361.949C57.8145 361.949 58.217 361.991 58.6715 362.077C59.1308 362.157 59.5735 362.325 59.9996 362.581C60.4305 362.837 60.788 363.223 61.0721 363.739C61.3562 364.255 61.4982 364.946 61.4982 365.812V373H59.8221V371.523H59.7369C59.6232 371.759 59.4338 372.013 59.1687 372.283C58.9035 372.553 58.5508 372.782 58.1104 372.972C57.6701 373.161 57.1327 373.256 56.4982 373.256ZM56.7539 371.75C57.4168 371.75 57.9755 371.62 58.43 371.359C58.8893 371.099 59.235 370.763 59.467 370.351C59.7037 369.939 59.8221 369.506 59.8221 369.051V367.517C59.7511 367.602 59.5948 367.68 59.3533 367.751C59.1166 367.818 58.842 367.877 58.5295 367.929C58.2217 367.976 57.921 368.019 57.6275 368.057C57.3387 368.09 57.1043 368.118 56.9244 368.142C56.4888 368.199 56.0816 368.291 55.7028 368.419C55.3287 368.542 55.0257 368.729 54.7937 368.98C54.5664 369.226 54.4528 369.562 54.4528 369.989C54.4528 370.571 54.6682 371.011 55.0991 371.31C55.5347 371.603 56.0863 371.75 56.7539 371.75ZM64.5575 373V362.091H66.1768V363.795H66.3189C66.5462 363.213 66.9131 362.761 67.4197 362.439C67.9264 362.112 68.5348 361.949 69.245 361.949C69.9647 361.949 70.5637 362.112 71.0419 362.439C71.5249 362.761 71.9013 363.213 72.1712 363.795H72.2848C72.5642 363.232 72.9832 362.785 73.5419 362.453C74.1006 362.117 74.7706 361.949 75.5518 361.949C76.5272 361.949 77.325 362.254 77.9453 362.865C78.5656 363.471 78.8757 364.416 78.8757 365.699V373H77.1996V365.699C77.1996 364.894 76.9794 364.319 76.5391 363.973C76.0987 363.627 75.5803 363.455 74.9837 363.455C74.2166 363.455 73.6224 363.687 73.201 364.151C72.7796 364.61 72.5689 365.192 72.5689 365.898V373H70.8643V365.528C70.8643 364.908 70.6631 364.409 70.2607 364.03C69.8582 363.646 69.3397 363.455 68.7053 363.455C68.2696 363.455 67.8625 363.571 67.4837 363.803C67.1096 364.035 66.8066 364.357 66.5746 364.768C66.3473 365.176 66.2337 365.647 66.2337 366.182V373H64.5575ZM89.6676 364.534L88.1619 364.96C88.0672 364.709 87.9276 364.465 87.7429 364.229C87.563 363.987 87.3168 363.788 87.0043 363.632C86.6918 363.476 86.2917 363.398 85.804 363.398C85.1364 363.398 84.58 363.552 84.1349 363.859C83.6946 364.162 83.4744 364.548 83.4744 365.017C83.4744 365.434 83.6259 365.763 83.929 366.004C84.232 366.246 84.7055 366.447 85.3494 366.608L86.9688 367.006C87.9441 367.242 88.6709 367.605 89.1491 368.092C89.6274 368.575 89.8665 369.198 89.8665 369.96C89.8665 370.585 89.6866 371.144 89.3267 371.636C88.9716 372.129 88.4744 372.517 87.8352 372.801C87.196 373.085 86.4527 373.227 85.6051 373.227C84.4924 373.227 83.5715 372.986 82.8423 372.503C82.1132 372.02 81.6515 371.314 81.4574 370.386L83.0483 369.989C83.1998 370.576 83.4863 371.016 83.9077 371.31C84.3338 371.603 84.8902 371.75 85.5767 371.75C86.358 371.75 86.9782 371.584 87.4375 371.253C87.9015 370.917 88.1335 370.514 88.1335 370.045C88.1335 369.667 88.0009 369.349 87.7358 369.094C87.4706 368.833 87.0634 368.639 86.5142 368.511L84.696 368.085C83.697 367.848 82.9631 367.482 82.4943 366.984C82.0303 366.482 81.7983 365.855 81.7983 365.102C81.7983 364.487 81.9711 363.942 82.3168 363.469C82.6671 362.995 83.143 362.624 83.7443 362.354C84.3504 362.084 85.0369 361.949 85.804 361.949C86.8835 361.949 87.7311 362.186 88.3466 362.659C88.9669 363.133 89.4072 363.758 89.6676 364.534ZM99.2646 368.54V362.091H100.941V373H99.2646V371.153H99.1509C98.8952 371.707 98.4975 372.179 97.9577 372.567C97.418 372.95 96.7362 373.142 95.9123 373.142C95.2305 373.142 94.6244 372.993 94.0941 372.695C93.5638 372.392 93.1471 371.937 92.8441 371.331C92.5411 370.72 92.3896 369.951 92.3896 369.023V362.091H94.0657V368.909C94.0657 369.705 94.2882 370.339 94.7333 370.812C95.1831 371.286 95.756 371.523 96.4521 371.523C96.8687 371.523 97.2925 371.416 97.7234 371.203C98.159 370.99 98.5236 370.663 98.8171 370.223C99.1154 369.783 99.2646 369.222 99.2646 368.54ZM105.687 366.438V373H104.011V362.091H105.63V363.795H105.772C106.028 363.241 106.416 362.796 106.937 362.46C107.458 362.119 108.13 361.949 108.954 361.949C109.692 361.949 110.339 362.1 110.893 362.403C111.447 362.702 111.878 363.156 112.185 363.767C112.493 364.373 112.647 365.14 112.647 366.068V373H110.971V366.182C110.971 365.325 110.748 364.657 110.303 364.179C109.858 363.696 109.247 363.455 108.471 363.455C107.936 363.455 107.458 363.571 107.036 363.803C106.62 364.035 106.29 364.373 106.049 364.818C105.808 365.263 105.687 365.803 105.687 366.438ZM120.113 377.318C119.304 377.318 118.608 377.214 118.025 377.006C117.443 376.802 116.958 376.532 116.569 376.196C116.186 375.865 115.88 375.509 115.653 375.131L116.988 374.193C117.14 374.392 117.332 374.619 117.564 374.875C117.796 375.135 118.113 375.36 118.515 375.55C118.922 375.744 119.455 375.841 120.113 375.841C120.994 375.841 121.721 375.628 122.294 375.202C122.867 374.776 123.153 374.108 123.153 373.199V370.983H123.011C122.888 371.182 122.713 371.428 122.485 371.722C122.263 372.01 121.941 372.268 121.52 372.496C121.103 372.718 120.539 372.83 119.829 372.83C118.949 372.83 118.158 372.621 117.457 372.205C116.761 371.788 116.209 371.182 115.802 370.386C115.4 369.591 115.199 368.625 115.199 367.489C115.199 366.371 115.395 365.398 115.788 364.57C116.181 363.736 116.728 363.092 117.429 362.638C118.129 362.179 118.939 361.949 119.858 361.949C120.568 361.949 121.131 362.067 121.548 362.304C121.969 362.536 122.291 362.801 122.514 363.099C122.741 363.393 122.916 363.634 123.039 363.824H123.21V362.091H124.829V373.312C124.829 374.25 124.616 375.012 124.19 375.599C123.769 376.191 123.2 376.625 122.485 376.899C121.775 377.179 120.984 377.318 120.113 377.318ZM120.056 371.324C120.729 371.324 121.297 371.17 121.761 370.862C122.225 370.554 122.578 370.112 122.819 369.534C123.061 368.956 123.181 368.265 123.181 367.46C123.181 366.674 123.063 365.981 122.826 365.379C122.59 364.778 122.239 364.307 121.775 363.966C121.311 363.625 120.738 363.455 120.056 363.455C119.346 363.455 118.754 363.634 118.281 363.994C117.812 364.354 117.459 364.837 117.223 365.443C116.991 366.049 116.875 366.722 116.875 367.46C116.875 368.218 116.993 368.888 117.23 369.47C117.471 370.048 117.826 370.502 118.295 370.834C118.769 371.161 119.356 371.324 120.056 371.324ZM132.954 360.017V358.455H143.863V360.017H139.289V373H137.528V360.017H132.954ZM147.178 358.455L151.496 370.699H151.667L155.985 358.455H157.832L152.491 373H150.673L145.332 358.455H147.178ZM171.006 368.455H172.938L174.558 370.585L174.984 371.153L177.398 374.364H175.467L173.876 372.233L173.478 371.693L171.006 368.455ZM177.995 365.727C177.995 367.261 177.718 368.587 177.164 369.705C176.61 370.822 175.85 371.684 174.884 372.29C173.918 372.896 172.815 373.199 171.575 373.199C170.334 373.199 169.231 372.896 168.265 372.29C167.299 371.684 166.539 370.822 165.985 369.705C165.431 368.587 165.154 367.261 165.154 365.727C165.154 364.193 165.431 362.867 165.985 361.75C166.539 360.633 167.299 359.771 168.265 359.165C169.231 358.559 170.334 358.256 171.575 358.256C172.815 358.256 173.918 358.559 174.884 359.165C175.85 359.771 176.61 360.633 177.164 361.75C177.718 362.867 177.995 364.193 177.995 365.727ZM176.29 365.727C176.29 364.468 176.08 363.405 175.658 362.538C175.242 361.672 174.676 361.016 173.961 360.571C173.251 360.126 172.455 359.903 171.575 359.903C170.694 359.903 169.896 360.126 169.181 360.571C168.471 361.016 167.905 361.672 167.484 362.538C167.067 363.405 166.859 364.468 166.859 365.727C166.859 366.987 167.067 368.05 167.484 368.916C167.905 369.783 168.471 370.438 169.181 370.884C169.896 371.329 170.694 371.551 171.575 371.551C172.455 371.551 173.251 371.329 173.961 370.884C174.676 370.438 175.242 369.783 175.658 368.916C176.08 368.05 176.29 366.987 176.29 365.727ZM185.332 358.256C185.928 358.26 186.525 358.374 187.121 358.597C187.718 358.819 188.263 359.188 188.755 359.705C189.247 360.216 189.643 360.914 189.941 361.8C190.239 362.685 190.388 363.795 190.388 365.131C190.388 366.423 190.265 367.571 190.019 368.575C189.778 369.574 189.427 370.417 188.968 371.104C188.513 371.79 187.96 372.311 187.306 372.666C186.657 373.021 185.924 373.199 185.104 373.199C184.29 373.199 183.563 373.038 182.924 372.716C182.29 372.389 181.769 371.937 181.362 371.359C180.959 370.777 180.701 370.102 180.587 369.335H182.32C182.477 370.003 182.787 370.554 183.251 370.99C183.719 371.421 184.337 371.636 185.104 371.636C186.227 371.636 187.112 371.146 187.761 370.166C188.414 369.186 188.741 367.801 188.741 366.011H188.627C188.362 366.409 188.047 366.752 187.683 367.041C187.318 367.33 186.913 367.553 186.468 367.709C186.023 367.865 185.549 367.943 185.048 367.943C184.214 367.943 183.45 367.737 182.754 367.325C182.062 366.909 181.508 366.338 181.092 365.614C180.68 364.884 180.474 364.051 180.474 363.114C180.474 362.223 180.673 361.409 181.07 360.67C181.473 359.927 182.036 359.335 182.761 358.895C183.49 358.455 184.347 358.241 185.332 358.256ZM185.332 359.818C184.735 359.818 184.198 359.967 183.719 360.266C183.246 360.559 182.87 360.957 182.59 361.459C182.316 361.956 182.178 362.508 182.178 363.114C182.178 363.72 182.311 364.271 182.576 364.768C182.846 365.261 183.213 365.654 183.677 365.947C184.146 366.236 184.678 366.381 185.275 366.381C185.725 366.381 186.144 366.293 186.532 366.118C186.92 365.938 187.259 365.694 187.548 365.386C187.841 365.074 188.071 364.721 188.237 364.328C188.402 363.93 188.485 363.516 188.485 363.085C188.485 362.517 188.348 361.984 188.073 361.487C187.803 360.99 187.429 360.588 186.951 360.28C186.478 359.972 185.938 359.818 185.332 359.818Z" fill="white"/>
</g>
<path d="M23 311.5H324C326.485 311.5 328.5 313.515 328.5 316V342C328.5 344.485 326.485 346.5 324 346.5H23C20.5147 346.5 18.5 344.485 18.5 342V316C18.5 313.515 20.5147 311.5 23 311.5Z" stroke="#33E2D9"/>
</svg>
