<svg width="353" height="525" viewBox="0 0 353 525" fill="none" xmlns="http://www.w3.org/2000/svg">
<rect width="353" height="525" fill="#242424"/>
<path d="M43.988 59V32.4H55.274C56.8447 32.4 58.2633 32.78 59.53 33.54C60.822 34.2747 61.8353 35.288 62.57 36.58C63.33 37.872 63.71 39.3287 63.71 40.95C63.71 42.5967 63.33 44.0787 62.57 45.396C61.8353 46.7133 60.822 47.7647 59.53 48.55C58.2633 49.31 56.8447 49.69 55.274 49.69H49.688V59H43.988ZM49.612 44.56H54.628C55.236 44.56 55.7807 44.408 56.262 44.104C56.7433 43.7747 57.1233 43.344 57.402 42.812C57.706 42.28 57.858 41.672 57.858 40.988C57.858 40.304 57.706 39.7087 57.402 39.202C57.1233 38.67 56.7433 38.2647 56.262 37.986C55.7807 37.682 55.236 37.53 54.628 37.53H49.612V44.56ZM75.5871 59.38C73.9151 59.38 72.4077 58.924 71.0651 58.012C69.7224 57.1 68.6584 55.8587 67.8731 54.288C67.0877 52.7173 66.6951 50.9187 66.6951 48.892C66.6951 46.8653 67.0877 45.0793 67.8731 43.534C68.6837 41.9633 69.7731 40.7347 71.1411 39.848C72.5091 38.936 74.0671 38.48 75.8151 38.48C76.8031 38.48 77.7024 38.632 78.5131 38.936C79.3491 39.2147 80.0711 39.6073 80.6791 40.114C81.3124 40.6207 81.8444 41.2033 82.2751 41.862C82.7057 42.5207 83.0097 43.23 83.1871 43.99L82.0471 43.8V38.898H87.4051V59H81.9711V54.174L83.1871 54.06C82.9844 54.7693 82.6551 55.4407 82.1991 56.074C81.7431 56.7073 81.1731 57.2773 80.4891 57.784C79.8304 58.2653 79.0831 58.658 78.2471 58.962C77.4111 59.2407 76.5244 59.38 75.5871 59.38ZM77.0691 54.706C78.0824 54.706 78.9691 54.4653 79.7291 53.984C80.4891 53.5027 81.0717 52.8313 81.4771 51.97C81.9077 51.0833 82.1231 50.0573 82.1231 48.892C82.1231 47.752 81.9077 46.7513 81.4771 45.89C81.0717 45.0287 80.4891 44.3573 79.7291 43.876C78.9691 43.3693 78.0824 43.116 77.0691 43.116C76.0811 43.116 75.2071 43.3693 74.4471 43.876C73.7124 44.3573 73.1297 45.0287 72.6991 45.89C72.2684 46.7513 72.0531 47.752 72.0531 48.892C72.0531 50.0573 72.2684 51.0833 72.6991 51.97C73.1297 52.8313 73.7124 53.5027 74.4471 53.984C75.2071 54.4653 76.0811 54.706 77.0691 54.706ZM93.651 59V38.898H99.047V59H93.651ZM96.311 34.756C95.2724 34.756 94.4617 34.5027 93.879 33.996C93.2964 33.4893 93.005 32.7673 93.005 31.83C93.005 30.9687 93.2964 30.272 93.879 29.74C94.487 29.1827 95.2977 28.904 96.311 28.904C97.3497 28.904 98.1604 29.17 98.743 29.702C99.3257 30.2087 99.617 30.918 99.617 31.83C99.617 32.7167 99.313 33.426 98.705 33.958C98.1224 34.49 97.3244 34.756 96.311 34.756ZM105.19 59V38.898H110.396L110.586 45.358L109.674 44.028C109.978 42.9893 110.472 42.052 111.156 41.216C111.84 40.3547 112.638 39.6833 113.55 39.202C114.488 38.7207 115.463 38.48 116.476 38.48C116.907 38.48 117.325 38.518 117.73 38.594C118.136 38.67 118.478 38.7587 118.756 38.86L117.312 44.788C117.008 44.636 116.641 44.5093 116.21 44.408C115.78 44.2813 115.336 44.218 114.88 44.218C114.272 44.218 113.702 44.332 113.17 44.56C112.664 44.7627 112.22 45.0667 111.84 45.472C111.46 45.852 111.156 46.308 110.928 46.84C110.726 47.372 110.624 47.9547 110.624 48.588V59H105.19ZM137.077 67.74L141.485 57.404L141.561 60.52L131.757 38.898H137.875L142.777 50.488C142.979 50.9187 143.169 51.4253 143.347 52.008C143.549 52.5653 143.714 53.11 143.841 53.642L142.929 54.022C143.081 53.5913 143.258 53.0973 143.461 52.54C143.663 51.9827 143.866 51.3873 144.069 50.754L148.287 38.898H154.443L146.007 59L142.549 67.74H137.077ZM166.704 59.38C164.652 59.38 162.815 58.9367 161.194 58.05C159.598 57.138 158.331 55.8967 157.394 54.326C156.482 52.7553 156.026 50.9567 156.026 48.93C156.026 46.9033 156.482 45.1173 157.394 43.572C158.331 42.0013 159.598 40.76 161.194 39.848C162.815 38.936 164.652 38.48 166.704 38.48C168.73 38.48 170.542 38.936 172.138 39.848C173.759 40.76 175.026 42.0013 175.938 43.572C176.85 45.1173 177.306 46.9033 177.306 48.93C177.306 50.9567 176.85 52.7553 175.938 54.326C175.026 55.8967 173.759 57.138 172.138 58.05C170.542 58.9367 168.73 59.38 166.704 59.38ZM166.704 54.668C167.692 54.668 168.578 54.4273 169.364 53.946C170.149 53.4393 170.757 52.7553 171.188 51.894C171.644 51.0073 171.872 50.0193 171.872 48.93C171.872 47.8153 171.644 46.8273 171.188 45.966C170.757 45.0793 170.149 44.3953 169.364 43.914C168.578 43.4073 167.692 43.154 166.704 43.154C165.69 43.154 164.791 43.4073 164.006 43.914C163.22 44.4207 162.6 45.1047 162.144 45.966C161.688 46.8273 161.472 47.8153 161.498 48.93C161.472 50.0193 161.688 51.0073 162.144 51.894C162.6 52.7553 163.22 53.4393 164.006 53.946C164.791 54.4273 165.69 54.668 166.704 54.668ZM188.661 59.38C187.192 59.38 185.925 59.0633 184.861 58.43C183.823 57.7713 183.012 56.8467 182.429 55.656C181.872 54.44 181.593 52.9833 181.593 51.286V38.898H186.989V50.412C186.989 51.324 187.141 52.122 187.445 52.806C187.749 53.4647 188.18 53.9713 188.737 54.326C189.295 54.6807 189.979 54.858 190.789 54.858C191.372 54.858 191.917 54.7693 192.423 54.592C192.93 54.3893 193.361 54.1107 193.715 53.756C194.07 53.4013 194.349 52.9833 194.551 52.502C194.754 52.0207 194.855 51.5013 194.855 50.944V38.898H200.251V59H195.121L194.931 54.858L195.919 54.402C195.615 55.3393 195.109 56.188 194.399 56.948C193.69 57.708 192.841 58.3033 191.853 58.734C190.865 59.1647 189.801 59.38 188.661 59.38ZM206.061 59V38.898H211.267L211.457 45.358L210.545 44.028C210.849 42.9893 211.343 42.052 212.027 41.216C212.711 40.3547 213.509 39.6833 214.421 39.202C215.358 38.7207 216.334 38.48 217.347 38.48C217.778 38.48 218.196 38.518 218.601 38.594C219.006 38.67 219.348 38.7587 219.627 38.86L218.183 44.788C217.879 44.636 217.512 44.5093 217.081 44.408C216.65 44.2813 216.207 44.218 215.751 44.218C215.143 44.218 214.573 44.332 214.041 44.56C213.534 44.7627 213.091 45.0667 212.711 45.472C212.331 45.852 212.027 46.308 211.799 46.84C211.596 47.372 211.495 47.9547 211.495 48.588V59H206.061ZM241.443 59L233.007 38.898H238.935L244.293 53.908L243.039 54.136L248.663 38.898H254.439L245.585 59H241.443ZM267.096 59.38C264.918 59.38 263.018 58.9367 261.396 58.05C259.775 57.1633 258.508 55.9473 257.596 54.402C256.684 52.8567 256.228 51.0833 256.228 49.082C256.228 47.5367 256.482 46.118 256.988 44.826C257.495 43.534 258.204 42.4193 259.116 41.482C260.028 40.5193 261.105 39.7847 262.346 39.278C263.613 38.746 264.981 38.48 266.45 38.48C267.818 38.48 269.085 38.7333 270.25 39.24C271.416 39.7213 272.416 40.418 273.252 41.33C274.114 42.2167 274.772 43.268 275.228 44.484C275.684 45.7 275.887 47.03 275.836 48.474L275.798 50.146H259.648L258.774 46.84H271.352L270.744 47.524V46.688C270.694 46.004 270.466 45.3833 270.06 44.826C269.68 44.2687 269.186 43.838 268.578 43.534C267.97 43.23 267.286 43.078 266.526 43.078C265.412 43.078 264.462 43.2933 263.676 43.724C262.916 44.1547 262.334 44.788 261.928 45.624C261.523 46.46 261.32 47.4733 261.32 48.664C261.32 49.88 261.574 50.9313 262.08 51.818C262.612 52.7047 263.347 53.4013 264.284 53.908C265.247 54.3893 266.374 54.63 267.666 54.63C268.553 54.63 269.364 54.4907 270.098 54.212C270.833 53.9333 271.618 53.452 272.454 52.768L275.038 56.378C274.304 57.0367 273.493 57.594 272.606 58.05C271.72 58.4807 270.808 58.81 269.87 59.038C268.933 59.266 268.008 59.38 267.096 59.38ZM286.968 59.38C285.093 59.38 283.421 59.076 281.952 58.468C280.508 57.8347 279.343 56.9733 278.456 55.884L281.8 52.996C282.585 53.832 283.459 54.44 284.422 54.82C285.385 55.1747 286.347 55.352 287.31 55.352C287.69 55.352 288.032 55.314 288.336 55.238C288.665 55.1367 288.944 55.01 289.172 54.858C289.4 54.6807 289.565 54.478 289.666 54.25C289.793 53.9967 289.856 53.7307 289.856 53.452C289.856 52.8947 289.628 52.4513 289.172 52.122C288.919 51.9953 288.526 51.8433 287.994 51.666C287.462 51.4633 286.778 51.248 285.942 51.02C284.65 50.6907 283.548 50.3107 282.636 49.88C281.749 49.424 281.04 48.9173 280.508 48.36C280.052 47.828 279.697 47.258 279.444 46.65C279.216 46.0167 279.102 45.32 279.102 44.56C279.102 43.648 279.305 42.8247 279.71 42.09C280.115 41.33 280.673 40.684 281.382 40.152C282.117 39.62 282.953 39.2147 283.89 38.936C284.827 38.632 285.815 38.48 286.854 38.48C287.893 38.48 288.906 38.6067 289.894 38.86C290.882 39.1133 291.794 39.4807 292.63 39.962C293.491 40.418 294.239 40.9627 294.872 41.596L291.984 44.788C291.528 44.3573 291.009 43.9647 290.426 43.61C289.869 43.2553 289.286 42.9767 288.678 42.774C288.07 42.5713 287.525 42.47 287.044 42.47C286.613 42.47 286.221 42.508 285.866 42.584C285.537 42.66 285.258 42.774 285.03 42.926C284.802 43.078 284.625 43.2807 284.498 43.534C284.397 43.762 284.346 44.0153 284.346 44.294C284.346 44.5727 284.409 44.8387 284.536 45.092C284.688 45.3453 284.891 45.5607 285.144 45.738C285.423 45.89 285.828 46.0673 286.36 46.27C286.917 46.4727 287.665 46.7007 288.602 46.954C289.818 47.2833 290.844 47.6507 291.68 48.056C292.541 48.4613 293.225 48.93 293.732 49.462C294.163 49.918 294.479 50.4373 294.682 51.02C294.885 51.6027 294.986 52.2487 294.986 52.958C294.986 54.1993 294.631 55.314 293.922 56.302C293.238 57.2647 292.288 58.0247 291.072 58.582C289.856 59.114 288.488 59.38 286.968 59.38ZM301.151 59V33.806H306.547V59H301.151ZM297.389 43.724V38.898H310.651V43.724H297.389ZM91.7354 103V86.75H86.6104V85.5H98.2854V86.75H92.9854V103H91.7354ZM102.91 103.25C101.843 103.25 100.96 103.058 100.26 102.675C99.5768 102.292 99.0602 101.708 98.7102 100.925C98.3768 100.125 98.2102 99.1083 98.2102 97.875V90H99.4602V97.825C99.4602 98.7917 99.5852 99.5917 99.8352 100.225C100.085 100.842 100.468 101.3 100.985 101.6C101.502 101.9 102.152 102.05 102.935 102.05C103.552 102.05 104.127 101.942 104.66 101.725C105.193 101.492 105.66 101.192 106.06 100.825C106.46 100.442 106.768 100.008 106.985 99.525C107.218 99.025 107.335 98.5 107.335 97.95V90H108.585V103H107.385L107.26 100.25H107.41C107.227 100.8 106.902 101.3 106.435 101.75C105.968 102.2 105.418 102.567 104.785 102.85C104.168 103.117 103.543 103.25 102.91 103.25ZM112.224 103V90H113.424L113.549 92.9H113.374C113.558 92.35 113.841 91.8333 114.224 91.35C114.608 90.8667 115.074 90.475 115.624 90.175C116.191 89.875 116.841 89.725 117.574 89.725C117.858 89.725 118.116 89.75 118.349 89.8C118.599 89.8333 118.824 89.875 119.024 89.925L118.649 91.375C118.416 91.275 118.191 91.2083 117.974 91.175C117.758 91.1417 117.566 91.125 117.399 91.125C116.733 91.125 116.149 91.2417 115.649 91.475C115.166 91.7083 114.758 92.0333 114.424 92.45C114.108 92.85 113.866 93.3083 113.699 93.825C113.549 94.3417 113.474 94.8833 113.474 95.45V103H112.224ZM120.843 103V90H122.043L122.168 92.75H122.018C122.201 92.2 122.534 91.7 123.018 91.25C123.501 90.7833 124.076 90.4167 124.743 90.15C125.426 89.8667 126.143 89.725 126.893 89.725C127.809 89.725 128.584 89.9167 129.218 90.3C129.868 90.6833 130.351 91.275 130.668 92.075C131.001 92.875 131.168 93.8917 131.168 95.125V103H129.918V95.175C129.918 94.2083 129.784 93.4167 129.518 92.8C129.268 92.1667 128.893 91.7 128.393 91.4C127.893 91.0833 127.268 90.925 126.518 90.925C125.868 90.925 125.276 91.0417 124.743 91.275C124.209 91.4917 123.743 91.7917 123.343 92.175C122.943 92.5583 122.634 93 122.418 93.5C122.201 93.9833 122.093 94.5 122.093 95.05V103H121.468C121.451 103 121.393 103 121.293 103C121.209 103 121.059 103 120.843 103ZM147.465 103.25C146.165 103.25 145.007 102.958 143.99 102.375C142.99 101.792 142.198 100.983 141.615 99.95C141.048 98.9167 140.765 97.7417 140.765 96.425C140.765 95.125 141.048 93.975 141.615 92.975C142.198 91.9583 142.99 91.1667 143.99 90.6C145.007 90.0167 146.165 89.725 147.465 89.725C148.765 89.725 149.915 90.0167 150.915 90.6C151.932 91.1667 152.723 91.9583 153.29 92.975C153.857 93.975 154.14 95.125 154.14 96.425C154.14 97.7417 153.857 98.9167 153.29 99.95C152.723 100.983 151.932 101.792 150.915 102.375C149.915 102.958 148.765 103.25 147.465 103.25ZM147.465 102C148.498 102 149.415 101.758 150.215 101.275C151.032 100.792 151.665 100.133 152.115 99.3C152.582 98.4667 152.815 97.5083 152.815 96.425C152.815 95.375 152.582 94.4417 152.115 93.625C151.665 92.7917 151.032 92.1417 150.215 91.675C149.415 91.2083 148.498 90.975 147.465 90.975C146.415 90.975 145.482 91.2083 144.665 91.675C143.865 92.1417 143.232 92.7917 142.765 93.625C142.315 94.4417 142.09 95.375 142.09 96.425C142.09 97.5083 142.315 98.4667 142.765 99.3C143.232 100.133 143.865 100.792 144.665 101.275C145.482 101.758 146.415 102 147.465 102ZM156.756 103V90H157.956L158.081 92.75H157.931C158.114 92.2 158.447 91.7 158.931 91.25C159.414 90.7833 159.989 90.4167 160.656 90.15C161.339 89.8667 162.056 89.725 162.806 89.725C163.722 89.725 164.497 89.9167 165.131 90.3C165.781 90.6833 166.264 91.275 166.581 92.075C166.914 92.875 167.081 93.8917 167.081 95.125V103H165.831V95.175C165.831 94.2083 165.697 93.4167 165.431 92.8C165.181 92.1667 164.806 91.7 164.306 91.4C163.806 91.0833 163.181 90.925 162.431 90.925C161.781 90.925 161.189 91.0417 160.656 91.275C160.122 91.4917 159.656 91.7917 159.256 92.175C158.856 92.5583 158.547 93 158.331 93.5C158.114 93.9833 158.006 94.5 158.006 95.05V103H157.381C157.364 103 157.306 103 157.206 103C157.122 103 156.972 103 156.756 103ZM179.678 103V86.525H180.928V103H179.678ZM176.553 91.15V90H184.428V91.15H176.553ZM186.687 103V84.5H187.937V93L187.637 93.475C187.821 92.6917 188.171 92.025 188.687 91.475C189.204 90.9083 189.804 90.475 190.487 90.175C191.187 89.875 191.887 89.725 192.587 89.725C193.587 89.725 194.412 89.9167 195.062 90.3C195.729 90.6833 196.221 91.275 196.537 92.075C196.854 92.875 197.012 93.8917 197.012 95.125V103H195.762V95.175C195.762 94.2083 195.637 93.4167 195.387 92.8C195.137 92.1667 194.754 91.7 194.237 91.4C193.737 91.0833 193.096 90.925 192.312 90.925C191.696 90.925 191.121 91.0417 190.587 91.275C190.054 91.4917 189.587 91.7917 189.187 92.175C188.804 92.5583 188.496 93 188.262 93.5C188.046 93.9833 187.937 94.5 187.937 95.05V103H187.312C187.296 103 187.237 103 187.137 103C187.054 103 186.904 103 186.687 103ZM206.053 103.25C204.803 103.25 203.686 102.967 202.703 102.4C201.736 101.833 200.978 101.042 200.428 100.025C199.878 99.0083 199.603 97.825 199.603 96.475C199.603 95.4917 199.753 94.5917 200.053 93.775C200.369 92.9583 200.803 92.25 201.353 91.65C201.903 91.0333 202.561 90.5583 203.328 90.225C204.111 89.8917 204.961 89.725 205.878 89.725C206.778 89.725 207.586 89.875 208.303 90.175C209.036 90.475 209.653 90.9083 210.153 91.475C210.653 92.025 211.028 92.6833 211.278 93.45C211.528 94.2 211.636 95.0333 211.603 95.95L211.578 96.625H200.528V95.475H210.903L210.353 95.925V95.325C210.353 94.6583 210.186 93.9917 209.853 93.325C209.536 92.6583 209.044 92.1 208.378 91.65C207.711 91.2 206.869 90.975 205.853 90.975C204.903 90.975 204.053 91.1833 203.303 91.6C202.569 92.0167 201.986 92.625 201.553 93.425C201.136 94.225 200.928 95.2167 200.928 96.4C200.928 97.5333 201.136 98.525 201.553 99.375C201.969 100.208 202.569 100.858 203.353 101.325C204.153 101.775 205.128 102 206.278 102C206.894 102 207.528 101.9 208.178 101.7C208.828 101.5 209.561 101.067 210.378 100.4L211.028 101.325C210.661 101.675 210.228 102 209.728 102.3C209.228 102.583 208.669 102.817 208.053 103C207.436 103.167 206.769 103.25 206.053 103.25ZM224.986 103L219.511 90H220.961L225.611 101.475L225.086 101.825L230.336 90H231.736L225.836 103H224.986ZM238.816 103.25C237.566 103.25 236.45 102.967 235.466 102.4C234.5 101.833 233.741 101.042 233.191 100.025C232.641 99.0083 232.366 97.825 232.366 96.475C232.366 95.4917 232.516 94.5917 232.816 93.775C233.133 92.9583 233.566 92.25 234.116 91.65C234.666 91.0333 235.325 90.5583 236.091 90.225C236.875 89.8917 237.725 89.725 238.641 89.725C239.541 89.725 240.35 89.875 241.066 90.175C241.8 90.475 242.416 90.9083 242.916 91.475C243.416 92.025 243.791 92.6833 244.041 93.45C244.291 94.2 244.4 95.0333 244.366 95.95L244.341 96.625H233.291V95.475H243.666L243.116 95.925V95.325C243.116 94.6583 242.95 93.9917 242.616 93.325C242.3 92.6583 241.808 92.1 241.141 91.65C240.475 91.2 239.633 90.975 238.616 90.975C237.666 90.975 236.816 91.1833 236.066 91.6C235.333 92.0167 234.75 92.625 234.316 93.425C233.9 94.225 233.691 95.2167 233.691 96.4C233.691 97.5333 233.9 98.525 234.316 99.375C234.733 100.208 235.333 100.858 236.116 101.325C236.916 101.775 237.891 102 239.041 102C239.658 102 240.291 101.9 240.941 101.7C241.591 101.5 242.325 101.067 243.141 100.4L243.791 101.325C243.425 101.675 242.991 102 242.491 102.3C241.991 102.583 241.433 102.817 240.816 103C240.2 103.167 239.533 103.25 238.816 103.25ZM251.117 103.25C249.984 103.25 248.976 103.033 248.092 102.6C247.209 102.15 246.534 101.608 246.067 100.975L247.017 100.15C247.467 100.75 248.051 101.217 248.767 101.55C249.484 101.867 250.292 102.025 251.192 102.025C251.692 102.025 252.151 101.975 252.567 101.875C252.984 101.758 253.334 101.6 253.617 101.4C253.917 101.2 254.151 100.958 254.317 100.675C254.484 100.375 254.567 100.042 254.567 99.675C254.567 99.025 254.259 98.475 253.642 98.025C253.359 97.825 253.001 97.6417 252.567 97.475C252.134 97.3083 251.626 97.1417 251.042 96.975C250.159 96.7083 249.409 96.4583 248.792 96.225C248.176 95.9917 247.684 95.7 247.317 95.35C247.051 95.0667 246.851 94.7667 246.717 94.45C246.584 94.1167 246.517 93.7583 246.517 93.375C246.517 92.8417 246.626 92.3583 246.842 91.925C247.059 91.475 247.367 91.0833 247.767 90.75C248.167 90.4167 248.634 90.1667 249.167 90C249.701 89.8167 250.292 89.725 250.942 89.725C251.559 89.725 252.167 89.8167 252.767 90C253.367 90.1667 253.926 90.4083 254.442 90.725C254.959 91.0417 255.409 91.4083 255.792 91.825L254.942 92.75C254.609 92.3833 254.242 92.0583 253.842 91.775C253.459 91.4917 253.034 91.275 252.567 91.125C252.101 90.9583 251.584 90.875 251.017 90.875C250.567 90.875 250.142 90.9333 249.742 91.05C249.359 91.1667 249.026 91.3417 248.742 91.575C248.459 91.7917 248.234 92.05 248.067 92.35C247.917 92.6333 247.842 92.95 247.842 93.3C247.842 93.5667 247.892 93.8083 247.992 94.025C248.092 94.225 248.251 94.4167 248.467 94.6C248.751 94.8333 249.126 95.0333 249.592 95.2C250.076 95.3667 250.667 95.55 251.367 95.75C252.001 95.9167 252.559 96.0833 253.042 96.25C253.526 96.4167 253.942 96.6167 254.292 96.85C254.826 97.1833 255.217 97.575 255.467 98.025C255.734 98.475 255.867 98.9917 255.867 99.575C255.867 100.292 255.667 100.925 255.267 101.475C254.867 102.025 254.309 102.458 253.592 102.775C252.876 103.092 252.051 103.25 251.117 103.25ZM260.83 103V86.525H262.08V103H260.83ZM257.705 91.15V90H265.58V91.15H257.705Z" fill="white"/>
<rect width="136" height="53" rx="6" transform="matrix(1 0 0 -1 108 502)" fill="#2CA0C0"/>
<path d="M149.366 485V466.8H152.85L162.912 480.398H162.184C162.115 479.861 162.054 479.341 162.002 478.838C161.95 478.318 161.898 477.798 161.846 477.278C161.811 476.741 161.777 476.195 161.742 475.64C161.725 475.068 161.707 474.47 161.69 473.846C161.673 473.205 161.664 472.511 161.664 471.766V466.8H165.486V485H161.95L151.68 471.272L152.668 471.298C152.755 472.199 152.824 472.971 152.876 473.612C152.945 474.236 152.997 474.782 153.032 475.25C153.067 475.718 153.093 476.125 153.11 476.472C153.145 476.819 153.162 477.148 153.162 477.46C153.179 477.772 153.188 478.101 153.188 478.448V485H149.366ZM174.918 485.26C173.427 485.26 172.127 484.957 171.018 484.35C169.908 483.743 169.042 482.911 168.418 481.854C167.794 480.797 167.482 479.583 167.482 478.214C167.482 477.157 167.655 476.186 168.002 475.302C168.348 474.418 168.834 473.655 169.458 473.014C170.082 472.355 170.818 471.853 171.668 471.506C172.534 471.142 173.47 470.96 174.476 470.96C175.412 470.96 176.278 471.133 177.076 471.48C177.873 471.809 178.558 472.286 179.13 472.91C179.719 473.517 180.17 474.236 180.482 475.068C180.794 475.9 180.932 476.81 180.898 477.798L180.872 478.942H169.822L169.224 476.68H177.83L177.414 477.148V476.576C177.379 476.108 177.223 475.683 176.946 475.302C176.686 474.921 176.348 474.626 175.932 474.418C175.516 474.21 175.048 474.106 174.528 474.106C173.765 474.106 173.115 474.253 172.578 474.548C172.058 474.843 171.659 475.276 171.382 475.848C171.104 476.42 170.966 477.113 170.966 477.928C170.966 478.76 171.139 479.479 171.486 480.086C171.85 480.693 172.352 481.169 172.994 481.516C173.652 481.845 174.424 482.01 175.308 482.01C175.914 482.01 176.469 481.915 176.972 481.724C177.474 481.533 178.012 481.204 178.584 480.736L180.352 483.206C179.849 483.657 179.294 484.038 178.688 484.35C178.081 484.645 177.457 484.87 176.816 485.026C176.174 485.182 175.542 485.26 174.918 485.26ZM190.934 485L187.528 480.138L186.488 478.682L180.924 471.246H185.396L188.724 475.952L189.868 477.512L195.354 485H190.934ZM180.872 485L186.358 477.486L188.386 479.904L185.214 485H180.872ZM189.712 478.812L187.736 476.394L190.674 471.246H195.016L189.712 478.812ZM197.663 485V467.762H201.355V485H197.663ZM195.089 474.548V471.246H204.163V474.548H195.089Z" fill="white"/>
<circle cx="176.5" cy="218.5" r="54.5" fill="#2CA0C0"/>
<path d="M142 218.5L156.5 234L210 203" stroke="white" stroke-width="8"/>
<path d="M136.088 300.182C135.964 299.138 135.463 298.328 134.585 297.751C133.706 297.175 132.628 296.886 131.351 296.886C130.417 296.886 129.6 297.037 128.9 297.339C128.206 297.642 127.664 298.057 127.273 298.586C126.888 299.114 126.696 299.715 126.696 300.388C126.696 300.951 126.83 301.435 127.098 301.84C127.372 302.238 127.722 302.571 128.148 302.839C128.574 303.1 129.02 303.316 129.487 303.488C129.954 303.652 130.383 303.786 130.774 303.889L132.916 304.466C133.465 304.61 134.076 304.809 134.749 305.063C135.429 305.317 136.078 305.664 136.696 306.103C137.32 306.536 137.835 307.092 138.24 307.772C138.645 308.451 138.848 309.286 138.848 310.274C138.848 311.414 138.549 312.444 137.952 313.364C137.362 314.284 136.497 315.015 135.357 315.557C134.224 316.1 132.848 316.371 131.227 316.371C129.717 316.371 128.409 316.127 127.304 315.64C126.205 315.152 125.34 314.472 124.708 313.6C124.084 312.729 123.73 311.716 123.648 310.562H126.284C126.353 311.359 126.621 312.018 127.087 312.54C127.561 313.055 128.158 313.439 128.879 313.693C129.607 313.94 130.39 314.064 131.227 314.064C132.202 314.064 133.078 313.906 133.853 313.59C134.629 313.268 135.244 312.821 135.697 312.251C136.15 311.675 136.376 311.002 136.376 310.233C136.376 309.533 136.181 308.963 135.789 308.523C135.398 308.084 134.883 307.727 134.245 307.452C133.606 307.178 132.916 306.937 132.175 306.732L129.58 305.99C127.932 305.516 126.627 304.84 125.666 303.961C124.705 303.083 124.224 301.933 124.224 300.511C124.224 299.33 124.544 298.301 125.182 297.422C125.828 296.536 126.693 295.85 127.777 295.362C128.869 294.868 130.088 294.621 131.433 294.621C132.793 294.621 134.001 294.864 135.058 295.352C136.116 295.833 136.953 296.492 137.571 297.329C138.196 298.167 138.525 299.118 138.56 300.182H136.088ZM152.686 309.533V300.182H155.117V316H152.686V313.322H152.522C152.151 314.126 151.574 314.809 150.791 315.372C150.009 315.928 149.02 316.206 147.826 316.206C146.837 316.206 145.958 315.99 145.189 315.557C144.42 315.118 143.816 314.459 143.377 313.58C142.937 312.694 142.718 311.579 142.718 310.233V300.182H145.148V310.068C145.148 311.222 145.471 312.142 146.116 312.828C146.768 313.515 147.599 313.858 148.608 313.858C149.212 313.858 149.827 313.703 150.452 313.395C151.083 313.086 151.612 312.612 152.038 311.973C152.47 311.335 152.686 310.521 152.686 309.533ZM165.994 316.33C164.511 316.33 163.234 315.979 162.163 315.279C161.092 314.579 160.268 313.614 159.692 312.385C159.115 311.156 158.827 309.752 158.827 308.173C158.827 306.567 159.122 305.149 159.712 303.92C160.31 302.684 161.14 301.72 162.205 301.026C163.276 300.326 164.525 299.976 165.953 299.976C167.065 299.976 168.068 300.182 168.96 300.594C169.853 301.006 170.584 301.582 171.154 302.324C171.724 303.065 172.077 303.93 172.214 304.919H169.784C169.599 304.198 169.187 303.56 168.548 303.004C167.917 302.441 167.065 302.159 165.994 302.159C165.047 302.159 164.216 302.406 163.502 302.901C162.795 303.388 162.242 304.078 161.844 304.971C161.453 305.856 161.257 306.896 161.257 308.091C161.257 309.313 161.449 310.377 161.834 311.283C162.225 312.19 162.774 312.893 163.482 313.395C164.196 313.896 165.033 314.146 165.994 314.146C166.626 314.146 167.199 314.036 167.714 313.817C168.229 313.597 168.665 313.281 169.022 312.869C169.379 312.457 169.633 311.963 169.784 311.386H172.214C172.077 312.32 171.737 313.161 171.195 313.909C170.659 314.651 169.949 315.241 169.063 315.681C168.184 316.113 167.161 316.33 165.994 316.33ZM182.194 316.33C180.711 316.33 179.434 315.979 178.363 315.279C177.292 314.579 176.468 313.614 175.891 312.385C175.314 311.156 175.026 309.752 175.026 308.173C175.026 306.567 175.321 305.149 175.912 303.92C176.509 302.684 177.34 301.72 178.404 301.026C179.475 300.326 180.724 299.976 182.152 299.976C183.265 299.976 184.267 300.182 185.159 300.594C186.052 301.006 186.783 301.582 187.353 302.324C187.923 303.065 188.276 303.93 188.414 304.919H185.983C185.798 304.198 185.386 303.56 184.748 303.004C184.116 302.441 183.265 302.159 182.194 302.159C181.246 302.159 180.415 302.406 179.701 302.901C178.994 303.388 178.442 304.078 178.043 304.971C177.652 305.856 177.456 306.896 177.456 308.091C177.456 309.313 177.649 310.377 178.033 311.283C178.424 312.19 178.974 312.893 179.681 313.395C180.395 313.896 181.232 314.146 182.194 314.146C182.825 314.146 183.398 314.036 183.913 313.817C184.428 313.597 184.864 313.281 185.221 312.869C185.578 312.457 185.832 311.963 185.983 311.386H188.414C188.276 312.32 187.937 313.161 187.394 313.909C186.859 314.651 186.148 315.241 185.262 315.681C184.384 316.113 183.361 316.33 182.194 316.33ZM198.599 316.33C197.075 316.33 195.76 315.993 194.654 315.32C193.556 314.641 192.708 313.693 192.111 312.478C191.52 311.256 191.225 309.835 191.225 308.214C191.225 306.594 191.52 305.166 192.111 303.93C192.708 302.688 193.539 301.72 194.603 301.026C195.674 300.326 196.924 299.976 198.352 299.976C199.175 299.976 199.989 300.113 200.792 300.388C201.596 300.662 202.327 301.109 202.986 301.727C203.645 302.338 204.17 303.148 204.561 304.157C204.953 305.166 205.148 306.409 205.148 307.885V308.915H192.955V306.814H202.677C202.677 305.921 202.498 305.125 202.141 304.425C201.791 303.724 201.29 303.172 200.638 302.767C199.992 302.362 199.23 302.159 198.352 302.159C197.384 302.159 196.546 302.399 195.839 302.88C195.138 303.354 194.6 303.972 194.222 304.734C193.844 305.496 193.656 306.313 193.656 307.185V308.585C193.656 309.78 193.862 310.792 194.273 311.623C194.692 312.447 195.272 313.075 196.014 313.508C196.755 313.933 197.617 314.146 198.599 314.146C199.237 314.146 199.814 314.057 200.329 313.879C200.851 313.693 201.3 313.419 201.678 313.055C202.056 312.684 202.347 312.224 202.553 311.675L204.901 312.334C204.654 313.13 204.239 313.83 203.655 314.435C203.072 315.032 202.351 315.499 201.493 315.835C200.634 316.165 199.67 316.33 198.599 316.33ZM220.05 303.724L217.867 304.342C217.73 303.978 217.527 303.625 217.259 303.282C216.998 302.931 216.641 302.643 216.188 302.417C215.735 302.19 215.155 302.077 214.448 302.077C213.48 302.077 212.673 302.3 212.028 302.746C211.389 303.185 211.07 303.745 211.07 304.425C211.07 305.029 211.29 305.506 211.729 305.856C212.168 306.206 212.855 306.498 213.789 306.732L216.137 307.308C217.551 307.652 218.605 308.177 219.298 308.884C219.992 309.584 220.338 310.487 220.338 311.592C220.338 312.499 220.078 313.309 219.556 314.023C219.041 314.737 218.32 315.3 217.393 315.712C216.466 316.124 215.388 316.33 214.159 316.33C212.546 316.33 211.211 315.979 210.153 315.279C209.096 314.579 208.427 313.556 208.145 312.21L210.452 311.634C210.672 312.485 211.087 313.123 211.698 313.549C212.316 313.975 213.123 314.188 214.118 314.188C215.251 314.188 216.15 313.947 216.816 313.467C217.489 312.979 217.826 312.396 217.826 311.716C217.826 311.167 217.633 310.707 217.249 310.336C216.864 309.958 216.274 309.677 215.478 309.491L212.841 308.874C211.393 308.53 210.328 307.998 209.649 307.277C208.976 306.55 208.64 305.64 208.64 304.548C208.64 303.656 208.89 302.866 209.391 302.18C209.899 301.493 210.589 300.954 211.461 300.563C212.34 300.172 213.336 299.976 214.448 299.976C216.013 299.976 217.242 300.319 218.135 301.006C219.034 301.692 219.672 302.598 220.05 303.724ZM235.201 303.724L233.018 304.342C232.881 303.978 232.678 303.625 232.411 303.282C232.15 302.931 231.793 302.643 231.34 302.417C230.886 302.19 230.306 302.077 229.599 302.077C228.631 302.077 227.824 302.3 227.179 302.746C226.541 303.185 226.221 303.745 226.221 304.425C226.221 305.029 226.441 305.506 226.88 305.856C227.32 306.206 228.006 306.498 228.94 306.732L231.288 307.308C232.702 307.652 233.756 308.177 234.45 308.884C235.143 309.584 235.49 310.487 235.49 311.592C235.49 312.499 235.229 313.309 234.707 314.023C234.192 314.737 233.471 315.3 232.544 315.712C231.618 316.124 230.54 316.33 229.311 316.33C227.697 316.33 226.362 315.979 225.305 315.279C224.247 314.579 223.578 313.556 223.297 312.21L225.603 311.634C225.823 312.485 226.238 313.123 226.85 313.549C227.467 313.975 228.274 314.188 229.27 314.188C230.402 314.188 231.302 313.947 231.968 313.467C232.641 312.979 232.977 312.396 232.977 311.716C232.977 311.167 232.785 310.707 232.4 310.336C232.016 309.958 231.425 309.677 230.629 309.491L227.993 308.874C226.544 308.53 225.48 307.998 224.8 307.277C224.127 306.55 223.791 305.64 223.791 304.548C223.791 303.656 224.042 302.866 224.543 302.18C225.051 301.493 225.741 300.954 226.613 300.563C227.491 300.172 228.487 299.976 229.599 299.976C231.165 299.976 232.393 300.319 233.286 301.006C234.185 301.692 234.824 302.598 235.201 303.724Z" fill="white"/>
</svg>
