<svg width="353" height="525" viewBox="0 0 353 525" fill="none" xmlns="http://www.w3.org/2000/svg">
<rect width="353" height="525" fill="#242424"/>
<path d="M46.988 97V70.4H58.274C59.8447 70.4 61.2633 70.78 62.53 71.54C63.822 72.2747 64.8353 73.288 65.57 74.58C66.33 75.872 66.71 77.3287 66.71 78.95C66.71 80.5967 66.33 82.0787 65.57 83.396C64.8353 84.7133 63.822 85.7647 62.53 86.55C61.2633 87.31 59.8447 87.69 58.274 87.69H52.688V97H46.988ZM52.612 82.56H57.628C58.236 82.56 58.7807 82.408 59.262 82.104C59.7433 81.7747 60.1233 81.344 60.402 80.812C60.706 80.28 60.858 79.672 60.858 78.988C60.858 78.304 60.706 77.7087 60.402 77.202C60.1233 76.67 59.7433 76.2647 59.262 75.986C58.7807 75.682 58.236 75.53 57.628 75.53H52.612V82.56ZM78.5871 97.38C76.9151 97.38 75.4077 96.924 74.0651 96.012C72.7224 95.1 71.6584 93.8587 70.8731 92.288C70.0877 90.7173 69.6951 88.9187 69.6951 86.892C69.6951 84.8653 70.0877 83.0793 70.8731 81.534C71.6837 79.9633 72.7731 78.7347 74.1411 77.848C75.5091 76.936 77.0671 76.48 78.8151 76.48C79.8031 76.48 80.7024 76.632 81.5131 76.936C82.3491 77.2147 83.0711 77.6073 83.6791 78.114C84.3124 78.6207 84.8444 79.2033 85.2751 79.862C85.7057 80.5207 86.0097 81.23 86.1871 81.99L85.0471 81.8V76.898H90.4051V97H84.9711V92.174L86.1871 92.06C85.9844 92.7693 85.6551 93.4407 85.1991 94.074C84.7431 94.7073 84.1731 95.2773 83.4891 95.784C82.8304 96.2653 82.0831 96.658 81.2471 96.962C80.4111 97.2407 79.5244 97.38 78.5871 97.38ZM80.0691 92.706C81.0824 92.706 81.9691 92.4653 82.7291 91.984C83.4891 91.5027 84.0717 90.8313 84.4771 89.97C84.9077 89.0833 85.1231 88.0573 85.1231 86.892C85.1231 85.752 84.9077 84.7513 84.4771 83.89C84.0717 83.0287 83.4891 82.3573 82.7291 81.876C81.9691 81.3693 81.0824 81.116 80.0691 81.116C79.0811 81.116 78.2071 81.3693 77.4471 81.876C76.7124 82.3573 76.1297 83.0287 75.6991 83.89C75.2684 84.7513 75.0531 85.752 75.0531 86.892C75.0531 88.0573 75.2684 89.0833 75.6991 89.97C76.1297 90.8313 76.7124 91.5027 77.4471 91.984C78.2071 92.4653 79.0811 92.706 80.0691 92.706ZM96.651 97V76.898H102.047V97H96.651ZM99.311 72.756C98.2724 72.756 97.4617 72.5027 96.879 71.996C96.2964 71.4893 96.005 70.7673 96.005 69.83C96.005 68.9687 96.2964 68.272 96.879 67.74C97.487 67.1827 98.2977 66.904 99.311 66.904C100.35 66.904 101.16 67.17 101.743 67.702C102.326 68.2087 102.617 68.918 102.617 69.83C102.617 70.7167 102.313 71.426 101.705 71.958C101.122 72.49 100.324 72.756 99.311 72.756ZM108.19 97V76.898H113.396L113.586 83.358L112.674 82.028C112.978 80.9893 113.472 80.052 114.156 79.216C114.84 78.3547 115.638 77.6833 116.55 77.202C117.488 76.7207 118.463 76.48 119.476 76.48C119.907 76.48 120.325 76.518 120.73 76.594C121.136 76.67 121.478 76.7587 121.756 76.86L120.312 82.788C120.008 82.636 119.641 82.5093 119.21 82.408C118.78 82.2813 118.336 82.218 117.88 82.218C117.272 82.218 116.702 82.332 116.17 82.56C115.664 82.7627 115.22 83.0667 114.84 83.472C114.46 83.852 114.156 84.308 113.928 84.84C113.726 85.372 113.624 85.9547 113.624 86.588V97H108.19ZM140.077 105.74L144.485 95.404L144.561 98.52L134.757 76.898H140.875L145.777 88.488C145.979 88.9187 146.169 89.4253 146.347 90.008C146.549 90.5653 146.714 91.11 146.841 91.642L145.929 92.022C146.081 91.5913 146.258 91.0973 146.461 90.54C146.663 89.9827 146.866 89.3873 147.069 88.754L151.287 76.898H157.443L149.007 97L145.549 105.74H140.077ZM169.704 97.38C167.652 97.38 165.815 96.9367 164.194 96.05C162.598 95.138 161.331 93.8967 160.394 92.326C159.482 90.7553 159.026 88.9567 159.026 86.93C159.026 84.9033 159.482 83.1173 160.394 81.572C161.331 80.0013 162.598 78.76 164.194 77.848C165.815 76.936 167.652 76.48 169.704 76.48C171.73 76.48 173.542 76.936 175.138 77.848C176.759 78.76 178.026 80.0013 178.938 81.572C179.85 83.1173 180.306 84.9033 180.306 86.93C180.306 88.9567 179.85 90.7553 178.938 92.326C178.026 93.8967 176.759 95.138 175.138 96.05C173.542 96.9367 171.73 97.38 169.704 97.38ZM169.704 92.668C170.692 92.668 171.578 92.4273 172.364 91.946C173.149 91.4393 173.757 90.7553 174.188 89.894C174.644 89.0073 174.872 88.0193 174.872 86.93C174.872 85.8153 174.644 84.8273 174.188 83.966C173.757 83.0793 173.149 82.3953 172.364 81.914C171.578 81.4073 170.692 81.154 169.704 81.154C168.69 81.154 167.791 81.4073 167.006 81.914C166.22 82.4207 165.6 83.1047 165.144 83.966C164.688 84.8273 164.472 85.8153 164.498 86.93C164.472 88.0193 164.688 89.0073 165.144 89.894C165.6 90.7553 166.22 91.4393 167.006 91.946C167.791 92.4273 168.69 92.668 169.704 92.668ZM191.661 97.38C190.192 97.38 188.925 97.0633 187.861 96.43C186.823 95.7713 186.012 94.8467 185.429 93.656C184.872 92.44 184.593 90.9833 184.593 89.286V76.898H189.989V88.412C189.989 89.324 190.141 90.122 190.445 90.806C190.749 91.4647 191.18 91.9713 191.737 92.326C192.295 92.6807 192.979 92.858 193.789 92.858C194.372 92.858 194.917 92.7693 195.423 92.592C195.93 92.3893 196.361 92.1107 196.715 91.756C197.07 91.4013 197.349 90.9833 197.551 90.502C197.754 90.0207 197.855 89.5013 197.855 88.944V76.898H203.251V97H198.121L197.931 92.858L198.919 92.402C198.615 93.3393 198.109 94.188 197.399 94.948C196.69 95.708 195.841 96.3033 194.853 96.734C193.865 97.1647 192.801 97.38 191.661 97.38ZM209.061 97V76.898H214.267L214.457 83.358L213.545 82.028C213.849 80.9893 214.343 80.052 215.027 79.216C215.711 78.3547 216.509 77.6833 217.421 77.202C218.358 76.7207 219.334 76.48 220.347 76.48C220.778 76.48 221.196 76.518 221.601 76.594C222.006 76.67 222.348 76.7587 222.627 76.86L221.183 82.788C220.879 82.636 220.512 82.5093 220.081 82.408C219.65 82.2813 219.207 82.218 218.751 82.218C218.143 82.218 217.573 82.332 217.041 82.56C216.534 82.7627 216.091 83.0667 215.711 83.472C215.331 83.852 215.027 84.308 214.799 84.84C214.596 85.372 214.495 85.9547 214.495 86.588V97H209.061ZM244.443 97L236.007 76.898H241.935L247.293 91.908L246.039 92.136L251.663 76.898H257.439L248.585 97H244.443ZM270.096 97.38C267.918 97.38 266.018 96.9367 264.396 96.05C262.775 95.1633 261.508 93.9473 260.596 92.402C259.684 90.8567 259.228 89.0833 259.228 87.082C259.228 85.5367 259.482 84.118 259.988 82.826C260.495 81.534 261.204 80.4193 262.116 79.482C263.028 78.5193 264.105 77.7847 265.346 77.278C266.613 76.746 267.981 76.48 269.45 76.48C270.818 76.48 272.085 76.7333 273.25 77.24C274.416 77.7213 275.416 78.418 276.252 79.33C277.114 80.2167 277.772 81.268 278.228 82.484C278.684 83.7 278.887 85.03 278.836 86.474L278.798 88.146H262.648L261.774 84.84H274.352L273.744 85.524V84.688C273.694 84.004 273.466 83.3833 273.06 82.826C272.68 82.2687 272.186 81.838 271.578 81.534C270.97 81.23 270.286 81.078 269.526 81.078C268.412 81.078 267.462 81.2933 266.676 81.724C265.916 82.1547 265.334 82.788 264.928 83.624C264.523 84.46 264.32 85.4733 264.32 86.664C264.32 87.88 264.574 88.9313 265.08 89.818C265.612 90.7047 266.347 91.4013 267.284 91.908C268.247 92.3893 269.374 92.63 270.666 92.63C271.553 92.63 272.364 92.4907 273.098 92.212C273.833 91.9333 274.618 91.452 275.454 90.768L278.038 94.378C277.304 95.0367 276.493 95.594 275.606 96.05C274.72 96.4807 273.808 96.81 272.87 97.038C271.933 97.266 271.008 97.38 270.096 97.38ZM289.968 97.38C288.093 97.38 286.421 97.076 284.952 96.468C283.508 95.8347 282.343 94.9733 281.456 93.884L284.8 90.996C285.585 91.832 286.459 92.44 287.422 92.82C288.385 93.1747 289.347 93.352 290.31 93.352C290.69 93.352 291.032 93.314 291.336 93.238C291.665 93.1367 291.944 93.01 292.172 92.858C292.4 92.6807 292.565 92.478 292.666 92.25C292.793 91.9967 292.856 91.7307 292.856 91.452C292.856 90.8947 292.628 90.4513 292.172 90.122C291.919 89.9953 291.526 89.8433 290.994 89.666C290.462 89.4633 289.778 89.248 288.942 89.02C287.65 88.6907 286.548 88.3107 285.636 87.88C284.749 87.424 284.04 86.9173 283.508 86.36C283.052 85.828 282.697 85.258 282.444 84.65C282.216 84.0167 282.102 83.32 282.102 82.56C282.102 81.648 282.305 80.8247 282.71 80.09C283.115 79.33 283.673 78.684 284.382 78.152C285.117 77.62 285.953 77.2147 286.89 76.936C287.827 76.632 288.815 76.48 289.854 76.48C290.893 76.48 291.906 76.6067 292.894 76.86C293.882 77.1133 294.794 77.4807 295.63 77.962C296.491 78.418 297.239 78.9627 297.872 79.596L294.984 82.788C294.528 82.3573 294.009 81.9647 293.426 81.61C292.869 81.2553 292.286 80.9767 291.678 80.774C291.07 80.5713 290.525 80.47 290.044 80.47C289.613 80.47 289.221 80.508 288.866 80.584C288.537 80.66 288.258 80.774 288.03 80.926C287.802 81.078 287.625 81.2807 287.498 81.534C287.397 81.762 287.346 82.0153 287.346 82.294C287.346 82.5727 287.409 82.8387 287.536 83.092C287.688 83.3453 287.891 83.5607 288.144 83.738C288.423 83.89 288.828 84.0673 289.36 84.27C289.917 84.4727 290.665 84.7007 291.602 84.954C292.818 85.2833 293.844 85.6507 294.68 86.056C295.541 86.4613 296.225 86.93 296.732 87.462C297.163 87.918 297.479 88.4373 297.682 89.02C297.885 89.6027 297.986 90.2487 297.986 90.958C297.986 92.1993 297.631 93.314 296.922 94.302C296.238 95.2647 295.288 96.0247 294.072 96.582C292.856 97.114 291.488 97.38 289.968 97.38ZM304.151 97V71.806H309.547V97H304.151ZM300.389 81.724V76.898H313.651V81.724H300.389ZM64.3033 166V147.15H58.3583V145.7H71.9013V147.15H65.7533V166H64.3033ZM78.4261 166.29C76.9181 166.29 75.5744 165.952 74.3951 165.275C73.2351 164.598 72.3167 163.661 71.6401 162.462C70.9827 161.263 70.6541 159.9 70.6541 158.373C70.6541 156.865 70.9827 155.531 71.6401 154.371C72.3167 153.192 73.2351 152.273 74.3951 151.616C75.5744 150.939 76.9181 150.601 78.4261 150.601C79.9341 150.601 81.2681 150.939 82.4281 151.616C83.6074 152.273 84.5257 153.192 85.1831 154.371C85.8404 155.531 86.1691 156.865 86.1691 158.373C86.1691 159.9 85.8404 161.263 85.1831 162.462C84.5257 163.661 83.6074 164.598 82.4281 165.275C81.2681 165.952 79.9341 166.29 78.4261 166.29ZM78.4261 164.84C79.6247 164.84 80.6881 164.56 81.6161 163.999C82.5634 163.438 83.2981 162.675 83.8201 161.708C84.3614 160.741 84.6321 159.63 84.6321 158.373C84.6321 157.155 84.3614 156.072 83.8201 155.125C83.2981 154.158 82.5634 153.404 81.6161 152.863C80.6881 152.322 79.6247 152.051 78.4261 152.051C77.2081 152.051 76.1254 152.322 75.1781 152.863C74.2501 153.404 73.5154 154.158 72.9741 155.125C72.4521 156.072 72.1911 157.155 72.1911 158.373C72.1911 159.63 72.4521 160.741 72.9741 161.708C73.5154 162.675 74.2501 163.438 75.1781 163.999C76.1254 164.56 77.2081 164.84 78.4261 164.84ZM104.726 166.29C103.953 166.29 103.218 166.174 102.522 165.942C101.846 165.71 101.217 165.391 100.637 164.985C100.077 164.56 99.5934 164.067 99.1874 163.506C98.8007 162.945 98.5204 162.346 98.3464 161.708L98.8684 162.172L98.7234 166H97.3314V144.54H98.7814V154.69L98.3464 155.183C98.5204 154.545 98.8007 153.946 99.1874 153.385C99.5934 152.824 100.077 152.341 100.637 151.935C101.217 151.51 101.846 151.181 102.522 150.949C103.218 150.717 103.953 150.601 104.726 150.601C106.06 150.601 107.269 150.939 108.351 151.616C109.434 152.293 110.294 153.221 110.932 154.4C111.59 155.579 111.918 156.933 111.918 158.46C111.918 159.968 111.599 161.312 110.961 162.491C110.343 163.67 109.492 164.598 108.409 165.275C107.327 165.952 106.099 166.29 104.726 166.29ZM104.523 164.84C105.683 164.84 106.698 164.56 107.568 163.999C108.458 163.438 109.144 162.675 109.627 161.708C110.13 160.741 110.381 159.649 110.381 158.431C110.381 157.194 110.13 156.101 109.627 155.154C109.125 154.187 108.429 153.433 107.539 152.892C106.669 152.331 105.664 152.051 104.523 152.051C103.383 152.051 102.368 152.331 101.478 152.892C100.608 153.433 99.922 154.187 99.4194 155.154C98.9167 156.101 98.6654 157.194 98.6654 158.431C98.6654 159.688 98.9167 160.799 99.4194 161.766C99.9414 162.713 100.637 163.467 101.507 164.028C102.397 164.569 103.402 164.84 104.523 164.84ZM121.268 166.29C119.818 166.29 118.523 165.961 117.382 165.304C116.261 164.647 115.381 163.728 114.743 162.549C114.105 161.37 113.786 159.997 113.786 158.431C113.786 157.29 113.96 156.246 114.308 155.299C114.675 154.352 115.178 153.53 115.816 152.834C116.454 152.119 117.218 151.568 118.107 151.181C119.016 150.794 120.002 150.601 121.065 150.601C122.109 150.601 123.047 150.775 123.878 151.123C124.729 151.471 125.444 151.974 126.024 152.631C126.604 153.269 127.039 154.033 127.329 154.922C127.619 155.792 127.745 156.759 127.706 157.822L127.677 158.605H114.859V157.271H126.894L126.256 157.793V157.097C126.256 156.324 126.063 155.55 125.676 154.777C125.309 154.004 124.738 153.356 123.965 152.834C123.192 152.312 122.215 152.051 121.036 152.051C119.934 152.051 118.948 152.293 118.078 152.776C117.227 153.259 116.551 153.965 116.048 154.893C115.565 155.821 115.323 156.971 115.323 158.344C115.323 159.659 115.565 160.809 116.048 161.795C116.531 162.762 117.227 163.516 118.136 164.057C119.064 164.579 120.195 164.84 121.529 164.84C122.244 164.84 122.979 164.724 123.733 164.492C124.487 164.26 125.338 163.757 126.285 162.984L127.039 164.057C126.614 164.463 126.111 164.84 125.531 165.188C124.951 165.517 124.303 165.787 123.588 166C122.873 166.193 122.099 166.29 121.268 166.29ZM144.767 166.29C143.394 166.29 142.167 165.952 141.084 165.275C140.001 164.598 139.141 163.67 138.503 162.491C137.884 161.312 137.575 159.968 137.575 158.46C137.575 156.933 137.894 155.579 138.532 154.4C139.189 153.221 140.059 152.293 141.142 151.616C142.225 150.939 143.433 150.601 144.767 150.601C145.54 150.601 146.275 150.717 146.971 150.949C147.667 151.181 148.295 151.51 148.856 151.935C149.417 152.341 149.9 152.824 150.306 153.385C150.712 153.946 151.002 154.555 151.176 155.212L150.596 154.835L150.741 150.92H152.133V166H150.683V162.23L151.176 161.679C151.002 162.317 150.712 162.916 150.306 163.477C149.9 164.038 149.417 164.531 148.856 164.956C148.295 165.381 147.667 165.71 146.971 165.942C146.275 166.174 145.54 166.29 144.767 166.29ZM144.97 164.84C146.072 164.84 147.058 164.569 147.928 164.028C148.817 163.467 149.513 162.713 150.016 161.766C150.538 160.799 150.799 159.688 150.799 158.431C150.799 157.194 150.548 156.101 150.045 155.154C149.542 154.187 148.846 153.433 147.957 152.892C147.087 152.331 146.091 152.051 144.97 152.051C143.829 152.051 142.814 152.331 141.925 152.892C141.055 153.433 140.369 154.187 139.866 155.154C139.363 156.101 139.112 157.194 139.112 158.431C139.112 159.649 139.354 160.741 139.837 161.708C140.34 162.675 141.026 163.438 141.896 163.999C142.785 164.56 143.81 164.84 144.97 164.84ZM163.774 166.29C163.001 166.29 162.266 166.174 161.57 165.942C160.894 165.71 160.265 165.391 159.685 164.985C159.125 164.56 158.641 164.067 158.235 163.506C157.849 162.945 157.568 162.346 157.394 161.708L157.916 162.172L157.771 166H156.379V144.54H157.829V154.69L157.394 155.183C157.568 154.545 157.849 153.946 158.235 153.385C158.641 152.824 159.125 152.341 159.685 151.935C160.265 151.51 160.894 151.181 161.57 150.949C162.266 150.717 163.001 150.601 163.774 150.601C165.108 150.601 166.317 150.939 167.399 151.616C168.482 152.293 169.342 153.221 169.98 154.4C170.638 155.579 170.966 156.933 170.966 158.46C170.966 159.968 170.647 161.312 170.009 162.491C169.391 163.67 168.54 164.598 167.457 165.275C166.375 165.952 165.147 166.29 163.774 166.29ZM163.571 164.84C164.731 164.84 165.746 164.56 166.616 163.999C167.506 163.438 168.192 162.675 168.675 161.708C169.178 160.741 169.429 159.649 169.429 158.431C169.429 157.194 169.178 156.101 168.675 155.154C168.173 154.187 167.477 153.433 166.587 152.892C165.717 152.331 164.712 152.051 163.571 152.051C162.431 152.051 161.416 152.331 160.526 152.892C159.656 153.433 158.97 154.187 158.467 155.154C157.965 156.101 157.713 157.194 157.713 158.431C157.713 159.688 157.965 160.799 158.467 161.766C158.989 162.713 159.685 163.467 160.555 164.028C161.445 164.569 162.45 164.84 163.571 164.84ZM174.081 166V144.54H175.531V166H174.081ZM185.838 166.29C184.388 166.29 183.093 165.961 181.952 165.304C180.831 164.647 179.951 163.728 179.313 162.549C178.675 161.37 178.356 159.997 178.356 158.431C178.356 157.29 178.53 156.246 178.878 155.299C179.246 154.352 179.748 153.53 180.386 152.834C181.024 152.119 181.788 151.568 182.677 151.181C183.586 150.794 184.572 150.601 185.635 150.601C186.679 150.601 187.617 150.775 188.448 151.123C189.299 151.471 190.014 151.974 190.594 152.631C191.174 153.269 191.609 154.033 191.899 154.922C192.189 155.792 192.315 156.759 192.276 157.822L192.247 158.605H179.429V157.271H191.464L190.826 157.793V157.097C190.826 156.324 190.633 155.55 190.246 154.777C189.879 154.004 189.309 153.356 188.535 152.834C187.762 152.312 186.786 152.051 185.606 152.051C184.504 152.051 183.518 152.293 182.648 152.776C181.798 153.259 181.121 153.965 180.618 154.893C180.135 155.821 179.893 156.971 179.893 158.344C179.893 159.659 180.135 160.809 180.618 161.795C181.102 162.762 181.798 163.516 182.706 164.057C183.634 164.579 184.765 164.84 186.099 164.84C186.815 164.84 187.549 164.724 188.303 164.492C189.057 164.26 189.908 163.757 190.855 162.984L191.609 164.057C191.184 164.463 190.681 164.84 190.101 165.188C189.521 165.517 188.874 165.787 188.158 166C187.443 166.193 186.67 166.29 185.838 166.29ZM205.625 166V146.889H207.075V166H205.625ZM202 152.254V150.92H211.135V152.254H202ZM220.198 166.29C218.69 166.29 217.346 165.952 216.167 165.275C215.007 164.598 214.088 163.661 213.412 162.462C212.754 161.263 212.426 159.9 212.426 158.373C212.426 156.865 212.754 155.531 213.412 154.371C214.088 153.192 215.007 152.273 216.167 151.616C217.346 150.939 218.69 150.601 220.198 150.601C221.706 150.601 223.04 150.939 224.2 151.616C225.379 152.273 226.297 153.192 226.955 154.371C227.612 155.531 227.941 156.865 227.941 158.373C227.941 159.9 227.612 161.263 226.955 162.462C226.297 163.661 225.379 164.598 224.2 165.275C223.04 165.952 221.706 166.29 220.198 166.29ZM220.198 164.84C221.396 164.84 222.46 164.56 223.388 163.999C224.335 163.438 225.07 162.675 225.592 161.708C226.133 160.741 226.404 159.63 226.404 158.373C226.404 157.155 226.133 156.072 225.592 155.125C225.07 154.158 224.335 153.404 223.388 152.863C222.46 152.322 221.396 152.051 220.198 152.051C218.98 152.051 217.897 152.322 216.95 152.863C216.022 153.404 215.287 154.158 214.746 155.125C214.224 156.072 213.963 157.155 213.963 158.373C213.963 159.63 214.224 160.741 214.746 161.708C215.287 162.675 216.022 163.438 216.95 163.999C217.897 164.56 218.98 164.84 220.198 164.84ZM244.004 166.29C242.689 166.29 241.52 166.039 240.495 165.536C239.47 165.014 238.687 164.386 238.146 163.651L239.248 162.694C239.77 163.39 240.447 163.931 241.278 164.318C242.109 164.685 243.047 164.869 244.091 164.869C244.671 164.869 245.203 164.811 245.686 164.695C246.169 164.56 246.575 164.376 246.904 164.144C247.252 163.912 247.523 163.632 247.716 163.303C247.909 162.955 248.006 162.568 248.006 162.143C248.006 161.389 247.648 160.751 246.933 160.229C246.604 159.997 246.189 159.784 245.686 159.591C245.183 159.398 244.594 159.204 243.917 159.011C242.892 158.702 242.022 158.412 241.307 158.141C240.592 157.87 240.021 157.532 239.596 157.126C239.287 156.797 239.055 156.449 238.9 156.082C238.745 155.695 238.668 155.28 238.668 154.835C238.668 154.216 238.794 153.656 239.045 153.153C239.296 152.631 239.654 152.177 240.118 151.79C240.582 151.403 241.123 151.113 241.742 150.92C242.361 150.707 243.047 150.601 243.801 150.601C244.516 150.601 245.222 150.707 245.918 150.92C246.614 151.113 247.262 151.394 247.861 151.761C248.46 152.128 248.982 152.554 249.427 153.037L248.441 154.11C248.054 153.685 247.629 153.308 247.165 152.979C246.72 152.65 246.227 152.399 245.686 152.225C245.145 152.032 244.545 151.935 243.888 151.935C243.366 151.935 242.873 152.003 242.409 152.138C241.964 152.273 241.578 152.476 241.249 152.747C240.92 152.998 240.659 153.298 240.466 153.646C240.292 153.975 240.205 154.342 240.205 154.748C240.205 155.057 240.263 155.338 240.379 155.589C240.495 155.821 240.679 156.043 240.93 156.256C241.259 156.527 241.694 156.759 242.235 156.952C242.796 157.145 243.482 157.358 244.294 157.59C245.029 157.783 245.676 157.977 246.237 158.17C246.798 158.363 247.281 158.595 247.687 158.866C248.306 159.253 248.76 159.707 249.05 160.229C249.359 160.751 249.514 161.35 249.514 162.027C249.514 162.858 249.282 163.593 248.818 164.231C248.354 164.869 247.706 165.372 246.875 165.739C246.044 166.106 245.087 166.29 244.004 166.29ZM259.273 166.29C257.823 166.29 256.527 165.961 255.387 165.304C254.265 164.647 253.386 163.728 252.748 162.549C252.11 161.37 251.791 159.997 251.791 158.431C251.791 157.29 251.965 156.246 252.313 155.299C252.68 154.352 253.183 153.53 253.821 152.834C254.459 152.119 255.222 151.568 256.112 151.181C257.02 150.794 258.006 150.601 259.07 150.601C260.114 150.601 261.051 150.775 261.883 151.123C262.733 151.471 263.449 151.974 264.029 152.631C264.609 153.269 265.044 154.033 265.334 154.922C265.624 155.792 265.749 156.759 265.711 157.822L265.682 158.605H252.864V157.271H264.899L264.261 157.793V157.097C264.261 156.324 264.067 155.55 263.681 154.777C263.313 154.004 262.743 153.356 261.97 152.834C261.196 152.312 260.22 152.051 259.041 152.051C257.939 152.051 256.953 152.293 256.083 152.776C255.232 153.259 254.555 153.965 254.053 154.893C253.569 155.821 253.328 156.971 253.328 158.344C253.328 159.659 253.569 160.809 254.053 161.795C254.536 162.762 255.232 163.516 256.141 164.057C257.069 164.579 258.2 164.84 259.534 164.84C260.249 164.84 260.984 164.724 261.738 164.492C262.492 164.26 263.342 163.757 264.29 162.984L265.044 164.057C264.618 164.463 264.116 164.84 263.536 165.188C262.956 165.517 262.308 165.787 261.593 166C260.877 166.193 260.104 166.29 259.273 166.29ZM268.641 166V150.92H270.033L270.178 154.11H270.004C270.217 153.472 270.603 152.892 271.164 152.37C271.725 151.829 272.392 151.403 273.165 151.094C273.958 150.765 274.789 150.601 275.659 150.601C276.722 150.601 277.621 150.823 278.356 151.268C279.11 151.713 279.671 152.399 280.038 153.327C280.425 154.255 280.618 155.434 280.618 156.865V166H279.168V156.923C279.168 155.802 279.013 154.883 278.704 154.168C278.414 153.433 277.979 152.892 277.399 152.544C276.819 152.177 276.094 151.993 275.224 151.993C274.47 151.993 273.784 152.128 273.165 152.399C272.546 152.65 272.005 152.998 271.541 153.443C271.077 153.888 270.719 154.4 270.468 154.98C270.217 155.541 270.091 156.14 270.091 156.778V166H269.366C269.347 166 269.279 166 269.163 166C269.066 166 268.892 166 268.641 166ZM290.815 166.29C289.442 166.29 288.214 165.952 287.132 165.275C286.049 164.598 285.189 163.67 284.551 162.491C283.932 161.312 283.623 159.968 283.623 158.46C283.623 156.933 283.942 155.579 284.58 154.4C285.237 153.221 286.107 152.293 287.19 151.616C288.272 150.939 289.481 150.601 290.815 150.601C291.588 150.601 292.323 150.717 293.019 150.949C293.715 151.181 294.343 151.51 294.904 151.935C295.464 152.341 295.948 152.824 296.354 153.385C296.76 153.946 297.05 154.555 297.224 155.212L296.731 154.719V144.54H298.181V166H296.789L296.673 162.085L297.224 161.679C297.05 162.317 296.76 162.916 296.354 163.477C295.948 164.038 295.464 164.531 294.904 164.956C294.343 165.381 293.715 165.71 293.019 165.942C292.323 166.174 291.588 166.29 290.815 166.29ZM291.018 164.84C292.12 164.84 293.106 164.569 293.976 164.028C294.865 163.467 295.561 162.713 296.064 161.766C296.586 160.799 296.847 159.688 296.847 158.431C296.847 157.194 296.595 156.101 296.093 155.154C295.59 154.187 294.894 153.433 294.005 152.892C293.135 152.331 292.139 152.051 291.018 152.051C289.877 152.051 288.862 152.331 287.973 152.892C287.103 153.433 286.416 154.187 285.914 155.154C285.411 156.101 285.16 157.194 285.16 158.431C285.16 159.649 285.401 160.741 285.885 161.708C286.387 162.675 287.074 163.438 287.944 163.999C288.833 164.56 289.858 164.84 291.018 164.84ZM48.0248 202.29C46.6521 202.29 45.4245 201.952 44.3418 201.275C43.2591 200.598 42.3988 199.67 41.7608 198.491C41.1421 197.312 40.8328 195.968 40.8328 194.46C40.8328 192.933 41.1518 191.579 41.7898 190.4C42.4471 189.221 43.3171 188.293 44.3998 187.616C45.4825 186.939 46.6908 186.601 48.0248 186.601C48.7981 186.601 49.5328 186.717 50.2288 186.949C50.9248 187.181 51.5531 187.51 52.1138 187.935C52.6745 188.341 53.1578 188.824 53.5638 189.385C53.9698 189.946 54.2598 190.555 54.4338 191.212L53.8538 190.835L53.9988 186.92H55.3908V202H53.9408V198.23L54.4338 197.679C54.2598 198.317 53.9698 198.916 53.5638 199.477C53.1578 200.038 52.6745 200.531 52.1138 200.956C51.5531 201.381 50.9248 201.71 50.2288 201.942C49.5328 202.174 48.7981 202.29 48.0248 202.29ZM48.2278 200.84C49.3298 200.84 50.3158 200.569 51.1858 200.028C52.0751 199.467 52.7711 198.713 53.2738 197.766C53.7958 196.799 54.0568 195.688 54.0568 194.431C54.0568 193.194 53.8055 192.101 53.3028 191.154C52.8001 190.187 52.1041 189.433 51.2148 188.892C50.3448 188.331 49.3491 188.051 48.2278 188.051C47.0871 188.051 46.0721 188.331 45.1828 188.892C44.3128 189.433 43.6265 190.187 43.1238 191.154C42.6211 192.101 42.3698 193.194 42.3698 194.431C42.3698 195.649 42.6115 196.741 43.0948 197.708C43.5975 198.675 44.2838 199.438 45.1538 199.999C46.0431 200.56 47.0678 200.84 48.2278 200.84ZM59.695 202V180.54H61.145V202H59.695ZM71.4525 202.29C70.0025 202.29 68.7071 201.961 67.5665 201.304C66.4451 200.647 65.5655 199.728 64.9275 198.549C64.2895 197.37 63.9705 195.997 63.9705 194.431C63.9705 193.29 64.1445 192.246 64.4925 191.299C64.8598 190.352 65.3625 189.53 66.0005 188.834C66.6385 188.119 67.4021 187.568 68.2915 187.181C69.2001 186.794 70.1861 186.601 71.2495 186.601C72.2935 186.601 73.2311 186.775 74.0625 187.123C74.9131 187.471 75.6285 187.974 76.2085 188.631C76.7885 189.269 77.2235 190.033 77.5135 190.922C77.8035 191.792 77.9291 192.759 77.8905 193.822L77.8615 194.605H65.0435V193.271H77.0785L76.4405 193.793V193.097C76.4405 192.324 76.2471 191.55 75.8605 190.777C75.4931 190.004 74.9228 189.356 74.1495 188.834C73.3761 188.312 72.3998 188.051 71.2205 188.051C70.1185 188.051 69.1325 188.293 68.2625 188.776C67.4118 189.259 66.7351 189.965 66.2325 190.893C65.7491 191.821 65.5075 192.971 65.5075 194.344C65.5075 195.659 65.7491 196.809 66.2325 197.795C66.7158 198.762 67.4118 199.516 68.3205 200.057C69.2485 200.579 70.3795 200.84 71.7135 200.84C72.4288 200.84 73.1635 200.724 73.9175 200.492C74.6715 200.26 75.5221 199.757 76.4695 198.984L77.2235 200.057C76.7981 200.463 76.2955 200.84 75.7155 201.188C75.1355 201.517 74.4878 201.787 73.7725 202C73.0571 202.193 72.2838 202.29 71.4525 202.29ZM80.8206 202V186.92H82.2126L82.3576 190.284H82.1546C82.3673 189.646 82.6959 189.047 83.1406 188.486C83.5853 187.925 84.1266 187.471 84.7646 187.123C85.4219 186.775 86.1759 186.601 87.0266 186.601C87.3553 186.601 87.6549 186.63 87.9256 186.688C88.2156 186.727 88.4766 186.775 88.7086 186.833L88.2736 188.515C88.0029 188.399 87.7419 188.322 87.4906 188.283C87.2393 188.244 87.0169 188.225 86.8236 188.225C86.0503 188.225 85.3736 188.36 84.7936 188.631C84.2329 188.902 83.7593 189.279 83.3726 189.762C83.0053 190.226 82.7249 190.758 82.5316 191.357C82.3576 191.956 82.2706 192.585 82.2706 193.242V202H80.8206ZM93.6751 202V182.889H95.1251V202H93.6751ZM90.0501 188.254V186.92H99.1851V188.254H90.0501ZM113.385 202L108.049 186.92H109.731L114.168 200.086L113.385 200.028L118.199 189.182H119.069L123.883 200.028L122.955 200.086L127.537 186.92H129.132L123.796 202H123.245L118.112 190.197H119.156L114.023 202H113.385ZM131.486 202V180.54H132.936V190.4L132.588 190.951C132.8 190.042 133.206 189.269 133.806 188.631C134.405 187.974 135.101 187.471 135.894 187.123C136.706 186.775 137.518 186.601 138.33 186.601C139.49 186.601 140.447 186.823 141.201 187.268C141.974 187.713 142.544 188.399 142.912 189.327C143.279 190.255 143.463 191.434 143.463 192.865V202H142.013V192.923C142.013 191.802 141.868 190.883 141.578 190.168C141.288 189.433 140.843 188.892 140.244 188.544C139.664 188.177 138.919 187.993 138.011 187.993C137.295 187.993 136.628 188.128 136.01 188.399C135.391 188.65 134.85 188.998 134.386 189.443C133.941 189.888 133.583 190.4 133.313 190.98C133.061 191.541 132.936 192.14 132.936 192.778V202H132.211C132.191 202 132.124 202 132.008 202C131.911 202 131.737 202 131.486 202ZM153.95 202.29C152.5 202.29 151.204 201.961 150.064 201.304C148.942 200.647 148.063 199.728 147.425 198.549C146.787 197.37 146.468 195.997 146.468 194.431C146.468 193.29 146.642 192.246 146.99 191.299C147.357 190.352 147.86 189.53 148.498 188.834C149.136 188.119 149.899 187.568 150.789 187.181C151.697 186.794 152.683 186.601 153.747 186.601C154.791 186.601 155.728 186.775 156.56 187.123C157.41 187.471 158.126 187.974 158.706 188.631C159.286 189.269 159.721 190.033 160.011 190.922C160.301 191.792 160.426 192.759 160.388 193.822L160.359 194.605H147.541V193.271H159.576L158.938 193.793V193.097C158.938 192.324 158.744 191.55 158.358 190.777C157.99 190.004 157.42 189.356 156.647 188.834C155.873 188.312 154.897 188.051 153.718 188.051C152.616 188.051 151.63 188.293 150.76 188.776C149.909 189.259 149.232 189.965 148.73 190.893C148.246 191.821 148.005 192.971 148.005 194.344C148.005 195.659 148.246 196.809 148.73 197.795C149.213 198.762 149.909 199.516 150.818 200.057C151.746 200.579 152.877 200.84 154.211 200.84C154.926 200.84 155.661 200.724 156.415 200.492C157.169 200.26 158.019 199.757 158.967 198.984L159.721 200.057C159.295 200.463 158.793 200.84 158.213 201.188C157.633 201.517 156.985 201.787 156.27 202C155.554 202.193 154.781 202.29 153.95 202.29ZM163.318 202V186.92H164.71L164.855 190.11H164.681C164.893 189.472 165.28 188.892 165.841 188.37C166.401 187.829 167.068 187.403 167.842 187.094C168.634 186.765 169.466 186.601 170.336 186.601C171.399 186.601 172.298 186.823 173.033 187.268C173.787 187.713 174.347 188.399 174.715 189.327C175.101 190.255 175.295 191.434 175.295 192.865V202H173.845V192.923C173.845 191.802 173.69 190.883 173.381 190.168C173.091 189.433 172.656 188.892 172.076 188.544C171.496 188.177 170.771 187.993 169.901 187.993C169.147 187.993 168.46 188.128 167.842 188.399C167.223 188.65 166.682 188.998 166.218 189.443C165.754 189.888 165.396 190.4 165.145 190.98C164.893 191.541 164.768 192.14 164.768 192.778V202H164.043C164.023 202 163.956 202 163.84 202C163.743 202 163.569 202 163.318 202ZM189.908 202V182.889H191.358V202H189.908ZM186.283 188.254V186.92H195.418V188.254H186.283ZM198.038 202V180.54H199.488V190.4L199.14 190.951C199.353 190.042 199.759 189.269 200.358 188.631C200.958 187.974 201.654 187.471 202.446 187.123C203.258 186.775 204.07 186.601 204.882 186.601C206.042 186.601 206.999 186.823 207.753 187.268C208.527 187.713 209.097 188.399 209.464 189.327C209.832 190.255 210.015 191.434 210.015 192.865V202H208.565V192.923C208.565 191.802 208.42 190.883 208.13 190.168C207.84 189.433 207.396 188.892 206.796 188.544C206.216 188.177 205.472 187.993 204.563 187.993C203.848 187.993 203.181 188.128 202.562 188.399C201.944 188.65 201.402 188.998 200.938 189.443C200.494 189.888 200.136 190.4 199.865 190.98C199.614 191.541 199.488 192.14 199.488 192.778V202H198.763C198.744 202 198.676 202 198.56 202C198.464 202 198.29 202 198.038 202ZM220.502 202.29C219.052 202.29 217.757 201.961 216.616 201.304C215.495 200.647 214.615 199.728 213.977 198.549C213.339 197.37 213.02 195.997 213.02 194.431C213.02 193.29 213.194 192.246 213.542 191.299C213.91 190.352 214.412 189.53 215.05 188.834C215.688 188.119 216.452 187.568 217.341 187.181C218.25 186.794 219.236 186.601 220.299 186.601C221.343 186.601 222.281 186.775 223.112 187.123C223.963 187.471 224.678 187.974 225.258 188.631C225.838 189.269 226.273 190.033 226.563 190.922C226.853 191.792 226.979 192.759 226.94 193.822L226.911 194.605H214.093V193.271H226.128L225.49 193.793V193.097C225.49 192.324 225.297 191.55 224.91 190.777C224.543 190.004 223.973 189.356 223.199 188.834C222.426 188.312 221.45 188.051 220.27 188.051C219.168 188.051 218.182 188.293 217.312 188.776C216.462 189.259 215.785 189.965 215.282 190.893C214.799 191.821 214.557 192.971 214.557 194.344C214.557 195.659 214.799 196.809 215.282 197.795C215.766 198.762 216.462 199.516 217.37 200.057C218.298 200.579 219.429 200.84 220.763 200.84C221.479 200.84 222.213 200.724 222.967 200.492C223.721 200.26 224.572 199.757 225.519 198.984L226.273 200.057C225.848 200.463 225.345 200.84 224.765 201.188C224.185 201.517 223.538 201.787 222.822 202C222.107 202.193 221.334 202.29 220.502 202.29ZM244.001 202.29C242.629 202.29 241.401 201.952 240.318 201.275C239.236 200.598 238.375 199.67 237.737 198.491C237.119 197.312 236.809 195.968 236.809 194.46C236.809 192.933 237.128 191.579 237.766 190.4C238.424 189.221 239.294 188.293 240.376 187.616C241.459 186.939 242.667 186.601 244.001 186.601C244.775 186.601 245.509 186.717 246.205 186.949C246.901 187.181 247.53 187.51 248.09 187.935C248.651 188.341 249.134 188.824 249.54 189.385C249.946 189.946 250.236 190.555 250.41 191.212L249.83 190.835L249.975 186.92H251.367V202H249.917V198.23L250.41 197.679C250.236 198.317 249.946 198.916 249.54 199.477C249.134 200.038 248.651 200.531 248.09 200.956C247.53 201.381 246.901 201.71 246.205 201.942C245.509 202.174 244.775 202.29 244.001 202.29ZM244.204 200.84C245.306 200.84 246.292 200.569 247.162 200.028C248.052 199.467 248.748 198.713 249.25 197.766C249.772 196.799 250.033 195.688 250.033 194.431C250.033 193.194 249.782 192.101 249.279 191.154C248.777 190.187 248.081 189.433 247.191 188.892C246.321 188.331 245.326 188.051 244.204 188.051C243.064 188.051 242.049 188.331 241.159 188.892C240.289 189.433 239.603 190.187 239.1 191.154C238.598 192.101 238.346 193.194 238.346 194.431C238.346 195.649 238.588 196.741 239.071 197.708C239.574 198.675 240.26 199.438 241.13 199.999C242.02 200.56 243.044 200.84 244.204 200.84ZM255.614 208.38V186.92H257.006L257.151 190.835L256.774 191.183C257.025 190.313 257.45 189.54 258.05 188.863C258.668 188.167 259.413 187.616 260.283 187.21C261.153 186.804 262.1 186.601 263.125 186.601C264.459 186.601 265.667 186.939 266.75 187.616C267.852 188.293 268.722 189.221 269.36 190.4C270.017 191.579 270.346 192.933 270.346 194.46C270.346 195.968 270.027 197.312 269.389 198.491C268.77 199.67 267.91 200.598 266.808 201.275C265.725 201.952 264.497 202.29 263.125 202.29C262.1 202.29 261.153 202.087 260.283 201.681C259.413 201.275 258.668 200.734 258.05 200.057C257.45 199.361 257.025 198.578 256.774 197.708L257.064 198.085V208.38H255.614ZM262.893 200.84C264.053 200.84 265.077 200.569 265.967 200.028C266.856 199.467 267.552 198.704 268.055 197.737C268.557 196.77 268.809 195.678 268.809 194.46C268.809 193.223 268.548 192.121 268.026 191.154C267.523 190.187 266.827 189.433 265.938 188.892C265.048 188.331 264.033 188.051 262.893 188.051C261.752 188.051 260.727 188.331 259.819 188.892C258.929 189.433 258.224 190.187 257.702 191.154C257.199 192.101 256.948 193.194 256.948 194.431C256.948 195.688 257.209 196.799 257.731 197.766C258.253 198.713 258.958 199.467 259.848 200.028C260.737 200.569 261.752 200.84 262.893 200.84ZM273.399 208.38V186.92H274.791L274.936 190.835L274.559 191.183C274.81 190.313 275.235 189.54 275.835 188.863C276.453 188.167 277.198 187.616 278.068 187.21C278.938 186.804 279.885 186.601 280.91 186.601C282.244 186.601 283.452 186.939 284.535 187.616C285.637 188.293 286.507 189.221 287.145 190.4C287.802 191.579 288.131 192.933 288.131 194.46C288.131 195.968 287.812 197.312 287.174 198.491C286.555 199.67 285.695 200.598 284.593 201.275C283.51 201.952 282.282 202.29 280.91 202.29C279.885 202.29 278.938 202.087 278.068 201.681C277.198 201.275 276.453 200.734 275.835 200.057C275.235 199.361 274.81 198.578 274.559 197.708L274.849 198.085V208.38H273.399ZM280.678 200.84C281.838 200.84 282.862 200.569 283.752 200.028C284.641 199.467 285.337 198.704 285.84 197.737C286.342 196.77 286.594 195.678 286.594 194.46C286.594 193.223 286.333 192.121 285.811 191.154C285.308 190.187 284.612 189.433 283.723 188.892C282.833 188.331 281.818 188.051 280.678 188.051C279.537 188.051 278.512 188.331 277.604 188.892C276.714 189.433 276.009 190.187 275.487 191.154C274.984 192.101 274.733 193.194 274.733 194.431C274.733 195.688 274.994 196.799 275.516 197.766C276.038 198.713 276.743 199.467 277.633 200.028C278.522 200.569 279.537 200.84 280.678 200.84ZM299.979 202V186.92H301.429V202H299.979ZM300.704 183.759C300.278 183.759 299.95 183.643 299.718 183.411C299.486 183.179 299.37 182.86 299.37 182.454C299.37 182.067 299.486 181.758 299.718 181.526C299.95 181.275 300.278 181.149 300.704 181.149C301.129 181.149 301.458 181.265 301.69 181.497C301.922 181.729 302.038 182.048 302.038 182.454C302.038 182.841 301.922 183.16 301.69 183.411C301.458 183.643 301.129 183.759 300.704 183.759ZM311.236 202.29C309.922 202.29 308.752 202.039 307.727 201.536C306.703 201.014 305.92 200.386 305.378 199.651L306.48 198.694C307.002 199.39 307.679 199.931 308.51 200.318C309.342 200.685 310.279 200.869 311.323 200.869C311.903 200.869 312.435 200.811 312.918 200.695C313.402 200.56 313.808 200.376 314.136 200.144C314.484 199.912 314.755 199.632 314.948 199.303C315.142 198.955 315.238 198.568 315.238 198.143C315.238 197.389 314.881 196.751 314.165 196.229C313.837 195.997 313.421 195.784 312.918 195.591C312.416 195.398 311.826 195.204 311.149 195.011C310.125 194.702 309.255 194.412 308.539 194.141C307.824 193.87 307.254 193.532 306.828 193.126C306.519 192.797 306.287 192.449 306.132 192.082C305.978 191.695 305.9 191.28 305.9 190.835C305.9 190.216 306.026 189.656 306.277 189.153C306.529 188.631 306.886 188.177 307.35 187.79C307.814 187.403 308.356 187.113 308.974 186.92C309.593 186.707 310.279 186.601 311.033 186.601C311.749 186.601 312.454 186.707 313.15 186.92C313.846 187.113 314.494 187.394 315.093 187.761C315.693 188.128 316.215 188.554 316.659 189.037L315.673 190.11C315.287 189.685 314.861 189.308 314.397 188.979C313.953 188.65 313.46 188.399 312.918 188.225C312.377 188.032 311.778 187.935 311.12 187.935C310.598 187.935 310.105 188.003 309.641 188.138C309.197 188.273 308.81 188.476 308.481 188.747C308.153 188.998 307.892 189.298 307.698 189.646C307.524 189.975 307.437 190.342 307.437 190.748C307.437 191.057 307.495 191.338 307.611 191.589C307.727 191.821 307.911 192.043 308.162 192.256C308.491 192.527 308.926 192.759 309.467 192.952C310.028 193.145 310.714 193.358 311.526 193.59C312.261 193.783 312.909 193.977 313.469 194.17C314.03 194.363 314.513 194.595 314.919 194.866C315.538 195.253 315.992 195.707 316.282 196.229C316.592 196.751 316.746 197.35 316.746 198.027C316.746 198.858 316.514 199.593 316.05 200.231C315.586 200.869 314.939 201.372 314.107 201.739C313.276 202.106 312.319 202.29 311.236 202.29ZM50.3069 238V222.92H51.7569V238H50.3069ZM51.0319 219.759C50.6066 219.759 50.2779 219.643 50.0459 219.411C49.8139 219.179 49.6979 218.86 49.6979 218.454C49.6979 218.067 49.8139 217.758 50.0459 217.526C50.2779 217.275 50.6066 217.149 51.0319 217.149C51.4573 217.149 51.7859 217.265 52.0179 217.497C52.2499 217.729 52.3659 218.048 52.3659 218.454C52.3659 218.841 52.2499 219.16 52.0179 219.411C51.7859 219.643 51.4573 219.759 51.0319 219.759ZM56.6634 238V222.92H58.0554L58.2004 226.11H58.0264C58.2391 225.472 58.6257 224.892 59.1864 224.37C59.7471 223.829 60.4141 223.403 61.1874 223.094C61.9801 222.765 62.8114 222.601 63.6814 222.601C64.7447 222.601 65.6437 222.823 66.3784 223.268C67.1324 223.713 67.6931 224.399 68.0604 225.327C68.4471 226.255 68.6404 227.434 68.6404 228.865V238H67.1904V228.923C67.1904 227.802 67.0357 226.883 66.7264 226.168C66.4364 225.433 66.0014 224.892 65.4214 224.544C64.8414 224.177 64.1164 223.993 63.2464 223.993C62.4924 223.993 61.8061 224.128 61.1874 224.399C60.5687 224.65 60.0274 224.998 59.5634 225.443C59.0994 225.888 58.7417 226.4 58.4904 226.98C58.2391 227.541 58.1134 228.14 58.1134 228.778V238H57.3884C57.3691 238 57.3014 238 57.1854 238C57.0887 238 56.9147 238 56.6634 238ZM78.8373 238.29C77.4646 238.29 76.237 237.952 75.1543 237.275C74.0716 236.598 73.2113 235.67 72.5733 234.491C71.9546 233.312 71.6453 231.968 71.6453 230.46C71.6453 228.933 71.9643 227.579 72.6023 226.4C73.2596 225.221 74.1296 224.293 75.2123 223.616C76.295 222.939 77.5033 222.601 78.8373 222.601C79.6106 222.601 80.3453 222.717 81.0413 222.949C81.7373 223.181 82.3656 223.51 82.9263 223.935C83.487 224.341 83.9703 224.824 84.3763 225.385C84.7823 225.946 85.0723 226.555 85.2463 227.212L84.6663 226.835L84.8113 222.92H86.2033V238H84.7533V234.23L85.2463 233.679C85.0723 234.317 84.7823 234.916 84.3763 235.477C83.9703 236.038 83.487 236.531 82.9263 236.956C82.3656 237.381 81.7373 237.71 81.0413 237.942C80.3453 238.174 79.6106 238.29 78.8373 238.29ZM79.0403 236.84C80.1423 236.84 81.1283 236.569 81.9983 236.028C82.8876 235.467 83.5836 234.713 84.0863 233.766C84.6083 232.799 84.8693 231.688 84.8693 230.431C84.8693 229.194 84.618 228.101 84.1153 227.154C83.6126 226.187 82.9166 225.433 82.0273 224.892C81.1573 224.331 80.1616 224.051 79.0403 224.051C77.8996 224.051 76.8846 224.331 75.9953 224.892C75.1253 225.433 74.439 226.187 73.9363 227.154C73.4336 228.101 73.1823 229.194 73.1823 230.431C73.1823 231.649 73.424 232.741 73.9073 233.708C74.41 234.675 75.0963 235.438 75.9663 235.999C76.8556 236.56 77.8803 236.84 79.0403 236.84ZM96.7715 238.29C95.3215 238.29 94.0262 237.952 92.8855 237.275C91.7642 236.598 90.8749 235.67 90.2175 234.491C89.5795 233.312 89.2605 231.958 89.2605 230.431C89.2605 228.904 89.5795 227.55 90.2175 226.371C90.8749 225.192 91.7739 224.273 92.9145 223.616C94.0552 222.939 95.3699 222.601 96.8585 222.601C98.0959 222.601 99.2172 222.843 100.223 223.326C101.247 223.809 102.098 224.486 102.775 225.356L101.847 226.487C101.421 225.965 100.938 225.53 100.397 225.182C99.8552 224.815 99.2752 224.534 98.6565 224.341C98.0379 224.148 97.3999 224.051 96.7425 224.051C95.6019 224.051 94.5869 224.331 93.6975 224.892C92.8082 225.433 92.1025 226.187 91.5805 227.154C91.0585 228.101 90.7975 229.194 90.7975 230.431C90.7975 231.668 91.0489 232.77 91.5515 233.737C92.0735 234.704 92.7792 235.467 93.6685 236.028C94.5579 236.569 95.5535 236.84 96.6555 236.84C97.2935 236.84 97.9219 236.743 98.5405 236.55C99.1592 236.357 99.7392 236.086 100.281 235.738C100.822 235.371 101.315 234.926 101.76 234.404L102.688 235.535C101.992 236.405 101.112 237.082 100.049 237.565C99.0045 238.048 97.9122 238.29 96.7715 238.29ZM107.75 238V218.889H109.2V238H107.75ZM104.125 224.254V222.92H113.26V224.254H104.125ZM116.548 238V222.92H117.998V238H116.548ZM117.273 219.759C116.848 219.759 116.519 219.643 116.287 219.411C116.055 219.179 115.939 218.86 115.939 218.454C115.939 218.067 116.055 217.758 116.287 217.526C116.519 217.275 116.848 217.149 117.273 217.149C117.698 217.149 118.027 217.265 118.259 217.497C118.491 217.729 118.607 218.048 118.607 218.454C118.607 218.841 118.491 219.16 118.259 219.411C118.027 219.643 117.698 219.759 117.273 219.759ZM127.371 238L121.02 222.92H122.702L128.096 236.231L127.487 236.637L133.577 222.92H135.201L128.357 238H127.371ZM143.414 238.29C141.964 238.29 140.669 237.961 139.528 237.304C138.407 236.647 137.527 235.728 136.889 234.549C136.251 233.37 135.932 231.997 135.932 230.431C135.932 229.29 136.106 228.246 136.454 227.299C136.822 226.352 137.324 225.53 137.962 224.834C138.6 224.119 139.364 223.568 140.253 223.181C141.162 222.794 142.148 222.601 143.211 222.601C144.255 222.601 145.193 222.775 146.024 223.123C146.875 223.471 147.59 223.974 148.17 224.631C148.75 225.269 149.185 226.033 149.475 226.922C149.765 227.792 149.891 228.759 149.852 229.822L149.823 230.605H137.005V229.271H149.04L148.402 229.793V229.097C148.402 228.324 148.209 227.55 147.822 226.777C147.455 226.004 146.885 225.356 146.111 224.834C145.338 224.312 144.362 224.051 143.182 224.051C142.08 224.051 141.094 224.293 140.224 224.776C139.374 225.259 138.697 225.965 138.194 226.893C137.711 227.821 137.469 228.971 137.469 230.344C137.469 231.659 137.711 232.809 138.194 233.795C138.678 234.762 139.374 235.516 140.282 236.057C141.21 236.579 142.341 236.84 143.675 236.84C144.391 236.84 145.125 236.724 145.879 236.492C146.633 236.26 147.484 235.757 148.431 234.984L149.185 236.057C148.76 236.463 148.257 236.84 147.677 237.188C147.097 237.517 146.45 237.787 145.734 238C145.019 238.193 144.246 238.29 143.414 238.29ZM152.928 242.379L152.406 241.625C152.947 241.296 153.363 240.948 153.653 240.581C153.943 240.214 154.088 239.827 154.088 239.421C154.088 239.189 154.059 238.976 154.001 238.783C153.943 238.59 153.749 238.358 153.421 238.087C153.247 237.952 153.092 237.787 152.957 237.594C152.841 237.381 152.783 237.159 152.783 236.927C152.783 236.598 152.889 236.337 153.102 236.144C153.314 235.931 153.604 235.825 153.972 235.825C154.378 235.825 154.716 235.922 154.987 236.115C155.257 236.289 155.46 236.56 155.596 236.927C155.75 237.275 155.828 237.691 155.828 238.174C155.828 238.638 155.77 239.054 155.654 239.421C155.557 239.808 155.383 240.165 155.132 240.494C154.9 240.842 154.6 241.171 154.233 241.48C153.885 241.789 153.45 242.089 152.928 242.379ZM167.679 244.38V222.92H169.071L169.216 226.835L168.839 227.183C169.09 226.313 169.516 225.54 170.115 224.863C170.734 224.167 171.478 223.616 172.348 223.21C173.218 222.804 174.165 222.601 175.19 222.601C176.524 222.601 177.732 222.939 178.815 223.616C179.917 224.293 180.787 225.221 181.425 226.4C182.082 227.579 182.411 228.933 182.411 230.46C182.411 231.968 182.092 233.312 181.454 234.491C180.835 235.67 179.975 236.598 178.873 237.275C177.79 237.952 176.563 238.29 175.19 238.29C174.165 238.29 173.218 238.087 172.348 237.681C171.478 237.275 170.734 236.734 170.115 236.057C169.516 235.361 169.09 234.578 168.839 233.708L169.129 234.085V244.38H167.679ZM174.958 236.84C176.118 236.84 177.143 236.569 178.032 236.028C178.921 235.467 179.617 234.704 180.12 233.737C180.623 232.77 180.874 231.678 180.874 230.46C180.874 229.223 180.613 228.121 180.091 227.154C179.588 226.187 178.892 225.433 178.003 224.892C177.114 224.331 176.099 224.051 174.958 224.051C173.817 224.051 172.793 224.331 171.884 224.892C170.995 225.433 170.289 226.187 169.767 227.154C169.264 228.101 169.013 229.194 169.013 230.431C169.013 231.688 169.274 232.799 169.796 233.766C170.318 234.713 171.024 235.467 171.913 236.028C172.802 236.569 173.817 236.84 174.958 236.84ZM191.757 238.29C190.307 238.29 189.012 237.961 187.871 237.304C186.75 236.647 185.87 235.728 185.232 234.549C184.594 233.37 184.275 231.997 184.275 230.431C184.275 229.29 184.449 228.246 184.797 227.299C185.165 226.352 185.667 225.53 186.305 224.834C186.943 224.119 187.707 223.568 188.596 223.181C189.505 222.794 190.491 222.601 191.554 222.601C192.598 222.601 193.536 222.775 194.367 223.123C195.218 223.471 195.933 223.974 196.513 224.631C197.093 225.269 197.528 226.033 197.818 226.922C198.108 227.792 198.234 228.759 198.195 229.822L198.166 230.605H185.348V229.271H197.383L196.745 229.793V229.097C196.745 228.324 196.552 227.55 196.165 226.777C195.798 226.004 195.228 225.356 194.454 224.834C193.681 224.312 192.705 224.051 191.525 224.051C190.423 224.051 189.437 224.293 188.567 224.776C187.717 225.259 187.04 225.965 186.537 226.893C186.054 227.821 185.812 228.971 185.812 230.344C185.812 231.659 186.054 232.809 186.537 233.795C187.021 234.762 187.717 235.516 188.625 236.057C189.553 236.579 190.684 236.84 192.018 236.84C192.734 236.84 193.468 236.724 194.222 236.492C194.976 236.26 195.827 235.757 196.774 234.984L197.528 236.057C197.103 236.463 196.6 236.84 196.02 237.188C195.44 237.517 194.793 237.787 194.077 238C193.362 238.193 192.589 238.29 191.757 238.29ZM201.125 238V222.92H202.517L202.662 226.284H202.459C202.672 225.646 203.001 225.047 203.445 224.486C203.89 223.925 204.431 223.471 205.069 223.123C205.727 222.775 206.481 222.601 207.331 222.601C207.66 222.601 207.96 222.63 208.23 222.688C208.52 222.727 208.781 222.775 209.013 222.833L208.578 224.515C208.308 224.399 208.047 224.322 207.795 224.283C207.544 224.244 207.322 224.225 207.128 224.225C206.355 224.225 205.678 224.36 205.098 224.631C204.538 224.902 204.064 225.279 203.677 225.762C203.31 226.226 203.03 226.758 202.836 227.357C202.662 227.956 202.575 228.585 202.575 229.242V238H201.125ZM211.122 238V222.92H212.514L212.659 226.574L212.311 226.516C212.485 225.897 212.756 225.346 213.123 224.863C213.51 224.38 213.955 223.974 214.457 223.645C214.979 223.297 215.55 223.036 216.168 222.862C216.787 222.688 217.444 222.601 218.14 222.601C218.875 222.601 219.542 222.727 220.141 222.978C220.76 223.229 221.292 223.684 221.736 224.341C222.181 224.998 222.529 225.926 222.78 227.125L222.2 226.719L222.403 226.226C222.597 225.762 222.877 225.317 223.244 224.892C223.612 224.447 224.047 224.061 224.549 223.732C225.052 223.384 225.613 223.113 226.231 222.92C226.869 222.707 227.546 222.601 228.261 222.601C229.267 222.601 230.127 222.823 230.842 223.268C231.558 223.713 232.099 224.399 232.466 225.327C232.853 226.255 233.046 227.434 233.046 228.865V238H231.596V228.923C231.596 227.802 231.451 226.883 231.161 226.168C230.891 225.433 230.475 224.892 229.914 224.544C229.373 224.177 228.696 223.993 227.884 223.993C227.13 223.993 226.444 224.128 225.825 224.399C225.207 224.65 224.675 224.998 224.23 225.443C223.786 225.888 223.438 226.4 223.186 226.98C222.935 227.541 222.809 228.14 222.809 228.778V238H221.359V228.923C221.359 227.802 221.214 226.883 220.924 226.168C220.654 225.433 220.238 224.892 219.677 224.544C219.117 224.177 218.43 223.993 217.618 223.993C216.884 223.993 216.207 224.128 215.588 224.399C214.97 224.65 214.438 224.998 213.993 225.443C213.549 225.888 213.201 226.4 212.949 226.98C212.698 227.541 212.572 228.14 212.572 228.778V238H211.122ZM237.929 238V222.92H239.379V238H237.929ZM238.654 219.759C238.229 219.759 237.9 219.643 237.668 219.411C237.436 219.179 237.32 218.86 237.32 218.454C237.32 218.067 237.436 217.758 237.668 217.526C237.9 217.275 238.229 217.149 238.654 217.149C239.079 217.149 239.408 217.265 239.64 217.497C239.872 217.729 239.988 218.048 239.988 218.454C239.988 218.841 239.872 219.16 239.64 219.411C239.408 219.643 239.079 219.759 238.654 219.759ZM249.186 238.29C247.872 238.29 246.702 238.039 245.677 237.536C244.653 237.014 243.87 236.386 243.328 235.651L244.43 234.694C244.952 235.39 245.629 235.931 246.46 236.318C247.292 236.685 248.229 236.869 249.273 236.869C249.853 236.869 250.385 236.811 250.868 236.695C251.352 236.56 251.758 236.376 252.086 236.144C252.434 235.912 252.705 235.632 252.898 235.303C253.092 234.955 253.188 234.568 253.188 234.143C253.188 233.389 252.831 232.751 252.115 232.229C251.787 231.997 251.371 231.784 250.868 231.591C250.366 231.398 249.776 231.204 249.099 231.011C248.075 230.702 247.205 230.412 246.489 230.141C245.774 229.87 245.204 229.532 244.778 229.126C244.469 228.797 244.237 228.449 244.082 228.082C243.928 227.695 243.85 227.28 243.85 226.835C243.85 226.216 243.976 225.656 244.227 225.153C244.479 224.631 244.836 224.177 245.3 223.79C245.764 223.403 246.306 223.113 246.924 222.92C247.543 222.707 248.229 222.601 248.983 222.601C249.699 222.601 250.404 222.707 251.1 222.92C251.796 223.113 252.444 223.394 253.043 223.761C253.643 224.128 254.165 224.554 254.609 225.037L253.623 226.11C253.237 225.685 252.811 225.308 252.347 224.979C251.903 224.65 251.41 224.399 250.868 224.225C250.327 224.032 249.728 223.935 249.07 223.935C248.548 223.935 248.055 224.003 247.591 224.138C247.147 224.273 246.76 224.476 246.431 224.747C246.103 224.998 245.842 225.298 245.648 225.646C245.474 225.975 245.387 226.342 245.387 226.748C245.387 227.057 245.445 227.338 245.561 227.589C245.677 227.821 245.861 228.043 246.112 228.256C246.441 228.527 246.876 228.759 247.417 228.952C247.978 229.145 248.664 229.358 249.476 229.59C250.211 229.783 250.859 229.977 251.419 230.17C251.98 230.363 252.463 230.595 252.869 230.866C253.488 231.253 253.942 231.707 254.232 232.229C254.542 232.751 254.696 233.35 254.696 234.027C254.696 234.858 254.464 235.593 254 236.231C253.536 236.869 252.889 237.372 252.057 237.739C251.226 238.106 250.269 238.29 249.186 238.29ZM263.063 238.29C261.749 238.29 260.579 238.039 259.554 237.536C258.53 237.014 257.747 236.386 257.205 235.651L258.307 234.694C258.829 235.39 259.506 235.931 260.337 236.318C261.169 236.685 262.106 236.869 263.15 236.869C263.73 236.869 264.262 236.811 264.745 236.695C265.229 236.56 265.635 236.376 265.963 236.144C266.311 235.912 266.582 235.632 266.775 235.303C266.969 234.955 267.065 234.568 267.065 234.143C267.065 233.389 266.708 232.751 265.992 232.229C265.664 231.997 265.248 231.784 264.745 231.591C264.243 231.398 263.653 231.204 262.976 231.011C261.952 230.702 261.082 230.412 260.366 230.141C259.651 229.87 259.081 229.532 258.655 229.126C258.346 228.797 258.114 228.449 257.959 228.082C257.805 227.695 257.727 227.28 257.727 226.835C257.727 226.216 257.853 225.656 258.104 225.153C258.356 224.631 258.713 224.177 259.177 223.79C259.641 223.403 260.183 223.113 260.801 222.92C261.42 222.707 262.106 222.601 262.86 222.601C263.576 222.601 264.281 222.707 264.977 222.92C265.673 223.113 266.321 223.394 266.92 223.761C267.52 224.128 268.042 224.554 268.486 225.037L267.5 226.11C267.114 225.685 266.688 225.308 266.224 224.979C265.78 224.65 265.287 224.399 264.745 224.225C264.204 224.032 263.605 223.935 262.947 223.935C262.425 223.935 261.932 224.003 261.468 224.138C261.024 224.273 260.637 224.476 260.308 224.747C259.98 224.998 259.719 225.298 259.525 225.646C259.351 225.975 259.264 226.342 259.264 226.748C259.264 227.057 259.322 227.338 259.438 227.589C259.554 227.821 259.738 228.043 259.989 228.256C260.318 228.527 260.753 228.759 261.294 228.952C261.855 229.145 262.541 229.358 263.353 229.59C264.088 229.783 264.736 229.977 265.296 230.17C265.857 230.363 266.34 230.595 266.746 230.866C267.365 231.253 267.819 231.707 268.109 232.229C268.419 232.751 268.573 233.35 268.573 234.027C268.573 234.858 268.341 235.593 267.877 236.231C267.413 236.869 266.766 237.372 265.934 237.739C265.103 238.106 264.146 238.29 263.063 238.29ZM272.706 238V222.92H274.156V238H272.706ZM273.431 219.759C273.006 219.759 272.677 219.643 272.445 219.411C272.213 219.179 272.097 218.86 272.097 218.454C272.097 218.067 272.213 217.758 272.445 217.526C272.677 217.275 273.006 217.149 273.431 217.149C273.857 217.149 274.185 217.265 274.417 217.497C274.649 217.729 274.765 218.048 274.765 218.454C274.765 218.841 274.649 219.16 274.417 219.411C274.185 219.643 273.857 219.759 273.431 219.759ZM285.646 238.29C284.138 238.29 282.794 237.952 281.615 237.275C280.455 236.598 279.536 235.661 278.86 234.462C278.202 233.263 277.874 231.9 277.874 230.373C277.874 228.865 278.202 227.531 278.86 226.371C279.536 225.192 280.455 224.273 281.615 223.616C282.794 222.939 284.138 222.601 285.646 222.601C287.154 222.601 288.488 222.939 289.648 223.616C290.827 224.273 291.745 225.192 292.403 226.371C293.06 227.531 293.389 228.865 293.389 230.373C293.389 231.9 293.06 233.263 292.403 234.462C291.745 235.661 290.827 236.598 289.648 237.275C288.488 237.952 287.154 238.29 285.646 238.29ZM285.646 236.84C286.844 236.84 287.908 236.56 288.836 235.999C289.783 235.438 290.518 234.675 291.04 233.708C291.581 232.741 291.852 231.63 291.852 230.373C291.852 229.155 291.581 228.072 291.04 227.125C290.518 226.158 289.783 225.404 288.836 224.863C287.908 224.322 286.844 224.051 285.646 224.051C284.428 224.051 283.345 224.322 282.398 224.863C281.47 225.404 280.735 226.158 280.194 227.125C279.672 228.072 279.411 229.155 279.411 230.373C279.411 231.63 279.672 232.741 280.194 233.708C280.735 234.675 281.47 235.438 282.398 235.999C283.345 236.56 284.428 236.84 285.646 236.84ZM296.423 238V222.92H297.815L297.96 226.11H297.786C297.999 225.472 298.385 224.892 298.946 224.37C299.507 223.829 300.174 223.403 300.947 223.094C301.74 222.765 302.571 222.601 303.441 222.601C304.504 222.601 305.403 222.823 306.138 223.268C306.892 223.713 307.453 224.399 307.82 225.327C308.207 226.255 308.4 227.434 308.4 228.865V238H306.95V228.923C306.95 227.802 306.795 226.883 306.486 226.168C306.196 225.433 305.761 224.892 305.181 224.544C304.601 224.177 303.876 223.993 303.006 223.993C302.252 223.993 301.566 224.128 300.947 224.399C300.328 224.65 299.787 224.998 299.323 225.443C298.859 225.888 298.501 226.4 298.25 226.98C297.999 227.541 297.873 228.14 297.873 228.778V238H297.148C297.129 238 297.061 238 296.945 238C296.848 238 296.674 238 296.423 238ZM38.2414 274V255.991C38.2414 255.353 38.3864 254.792 38.6764 254.309C38.9664 253.806 39.382 253.41 39.9234 253.12C40.4647 252.83 41.093 252.685 41.8084 252.685C42.427 252.685 42.9684 252.791 43.4324 253.004C43.8964 253.217 44.2927 253.516 44.6214 253.903L44.0704 255.063C43.703 254.657 43.3164 254.386 42.9104 254.251C42.5044 254.096 42.1177 254.019 41.7504 254.019C41.3057 254.019 40.9287 254.096 40.6194 254.251C40.3294 254.406 40.0974 254.638 39.9234 254.947C39.7687 255.237 39.6914 255.595 39.6914 256.02V274H39.1694C38.976 274 38.802 274 38.6474 274C38.512 274 38.3767 274 38.2414 274ZM35.3124 260.254V258.92H43.8094V260.254H35.3124ZM52.9944 274.29C51.4864 274.29 50.1428 273.952 48.9634 273.275C47.8034 272.598 46.8851 271.661 46.2084 270.462C45.5511 269.263 45.2224 267.9 45.2224 266.373C45.2224 264.865 45.5511 263.531 46.2084 262.371C46.8851 261.192 47.8034 260.273 48.9634 259.616C50.1428 258.939 51.4864 258.601 52.9944 258.601C54.5024 258.601 55.8364 258.939 56.9964 259.616C58.1758 260.273 59.0941 261.192 59.7514 262.371C60.4088 263.531 60.7374 264.865 60.7374 266.373C60.7374 267.9 60.4088 269.263 59.7514 270.462C59.0941 271.661 58.1758 272.598 56.9964 273.275C55.8364 273.952 54.5024 274.29 52.9944 274.29ZM52.9944 272.84C54.1931 272.84 55.2564 272.56 56.1844 271.999C57.1318 271.438 57.8664 270.675 58.3884 269.708C58.9298 268.741 59.2004 267.63 59.2004 266.373C59.2004 265.155 58.9298 264.072 58.3884 263.125C57.8664 262.158 57.1318 261.404 56.1844 260.863C55.2564 260.322 54.1931 260.051 52.9944 260.051C51.7764 260.051 50.6938 260.322 49.7464 260.863C48.8184 261.404 48.0838 262.158 47.5424 263.125C47.0204 264.072 46.7594 265.155 46.7594 266.373C46.7594 267.63 47.0204 268.741 47.5424 269.708C48.0838 270.675 48.8184 271.438 49.7464 271.999C50.6938 272.56 51.7764 272.84 52.9944 272.84ZM63.7718 274V258.92H65.1638L65.3088 262.284H65.1058C65.3185 261.646 65.6471 261.047 66.0918 260.486C66.5365 259.925 67.0778 259.471 67.7158 259.123C68.3731 258.775 69.1271 258.601 69.9778 258.601C70.3065 258.601 70.6061 258.63 70.8768 258.688C71.1668 258.727 71.4278 258.775 71.6598 258.833L71.2248 260.515C70.9541 260.399 70.6931 260.322 70.4418 260.283C70.1905 260.244 69.9681 260.225 69.7748 260.225C69.0015 260.225 68.3248 260.36 67.7448 260.631C67.1841 260.902 66.7105 261.279 66.3238 261.762C65.9565 262.226 65.6761 262.758 65.4828 263.357C65.3088 263.956 65.2218 264.585 65.2218 265.242V274H63.7718ZM84.1878 274V254.889H85.6378V274H84.1878ZM80.5628 260.254V258.92H89.6978V260.254H80.5628ZM92.3187 274V252.54H93.7687V262.4L93.4207 262.951C93.6333 262.042 94.0393 261.269 94.6387 260.631C95.238 259.974 95.934 259.471 96.7267 259.123C97.5387 258.775 98.3507 258.601 99.1627 258.601C100.323 258.601 101.28 258.823 102.034 259.268C102.807 259.713 103.377 260.399 103.745 261.327C104.112 262.255 104.296 263.434 104.296 264.865V274H102.846V264.923C102.846 263.802 102.701 262.883 102.411 262.168C102.121 261.433 101.676 260.892 101.077 260.544C100.497 260.177 99.7523 259.993 98.8437 259.993C98.1283 259.993 97.4613 260.128 96.8427 260.399C96.224 260.65 95.6827 260.998 95.2187 261.443C94.774 261.888 94.4163 262.4 94.1457 262.98C93.8943 263.541 93.7687 264.14 93.7687 264.778V274H93.0437C93.0243 274 92.9567 274 92.8407 274C92.744 274 92.57 274 92.3187 274ZM114.783 274.29C113.333 274.29 112.037 273.961 110.897 273.304C109.775 272.647 108.896 271.728 108.258 270.549C107.62 269.37 107.301 267.997 107.301 266.431C107.301 265.29 107.475 264.246 107.823 263.299C108.19 262.352 108.693 261.53 109.331 260.834C109.969 260.119 110.732 259.568 111.622 259.181C112.53 258.794 113.516 258.601 114.58 258.601C115.624 258.601 116.561 258.775 117.393 259.123C118.243 259.471 118.959 259.974 119.539 260.631C120.119 261.269 120.554 262.033 120.844 262.922C121.134 263.792 121.259 264.759 121.221 265.822L121.192 266.605H108.374V265.271H120.409L119.771 265.793V265.097C119.771 264.324 119.577 263.55 119.191 262.777C118.823 262.004 118.253 261.356 117.48 260.834C116.706 260.312 115.73 260.051 114.551 260.051C113.449 260.051 112.463 260.293 111.593 260.776C110.742 261.259 110.065 261.965 109.563 262.893C109.079 263.821 108.838 264.971 108.838 266.344C108.838 267.659 109.079 268.809 109.563 269.795C110.046 270.762 110.742 271.516 111.651 272.057C112.579 272.579 113.71 272.84 115.044 272.84C115.759 272.84 116.494 272.724 117.248 272.492C118.002 272.26 118.852 271.757 119.8 270.984L120.554 272.057C120.128 272.463 119.626 272.84 119.046 273.188C118.466 273.517 117.818 273.787 117.103 274C116.387 274.193 115.614 274.29 114.783 274.29ZM138.282 274.29C136.909 274.29 135.681 273.952 134.599 273.275C133.516 272.598 132.656 271.67 132.018 270.491C131.399 269.312 131.09 267.968 131.09 266.46C131.09 264.933 131.409 263.579 132.047 262.4C132.704 261.221 133.574 260.293 134.657 259.616C135.739 258.939 136.948 258.601 138.282 258.601C139.055 258.601 139.79 258.717 140.486 258.949C141.182 259.181 141.81 259.51 142.371 259.935C142.931 260.341 143.415 260.824 143.821 261.385C144.227 261.946 144.517 262.555 144.691 263.212L144.111 262.835L144.256 258.92H145.648V274H144.198V270.23L144.691 269.679C144.517 270.317 144.227 270.916 143.821 271.477C143.415 272.038 142.931 272.531 142.371 272.956C141.81 273.381 141.182 273.71 140.486 273.942C139.79 274.174 139.055 274.29 138.282 274.29ZM138.485 272.84C139.587 272.84 140.573 272.569 141.443 272.028C142.332 271.467 143.028 270.713 143.531 269.766C144.053 268.799 144.314 267.688 144.314 266.431C144.314 265.194 144.062 264.101 143.56 263.154C143.057 262.187 142.361 261.433 141.472 260.892C140.602 260.331 139.606 260.051 138.485 260.051C137.344 260.051 136.329 260.331 135.44 260.892C134.57 261.433 133.883 262.187 133.381 263.154C132.878 264.101 132.627 265.194 132.627 266.431C132.627 267.649 132.868 268.741 133.352 269.708C133.854 270.675 134.541 271.438 135.411 271.999C136.3 272.56 137.325 272.84 138.485 272.84ZM149.894 280.38V258.92H151.286L151.431 262.835L151.054 263.183C151.305 262.313 151.731 261.54 152.33 260.863C152.949 260.167 153.693 259.616 154.563 259.21C155.433 258.804 156.38 258.601 157.405 258.601C158.739 258.601 159.947 258.939 161.03 259.616C162.132 260.293 163.002 261.221 163.64 262.4C164.297 263.579 164.626 264.933 164.626 266.46C164.626 267.968 164.307 269.312 163.669 270.491C163.05 271.67 162.19 272.598 161.088 273.275C160.005 273.952 158.778 274.29 157.405 274.29C156.38 274.29 155.433 274.087 154.563 273.681C153.693 273.275 152.949 272.734 152.33 272.057C151.731 271.361 151.305 270.578 151.054 269.708L151.344 270.085V280.38H149.894ZM157.173 272.84C158.333 272.84 159.358 272.569 160.247 272.028C161.136 271.467 161.832 270.704 162.335 269.737C162.838 268.77 163.089 267.678 163.089 266.46C163.089 265.223 162.828 264.121 162.306 263.154C161.803 262.187 161.107 261.433 160.218 260.892C159.329 260.331 158.314 260.051 157.173 260.051C156.032 260.051 155.008 260.331 154.099 260.892C153.21 261.433 152.504 262.187 151.982 263.154C151.479 264.101 151.228 265.194 151.228 266.431C151.228 267.688 151.489 268.799 152.011 269.766C152.533 270.713 153.239 271.467 154.128 272.028C155.017 272.569 156.032 272.84 157.173 272.84ZM167.679 280.38V258.92H169.071L169.216 262.835L168.839 263.183C169.09 262.313 169.516 261.54 170.115 260.863C170.734 260.167 171.478 259.616 172.348 259.21C173.218 258.804 174.165 258.601 175.19 258.601C176.524 258.601 177.732 258.939 178.815 259.616C179.917 260.293 180.787 261.221 181.425 262.4C182.082 263.579 182.411 264.933 182.411 266.46C182.411 267.968 182.092 269.312 181.454 270.491C180.835 271.67 179.975 272.598 178.873 273.275C177.79 273.952 176.563 274.29 175.19 274.29C174.165 274.29 173.218 274.087 172.348 273.681C171.478 273.275 170.734 272.734 170.115 272.057C169.516 271.361 169.09 270.578 168.839 269.708L169.129 270.085V280.38H167.679ZM174.958 272.84C176.118 272.84 177.143 272.569 178.032 272.028C178.921 271.467 179.617 270.704 180.12 269.737C180.623 268.77 180.874 267.678 180.874 266.46C180.874 265.223 180.613 264.121 180.091 263.154C179.588 262.187 178.892 261.433 178.003 260.892C177.114 260.331 176.099 260.051 174.958 260.051C173.817 260.051 172.793 260.331 171.884 260.892C170.995 261.433 170.289 262.187 169.767 263.154C169.264 264.101 169.013 265.194 169.013 266.431C169.013 267.688 169.274 268.799 169.796 269.766C170.318 270.713 171.024 271.467 171.913 272.028C172.802 272.569 173.817 272.84 174.958 272.84ZM195.883 274V254.889H197.333V274H195.883ZM192.258 260.254V258.92H201.393V260.254H192.258ZM210.455 274.29C208.947 274.29 207.604 273.952 206.424 273.275C205.264 272.598 204.346 271.661 203.669 270.462C203.012 269.263 202.683 267.9 202.683 266.373C202.683 264.865 203.012 263.531 203.669 262.371C204.346 261.192 205.264 260.273 206.424 259.616C207.604 258.939 208.947 258.601 210.455 258.601C211.963 258.601 213.297 258.939 214.457 259.616C215.637 260.273 216.555 261.192 217.212 262.371C217.87 263.531 218.198 264.865 218.198 266.373C218.198 267.9 217.87 269.263 217.212 270.462C216.555 271.661 215.637 272.598 214.457 273.275C213.297 273.952 211.963 274.29 210.455 274.29ZM210.455 272.84C211.654 272.84 212.717 272.56 213.645 271.999C214.593 271.438 215.327 270.675 215.849 269.708C216.391 268.741 216.661 267.63 216.661 266.373C216.661 265.155 216.391 264.072 215.849 263.125C215.327 262.158 214.593 261.404 213.645 260.863C212.717 260.322 211.654 260.051 210.455 260.051C209.237 260.051 208.155 260.322 207.207 260.863C206.279 261.404 205.545 262.158 205.003 263.125C204.481 264.072 204.22 265.155 204.22 266.373C204.22 267.63 204.481 268.741 205.003 269.708C205.545 270.675 206.279 271.438 207.207 271.999C208.155 272.56 209.237 272.84 210.455 272.84ZM235.364 274.29C233.991 274.29 232.763 273.952 231.681 273.275C230.598 272.598 229.738 271.67 229.1 270.491C228.481 269.312 228.172 267.968 228.172 266.46C228.172 264.933 228.491 263.579 229.129 262.4C229.786 261.221 230.656 260.293 231.739 259.616C232.821 258.939 234.03 258.601 235.364 258.601C236.137 258.601 236.872 258.717 237.568 258.949C238.264 259.181 238.892 259.51 239.453 259.935C240.013 260.341 240.497 260.824 240.903 261.385C241.309 261.946 241.599 262.555 241.773 263.212L241.193 262.835L241.338 258.92H242.73V274H241.28V270.23L241.773 269.679C241.599 270.317 241.309 270.916 240.903 271.477C240.497 272.038 240.013 272.531 239.453 272.956C238.892 273.381 238.264 273.71 237.568 273.942C236.872 274.174 236.137 274.29 235.364 274.29ZM235.567 272.84C236.669 272.84 237.655 272.569 238.525 272.028C239.414 271.467 240.11 270.713 240.613 269.766C241.135 268.799 241.396 267.688 241.396 266.431C241.396 265.194 241.144 264.101 240.642 263.154C240.139 262.187 239.443 261.433 238.554 260.892C237.684 260.331 236.688 260.051 235.567 260.051C234.426 260.051 233.411 260.331 232.522 260.892C231.652 261.433 230.965 262.187 230.463 263.154C229.96 264.101 229.709 265.194 229.709 266.431C229.709 267.649 229.95 268.741 230.434 269.708C230.936 270.675 231.623 271.438 232.493 271.999C233.382 272.56 234.407 272.84 235.567 272.84ZM246.976 280.38V258.92H248.368L248.513 262.835L248.136 263.183C248.387 262.313 248.813 261.54 249.412 260.863C250.031 260.167 250.775 259.616 251.645 259.21C252.515 258.804 253.462 258.601 254.487 258.601C255.821 258.601 257.029 258.939 258.112 259.616C259.214 260.293 260.084 261.221 260.722 262.4C261.379 263.579 261.708 264.933 261.708 266.46C261.708 267.968 261.389 269.312 260.751 270.491C260.132 271.67 259.272 272.598 258.17 273.275C257.087 273.952 255.86 274.29 254.487 274.29C253.462 274.29 252.515 274.087 251.645 273.681C250.775 273.275 250.031 272.734 249.412 272.057C248.813 271.361 248.387 270.578 248.136 269.708L248.426 270.085V280.38H246.976ZM254.255 272.84C255.415 272.84 256.44 272.569 257.329 272.028C258.218 271.467 258.914 270.704 259.417 269.737C259.92 268.77 260.171 267.678 260.171 266.46C260.171 265.223 259.91 264.121 259.388 263.154C258.885 262.187 258.189 261.433 257.3 260.892C256.411 260.331 255.396 260.051 254.255 260.051C253.114 260.051 252.09 260.331 251.181 260.892C250.292 261.433 249.586 262.187 249.064 263.154C248.561 264.101 248.31 265.194 248.31 266.431C248.31 267.688 248.571 268.799 249.093 269.766C249.615 270.713 250.321 271.467 251.21 272.028C252.099 272.569 253.114 272.84 254.255 272.84ZM264.761 280.38V258.92H266.153L266.298 262.835L265.921 263.183C266.172 262.313 266.598 261.54 267.197 260.863C267.816 260.167 268.56 259.616 269.43 259.21C270.3 258.804 271.247 258.601 272.272 258.601C273.606 258.601 274.814 258.939 275.897 259.616C276.999 260.293 277.869 261.221 278.507 262.4C279.164 263.579 279.493 264.933 279.493 266.46C279.493 267.968 279.174 269.312 278.536 270.491C277.917 271.67 277.057 272.598 275.955 273.275C274.872 273.952 273.645 274.29 272.272 274.29C271.247 274.29 270.3 274.087 269.43 273.681C268.56 273.275 267.816 272.734 267.197 272.057C266.598 271.361 266.172 270.578 265.921 269.708L266.211 270.085V280.38H264.761ZM272.04 272.84C273.2 272.84 274.225 272.569 275.114 272.028C276.003 271.467 276.699 270.704 277.202 269.737C277.705 268.77 277.956 267.678 277.956 266.46C277.956 265.223 277.695 264.121 277.173 263.154C276.67 262.187 275.974 261.433 275.085 260.892C274.196 260.331 273.181 260.051 272.04 260.051C270.899 260.051 269.875 260.331 268.966 260.892C268.077 261.433 267.371 262.187 266.849 263.154C266.346 264.101 266.095 265.194 266.095 266.431C266.095 267.688 266.356 268.799 266.878 269.766C267.4 270.713 268.106 271.467 268.995 272.028C269.884 272.569 270.899 272.84 272.04 272.84ZM288.839 274.29C287.389 274.29 286.094 273.961 284.953 273.304C283.832 272.647 282.952 271.728 282.314 270.549C281.676 269.37 281.357 267.997 281.357 266.431C281.357 265.29 281.531 264.246 281.879 263.299C282.247 262.352 282.749 261.53 283.387 260.834C284.025 260.119 284.789 259.568 285.678 259.181C286.587 258.794 287.573 258.601 288.636 258.601C289.68 258.601 290.618 258.775 291.449 259.123C292.3 259.471 293.015 259.974 293.595 260.631C294.175 261.269 294.61 262.033 294.9 262.922C295.19 263.792 295.316 264.759 295.277 265.822L295.248 266.605H282.43V265.271H294.465L293.827 265.793V265.097C293.827 264.324 293.634 263.55 293.247 262.777C292.88 262.004 292.31 261.356 291.536 260.834C290.763 260.312 289.787 260.051 288.607 260.051C287.505 260.051 286.519 260.293 285.649 260.776C284.799 261.259 284.122 261.965 283.619 262.893C283.136 263.821 282.894 264.971 282.894 266.344C282.894 267.659 283.136 268.809 283.619 269.795C284.103 270.762 284.799 271.516 285.707 272.057C286.635 272.579 287.766 272.84 289.1 272.84C289.816 272.84 290.55 272.724 291.304 272.492C292.058 272.26 292.909 271.757 293.856 270.984L294.61 272.057C294.185 272.463 293.682 272.84 293.102 273.188C292.522 273.517 291.875 273.787 291.159 274C290.444 274.193 289.671 274.29 288.839 274.29ZM304.21 274.29C302.838 274.29 301.61 273.952 300.527 273.275C299.445 272.598 298.584 271.67 297.946 270.491C297.328 269.312 297.018 267.968 297.018 266.46C297.018 264.933 297.337 263.579 297.975 262.4C298.633 261.221 299.503 260.293 300.585 259.616C301.668 258.939 302.876 258.601 304.21 258.601C304.984 258.601 305.718 258.717 306.414 258.949C307.11 259.181 307.739 259.51 308.299 259.935C308.86 260.341 309.343 260.824 309.749 261.385C310.155 261.946 310.445 262.555 310.619 263.212L310.039 262.835L310.184 258.92H311.576V274H310.126V270.23L310.619 269.679C310.445 270.317 310.155 270.916 309.749 271.477C309.343 272.038 308.86 272.531 308.299 272.956C307.739 273.381 307.11 273.71 306.414 273.942C305.718 274.174 304.984 274.29 304.21 274.29ZM304.413 272.84C305.515 272.84 306.501 272.569 307.371 272.028C308.261 271.467 308.957 270.713 309.459 269.766C309.981 268.799 310.242 267.688 310.242 266.431C310.242 265.194 309.991 264.101 309.488 263.154C308.986 262.187 308.29 261.433 307.4 260.892C306.53 260.331 305.535 260.051 304.413 260.051C303.273 260.051 302.258 260.331 301.368 260.892C300.498 261.433 299.812 262.187 299.309 263.154C298.807 264.101 298.555 265.194 298.555 266.431C298.555 267.649 298.797 268.741 299.28 269.708C299.783 270.675 300.469 271.438 301.339 271.999C302.229 272.56 303.253 272.84 304.413 272.84ZM315.823 274V258.92H317.215L317.36 262.284H317.157C317.369 261.646 317.698 261.047 318.143 260.486C318.587 259.925 319.129 259.471 319.767 259.123C320.424 258.775 321.178 258.601 322.029 258.601C322.357 258.601 322.657 258.63 322.928 258.688C323.218 258.727 323.479 258.775 323.711 258.833L323.276 260.515C323.005 260.399 322.744 260.322 322.493 260.283C322.241 260.244 322.019 260.225 321.826 260.225C321.052 260.225 320.376 260.36 319.796 260.631C319.235 260.902 318.761 261.279 318.375 261.762C318.007 262.226 317.727 262.758 317.534 263.357C317.36 263.956 317.273 264.585 317.273 265.242V274H315.823ZM68.9104 310.29C67.4024 310.29 66.0588 309.952 64.8794 309.275C63.7194 308.598 62.8011 307.661 62.1244 306.462C61.4671 305.263 61.1384 303.9 61.1384 302.373C61.1384 300.865 61.4671 299.531 62.1244 298.371C62.8011 297.192 63.7194 296.273 64.8794 295.616C66.0588 294.939 67.4024 294.601 68.9104 294.601C70.4184 294.601 71.7524 294.939 72.9124 295.616C74.0918 296.273 75.0101 297.192 75.6675 298.371C76.3248 299.531 76.6535 300.865 76.6535 302.373C76.6535 303.9 76.3248 305.263 75.6675 306.462C75.0101 307.661 74.0918 308.598 72.9124 309.275C71.7524 309.952 70.4184 310.29 68.9104 310.29ZM68.9104 308.84C70.1091 308.84 71.1724 308.56 72.1004 307.999C73.0478 307.438 73.7824 306.675 74.3045 305.708C74.8458 304.741 75.1164 303.63 75.1164 302.373C75.1164 301.155 74.8458 300.072 74.3045 299.125C73.7824 298.158 73.0478 297.404 72.1004 296.863C71.1724 296.322 70.1091 296.051 68.9104 296.051C67.6924 296.051 66.6098 296.322 65.6624 296.863C64.7344 297.404 63.9998 298.158 63.4584 299.125C62.9364 300.072 62.6754 301.155 62.6754 302.373C62.6754 303.63 62.9364 304.741 63.4584 305.708C63.9998 306.675 64.7344 307.438 65.6624 307.999C66.6098 308.56 67.6924 308.84 68.9104 308.84ZM79.6878 310V294.92H81.0798L81.2248 298.11H81.0508C81.2635 297.472 81.6501 296.892 82.2108 296.37C82.7715 295.829 83.4385 295.403 84.2118 295.094C85.0045 294.765 85.8358 294.601 86.7058 294.601C87.7691 294.601 88.6681 294.823 89.4028 295.268C90.1568 295.713 90.7175 296.399 91.0848 297.327C91.4715 298.255 91.6648 299.434 91.6648 300.865V310H90.2148V300.923C90.2148 299.802 90.0601 298.883 89.7508 298.168C89.4608 297.433 89.0258 296.892 88.4458 296.544C87.8658 296.177 87.1408 295.993 86.2708 295.993C85.5168 295.993 84.8305 296.128 84.2118 296.399C83.5931 296.65 83.0518 296.998 82.5878 297.443C82.1238 297.888 81.7661 298.4 81.5148 298.98C81.2635 299.541 81.1378 300.14 81.1378 300.778V310H80.4128C80.3935 310 80.3258 310 80.2098 310C80.1131 310 79.9391 310 79.6878 310ZM106.278 310V290.889H107.728V310H106.278ZM102.653 296.254V294.92H111.788V296.254H102.653ZM120.85 310.29C119.342 310.29 117.998 309.952 116.819 309.275C115.659 308.598 114.741 307.661 114.064 306.462C113.407 305.263 113.078 303.9 113.078 302.373C113.078 300.865 113.407 299.531 114.064 298.371C114.741 297.192 115.659 296.273 116.819 295.616C117.998 294.939 119.342 294.601 120.85 294.601C122.358 294.601 123.692 294.939 124.852 295.616C126.031 296.273 126.95 297.192 127.607 298.371C128.264 299.531 128.593 300.865 128.593 302.373C128.593 303.9 128.264 305.263 127.607 306.462C126.95 307.661 126.031 308.598 124.852 309.275C123.692 309.952 122.358 310.29 120.85 310.29ZM120.85 308.84C122.049 308.84 123.112 308.56 124.04 307.999C124.987 307.438 125.722 306.675 126.244 305.708C126.785 304.741 127.056 303.63 127.056 302.373C127.056 301.155 126.785 300.072 126.244 299.125C125.722 298.158 124.987 297.404 124.04 296.863C123.112 296.322 122.049 296.051 120.85 296.051C119.632 296.051 118.549 296.322 117.602 296.863C116.674 297.404 115.939 298.158 115.398 299.125C114.876 300.072 114.615 301.155 114.615 302.373C114.615 303.63 114.876 304.741 115.398 305.708C115.939 306.675 116.674 307.438 117.602 307.999C118.549 308.56 119.632 308.84 120.85 308.84ZM131.627 316.38V294.92H133.019L133.164 298.835L132.787 299.183C133.039 298.313 133.464 297.54 134.063 296.863C134.682 296.167 135.426 295.616 136.296 295.21C137.166 294.804 138.114 294.601 139.138 294.601C140.472 294.601 141.681 294.939 142.763 295.616C143.865 296.293 144.735 297.221 145.373 298.4C146.031 299.579 146.359 300.933 146.359 302.46C146.359 303.968 146.04 305.312 145.402 306.491C144.784 307.67 143.923 308.598 142.821 309.275C141.739 309.952 140.511 310.29 139.138 310.29C138.114 310.29 137.166 310.087 136.296 309.681C135.426 309.275 134.682 308.734 134.063 308.057C133.464 307.361 133.039 306.578 132.787 305.708L133.077 306.085V316.38H131.627ZM138.906 308.84C140.066 308.84 141.091 308.569 141.98 308.028C142.87 307.467 143.566 306.704 144.068 305.737C144.571 304.77 144.822 303.678 144.822 302.46C144.822 301.223 144.561 300.121 144.039 299.154C143.537 298.187 142.841 297.433 141.951 296.892C141.062 296.331 140.047 296.051 138.906 296.051C137.766 296.051 136.741 296.331 135.832 296.892C134.943 297.433 134.237 298.187 133.715 299.154C133.213 300.101 132.961 301.194 132.961 302.431C132.961 303.688 133.222 304.799 133.744 305.766C134.266 306.713 134.972 307.467 135.861 308.028C136.751 308.569 137.766 308.84 138.906 308.84ZM157.54 310V294.92H158.932L159.077 298.11H158.903C159.116 297.472 159.503 296.892 160.063 296.37C160.624 295.829 161.291 295.403 162.064 295.094C162.857 294.765 163.688 294.601 164.558 294.601C165.622 294.601 166.521 294.823 167.255 295.268C168.009 295.713 168.57 296.399 168.937 297.327C169.324 298.255 169.517 299.434 169.517 300.865V310H168.067V300.923C168.067 299.802 167.913 298.883 167.603 298.168C167.313 297.433 166.878 296.892 166.298 296.544C165.718 296.177 164.993 295.993 164.123 295.993C163.369 295.993 162.683 296.128 162.064 296.399C161.446 296.65 160.904 296.998 160.44 297.443C159.976 297.888 159.619 298.4 159.367 298.98C159.116 299.541 158.99 300.14 158.99 300.778V310H158.265C158.246 310 158.178 310 158.062 310C157.966 310 157.792 310 157.54 310ZM180.004 310.29C178.554 310.29 177.259 309.961 176.118 309.304C174.997 308.647 174.117 307.728 173.479 306.549C172.841 305.37 172.522 303.997 172.522 302.431C172.522 301.29 172.696 300.246 173.044 299.299C173.412 298.352 173.914 297.53 174.552 296.834C175.19 296.119 175.954 295.568 176.843 295.181C177.752 294.794 178.738 294.601 179.801 294.601C180.845 294.601 181.783 294.775 182.614 295.123C183.465 295.471 184.18 295.974 184.76 296.631C185.34 297.269 185.775 298.033 186.065 298.922C186.355 299.792 186.481 300.759 186.442 301.822L186.413 302.605H173.595V301.271H185.63L184.992 301.793V301.097C184.992 300.324 184.799 299.55 184.412 298.777C184.045 298.004 183.475 297.356 182.701 296.834C181.928 296.312 180.952 296.051 179.772 296.051C178.67 296.051 177.684 296.293 176.814 296.776C175.964 297.259 175.287 297.965 174.784 298.893C174.301 299.821 174.059 300.971 174.059 302.344C174.059 303.659 174.301 304.809 174.784 305.795C175.268 306.762 175.964 307.516 176.872 308.057C177.8 308.579 178.931 308.84 180.265 308.84C180.981 308.84 181.715 308.724 182.469 308.492C183.223 308.26 184.074 307.757 185.021 306.984L185.775 308.057C185.35 308.463 184.847 308.84 184.267 309.188C183.687 309.517 183.04 309.787 182.324 310C181.609 310.193 180.836 310.29 180.004 310.29ZM195.665 310.29C194.215 310.29 192.92 309.961 191.779 309.304C190.658 308.647 189.778 307.728 189.14 306.549C188.502 305.37 188.183 303.997 188.183 302.431C188.183 301.29 188.357 300.246 188.705 299.299C189.073 298.352 189.575 297.53 190.213 296.834C190.851 296.119 191.615 295.568 192.504 295.181C193.413 294.794 194.399 294.601 195.462 294.601C196.506 294.601 197.444 294.775 198.275 295.123C199.126 295.471 199.841 295.974 200.421 296.631C201.001 297.269 201.436 298.033 201.726 298.922C202.016 299.792 202.142 300.759 202.103 301.822L202.074 302.605H189.256V301.271H201.291L200.653 301.793V301.097C200.653 300.324 200.46 299.55 200.073 298.777C199.706 298.004 199.136 297.356 198.362 296.834C197.589 296.312 196.613 296.051 195.433 296.051C194.331 296.051 193.345 296.293 192.475 296.776C191.625 297.259 190.948 297.965 190.445 298.893C189.962 299.821 189.72 300.971 189.72 302.344C189.72 303.659 189.962 304.809 190.445 305.795C190.929 306.762 191.625 307.516 192.533 308.057C193.461 308.579 194.592 308.84 195.926 308.84C196.642 308.84 197.376 308.724 198.13 308.492C198.884 308.26 199.735 307.757 200.682 306.984L201.436 308.057C201.011 308.463 200.508 308.84 199.928 309.188C199.348 309.517 198.701 309.787 197.985 310C197.27 310.193 196.497 310.29 195.665 310.29ZM211.037 310.29C209.664 310.29 208.436 309.952 207.354 309.275C206.271 308.598 205.411 307.67 204.773 306.491C204.154 305.312 203.845 303.968 203.845 302.46C203.845 300.933 204.164 299.579 204.802 298.4C205.459 297.221 206.329 296.293 207.412 295.616C208.494 294.939 209.703 294.601 211.037 294.601C211.81 294.601 212.545 294.717 213.241 294.949C213.937 295.181 214.565 295.51 215.126 295.935C215.686 296.341 216.17 296.824 216.576 297.385C216.982 297.946 217.272 298.555 217.446 299.212L216.953 298.719V288.54H218.403V310H217.011L216.895 306.085L217.446 305.679C217.272 306.317 216.982 306.916 216.576 307.477C216.17 308.038 215.686 308.531 215.126 308.956C214.565 309.381 213.937 309.71 213.241 309.942C212.545 310.174 211.81 310.29 211.037 310.29ZM211.24 308.84C212.342 308.84 213.328 308.569 214.198 308.028C215.087 307.467 215.783 306.713 216.286 305.766C216.808 304.799 217.069 303.688 217.069 302.431C217.069 301.194 216.817 300.101 216.315 299.154C215.812 298.187 215.116 297.433 214.227 296.892C213.357 296.331 212.361 296.051 211.24 296.051C210.099 296.051 209.084 296.331 208.195 296.892C207.325 297.433 206.638 298.187 206.136 299.154C205.633 300.101 205.382 301.194 205.382 302.431C205.382 303.649 205.623 304.741 206.107 305.708C206.609 306.675 207.296 307.438 208.166 307.999C209.055 308.56 210.08 308.84 211.24 308.84ZM233.124 310V290.889H234.574V310H233.124ZM229.499 296.254V294.92H238.634V296.254H229.499ZM247.697 310.29C246.189 310.29 244.845 309.952 243.666 309.275C242.506 308.598 241.587 307.661 240.911 306.462C240.253 305.263 239.925 303.9 239.925 302.373C239.925 300.865 240.253 299.531 240.911 298.371C241.587 297.192 242.506 296.273 243.666 295.616C244.845 294.939 246.189 294.601 247.697 294.601C249.205 294.601 250.539 294.939 251.699 295.616C252.878 296.273 253.796 297.192 254.454 298.371C255.111 299.531 255.44 300.865 255.44 302.373C255.44 303.9 255.111 305.263 254.454 306.462C253.796 307.661 252.878 308.598 251.699 309.275C250.539 309.952 249.205 310.29 247.697 310.29ZM247.697 308.84C248.895 308.84 249.959 308.56 250.887 307.999C251.834 307.438 252.569 306.675 253.091 305.708C253.632 304.741 253.903 303.63 253.903 302.373C253.903 301.155 253.632 300.072 253.091 299.125C252.569 298.158 251.834 297.404 250.887 296.863C249.959 296.322 248.895 296.051 247.697 296.051C246.479 296.051 245.396 296.322 244.449 296.863C243.521 297.404 242.786 298.158 242.245 299.125C241.723 300.072 241.462 301.155 241.462 302.373C241.462 303.63 241.723 304.741 242.245 305.708C242.786 306.675 243.521 307.438 244.449 307.999C245.396 308.56 246.479 308.84 247.697 308.84ZM273.997 310.29C273.224 310.29 272.489 310.174 271.793 309.942C271.116 309.71 270.488 309.391 269.908 308.985C269.347 308.56 268.864 308.067 268.458 307.506C268.071 306.945 267.791 306.346 267.617 305.708L268.139 306.172L267.994 310H266.602V288.54H268.052V298.69L267.617 299.183C267.791 298.545 268.071 297.946 268.458 297.385C268.864 296.824 269.347 296.341 269.908 295.935C270.488 295.51 271.116 295.181 271.793 294.949C272.489 294.717 273.224 294.601 273.997 294.601C275.331 294.601 276.539 294.939 277.622 295.616C278.705 296.293 279.565 297.221 280.203 298.4C280.86 299.579 281.189 300.933 281.189 302.46C281.189 303.968 280.87 305.312 280.232 306.491C279.613 307.67 278.763 308.598 277.68 309.275C276.597 309.952 275.37 310.29 273.997 310.29ZM273.794 308.84C274.954 308.84 275.969 308.56 276.839 307.999C277.728 307.438 278.415 306.675 278.898 305.708C279.401 304.741 279.652 303.649 279.652 302.431C279.652 301.194 279.401 300.101 278.898 299.154C278.395 298.187 277.699 297.433 276.81 296.892C275.94 296.331 274.935 296.051 273.794 296.051C272.653 296.051 271.638 296.331 270.749 296.892C269.879 297.433 269.193 298.187 268.69 299.154C268.187 300.101 267.936 301.194 267.936 302.431C267.936 303.688 268.187 304.799 268.69 305.766C269.212 306.713 269.908 307.467 270.778 308.028C271.667 308.569 272.673 308.84 273.794 308.84ZM290.538 310.29C289.088 310.29 287.793 309.961 286.652 309.304C285.531 308.647 284.651 307.728 284.013 306.549C283.375 305.37 283.056 303.997 283.056 302.431C283.056 301.29 283.23 300.246 283.578 299.299C283.946 298.352 284.448 297.53 285.086 296.834C285.724 296.119 286.488 295.568 287.377 295.181C288.286 294.794 289.272 294.601 290.335 294.601C291.379 294.601 292.317 294.775 293.148 295.123C293.999 295.471 294.714 295.974 295.294 296.631C295.874 297.269 296.309 298.033 296.599 298.922C296.889 299.792 297.015 300.759 296.976 301.822L296.947 302.605H284.129V301.271H296.164L295.526 301.793V301.097C295.526 300.324 295.333 299.55 294.946 298.777C294.579 298.004 294.009 297.356 293.235 296.834C292.462 296.312 291.486 296.051 290.306 296.051C289.204 296.051 288.218 296.293 287.348 296.776C286.498 297.259 285.821 297.965 285.318 298.893C284.835 299.821 284.593 300.971 284.593 302.344C284.593 303.659 284.835 304.809 285.318 305.795C285.802 306.762 286.498 307.516 287.406 308.057C288.334 308.579 289.465 308.84 290.799 308.84C291.515 308.84 292.249 308.724 293.003 308.492C293.757 308.26 294.608 307.757 295.555 306.984L296.309 308.057C295.884 308.463 295.381 308.84 294.801 309.188C294.221 309.517 293.574 309.787 292.858 310C292.143 310.193 291.37 310.29 290.538 310.29ZM132.87 346V326.889H134.32V346H132.87ZM129.245 332.254V330.92H138.38V332.254H129.245ZM146.424 346.29C145.187 346.29 144.162 346.068 143.35 345.623C142.558 345.178 141.958 344.502 141.552 343.593C141.166 342.665 140.972 341.486 140.972 340.055V330.92H142.422V339.997C142.422 341.118 142.567 342.046 142.857 342.781C143.147 343.496 143.592 344.028 144.191 344.376C144.791 344.724 145.545 344.898 146.453 344.898C147.169 344.898 147.836 344.772 148.454 344.521C149.073 344.25 149.614 343.902 150.078 343.477C150.542 343.032 150.9 342.53 151.151 341.969C151.422 341.389 151.557 340.78 151.557 340.142V330.92H153.007V346H151.615L151.47 342.81H151.644C151.432 343.448 151.055 344.028 150.513 344.55C149.972 345.072 149.334 345.497 148.599 345.826C147.884 346.135 147.159 346.29 146.424 346.29ZM157.229 346V330.92H158.621L158.766 334.284H158.563C158.775 333.646 159.104 333.047 159.549 332.486C159.993 331.925 160.535 331.471 161.173 331.123C161.83 330.775 162.584 330.601 163.435 330.601C163.763 330.601 164.063 330.63 164.334 330.688C164.624 330.727 164.885 330.775 165.117 330.833L164.682 332.515C164.411 332.399 164.15 332.322 163.899 332.283C163.647 332.244 163.425 332.225 163.232 332.225C162.458 332.225 161.782 332.36 161.202 332.631C160.641 332.902 160.167 333.279 159.781 333.762C159.413 334.226 159.133 334.758 158.94 335.357C158.766 335.956 158.679 336.585 158.679 337.242V346H157.229ZM167.226 346V330.92H168.618L168.763 334.11H168.589C168.802 333.472 169.188 332.892 169.749 332.37C170.31 331.829 170.977 331.403 171.75 331.094C172.543 330.765 173.374 330.601 174.244 330.601C175.307 330.601 176.206 330.823 176.941 331.268C177.695 331.713 178.256 332.399 178.623 333.327C179.01 334.255 179.203 335.434 179.203 336.865V346H177.753V336.923C177.753 335.802 177.598 334.883 177.289 334.168C176.999 333.433 176.564 332.892 175.984 332.544C175.404 332.177 174.679 331.993 173.809 331.993C173.055 331.993 172.369 332.128 171.75 332.399C171.131 332.65 170.59 332.998 170.126 333.443C169.662 333.888 169.304 334.4 169.053 334.98C168.802 335.541 168.676 336.14 168.676 336.778V346H167.951C167.932 346 167.864 346 167.748 346C167.651 346 167.477 346 167.226 346ZM198.108 346.29C196.6 346.29 195.256 345.952 194.077 345.275C192.917 344.598 191.998 343.661 191.322 342.462C190.664 341.263 190.336 339.9 190.336 338.373C190.336 336.865 190.664 335.531 191.322 334.371C191.998 333.192 192.917 332.273 194.077 331.616C195.256 330.939 196.6 330.601 198.108 330.601C199.616 330.601 200.95 330.939 202.11 331.616C203.289 332.273 204.207 333.192 204.865 334.371C205.522 335.531 205.851 336.865 205.851 338.373C205.851 339.9 205.522 341.263 204.865 342.462C204.207 343.661 203.289 344.598 202.11 345.275C200.95 345.952 199.616 346.29 198.108 346.29ZM198.108 344.84C199.306 344.84 200.37 344.56 201.298 343.999C202.245 343.438 202.98 342.675 203.502 341.708C204.043 340.741 204.314 339.63 204.314 338.373C204.314 337.155 204.043 336.072 203.502 335.125C202.98 334.158 202.245 333.404 201.298 332.863C200.37 332.322 199.306 332.051 198.108 332.051C196.89 332.051 195.807 332.322 194.86 332.863C193.932 333.404 193.197 334.158 192.656 335.125C192.134 336.072 191.873 337.155 191.873 338.373C191.873 339.63 192.134 340.741 192.656 341.708C193.197 342.675 193.932 343.438 194.86 343.999C195.807 344.56 196.89 344.84 198.108 344.84ZM208.885 346V330.92H210.277L210.422 334.11H210.248C210.461 333.472 210.847 332.892 211.408 332.37C211.969 331.829 212.636 331.403 213.409 331.094C214.202 330.765 215.033 330.601 215.903 330.601C216.966 330.601 217.865 330.823 218.6 331.268C219.354 331.713 219.915 332.399 220.282 333.327C220.669 334.255 220.862 335.434 220.862 336.865V346H219.412V336.923C219.412 335.802 219.257 334.883 218.948 334.168C218.658 333.433 218.223 332.892 217.643 332.544C217.063 332.177 216.338 331.993 215.468 331.993C214.714 331.993 214.028 332.128 213.409 332.399C212.79 332.65 212.249 332.998 211.785 333.443C211.321 333.888 210.963 334.4 210.712 334.98C210.461 335.541 210.335 336.14 210.335 336.778V346H209.61C209.591 346 209.523 346 209.407 346C209.31 346 209.136 346 208.885 346ZM226.245 346.29C225.839 346.29 225.52 346.164 225.288 345.913C225.075 345.662 224.969 345.304 224.969 344.84C224.969 344.415 225.085 344.067 225.317 343.796C225.549 343.525 225.858 343.39 226.245 343.39C226.651 343.39 226.96 343.516 227.173 343.767C227.405 344.018 227.521 344.376 227.521 344.84C227.521 345.265 227.405 345.613 227.173 345.884C226.941 346.155 226.632 346.29 226.245 346.29Z" fill="white"/>
<rect x="73" y="420" width="206" height="79" rx="6" fill="#2CA0C0"/>
<path d="M132.898 469V465.646H135.94V454.154H132.898V450.8H142.882V454.154H139.84V465.646H142.882V469H132.898ZM150.368 469L157.492 450.8H160.976L168.074 469H164.07L160.404 459.198C160.3 458.921 160.17 458.565 160.014 458.132C159.875 457.699 159.728 457.239 159.572 456.754C159.416 456.269 159.268 455.809 159.13 455.376C158.991 454.925 158.887 454.553 158.818 454.258L159.52 454.232C159.416 454.631 159.294 455.047 159.156 455.48C159.034 455.896 158.904 456.329 158.766 456.78C158.627 457.213 158.48 457.638 158.324 458.054C158.168 458.47 158.02 458.877 157.882 459.276L154.216 469H150.368ZM153.67 465.178L154.944 462.032H163.29L164.59 465.178H153.67ZM174.821 474.98C173.729 474.98 172.655 474.815 171.597 474.486C170.54 474.174 169.682 473.767 169.023 473.264L170.323 470.612C170.67 470.855 171.069 471.071 171.519 471.262C171.97 471.453 172.438 471.6 172.923 471.704C173.426 471.808 173.937 471.86 174.457 471.86C175.359 471.86 176.095 471.721 176.667 471.444C177.257 471.167 177.699 470.751 177.993 470.196C178.288 469.659 178.435 468.965 178.435 468.116V465.724L179.059 465.854C178.955 466.426 178.669 466.955 178.201 467.44C177.733 467.908 177.144 468.289 176.433 468.584C175.723 468.861 174.995 469 174.249 469C172.967 469 171.831 468.705 170.843 468.116C169.855 467.527 169.075 466.712 168.503 465.672C167.931 464.632 167.645 463.436 167.645 462.084C167.645 460.697 167.923 459.475 168.477 458.418C169.049 457.343 169.821 456.503 170.791 455.896C171.779 455.272 172.897 454.96 174.145 454.96C174.665 454.96 175.159 455.021 175.627 455.142C176.113 455.263 176.555 455.437 176.953 455.662C177.369 455.87 177.733 456.113 178.045 456.39C178.375 456.65 178.643 456.936 178.851 457.248C179.059 457.56 179.189 457.872 179.241 458.184L178.487 458.392L178.591 455.246H182.127V467.96C182.127 469.087 181.963 470.083 181.633 470.95C181.304 471.817 180.819 472.545 180.177 473.134C179.553 473.741 178.782 474.2 177.863 474.512C176.962 474.824 175.948 474.98 174.821 474.98ZM174.925 466.036C175.653 466.036 176.286 465.871 176.823 465.542C177.378 465.213 177.803 464.753 178.097 464.164C178.392 463.575 178.539 462.881 178.539 462.084C178.539 461.304 178.392 460.619 178.097 460.03C177.803 459.423 177.378 458.955 176.823 458.626C176.286 458.297 175.653 458.132 174.925 458.132C174.215 458.132 173.582 458.305 173.027 458.652C172.49 458.981 172.074 459.441 171.779 460.03C171.485 460.619 171.337 461.304 171.337 462.084C171.337 462.864 171.485 463.557 171.779 464.164C172.074 464.753 172.49 465.213 173.027 465.542C173.582 465.871 174.215 466.036 174.925 466.036ZM184.496 469V455.246H188.058L188.188 459.666L187.564 458.756C187.772 458.045 188.11 457.404 188.578 456.832C189.046 456.243 189.592 455.783 190.216 455.454C190.857 455.125 191.524 454.96 192.218 454.96C192.512 454.96 192.798 454.986 193.076 455.038C193.353 455.09 193.587 455.151 193.778 455.22L192.79 459.276C192.582 459.172 192.33 459.085 192.036 459.016C191.741 458.929 191.438 458.886 191.126 458.886C190.71 458.886 190.32 458.964 189.956 459.12C189.609 459.259 189.306 459.467 189.046 459.744C188.786 460.004 188.578 460.316 188.422 460.68C188.283 461.044 188.214 461.443 188.214 461.876V469H184.496ZM200.538 469.26C199.047 469.26 197.747 468.957 196.638 468.35C195.529 467.743 194.662 466.911 194.038 465.854C193.414 464.797 193.102 463.583 193.102 462.214C193.102 461.157 193.275 460.186 193.622 459.302C193.969 458.418 194.454 457.655 195.078 457.014C195.702 456.355 196.439 455.853 197.288 455.506C198.155 455.142 199.091 454.96 200.096 454.96C201.032 454.96 201.899 455.133 202.696 455.48C203.493 455.809 204.178 456.286 204.75 456.91C205.339 457.517 205.79 458.236 206.102 459.068C206.414 459.9 206.553 460.81 206.518 461.798L206.492 462.942H195.442L194.844 460.68H203.45L203.034 461.148V460.576C202.999 460.108 202.843 459.683 202.566 459.302C202.306 458.921 201.968 458.626 201.552 458.418C201.136 458.21 200.668 458.106 200.148 458.106C199.385 458.106 198.735 458.253 198.198 458.548C197.678 458.843 197.279 459.276 197.002 459.848C196.725 460.42 196.586 461.113 196.586 461.928C196.586 462.76 196.759 463.479 197.106 464.086C197.47 464.693 197.973 465.169 198.614 465.516C199.273 465.845 200.044 466.01 200.928 466.01C201.535 466.01 202.089 465.915 202.592 465.724C203.095 465.533 203.632 465.204 204.204 464.736L205.972 467.206C205.469 467.657 204.915 468.038 204.308 468.35C203.701 468.645 203.077 468.87 202.436 469.026C201.795 469.182 201.162 469.26 200.538 469.26ZM214.472 469.26C212.982 469.26 211.682 468.957 210.572 468.35C209.463 467.743 208.596 466.911 207.972 465.854C207.348 464.797 207.036 463.583 207.036 462.214C207.036 461.157 207.21 460.186 207.556 459.302C207.903 458.418 208.388 457.655 209.012 457.014C209.636 456.355 210.373 455.853 211.222 455.506C212.089 455.142 213.025 454.96 214.03 454.96C214.966 454.96 215.833 455.133 216.63 455.48C217.428 455.809 218.112 456.286 218.684 456.91C219.274 457.517 219.724 458.236 220.036 459.068C220.348 459.9 220.487 460.81 220.452 461.798L220.426 462.942H209.376L208.778 460.68H217.384L216.968 461.148V460.576C216.934 460.108 216.778 459.683 216.5 459.302C216.24 458.921 215.902 458.626 215.486 458.418C215.07 458.21 214.602 458.106 214.082 458.106C213.32 458.106 212.67 458.253 212.132 458.548C211.612 458.843 211.214 459.276 210.936 459.848C210.659 460.42 210.52 461.113 210.52 461.928C210.52 462.76 210.694 463.479 211.04 464.086C211.404 464.693 211.907 465.169 212.548 465.516C213.207 465.845 213.978 466.01 214.862 466.01C215.469 466.01 216.024 465.915 216.526 465.724C217.029 465.533 217.566 465.204 218.138 464.736L219.906 467.206C219.404 467.657 218.849 468.038 218.242 468.35C217.636 468.645 217.012 468.87 216.37 469.026C215.729 469.182 215.096 469.26 214.472 469.26Z" fill="white"/>
</svg>
