<svg width="382" height="525" viewBox="0 0 382 525" fill="none" xmlns="http://www.w3.org/2000/svg">
<rect x="15" width="353" height="525" fill="#F3F3F3"/>
<rect x="2.5" y="230.5" width="377" height="136" rx="12.5" stroke="#007816" stroke-opacity="0.53" stroke-width="5"/>
<path d="M45.618 290.37C44.212 290.37 42.9047 290.185 41.696 289.815C40.512 289.445 39.4267 288.89 38.44 288.15C37.478 287.385 36.6147 286.448 35.85 285.338L38.588 282.193C39.7967 283.92 40.956 285.116 42.066 285.782C43.176 286.448 44.4957 286.781 46.025 286.781C46.9623 286.781 47.8133 286.633 48.578 286.337C49.3427 286.041 49.947 285.634 50.391 285.116C50.835 284.598 51.057 284.006 51.057 283.34C51.057 282.896 50.983 282.477 50.835 282.082C50.687 281.687 50.4527 281.33 50.132 281.009C49.836 280.688 49.4413 280.392 48.948 280.121C48.4793 279.85 47.9243 279.615 47.283 279.418C46.6417 279.196 45.9017 279.011 45.063 278.863C43.731 278.592 42.5717 278.234 41.585 277.79C40.5983 277.346 39.772 276.791 39.106 276.125C38.44 275.459 37.9467 274.707 37.626 273.868C37.3053 273.005 37.145 272.043 37.145 270.982C37.145 269.946 37.367 268.984 37.811 268.096C38.2797 267.208 38.9087 266.443 39.698 265.802C40.512 265.136 41.4617 264.63 42.547 264.285C43.6323 263.915 44.804 263.73 46.062 263.73C47.394 263.73 48.615 263.903 49.725 264.248C50.835 264.593 51.8217 265.111 52.685 265.802C53.5483 266.468 54.2637 267.294 54.831 268.281L52.019 271.056C51.5257 270.242 50.9707 269.564 50.354 269.021C49.7373 268.454 49.059 268.034 48.319 267.763C47.579 267.467 46.7897 267.319 45.951 267.319C44.989 267.319 44.1503 267.467 43.435 267.763C42.7197 268.059 42.1523 268.478 41.733 269.021C41.3383 269.539 41.141 270.156 41.141 270.871C41.141 271.389 41.2397 271.87 41.437 272.314C41.6343 272.733 41.9303 273.116 42.325 273.461C42.7443 273.782 43.2993 274.078 43.99 274.349C44.6807 274.596 45.507 274.818 46.469 275.015C47.8257 275.311 49.0343 275.693 50.095 276.162C51.1557 276.606 52.056 277.136 52.796 277.753C53.536 278.37 54.091 279.06 54.461 279.825C54.8557 280.59 55.053 281.416 55.053 282.304C55.053 283.957 54.6707 285.387 53.906 286.596C53.1413 287.805 52.056 288.742 50.65 289.408C49.244 290.049 47.5667 290.37 45.618 290.37ZM69.1879 290.37C67.1899 290.37 65.4139 289.951 63.8599 289.112C62.3305 288.249 61.1219 287.077 60.2339 285.597C59.3705 284.117 58.9389 282.415 58.9389 280.491C58.9389 278.962 59.1855 277.568 59.6789 276.31C60.1722 275.052 60.8505 273.967 61.7139 273.054C62.6019 272.117 63.6502 271.401 64.8589 270.908C66.0922 270.39 67.4242 270.131 68.8549 270.131C70.1129 270.131 71.2845 270.378 72.3699 270.871C73.4552 271.34 74.3925 271.993 75.1819 272.832C75.9959 273.671 76.6125 274.67 77.0319 275.829C77.4759 276.964 77.6855 278.209 77.6609 279.566L77.6239 281.194H61.7509L60.8999 278.16H74.3309L73.7759 278.789V277.901C73.7019 277.087 73.4305 276.359 72.9619 275.718C72.4932 275.077 71.9012 274.571 71.1859 274.201C70.4705 273.831 69.6935 273.646 68.8549 273.646C67.5229 273.646 66.4005 273.905 65.4879 274.423C64.5752 274.916 63.8845 275.656 63.4159 276.643C62.9472 277.605 62.7129 278.801 62.7129 280.232C62.7129 281.589 62.9965 282.773 63.5639 283.784C64.1312 284.771 64.9329 285.535 65.9689 286.078C67.0049 286.621 68.2012 286.892 69.5579 286.892C70.5199 286.892 71.4079 286.732 72.2219 286.411C73.0605 286.09 73.9609 285.511 74.9229 284.672L76.8469 287.373C76.2549 287.965 75.5272 288.483 74.6639 288.927C73.8252 289.371 72.9249 289.729 71.9629 290C71.0255 290.247 70.1005 290.37 69.1879 290.37ZM82.1726 290V270.575H85.9836V274.571L85.3176 275.015C85.5642 274.152 86.0452 273.362 86.7606 272.647C87.4759 271.907 88.3269 271.315 89.3136 270.871C90.3002 270.402 91.3116 270.168 92.3476 270.168C93.8276 270.168 95.0609 270.464 96.0476 271.056C97.0342 271.623 97.7742 272.499 98.2676 273.683C98.7609 274.867 99.0076 276.359 99.0076 278.16V290H95.1966V278.419C95.1966 277.309 95.0486 276.396 94.7526 275.681C94.4566 274.941 94.0002 274.411 93.3836 274.09C92.7669 273.745 92.0022 273.597 91.0896 273.646C90.3496 273.646 89.6712 273.769 89.0546 274.016C88.4379 274.238 87.8952 274.559 87.4266 274.978C86.9826 275.397 86.6249 275.891 86.3536 276.458C86.1069 277.001 85.9836 277.593 85.9836 278.234V290H84.0966C83.7759 290 83.4552 290 83.1346 290C82.8139 290 82.4932 290 82.1726 290ZM111.022 290.37C109.394 290.37 107.927 290.086 106.619 289.519C105.312 288.952 104.227 288.113 103.363 287.003L105.953 284.783C106.693 285.646 107.495 286.275 108.358 286.67C109.246 287.04 110.245 287.225 111.355 287.225C111.799 287.225 112.206 287.176 112.576 287.077C112.971 286.954 113.304 286.781 113.575 286.559C113.871 286.337 114.093 286.078 114.241 285.782C114.389 285.461 114.463 285.116 114.463 284.746C114.463 284.105 114.229 283.587 113.76 283.192C113.514 283.019 113.119 282.834 112.576 282.637C112.058 282.415 111.38 282.193 110.541 281.971C109.111 281.601 107.939 281.182 107.026 280.713C106.114 280.244 105.411 279.714 104.917 279.122C104.547 278.653 104.276 278.148 104.103 277.605C103.931 277.038 103.844 276.421 103.844 275.755C103.844 274.941 104.017 274.201 104.362 273.535C104.732 272.844 105.226 272.252 105.842 271.759C106.484 271.241 107.224 270.846 108.062 270.575C108.926 270.304 109.838 270.168 110.8 270.168C111.713 270.168 112.613 270.291 113.501 270.538C114.414 270.785 115.253 271.142 116.017 271.611C116.782 272.08 117.423 272.635 117.941 273.276L115.758 275.681C115.29 275.212 114.772 274.805 114.204 274.46C113.662 274.09 113.107 273.806 112.539 273.609C111.972 273.412 111.454 273.313 110.985 273.313C110.467 273.313 109.999 273.362 109.579 273.461C109.16 273.56 108.802 273.708 108.506 273.905C108.235 274.102 108.025 274.349 107.877 274.645C107.729 274.941 107.655 275.274 107.655 275.644C107.68 275.965 107.754 276.273 107.877 276.569C108.025 276.84 108.223 277.075 108.469 277.272C108.741 277.469 109.148 277.679 109.69 277.901C110.233 278.123 110.924 278.333 111.762 278.53C112.996 278.851 114.007 279.208 114.796 279.603C115.61 279.973 116.252 280.405 116.72 280.898C117.214 281.367 117.559 281.909 117.756 282.526C117.954 283.143 118.052 283.833 118.052 284.598C118.052 285.708 117.732 286.707 117.09 287.595C116.474 288.458 115.635 289.137 114.574 289.63C113.514 290.123 112.33 290.37 111.022 290.37ZM131.688 290.37C129.69 290.37 127.914 289.951 126.36 289.112C124.83 288.249 123.622 287.077 122.734 285.597C121.87 284.117 121.439 282.415 121.439 280.491C121.439 278.962 121.685 277.568 122.179 276.31C122.672 275.052 123.35 273.967 124.214 273.054C125.102 272.117 126.15 271.401 127.359 270.908C128.592 270.39 129.924 270.131 131.355 270.131C132.613 270.131 133.784 270.378 134.87 270.871C135.955 271.34 136.892 271.993 137.682 272.832C138.496 273.671 139.112 274.67 139.532 275.829C139.976 276.964 140.185 278.209 140.161 279.566L140.124 281.194H124.251L123.4 278.16H136.831L136.276 278.789V277.901C136.202 277.087 135.93 276.359 135.462 275.718C134.993 275.077 134.401 274.571 133.686 274.201C132.97 273.831 132.193 273.646 131.355 273.646C130.023 273.646 128.9 273.905 127.988 274.423C127.075 274.916 126.384 275.656 125.916 276.643C125.447 277.605 125.213 278.801 125.213 280.232C125.213 281.589 125.496 282.773 126.064 283.784C126.631 284.771 127.433 285.535 128.469 286.078C129.505 286.621 130.701 286.892 132.058 286.892C133.02 286.892 133.908 286.732 134.722 286.411C135.56 286.09 136.461 285.511 137.423 284.672L139.347 287.373C138.755 287.965 138.027 288.483 137.164 288.927C136.325 289.371 135.425 289.729 134.463 290C133.525 290.247 132.6 290.37 131.688 290.37Z" fill="#353535"/>
<path d="M41.028 325.28C39.6467 325.28 38.4427 324.963 37.416 324.328C36.408 323.693 35.456 322.629 34.56 321.136L36.912 319.652C37.3787 320.343 37.836 320.912 38.284 321.36C38.7507 321.789 39.2267 322.107 39.712 322.312C40.1973 322.517 40.7107 322.62 41.252 322.62C41.9053 322.62 42.512 322.461 43.072 322.144C43.632 321.808 44.08 321.351 44.416 320.772C44.752 320.193 44.92 319.54 44.92 318.812C44.92 318.084 44.7893 317.468 44.528 316.964C44.2667 316.441 43.884 316.049 43.38 315.788C42.876 315.508 42.2787 315.368 41.588 315.368C41.2707 315.368 40.9347 315.405 40.58 315.48C40.244 315.536 39.88 315.629 39.488 315.76C39.096 315.872 38.6667 316.021 38.2 316.208L37.36 313.996L43.408 307.332L43.996 308.2H35.652V305.4H46.88L47.44 306.52L41.028 313.632L40.328 312.904C40.4773 312.829 40.72 312.764 41.056 312.708C41.4107 312.633 41.7 312.596 41.924 312.596C42.7453 312.596 43.5107 312.755 44.22 313.072C44.948 313.371 45.5733 313.8 46.096 314.36C46.6373 314.901 47.0573 315.545 47.356 316.292C47.6733 317.02 47.832 317.804 47.832 318.644C47.832 319.913 47.524 321.052 46.908 322.06C46.3107 323.049 45.4987 323.833 44.472 324.412C43.4453 324.991 42.2973 325.28 41.028 325.28ZM56.1283 325.28C54.747 325.28 53.543 324.963 52.5163 324.328C51.5083 323.693 50.5563 322.629 49.6603 321.136L52.0123 319.652C52.479 320.343 52.9363 320.912 53.3843 321.36C53.851 321.789 54.327 322.107 54.8123 322.312C55.2976 322.517 55.811 322.62 56.3523 322.62C57.0056 322.62 57.6123 322.461 58.1723 322.144C58.7323 321.808 59.1803 321.351 59.5163 320.772C59.8523 320.193 60.0203 319.54 60.0203 318.812C60.0203 318.084 59.8896 317.468 59.6283 316.964C59.367 316.441 58.9843 316.049 58.4803 315.788C57.9763 315.508 57.379 315.368 56.6883 315.368C56.371 315.368 56.035 315.405 55.6803 315.48C55.3443 315.536 54.9803 315.629 54.5883 315.76C54.1963 315.872 53.767 316.021 53.3003 316.208L52.4603 313.996L58.5083 307.332L59.0963 308.2H50.7523V305.4H61.9803L62.5403 306.52L56.1283 313.632L55.4283 312.904C55.5776 312.829 55.8203 312.764 56.1563 312.708C56.511 312.633 56.8003 312.596 57.0243 312.596C57.8456 312.596 58.611 312.755 59.3203 313.072C60.0483 313.371 60.6736 313.8 61.1963 314.36C61.7376 314.901 62.1576 315.545 62.4563 316.292C62.7736 317.02 62.9323 317.804 62.9323 318.644C62.9323 319.913 62.6243 321.052 62.0083 322.06C61.411 323.049 60.599 323.833 59.5723 324.412C58.5456 324.991 57.3976 325.28 56.1283 325.28ZM67.3926 325.308C66.7766 325.308 66.3006 325.131 65.9646 324.776C65.6286 324.403 65.4606 323.88 65.4606 323.208C65.4606 322.592 65.638 322.088 65.9926 321.696C66.3473 321.304 66.814 321.108 67.3926 321.108C68.0086 321.108 68.4846 321.295 68.8206 321.668C69.1566 322.023 69.3246 322.536 69.3246 323.208C69.3246 323.824 69.1473 324.328 68.7926 324.72C68.438 325.112 67.9713 325.308 67.3926 325.308ZM73.4557 325L72.5317 322.704L78.5237 315.956C78.8411 315.62 79.1677 315.237 79.5037 314.808C79.8584 314.36 80.1944 313.903 80.5117 313.436C80.8291 312.969 81.0811 312.512 81.2677 312.064C81.4731 311.597 81.5757 311.159 81.5757 310.748C81.5757 310.151 81.4544 309.647 81.2117 309.236C80.9877 308.807 80.6517 308.48 80.2037 308.256C79.7744 308.032 79.2517 307.92 78.6357 307.92C78.0944 307.92 77.5624 308.079 77.0397 308.396C76.5171 308.713 76.0411 309.161 75.6117 309.74C75.1824 310.319 74.8464 310.991 74.6037 311.756L72.2797 310.3C72.5971 309.217 73.0731 308.293 73.7077 307.528C74.3611 306.744 75.1357 306.147 76.0317 305.736C76.9464 305.325 77.9357 305.12 78.9997 305.12C80.1011 305.12 81.0811 305.353 81.9397 305.82C82.7984 306.268 83.4704 306.903 83.9557 307.724C84.4411 308.527 84.6837 309.46 84.6837 310.524C84.6837 310.953 84.6371 311.392 84.5437 311.84C84.4504 312.288 84.3011 312.755 84.0957 313.24C83.8904 313.707 83.6291 314.201 83.3117 314.724C82.9944 315.228 82.6117 315.76 82.1637 316.32C81.7344 316.88 81.2397 317.468 80.6797 318.084L76.2277 322.928L75.6677 322.088H85.2997V325H73.4557ZM94.5636 325.084C93.3502 325.084 92.2396 324.832 91.2316 324.328C90.2422 323.805 89.4489 323.115 88.8516 322.256C88.2542 321.397 87.9556 320.445 87.9556 319.4C87.9556 318.821 88.0302 318.28 88.1796 317.776C88.3476 317.253 88.5902 316.777 88.9076 316.348C89.2436 315.919 89.6449 315.527 90.1116 315.172C90.5782 314.817 91.1196 314.5 91.7356 314.22L91.5676 314.808C91.0822 314.621 90.6436 314.397 90.2516 314.136C89.8782 313.856 89.5516 313.539 89.2716 313.184C88.9916 312.829 88.7769 312.447 88.6276 312.036C88.4969 311.625 88.4316 311.196 88.4316 310.748C88.4316 309.759 88.7022 308.863 89.2436 308.06C89.8036 307.257 90.5409 306.613 91.4556 306.128C92.3889 305.643 93.4249 305.4 94.5636 305.4C95.7022 305.4 96.7289 305.643 97.6436 306.128C98.5769 306.613 99.3142 307.257 99.8556 308.06C100.416 308.863 100.696 309.759 100.696 310.748C100.696 311.196 100.621 311.625 100.472 312.036C100.341 312.447 100.145 312.82 99.8836 313.156C99.6222 313.492 99.2862 313.8 98.8756 314.08C98.4836 314.36 98.0356 314.603 97.5316 314.808L97.4476 314.332C98.0076 314.556 98.5116 314.845 98.9596 315.2C99.4262 315.555 99.8276 315.956 100.164 316.404C100.5 316.852 100.752 317.328 100.92 317.832C101.106 318.336 101.2 318.859 101.2 319.4C101.2 320.464 100.901 321.425 100.304 322.284C99.7062 323.143 98.9036 323.824 97.8956 324.328C96.9062 324.832 95.7956 325.084 94.5636 325.084ZM94.5636 322.284C95.2542 322.284 95.8702 322.153 96.4116 321.892C96.9716 321.631 97.4102 321.276 97.7276 320.828C98.0449 320.38 98.2036 319.867 98.2036 319.288C98.2036 318.672 98.0449 318.131 97.7276 317.664C97.4102 317.179 96.9716 316.796 96.4116 316.516C95.8702 316.236 95.2542 316.096 94.5636 316.096C93.8729 316.096 93.2569 316.236 92.7156 316.516C92.1742 316.796 91.7449 317.179 91.4276 317.664C91.1102 318.131 90.9516 318.672 90.9516 319.288C90.9516 319.848 91.1102 320.352 91.4276 320.8C91.7449 321.248 92.1742 321.612 92.7156 321.892C93.2569 322.153 93.8729 322.284 94.5636 322.284ZM94.5636 313.408C95.1609 313.408 95.6929 313.296 96.1596 313.072C96.6449 312.848 97.0182 312.549 97.2796 312.176C97.5596 311.784 97.6996 311.336 97.6996 310.832C97.6996 310.328 97.5596 309.88 97.2796 309.488C97.0182 309.096 96.6449 308.788 96.1596 308.564C95.6929 308.321 95.1609 308.2 94.5636 308.2C93.9662 308.2 93.4249 308.321 92.9396 308.564C92.4729 308.788 92.0996 309.096 91.8196 309.488C91.5582 309.88 91.4276 310.328 91.4276 310.832C91.4276 311.336 91.5582 311.784 91.8196 312.176C92.0996 312.549 92.4729 312.848 92.9396 313.072C93.4249 313.296 93.9662 313.408 94.5636 313.408ZM113.838 325V305.4H116.806L123.946 317.02L122.518 316.992L129.742 305.4H132.542V325H129.518V316.964C129.518 315.284 129.555 313.772 129.63 312.428C129.723 311.084 129.873 309.749 130.078 308.424L130.47 309.46L124.058 319.372H122.21L115.994 309.572L116.302 308.424C116.507 309.675 116.647 310.963 116.722 312.288C116.815 313.595 116.862 315.153 116.862 316.964V325H113.838ZM138.317 325V305.4H146.493C147.744 305.4 148.799 305.587 149.657 305.96C150.516 306.333 151.16 306.893 151.589 307.64C152.037 308.368 152.261 309.264 152.261 310.328C152.261 311.392 151.963 312.297 151.365 313.044C150.787 313.791 149.975 314.304 148.929 314.584V314.024C149.807 314.211 150.572 314.547 151.225 315.032C151.879 315.499 152.383 316.087 152.737 316.796C153.111 317.505 153.297 318.317 153.297 319.232C153.297 320.165 153.148 320.996 152.849 321.724C152.569 322.433 152.14 323.031 151.561 323.516C151.001 324.001 150.32 324.375 149.517 324.636C148.715 324.879 147.8 325 146.773 325H138.317ZM141.341 322.088H146.605C147.371 322.088 148.015 321.976 148.537 321.752C149.079 321.528 149.489 321.201 149.769 320.772C150.068 320.324 150.217 319.792 150.217 319.176C150.217 318.597 150.059 318.103 149.741 317.692C149.443 317.281 149.013 316.973 148.453 316.768C147.893 316.544 147.231 316.432 146.465 316.432H141.341V322.088ZM141.341 313.52H146.325C146.885 313.52 147.38 313.408 147.809 313.184C148.257 312.96 148.603 312.652 148.845 312.26C149.107 311.868 149.237 311.42 149.237 310.916C149.237 310.076 148.957 309.432 148.397 308.984C147.837 308.536 147.035 308.312 145.989 308.312H141.341V313.52Z" fill="#AEAEAE"/>
<rect x="265" y="298" width="73" height="27" rx="13.5" fill="#60B8D0"/>
<circle cx="328" cy="311" r="18.5" fill="#F8F8F8" stroke="#60B8D0" stroke-width="3"/>
</svg>
