<svg width="924" height="729" viewBox="0 0 924 729" fill="none" xmlns="http://www.w3.org/2000/svg">
<g id="chart">
<rect id="Rectangle 2" width="47" height="729" transform="matrix(-1 0 0 1 47 0)" fill="#D9D9D9"/>
<rect id="Rectangle 10" width="47" height="134" transform="matrix(-1 0 0 1 535 595)" fill="#D9D9D9"/>
<rect id="Rectangle 6" width="47" height="409" transform="matrix(-1 0 0 1 291 320)" fill="#D9D9D9"/>
<rect id="Rectangle 3" width="47" height="656" transform="matrix(-1 0 0 1 108 73)" fill="#D9D9D9"/>
<rect id="Rectangle 12" width="47" height="91" transform="matrix(-1 0 0 1 596 638)" fill="#D9D9D9"/>
<rect id="Rectangle 7" width="47" height="322" transform="matrix(-1 0 0 1 352 407)" fill="#D9D9D9"/>
<rect id="Rectangle 4" width="47" height="590" transform="matrix(-1 0 0 1 169 139)" fill="#D9D9D9"/>
<rect id="Rectangle 14" width="47" height="60" transform="matrix(-1 0 0 1 657 669)" fill="#D9D9D9"/>
<rect id="Rectangle 15" width="47" height="39" transform="matrix(-1 0 0 1 718 690)" fill="#D9D9D9"/>
<rect id="Rectangle 8" width="47" height="247" transform="matrix(-1 0 0 1 413 482)" fill="#D9D9D9"/>
<rect id="Rectangle 5" width="47" height="542" transform="matrix(-1 0 0 1 230 187)" fill="#D9D9D9"/>
<rect id="Rectangle 9" width="47" height="182" transform="matrix(-1 0 0 1 474 547)" fill="#D9D9D9"/>
<rect id="Rectangle 15_2" width="47" height="24" transform="matrix(-1 0 0 1 779 705)" fill="#D9D9D9"/>
<path id="Vector 3" opacity="0.46" d="M300 34L352.5 0C346.5 407 606.5 471 676.5 464L698 413L924 528L641 547C648 533 650.5 525 660 497C352.5 497 265.667 166.5 244 28L300 34Z" fill="#DF8C19"/>
</g>
</svg>
