<svg width="924" height="729" viewBox="0 0 924 729" fill="none" xmlns="http://www.w3.org/2000/svg">
<g id="chart">
<rect id="Rectangle 2" x="877" width="47" height="729" fill="#D9D9D9"/>
<rect id="Rectangle 10" x="389" y="657" width="47" height="72" fill="#D9D9D9"/>
<rect id="Rectangle 6" x="633" y="320" width="47" height="409" fill="#D9D9D9"/>
<rect id="Rectangle 3" x="816" y="73" width="47" height="656" fill="#D9D9D9"/>
<rect id="Rectangle 12" x="328" y="696" width="47" height="33" fill="#D9D9D9"/>
<rect id="Rectangle 7" x="572" y="407" width="47" height="322" fill="#D9D9D9"/>
<rect id="Rectangle 4" x="755" y="139" width="47" height="590" fill="#D9D9D9"/>
<rect id="Rectangle 14" x="267" y="714" width="47" height="15" fill="#D9D9D9"/>
<rect id="Rectangle 15" x="206" y="714" width="47" height="15" fill="#D9D9D9"/>
<rect id="Rectangle 8" x="511" y="482" width="47" height="247" fill="#D9D9D9"/>
<rect id="Rectangle 5" x="694" y="187" width="47" height="542" fill="#D9D9D9"/>
<rect id="Rectangle 9" x="450" y="580" width="47" height="149" fill="#D9D9D9"/>
<rect id="Rectangle 15_2" x="145" y="714" width="47" height="15" fill="#D9D9D9"/>
<path id="Vector 3" opacity="0.46" d="M624 34L571.5 0C577.5 407 317.5 471 247.5 464L226 413L0 528L283 547C276 533 273.5 525 264 497C571.5 497 658.333 166.5 680 28L624 34Z" fill="#DF8C19"/>
</g>
</svg>
