<svg width="369" height="420" viewBox="0 0 369 420" fill="none" xmlns="http://www.w3.org/2000/svg">
<rect width="369" height="420" fill="url(#paint0_linear_3438_42)"/>
<rect x="17" y="21" width="335" height="399" fill="white"/>
<path d="M57.083 59.1079C60.183 58.6263 63.507 59.7551 65.9756 62.5933C70.7335 68.0641 72.8916 78.6539 66.5254 87.5688C74.7502 80.2173 80.9784 71.3455 83.1387 65.8306L83.2197 65.6245L83.4209 65.7153C85.3943 66.5954 88.1729 69.8321 87.7715 74.5474C89.2428 77.5268 89.8714 81.1302 89.251 85.146C89.8856 86.6695 90.2479 89.1068 90.2217 91.5005C90.1954 93.8962 89.7797 96.3112 88.8105 97.7466C85.3451 115.034 72.2265 123.264 56.3896 128.983L56.3418 129L56.291 128.994C49.0792 128.07 40.6083 122.435 34.833 114.225C29.0678 106.029 25.9655 95.2323 29.4941 83.9292C29.3866 83.7239 29.2927 83.4089 29.2148 83.0298C29.1223 82.5788 29.046 82.0063 29.001 81.3511C28.911 80.0401 28.9448 78.3826 29.2246 76.6714C29.7826 73.2601 31.3338 69.5676 34.917 68.0425L35.1035 67.9634L35.1904 68.146C39.6196 77.4542 41.29 84.155 51.0781 91.7085C55.9868 89.9099 58.9826 85.0489 60.3623 80.1665C61.0558 77.7121 61.3359 75.2669 61.248 73.231C61.204 72.2133 61.0681 71.302 60.8486 70.5454C60.6671 69.9201 60.431 69.4086 60.1494 69.0298C59.3518 70.3494 57.9485 71.5867 56.5117 72.1362C55.7425 72.4303 54.9444 72.5344 54.2188 72.3276C53.486 72.1185 52.8532 71.6 52.4082 70.7075L52.3037 70.4995L52.5205 70.4155C54.3578 69.7045 54.6569 68.2108 54.7002 67.4624C54.0798 67.5442 53.0796 67.7888 52.5742 68.8022C52.2301 69.4921 51.5011 70.1022 50.7383 70.4849C50.3543 70.6774 49.9516 70.8177 49.5713 70.8813C49.1933 70.9445 48.82 70.9342 48.5078 70.8091L48.5 70.8062L48.4922 70.8022C48.3379 70.7248 48.2172 70.5886 48.126 70.4312C48.0339 70.2723 47.9638 70.0779 47.9141 69.8638C47.8144 69.435 47.7914 68.8992 47.8633 68.3364C48.005 67.2301 48.5195 65.9703 49.6045 65.1821C51.1536 61.6593 53.9983 59.5875 57.083 59.1079ZM84.3252 102.447C78.1692 110.178 71.2706 117.405 57.4102 122.329L57.3467 122.351L57.375 122.414C57.7064 123.141 58.5583 124.911 58.8721 125.415L58.8975 125.456L58.9424 125.442C60.008 125.128 65.0384 123.034 70.4717 119.202C75.9052 115.369 81.7507 109.792 84.4326 102.506L84.3252 102.447ZM54.0283 96.4507C48.5137 101.73 45.9414 106.907 44.8496 111.031C43.7588 115.151 44.1461 118.223 44.5557 119.291C45.0288 120.524 46.0207 121.469 47.0479 122.067C47.5618 122.366 48.0867 122.579 48.5625 122.698C49.037 122.816 49.4681 122.841 49.793 122.759L49.873 122.74L49.832 122.668C47.7884 119.067 47.4287 114.326 48.2979 109.585C49.1669 104.846 51.2631 100.113 54.1201 96.5347L54.0283 96.4507ZM85.9658 79.0229C81.4158 88.8173 73.279 95.1888 66.7305 100.997C63.4643 103.893 60.5854 106.659 58.7783 109.636C56.9648 112.625 56.2281 115.834 57.248 119.603L57.3066 119.823L57.5215 119.748C64.0969 117.407 71.932 112.413 77.9395 106.6C80.9437 103.693 83.4983 100.574 85.21 97.4712C86.9203 94.3697 87.7982 91.2654 87.4209 88.3989L87.3281 87.6958L87.0215 88.3354C84.2935 94.0178 79.6188 99.4485 75.0674 103.512C72.7928 105.543 70.5526 107.228 68.6094 108.431C67.1655 109.325 65.8994 109.943 64.9111 110.245C70.0034 106.452 75.6617 101.148 79.9121 95.6489C82.1485 92.7556 84.0001 89.8011 85.1738 86.98C86.3464 84.1613 86.8498 81.456 86.3633 79.0698L86.2354 78.4419L85.9658 79.0229ZM83.4385 72.4478C76.3871 85.4317 68.7617 91.709 63.0088 96.9233C60.134 99.5291 57.7094 101.884 56.0752 104.683C54.436 107.491 53.5973 110.737 53.8633 115.114L54.2832 115.131C54.8551 111.17 57.1845 107.436 60.334 103.829C63.4831 100.222 67.4295 96.7651 71.207 93.3472C74.9774 89.9357 78.5834 86.5599 81.0195 83.1313C83.4568 79.7006 84.7474 76.1821 83.8291 72.4976L83.6973 71.9712L83.4385 72.4478ZM32.125 103.069C32.4445 104.991 32.926 106.392 33.5205 107.476C34.1159 108.562 34.8205 109.322 35.5732 109.969L35.7783 110.146L35.8994 109.904C36.3234 109.053 36.7391 108.219 37.1523 107.597L37.2754 107.413L37.0859 107.298C36.0596 106.681 34.1774 105.007 32.498 102.902L31.9922 102.267L32.125 103.069ZM30.4346 91.1636C29.7929 99.7509 36.2176 104.686 37.6846 105.947L37.8896 106.124L38.0107 105.881C38.1109 105.68 38.422 105.16 38.7393 104.656C38.8966 104.406 39.0535 104.163 39.1836 103.97C39.3192 103.77 39.4127 103.643 39.4482 103.607L39.6299 103.424L39.416 103.282C38.81 102.876 37.1905 101.362 35.4541 99.1714C33.7213 96.9858 31.8895 94.1485 30.8447 91.1099L30.4346 91.1636ZM33.8643 74.7378C32.5922 76.1804 32.3448 78.1343 32.666 80.2222C32.9875 82.3113 33.8828 84.5704 34.9424 86.6694C36.6258 90.0042 38.7436 92.9692 39.7021 94.2603C39.4845 94.1032 39.2307 93.8919 38.9502 93.6353C38.2438 92.9888 37.3856 92.0704 36.5322 91.0435C35.6793 90.0168 34.8339 88.8854 34.1504 87.8159C33.4643 86.7425 32.9514 85.7459 32.749 84.9849L32.6113 84.4683L32.3594 84.939C31.9615 85.6803 31.8182 86.8415 31.9248 88.2056C32.0322 89.5777 32.3945 91.1859 33.0342 92.8433C34.3133 96.1573 36.7141 99.6934 40.457 101.946L40.623 102.045L40.7363 101.888C42.4119 99.5776 45.1418 96.8387 47.2402 95.1548L47.4424 94.9927L47.2441 94.8267C46.6288 94.3123 43.7904 91.3632 40.8926 87.5054C37.9927 83.645 35.0628 78.914 34.2285 74.8354L34.1436 74.4204L33.8643 74.7378ZM47.4141 71.7144C47.6214 72.0097 48.0247 72.2242 48.5293 72.3618C49.0268 72.4975 49.5879 72.5493 50.0635 72.5493H50.5732L50.2129 72.9106C50.1222 73.0017 49.9603 73.2121 49.7705 73.4829C49.5969 73.7306 49.407 74.0184 49.2412 74.2847C49.2773 74.2535 49.3148 74.2219 49.3516 74.1899C49.6416 73.9388 49.9549 73.6686 50.252 73.4204C50.548 73.1728 50.8323 72.9437 51.0654 72.7759C51.1815 72.6924 51.2901 72.6204 51.3828 72.5688C51.4289 72.5433 51.4754 72.5203 51.5195 72.5034C51.5607 72.4877 51.6159 72.4713 51.6738 72.4712L51.7266 72.4741C51.8532 72.4875 52.007 72.5448 52.1504 72.6128C52.3244 72.6955 52.5202 72.8121 52.7041 72.9487C52.8873 73.085 53.0671 73.2469 53.2021 73.4233C53.3347 73.5968 53.4402 73.806 53.4404 74.0308V74.146L53.3447 74.2085L48.8438 77.1655L44.4941 80.5493L44.4043 80.6187L44.2979 80.5835C44.0858 80.5125 43.9354 80.3737 43.8535 80.187C43.7757 80.0087 43.7676 79.8031 43.7949 79.6001C43.8497 79.1952 44.0574 78.7227 44.3164 78.2896C44.4644 78.0419 44.6698 77.5683 44.9082 76.9673C45.1448 76.371 45.4087 75.6655 45.6729 74.9634C45.9364 74.2627 46.2015 73.5647 46.4404 72.9888C46.6755 72.4223 46.8962 71.9462 47.0732 71.7095L47.2471 71.4761L47.4141 71.7144Z" fill="#40BFFF"/>
<path d="M108.817 75.4929C108.737 74.6908 108.396 74.0677 107.793 73.6236C107.189 73.1794 106.371 72.9574 105.337 72.9574C104.634 72.9574 104.041 73.0568 103.557 73.2557C103.073 73.4479 102.702 73.7164 102.443 74.0611C102.191 74.4058 102.065 74.7969 102.065 75.2344C102.052 75.599 102.128 75.9171 102.294 76.1889C102.466 76.4607 102.702 76.696 103 76.8949C103.298 77.0871 103.643 77.2562 104.034 77.402C104.425 77.5412 104.843 77.6605 105.287 77.7599L107.116 78.1974C108.005 78.3963 108.82 78.6615 109.562 78.9929C110.305 79.3243 110.948 79.732 111.491 80.2159C112.035 80.6998 112.456 81.2699 112.754 81.9261C113.059 82.5824 113.215 83.3348 113.222 84.1832C113.215 85.4295 112.897 86.5099 112.267 87.4247C111.644 88.3329 110.742 89.0388 109.562 89.5426C108.389 90.0398 106.974 90.2884 105.317 90.2884C103.673 90.2884 102.241 90.0365 101.021 89.5327C99.8082 89.0289 98.8603 88.2831 98.1776 87.2955C97.5014 86.3011 97.1468 85.0715 97.1136 83.6065H101.28C101.326 84.2893 101.522 84.8594 101.866 85.3168C102.218 85.7675 102.685 86.1089 103.268 86.3409C103.858 86.5663 104.525 86.679 105.267 86.679C105.996 86.679 106.629 86.5729 107.166 86.3608C107.71 86.1487 108.131 85.8537 108.429 85.4759C108.727 85.098 108.876 84.6638 108.876 84.1733C108.876 83.7159 108.741 83.3314 108.469 83.0199C108.204 82.7083 107.813 82.4432 107.295 82.2244C106.785 82.0057 106.159 81.8068 105.416 81.6278L103.199 81.071C101.482 80.6534 100.126 80.0005 99.1321 79.1122C98.1378 78.224 97.6439 77.0275 97.6506 75.5227C97.6439 74.2898 97.9721 73.2126 98.6349 72.2912C99.3045 71.3698 100.223 70.6506 101.389 70.1335C102.556 69.6165 103.882 69.358 105.366 69.358C106.878 69.358 108.197 69.6165 109.324 70.1335C110.457 70.6506 111.339 71.3698 111.969 72.2912C112.598 73.2126 112.923 74.2798 112.943 75.4929H108.817ZM119.051 90L114.895 74.7273H119.18L121.547 84.9886H121.686L124.152 74.7273H128.358L130.863 84.929H130.993L133.319 74.7273H137.595L133.449 90H128.964L126.339 80.3949H126.15L123.525 90H119.051ZM144.21 90.2884C143.235 90.2884 142.367 90.1193 141.604 89.7812C140.842 89.4366 140.239 88.9295 139.795 88.2599C139.357 87.5838 139.138 86.742 139.138 85.7344C139.138 84.8859 139.294 84.1733 139.606 83.5966C139.917 83.0199 140.342 82.5559 140.879 82.2045C141.415 81.8532 142.025 81.5881 142.708 81.4091C143.397 81.2301 144.12 81.1042 144.876 81.0312C145.764 80.9384 146.48 80.8523 147.023 80.7727C147.567 80.6866 147.961 80.5606 148.207 80.3949C148.452 80.2292 148.575 79.9839 148.575 79.6591V79.5994C148.575 78.9697 148.376 78.4825 147.978 78.1378C147.587 77.7931 147.03 77.6207 146.308 77.6207C145.545 77.6207 144.939 77.7898 144.488 78.1278C144.037 78.4593 143.739 78.8769 143.593 79.3807L139.675 79.0625C139.874 78.1345 140.265 77.3324 140.849 76.6562C141.432 75.9735 142.184 75.4498 143.106 75.0852C144.034 74.714 145.108 74.5284 146.327 74.5284C147.176 74.5284 147.988 74.6278 148.763 74.8267C149.546 75.0256 150.238 75.3338 150.842 75.7514C151.451 76.169 151.932 76.706 152.283 77.3622C152.635 78.0118 152.81 78.7907 152.81 79.6989V90H148.793V87.8821H148.674C148.429 88.3594 148.101 88.7803 147.69 89.1449C147.279 89.5028 146.785 89.7846 146.208 89.9901C145.631 90.1889 144.965 90.2884 144.21 90.2884ZM145.423 87.3651C146.046 87.3651 146.596 87.2424 147.073 86.9972C147.55 86.7453 147.925 86.4072 148.197 85.983C148.469 85.5587 148.604 85.0781 148.604 84.5412V82.9205C148.472 83.0066 148.29 83.0862 148.058 83.1591C147.832 83.2254 147.577 83.2884 147.292 83.348C147.007 83.401 146.722 83.4508 146.437 83.4972C146.152 83.5369 145.893 83.5734 145.661 83.6065C145.164 83.6795 144.73 83.7955 144.359 83.9545C143.987 84.1136 143.699 84.3291 143.494 84.6009C143.288 84.866 143.185 85.1974 143.185 85.5952C143.185 86.1719 143.394 86.6127 143.812 86.9176C144.236 87.2159 144.773 87.3651 145.423 87.3651ZM160.332 81.1705V90H156.097V74.7273H160.134V77.4219H160.312C160.651 76.5336 161.217 75.831 162.013 75.3139C162.808 74.7902 163.773 74.5284 164.906 74.5284C165.967 74.5284 166.892 74.7604 167.68 75.2244C168.469 75.6884 169.082 76.3513 169.52 77.2131C169.957 78.0682 170.176 79.089 170.176 80.2756V90H165.94V81.0312C165.947 80.0966 165.708 79.3674 165.224 78.8438C164.741 78.3134 164.074 78.0483 163.226 78.0483C162.656 78.0483 162.152 78.1709 161.714 78.4162C161.284 78.6615 160.946 79.0194 160.7 79.4901C160.462 79.9541 160.339 80.5142 160.332 81.1705ZM177.75 81.1705V90H173.515V69.6364H177.631V77.4219H177.81C178.155 76.5204 178.712 75.8144 179.48 75.304C180.249 74.7869 181.214 74.5284 182.374 74.5284C183.435 74.5284 184.359 74.7604 185.148 75.2244C185.944 75.6818 186.56 76.3414 186.998 77.2031C187.442 78.0582 187.66 79.0824 187.654 80.2756V90H183.418V81.0312C183.425 80.09 183.186 79.3575 182.702 78.8338C182.225 78.3101 181.555 78.0483 180.694 78.0483C180.117 78.0483 179.606 78.1709 179.162 78.4162C178.725 78.6615 178.38 79.0194 178.128 79.4901C177.883 79.9541 177.757 80.5142 177.75 81.1705ZM197.888 90.2983C196.343 90.2983 195.008 89.9702 193.881 89.3139C192.76 88.651 191.895 87.7296 191.286 86.5497C190.676 85.3632 190.371 83.9877 190.371 82.4233C190.371 80.8456 190.676 79.4669 191.286 78.2869C191.895 77.1004 192.76 76.179 193.881 75.5227C195.008 74.8598 196.343 74.5284 197.888 74.5284C199.432 74.5284 200.765 74.8598 201.885 75.5227C203.012 76.179 203.88 77.1004 204.49 78.2869C205.1 79.4669 205.405 80.8456 205.405 82.4233C205.405 83.9877 205.1 85.3632 204.49 86.5497C203.88 87.7296 203.012 88.651 201.885 89.3139C200.765 89.9702 199.432 90.2983 197.888 90.2983ZM197.908 87.017C198.61 87.017 199.197 86.8182 199.668 86.4205C200.138 86.0161 200.493 85.4659 200.732 84.7699C200.977 84.0739 201.099 83.2817 201.099 82.3935C201.099 81.5052 200.977 80.7131 200.732 80.017C200.493 79.321 200.138 78.7708 199.668 78.3665C199.197 77.9621 198.61 77.7599 197.908 77.7599C197.198 77.7599 196.602 77.9621 196.118 78.3665C195.641 78.7708 195.279 79.321 195.034 80.017C194.795 80.7131 194.676 81.5052 194.676 82.3935C194.676 83.2817 194.795 84.0739 195.034 84.7699C195.279 85.4659 195.641 86.0161 196.118 86.4205C196.602 86.8182 197.198 87.017 197.908 87.017ZM212.395 69.6364V90H208.159V69.6364H212.395ZM215.788 90V74.7273H219.825V77.4219H220.004C220.322 76.527 220.852 75.821 221.595 75.304C222.337 74.7869 223.225 74.5284 224.26 74.5284C225.307 74.5284 226.199 74.7902 226.934 75.3139C227.67 75.831 228.161 76.5336 228.406 77.4219H228.565C228.877 76.5469 229.44 75.8475 230.255 75.3239C231.077 74.7936 232.048 74.5284 233.169 74.5284C234.594 74.5284 235.751 74.9825 236.639 75.8906C237.534 76.7921 237.981 78.0715 237.981 79.7287V90H233.755V80.5639C233.755 79.7154 233.53 79.0791 233.079 78.6548C232.628 78.2306 232.065 78.0185 231.389 78.0185C230.62 78.0185 230.02 78.2637 229.589 78.7543C229.158 79.2382 228.943 79.8778 228.943 80.6733V90H224.836V80.4744C224.836 79.7254 224.621 79.1288 224.19 78.6847C223.766 78.2405 223.206 78.0185 222.51 78.0185C222.039 78.0185 221.615 78.1378 221.237 78.3764C220.866 78.6084 220.571 78.9366 220.352 79.3608C220.133 79.7784 220.024 80.2689 220.024 80.8324V90H215.788ZM258.934 75.4929C258.854 74.6908 258.513 74.0677 257.91 73.6236C257.307 73.1794 256.488 72.9574 255.454 72.9574C254.751 72.9574 254.158 73.0568 253.674 73.2557C253.19 73.4479 252.819 73.7164 252.56 74.0611C252.308 74.4058 252.183 74.7969 252.183 75.2344C252.169 75.599 252.246 75.9171 252.411 76.1889C252.584 76.4607 252.819 76.696 253.117 76.8949C253.415 77.0871 253.76 77.2562 254.151 77.402C254.542 77.5412 254.96 77.6605 255.404 77.7599L257.234 78.1974C258.122 78.3963 258.937 78.6615 259.68 78.9929C260.422 79.3243 261.065 79.732 261.609 80.2159C262.152 80.6998 262.573 81.2699 262.871 81.9261C263.176 82.5824 263.332 83.3348 263.339 84.1832C263.332 85.4295 263.014 86.5099 262.384 87.4247C261.761 88.3329 260.86 89.0388 259.68 89.5426C258.506 90.0398 257.091 90.2884 255.434 90.2884C253.79 90.2884 252.358 90.0365 251.138 89.5327C249.925 89.0289 248.978 88.2831 248.295 87.2955C247.619 86.3011 247.264 85.0715 247.231 83.6065H251.397C251.443 84.2893 251.639 84.8594 251.984 85.3168C252.335 85.7675 252.802 86.1089 253.386 86.3409C253.976 86.5663 254.642 86.679 255.384 86.679C256.113 86.679 256.746 86.5729 257.283 86.3608C257.827 86.1487 258.248 85.8537 258.546 85.4759C258.844 85.098 258.994 84.6638 258.994 84.1733C258.994 83.7159 258.858 83.3314 258.586 83.0199C258.321 82.7083 257.93 82.4432 257.413 82.2244C256.902 82.0057 256.276 81.8068 255.533 81.6278L253.316 81.071C251.599 80.6534 250.244 80.0005 249.249 79.1122C248.255 78.224 247.761 77.0275 247.768 75.5227C247.761 74.2898 248.089 73.2126 248.752 72.2912C249.422 71.3698 250.34 70.6506 251.506 70.1335C252.673 69.6165 253.999 69.358 255.484 69.358C256.995 69.358 258.314 69.6165 259.441 70.1335C260.575 70.6506 261.456 71.3698 262.086 72.2912C262.716 73.2126 263.04 74.2798 263.06 75.4929H258.934ZM273.115 90.2983C271.544 90.2983 270.192 89.9801 269.059 89.3438C267.932 88.7008 267.063 87.7926 266.453 86.6193C265.844 85.4394 265.539 84.044 265.539 82.4332C265.539 80.8622 265.844 79.4834 266.453 78.2969C267.063 77.1103 267.922 76.1856 269.029 75.5227C270.142 74.8598 271.448 74.5284 272.946 74.5284C273.954 74.5284 274.892 74.6908 275.76 75.0156C276.635 75.3338 277.398 75.8144 278.047 76.4574C278.703 77.1004 279.214 77.9091 279.578 78.8835C279.943 79.8513 280.125 80.9848 280.125 82.2841V83.4474H267.229V80.8224H276.138C276.138 80.2126 276.006 79.6723 275.74 79.2017C275.475 78.7311 275.107 78.3632 274.637 78.098C274.173 77.8262 273.632 77.6903 273.016 77.6903C272.373 77.6903 271.803 77.8395 271.306 78.1378C270.815 78.4295 270.431 78.8239 270.152 79.321C269.874 79.8116 269.731 80.3584 269.725 80.9616V83.4574C269.725 84.2131 269.864 84.866 270.142 85.4162C270.427 85.9664 270.828 86.3906 271.346 86.6889C271.863 86.9872 272.476 87.1364 273.185 87.1364C273.656 87.1364 274.087 87.0701 274.478 86.9375C274.869 86.8049 275.203 86.6061 275.482 86.3409C275.76 86.0758 275.972 85.7509 276.118 85.3665L280.036 85.625C279.837 86.5663 279.429 87.3883 278.813 88.0909C278.203 88.7869 277.414 89.3305 276.446 89.7216C275.485 90.1061 274.375 90.2983 273.115 90.2983ZM287.125 81.1705V90H282.89V74.7273H286.926V77.4219H287.105C287.444 76.5336 288.01 75.831 288.806 75.3139C289.601 74.7902 290.566 74.5284 291.699 74.5284C292.76 74.5284 293.685 74.7604 294.473 75.2244C295.262 75.6884 295.875 76.3513 296.313 77.2131C296.75 78.0682 296.969 79.089 296.969 80.2756V90H292.733V81.0312C292.74 80.0966 292.501 79.3674 292.017 78.8438C291.533 78.3134 290.867 78.0483 290.019 78.0483C289.449 78.0483 288.945 78.1709 288.507 78.4162C288.077 78.6615 287.739 79.0194 287.493 79.4901C287.255 79.9541 287.132 80.5142 287.125 81.1705ZM313.015 79.0824L309.137 79.321C309.071 78.9896 308.928 78.6913 308.71 78.4261C308.491 78.1544 308.202 77.9389 307.844 77.7798C307.493 77.6141 307.072 77.5312 306.582 77.5312C305.925 77.5312 305.372 77.6705 304.921 77.9489C304.47 78.2206 304.245 78.5852 304.245 79.0426C304.245 79.4072 304.391 79.7154 304.683 79.9673C304.974 80.2192 305.475 80.4214 306.184 80.5739L308.948 81.1307C310.433 81.4356 311.54 81.9261 312.269 82.6023C312.998 83.2784 313.363 84.1667 313.363 85.267C313.363 86.268 313.068 87.1463 312.478 87.902C311.895 88.6577 311.093 89.2476 310.072 89.6719C309.058 90.0895 307.888 90.2983 306.562 90.2983C304.54 90.2983 302.929 89.8774 301.729 89.0355C300.536 88.187 299.837 87.0336 299.631 85.5753L303.798 85.3565C303.924 85.973 304.228 86.4437 304.712 86.7685C305.196 87.0866 305.816 87.2457 306.572 87.2457C307.314 87.2457 307.911 87.1032 308.362 86.8182C308.819 86.5265 309.051 86.152 309.058 85.6946C309.051 85.3101 308.888 84.9953 308.57 84.75C308.252 84.4981 307.762 84.3059 307.099 84.1733L304.454 83.6463C302.962 83.348 301.852 82.831 301.123 82.0952C300.4 81.3594 300.039 80.4214 300.039 79.2812C300.039 78.3002 300.304 77.455 300.835 76.7457C301.371 76.0365 302.124 75.4896 303.092 75.1051C304.066 74.7206 305.206 74.5284 306.512 74.5284C308.441 74.5284 309.959 74.9361 311.066 75.7514C312.18 76.5668 312.829 77.6771 313.015 79.0824ZM322.99 90.2983C321.419 90.2983 320.067 89.9801 318.934 89.3438C317.807 88.7008 316.938 87.7926 316.328 86.6193C315.719 85.4394 315.414 84.044 315.414 82.4332C315.414 80.8622 315.719 79.4834 316.328 78.2969C316.938 77.1103 317.797 76.1856 318.904 75.5227C320.017 74.8598 321.323 74.5284 322.821 74.5284C323.829 74.5284 324.767 74.6908 325.635 75.0156C326.51 75.3338 327.273 75.8144 327.922 76.4574C328.578 77.1004 329.089 77.9091 329.453 78.8835C329.818 79.8513 330 80.9848 330 82.2841V83.4474H317.104V80.8224H326.013C326.013 80.2126 325.881 79.6723 325.615 79.2017C325.35 78.7311 324.982 78.3632 324.512 78.098C324.048 77.8262 323.507 77.6903 322.891 77.6903C322.248 77.6903 321.678 77.8395 321.181 78.1378C320.69 78.4295 320.306 78.8239 320.027 79.321C319.749 79.8116 319.606 80.3584 319.6 80.9616V83.4574C319.6 84.2131 319.739 84.866 320.017 85.4162C320.302 85.9664 320.703 86.3906 321.221 86.6889C321.738 86.9872 322.351 87.1364 323.06 87.1364C323.531 87.1364 323.962 87.0701 324.353 86.9375C324.744 86.8049 325.078 86.6061 325.357 86.3409C325.635 86.0758 325.847 85.7509 325.993 85.3665L329.911 85.625C329.712 86.5663 329.304 87.3883 328.688 88.0909C328.078 88.7869 327.289 89.3305 326.321 89.7216C325.36 90.1061 324.25 90.2983 322.99 90.2983Z" fill="black"/>
<path d="M106.688 105C106.594 104.208 106.214 103.594 105.547 103.156C104.88 102.719 104.063 102.5 103.094 102.5C102.385 102.5 101.766 102.615 101.234 102.844C100.708 103.073 100.297 103.388 100 103.789C99.7083 104.19 99.5625 104.646 99.5625 105.156C99.5625 105.583 99.6641 105.951 99.8672 106.258C100.076 106.56 100.341 106.812 100.664 107.016C100.987 107.214 101.326 107.378 101.68 107.508C102.034 107.633 102.359 107.734 102.656 107.812L104.281 108.25C104.698 108.359 105.161 108.51 105.672 108.703C106.188 108.896 106.68 109.159 107.148 109.492C107.622 109.82 108.013 110.242 108.32 110.758C108.628 111.273 108.781 111.906 108.781 112.656C108.781 113.521 108.555 114.302 108.102 115C107.654 115.698 106.997 116.253 106.133 116.664C105.273 117.076 104.229 117.281 103 117.281C101.854 117.281 100.862 117.096 100.023 116.727C99.1901 116.357 98.5339 115.841 98.0547 115.18C97.5807 114.518 97.3125 113.75 97.25 112.875H99.25C99.3021 113.479 99.5052 113.979 99.8594 114.375C100.219 114.766 100.672 115.057 101.219 115.25C101.771 115.437 102.365 115.531 103 115.531C103.74 115.531 104.404 115.411 104.992 115.172C105.581 114.927 106.047 114.589 106.391 114.156C106.734 113.719 106.906 113.208 106.906 112.625C106.906 112.094 106.758 111.661 106.461 111.328C106.164 110.995 105.773 110.724 105.289 110.516C104.805 110.307 104.281 110.125 103.719 109.969L101.75 109.406C100.5 109.047 99.5104 108.534 98.7812 107.867C98.0521 107.201 97.6875 106.328 97.6875 105.25C97.6875 104.354 97.9297 103.573 98.4141 102.906C98.9036 102.234 99.5599 101.714 100.383 101.344C101.211 100.969 102.135 100.781 103.156 100.781C104.188 100.781 105.104 100.966 105.906 101.336C106.708 101.701 107.344 102.201 107.812 102.836C108.286 103.471 108.536 104.193 108.563 105H106.688ZM114.436 117L110.779 105H112.717L115.311 114.188H115.436L117.998 105H119.967L122.498 114.156H122.623L125.217 105H127.154L123.498 117H121.686L119.061 107.781H118.873L116.248 117H114.436ZM133.123 117.281C132.363 117.281 131.673 117.138 131.053 116.852C130.433 116.56 129.941 116.141 129.576 115.594C129.212 115.042 129.029 114.375 129.029 113.594C129.029 112.906 129.165 112.349 129.436 111.922C129.706 111.49 130.068 111.151 130.521 110.906C130.975 110.661 131.475 110.479 132.021 110.359C132.574 110.234 133.128 110.135 133.686 110.063C134.415 109.969 135.006 109.898 135.459 109.852C135.917 109.799 136.251 109.714 136.459 109.594C136.673 109.474 136.779 109.266 136.779 108.969V108.906C136.779 108.135 136.568 107.536 136.146 107.109C135.73 106.682 135.097 106.469 134.248 106.469C133.368 106.469 132.678 106.661 132.178 107.047C131.678 107.432 131.326 107.844 131.123 108.281L129.373 107.656C129.686 106.927 130.102 106.359 130.623 105.953C131.149 105.542 131.722 105.255 132.342 105.094C132.967 104.927 133.581 104.844 134.186 104.844C134.571 104.844 135.014 104.891 135.514 104.984C136.019 105.073 136.506 105.258 136.975 105.539C137.449 105.82 137.842 106.245 138.154 106.812C138.467 107.38 138.623 108.141 138.623 109.094V117H136.779V115.375H136.686C136.561 115.635 136.352 115.914 136.061 116.211C135.769 116.508 135.381 116.76 134.896 116.969C134.412 117.177 133.821 117.281 133.123 117.281ZM133.404 115.625C134.133 115.625 134.748 115.482 135.248 115.195C135.753 114.909 136.133 114.539 136.389 114.086C136.649 113.633 136.779 113.156 136.779 112.656V110.969C136.701 111.062 136.529 111.148 136.264 111.227C136.003 111.299 135.701 111.365 135.357 111.422C135.019 111.474 134.688 111.521 134.365 111.562C134.048 111.599 133.79 111.63 133.592 111.656C133.113 111.719 132.665 111.82 132.248 111.961C131.837 112.096 131.503 112.302 131.248 112.578C130.998 112.849 130.873 113.219 130.873 113.687C130.873 114.328 131.11 114.812 131.584 115.141C132.063 115.464 132.67 115.625 133.404 115.625ZM143.832 109.781V117H141.988V105H143.77V106.875H143.926C144.207 106.266 144.634 105.776 145.207 105.406C145.78 105.031 146.52 104.844 147.426 104.844C148.238 104.844 148.949 105.01 149.559 105.344C150.168 105.672 150.642 106.172 150.98 106.844C151.319 107.51 151.488 108.354 151.488 109.375V117H149.645V109.5C149.645 108.557 149.4 107.823 148.91 107.297C148.421 106.766 147.749 106.5 146.895 106.5C146.306 106.5 145.78 106.628 145.316 106.883C144.858 107.138 144.496 107.51 144.23 108C143.965 108.49 143.832 109.083 143.832 109.781ZM156.701 109.781V117H154.857V101H156.701V106.875H156.857C157.139 106.255 157.561 105.763 158.123 105.398C158.691 105.029 159.446 104.844 160.389 104.844C161.206 104.844 161.923 105.008 162.537 105.336C163.152 105.659 163.628 106.156 163.967 106.828C164.311 107.495 164.482 108.344 164.482 109.375V117H162.639V109.5C162.639 108.547 162.391 107.81 161.896 107.289C161.407 106.763 160.727 106.5 159.857 106.5C159.253 106.5 158.712 106.628 158.232 106.883C157.758 107.138 157.383 107.51 157.107 108C156.837 108.49 156.701 109.083 156.701 109.781ZM172.73 117.25C171.647 117.25 170.697 116.992 169.879 116.477C169.066 115.961 168.431 115.24 167.973 114.312C167.52 113.385 167.293 112.302 167.293 111.062C167.293 109.812 167.52 108.721 167.973 107.789C168.431 106.857 169.066 106.133 169.879 105.617C170.697 105.102 171.647 104.844 172.73 104.844C173.814 104.844 174.762 105.102 175.574 105.617C176.392 106.133 177.027 106.857 177.48 107.789C177.939 108.721 178.168 109.812 178.168 111.062C178.168 112.302 177.939 113.385 177.48 114.312C177.027 115.24 176.392 115.961 175.574 116.477C174.762 116.992 173.814 117.25 172.73 117.25ZM172.73 115.594C173.553 115.594 174.23 115.383 174.762 114.961C175.293 114.539 175.686 113.984 175.941 113.297C176.197 112.609 176.324 111.865 176.324 111.062C176.324 110.26 176.197 109.513 175.941 108.82C175.686 108.128 175.293 107.568 174.762 107.141C174.23 106.714 173.553 106.5 172.73 106.5C171.908 106.5 171.23 106.714 170.699 107.141C170.168 107.568 169.775 108.128 169.52 108.82C169.264 109.513 169.137 110.26 169.137 111.062C169.137 111.865 169.264 112.609 169.52 113.297C169.775 113.984 170.168 114.539 170.699 114.961C171.23 115.383 171.908 115.594 172.73 115.594ZM182.826 101V117H180.982V101H182.826ZM186.203 117V105H187.984V106.875H188.141C188.391 106.234 188.794 105.737 189.352 105.383C189.909 105.023 190.578 104.844 191.359 104.844C192.151 104.844 192.81 105.023 193.336 105.383C193.867 105.737 194.281 106.234 194.578 106.875H194.703C195.01 106.255 195.471 105.763 196.086 105.398C196.701 105.029 197.438 104.844 198.297 104.844C199.37 104.844 200.247 105.18 200.93 105.852C201.612 106.518 201.953 107.557 201.953 108.969V117H200.109V108.969C200.109 108.083 199.867 107.451 199.383 107.07C198.898 106.69 198.328 106.5 197.672 106.5C196.828 106.5 196.174 106.755 195.711 107.266C195.247 107.771 195.016 108.411 195.016 109.187V117H193.141V108.781C193.141 108.099 192.919 107.549 192.477 107.133C192.034 106.711 191.464 106.5 190.766 106.5C190.286 106.5 189.839 106.628 189.422 106.883C189.01 107.138 188.677 107.492 188.422 107.945C188.172 108.393 188.047 108.911 188.047 109.5V117H186.203ZM210.887 102.719V101H222.887V102.719H217.855V117H215.918V102.719H210.887ZM228.918 117.25C227.762 117.25 226.764 116.995 225.926 116.484C225.092 115.969 224.449 115.25 223.996 114.328C223.548 113.401 223.324 112.323 223.324 111.094C223.324 109.865 223.548 108.781 223.996 107.844C224.449 106.901 225.079 106.167 225.887 105.641C226.699 105.109 227.647 104.844 228.73 104.844C229.355 104.844 229.973 104.948 230.582 105.156C231.191 105.365 231.746 105.703 232.246 106.172C232.746 106.635 233.145 107.25 233.441 108.016C233.738 108.781 233.887 109.724 233.887 110.844V111.625H224.637V110.031H232.012C232.012 109.354 231.876 108.75 231.605 108.219C231.34 107.687 230.96 107.268 230.465 106.961C229.975 106.654 229.397 106.5 228.73 106.5C227.996 106.5 227.361 106.682 226.824 107.047C226.293 107.406 225.884 107.875 225.598 108.453C225.311 109.031 225.168 109.651 225.168 110.312V111.375C225.168 112.281 225.324 113.049 225.637 113.68C225.954 114.305 226.395 114.781 226.957 115.109C227.52 115.432 228.173 115.594 228.918 115.594C229.402 115.594 229.84 115.526 230.23 115.391C230.626 115.25 230.967 115.042 231.254 114.766C231.54 114.484 231.762 114.135 231.918 113.719L233.699 114.219C233.512 114.823 233.197 115.354 232.754 115.812C232.311 116.266 231.764 116.62 231.113 116.875C230.462 117.125 229.73 117.25 228.918 117.25ZM241.566 117.25C240.441 117.25 239.473 116.984 238.66 116.453C237.848 115.922 237.223 115.19 236.785 114.258C236.348 113.326 236.129 112.26 236.129 111.062C236.129 109.844 236.353 108.768 236.801 107.836C237.254 106.898 237.884 106.167 238.691 105.641C239.504 105.109 240.452 104.844 241.535 104.844C242.379 104.844 243.139 105 243.816 105.312C244.493 105.625 245.048 106.062 245.48 106.625C245.913 107.187 246.181 107.844 246.285 108.594H244.441C244.301 108.047 243.988 107.562 243.504 107.141C243.025 106.714 242.379 106.5 241.566 106.5C240.848 106.5 240.217 106.687 239.676 107.062C239.139 107.432 238.72 107.956 238.418 108.633C238.121 109.305 237.973 110.094 237.973 111C237.973 111.927 238.118 112.734 238.41 113.422C238.707 114.109 239.124 114.643 239.66 115.023C240.202 115.404 240.837 115.594 241.566 115.594C242.046 115.594 242.48 115.51 242.871 115.344C243.262 115.177 243.592 114.938 243.863 114.625C244.134 114.312 244.327 113.937 244.441 113.5H246.285C246.181 114.208 245.923 114.846 245.512 115.414C245.105 115.977 244.566 116.424 243.895 116.758C243.228 117.086 242.452 117.25 241.566 117.25ZM250.824 109.781V117H248.98V101H250.824V106.875H250.98C251.262 106.255 251.684 105.763 252.246 105.398C252.814 105.029 253.569 104.844 254.512 104.844C255.329 104.844 256.046 105.008 256.66 105.336C257.275 105.659 257.751 106.156 258.09 106.828C258.434 107.495 258.605 108.344 258.605 109.375V117H256.762V109.5C256.762 108.547 256.514 107.81 256.02 107.289C255.53 106.763 254.85 106.5 253.98 106.5C253.376 106.5 252.835 106.628 252.355 106.883C251.882 107.138 251.507 107.51 251.23 108C250.96 108.49 250.824 109.083 250.824 109.781ZM263.822 109.781V117H261.979V105H263.76V106.875H263.916C264.197 106.266 264.624 105.776 265.197 105.406C265.77 105.031 266.51 104.844 267.416 104.844C268.229 104.844 268.939 105.01 269.549 105.344C270.158 105.672 270.632 106.172 270.971 106.844C271.309 107.51 271.479 108.354 271.479 109.375V117H269.635V109.5C269.635 108.557 269.39 107.823 268.9 107.297C268.411 106.766 267.739 106.5 266.885 106.5C266.296 106.5 265.77 106.628 265.307 106.883C264.848 107.138 264.486 107.51 264.221 108C263.955 108.49 263.822 109.083 263.822 109.781ZM279.723 117.25C278.639 117.25 277.689 116.992 276.871 116.477C276.059 115.961 275.423 115.24 274.965 114.312C274.512 113.385 274.285 112.302 274.285 111.062C274.285 109.812 274.512 108.721 274.965 107.789C275.423 106.857 276.059 106.133 276.871 105.617C277.689 105.102 278.639 104.844 279.723 104.844C280.806 104.844 281.754 105.102 282.566 105.617C283.384 106.133 284.02 106.857 284.473 107.789C284.931 108.721 285.16 109.812 285.16 111.062C285.16 112.302 284.931 113.385 284.473 114.312C284.02 115.24 283.384 115.961 282.566 116.477C281.754 116.992 280.806 117.25 279.723 117.25ZM279.723 115.594C280.546 115.594 281.223 115.383 281.754 114.961C282.285 114.539 282.678 113.984 282.934 113.297C283.189 112.609 283.316 111.865 283.316 111.062C283.316 110.26 283.189 109.513 282.934 108.82C282.678 108.128 282.285 107.568 281.754 107.141C281.223 106.714 280.546 106.5 279.723 106.5C278.9 106.5 278.223 106.714 277.691 107.141C277.16 107.568 276.767 108.128 276.512 108.82C276.257 109.513 276.129 110.26 276.129 111.062C276.129 111.865 276.257 112.609 276.512 113.297C276.767 113.984 277.16 114.539 277.691 114.961C278.223 115.383 278.9 115.594 279.723 115.594ZM289.818 101V117H287.975V101H289.818ZM298.07 117.25C296.987 117.25 296.036 116.992 295.219 116.477C294.406 115.961 293.771 115.24 293.312 114.312C292.859 113.385 292.633 112.302 292.633 111.062C292.633 109.812 292.859 108.721 293.312 107.789C293.771 106.857 294.406 106.133 295.219 105.617C296.036 105.102 296.987 104.844 298.07 104.844C299.154 104.844 300.102 105.102 300.914 105.617C301.732 106.133 302.367 106.857 302.82 107.789C303.279 108.721 303.508 109.812 303.508 111.062C303.508 112.302 303.279 113.385 302.82 114.312C302.367 115.24 301.732 115.961 300.914 116.477C300.102 116.992 299.154 117.25 298.07 117.25ZM298.07 115.594C298.893 115.594 299.57 115.383 300.102 114.961C300.633 114.539 301.026 113.984 301.281 113.297C301.536 112.609 301.664 111.865 301.664 111.062C301.664 110.26 301.536 109.513 301.281 108.82C301.026 108.128 300.633 107.568 300.102 107.141C299.57 106.714 298.893 106.5 298.07 106.5C297.247 106.5 296.57 106.714 296.039 107.141C295.508 107.568 295.115 108.128 294.859 108.82C294.604 109.513 294.477 110.26 294.477 111.062C294.477 111.865 294.604 112.609 294.859 113.297C295.115 113.984 295.508 114.539 296.039 114.961C296.57 115.383 297.247 115.594 298.07 115.594ZM311.166 121.75C310.275 121.75 309.51 121.635 308.869 121.406C308.229 121.182 307.695 120.885 307.268 120.516C306.846 120.151 306.51 119.76 306.26 119.344L307.729 118.313C307.895 118.531 308.106 118.781 308.361 119.062C308.617 119.349 308.965 119.596 309.408 119.805C309.856 120.018 310.442 120.125 311.166 120.125C312.135 120.125 312.934 119.891 313.564 119.422C314.195 118.953 314.51 118.219 314.51 117.219V114.781H314.354C314.218 115 314.025 115.271 313.775 115.594C313.531 115.911 313.176 116.195 312.713 116.445C312.255 116.69 311.635 116.812 310.854 116.812C309.885 116.812 309.015 116.583 308.244 116.125C307.479 115.667 306.872 115 306.424 114.125C305.981 113.25 305.76 112.187 305.76 110.937C305.76 109.708 305.976 108.638 306.408 107.727C306.84 106.81 307.442 106.102 308.213 105.602C308.984 105.096 309.874 104.844 310.885 104.844C311.666 104.844 312.286 104.974 312.744 105.234C313.208 105.49 313.562 105.781 313.807 106.109C314.057 106.432 314.249 106.698 314.385 106.906H314.572V105H316.354V117.344C316.354 118.375 316.119 119.214 315.65 119.859C315.187 120.51 314.562 120.987 313.775 121.289C312.994 121.596 312.124 121.75 311.166 121.75ZM311.104 115.156C311.843 115.156 312.468 114.987 312.979 114.648C313.489 114.31 313.877 113.823 314.143 113.188C314.408 112.552 314.541 111.792 314.541 110.906C314.541 110.042 314.411 109.279 314.15 108.617C313.89 107.956 313.505 107.437 312.994 107.062C312.484 106.687 311.854 106.5 311.104 106.5C310.322 106.5 309.671 106.698 309.15 107.094C308.635 107.49 308.247 108.021 307.986 108.688C307.731 109.354 307.604 110.094 307.604 110.906C307.604 111.74 307.734 112.477 307.994 113.117C308.26 113.753 308.65 114.253 309.166 114.617C309.687 114.977 310.333 115.156 311.104 115.156ZM320.916 121.5C320.604 121.5 320.325 121.474 320.08 121.422C319.835 121.375 319.666 121.328 319.572 121.281L320.041 119.656C320.489 119.771 320.885 119.813 321.229 119.781C321.572 119.75 321.877 119.596 322.143 119.32C322.413 119.049 322.661 118.609 322.885 118L323.229 117.063L318.791 105H320.791L324.104 114.562H324.229L327.541 105H329.541L324.447 118.75C324.218 119.37 323.934 119.883 323.596 120.289C323.257 120.701 322.864 121.005 322.416 121.203C321.973 121.401 321.473 121.5 320.916 121.5Z" fill="#2E5F97"/>
<rect x="38" y="214" width="293" height="38" rx="19" fill="#3F5FFF"/>
<path d="M151.07 225.455V240H148.435V225.455H151.07ZM159.18 233.608V240H156.609V229.091H159.067V230.945H159.195C159.445 230.334 159.846 229.848 160.395 229.489C160.949 229.129 161.633 228.949 162.447 228.949C163.2 228.949 163.856 229.11 164.415 229.432C164.978 229.754 165.414 230.22 165.722 230.831C166.034 231.442 166.188 232.183 166.183 233.054V240H163.612V233.452C163.612 232.723 163.423 232.152 163.044 231.74C162.67 231.328 162.151 231.122 161.489 231.122C161.039 231.122 160.639 231.222 160.288 231.42C159.943 231.615 159.67 231.896 159.472 232.266C159.277 232.635 159.18 233.082 159.18 233.608ZM180.219 231.974L177.875 232.23C177.809 231.993 177.693 231.771 177.527 231.562C177.366 231.354 177.148 231.186 176.874 231.058C176.599 230.93 176.263 230.866 175.865 230.866C175.33 230.866 174.88 230.982 174.516 231.214C174.156 231.446 173.978 231.747 173.983 232.116C173.978 232.434 174.094 232.692 174.331 232.891C174.573 233.089 174.97 233.253 175.524 233.381L177.385 233.778C178.417 234.001 179.184 234.354 179.686 234.837C180.193 235.32 180.449 235.952 180.453 236.733C180.449 237.42 180.247 238.026 179.85 238.551C179.457 239.072 178.91 239.479 178.209 239.773C177.508 240.066 176.703 240.213 175.794 240.213C174.459 240.213 173.384 239.934 172.57 239.375C171.755 238.812 171.27 238.028 171.114 237.024L173.621 236.783C173.735 237.275 173.976 237.647 174.345 237.898C174.715 238.149 175.195 238.274 175.787 238.274C176.398 238.274 176.888 238.149 177.257 237.898C177.631 237.647 177.818 237.337 177.818 236.967C177.818 236.655 177.698 236.397 177.456 236.193C177.219 235.99 176.85 235.833 176.348 235.724L174.487 235.334C173.441 235.116 172.667 234.749 172.165 234.233C171.663 233.712 171.415 233.054 171.419 232.259C171.415 231.586 171.597 231.004 171.966 230.511C172.34 230.014 172.859 229.631 173.522 229.361C174.189 229.086 174.959 228.949 175.83 228.949C177.108 228.949 178.114 229.221 178.848 229.766C179.587 230.31 180.044 231.046 180.219 231.974ZM190.821 229.091V231.08H184.55V229.091H190.821ZM186.098 226.477H188.669V236.719C188.669 237.064 188.721 237.33 188.825 237.514C188.934 237.694 189.076 237.817 189.251 237.884C189.426 237.95 189.621 237.983 189.834 237.983C189.995 237.983 190.141 237.971 190.274 237.947C190.411 237.924 190.515 237.902 190.586 237.884L191.02 239.893C190.882 239.941 190.686 239.993 190.43 240.05C190.179 240.107 189.871 240.14 189.507 240.149C188.863 240.168 188.283 240.071 187.767 239.858C187.251 239.64 186.841 239.304 186.538 238.849C186.24 238.395 186.093 237.827 186.098 237.145V226.477ZM198.91 240.22C198.219 240.22 197.596 240.097 197.042 239.851C196.493 239.6 196.057 239.231 195.736 238.743C195.418 238.255 195.26 237.654 195.26 236.939C195.26 236.323 195.373 235.814 195.601 235.412C195.828 235.009 196.138 234.688 196.531 234.446C196.924 234.205 197.367 234.022 197.859 233.899C198.356 233.771 198.87 233.679 199.4 233.622C200.039 233.556 200.558 233.497 200.956 233.445C201.353 233.388 201.642 233.303 201.822 233.189C202.007 233.071 202.099 232.888 202.099 232.642V232.599C202.099 232.064 201.941 231.65 201.623 231.357C201.306 231.063 200.849 230.916 200.253 230.916C199.623 230.916 199.123 231.054 198.754 231.328C198.389 231.603 198.143 231.927 198.015 232.301L195.615 231.96C195.804 231.297 196.117 230.743 196.552 230.298C196.988 229.848 197.521 229.512 198.15 229.29C198.78 229.062 199.476 228.949 200.238 228.949C200.764 228.949 201.287 229.01 201.808 229.134C202.329 229.257 202.805 229.46 203.236 229.744C203.666 230.024 204.012 230.405 204.272 230.888C204.538 231.371 204.67 231.974 204.67 232.699V240H202.199V238.501H202.113C201.957 238.804 201.737 239.089 201.453 239.354C201.173 239.614 200.821 239.825 200.395 239.986C199.973 240.142 199.478 240.22 198.91 240.22ZM199.578 238.331C200.094 238.331 200.541 238.229 200.92 238.026C201.299 237.817 201.59 237.543 201.794 237.202C202.002 236.861 202.106 236.489 202.106 236.087V234.801C202.026 234.867 201.888 234.929 201.694 234.986C201.505 235.043 201.292 235.092 201.055 235.135C200.818 235.178 200.584 235.215 200.352 235.249C200.12 235.282 199.919 235.31 199.748 235.334C199.365 235.386 199.021 235.471 198.718 235.589C198.415 235.708 198.176 235.874 198.001 236.087C197.826 236.295 197.738 236.565 197.738 236.896C197.738 237.37 197.911 237.727 198.257 237.969C198.602 238.21 199.043 238.331 199.578 238.331ZM212.626 225.455V240H210.055V225.455H212.626ZM220.641 225.455V240H218.07V225.455H220.641Z" fill="white"/>
<defs>
<linearGradient id="paint0_linear_3438_42" x1="319.832" y1="18.8872" x2="-48.8354" y2="847.171" gradientUnits="userSpaceOnUse">
<stop stop-color="#090000"/>
<stop offset="0.856926" stop-color="#808080"/>
</linearGradient>
</defs>
</svg>
