<svg width="384" height="384" viewBox="0 0 384 384" fill="none" xmlns="http://www.w3.org/2000/svg">
<path fill-rule="evenodd" clip-rule="evenodd" d="M233.698 0.863297C258.609 -2.99728 285.319 6.05103 305.156 28.7979C343.389 72.6426 360.733 157.508 309.576 228.955C375.668 170.038 425.715 98.9396 443.074 54.7412L443.724 53.0918L445.343 53.8135C461.201 60.8655 483.528 86.8083 480.302 124.599C492.125 148.477 497.177 177.356 492.191 209.54C497.291 221.75 500.2 241.279 499.989 260.463C499.778 279.664 496.439 299.019 488.65 310.523C460.803 449.067 355.388 515.031 228.127 560.86L227.742 561L227.338 560.947C169.385 553.547 101.315 508.384 54.9063 442.583C8.57917 376.896 -16.3524 290.374 12.003 199.788C11.139 198.142 10.3862 195.616 9.76077 192.577C9.01705 188.962 8.40667 184.375 8.04495 179.123C7.32164 168.616 7.59078 155.333 9.83988 141.618C14.3242 114.278 26.7889 84.6855 55.585 72.4639L57.0791 71.8311L57.7784 73.2949C93.3707 147.894 106.791 201.597 185.446 262.133C224.891 247.719 248.968 208.765 260.055 169.636C265.628 149.965 267.879 130.368 267.173 114.051C266.819 105.894 265.727 98.5896 263.963 92.5254C262.504 87.5129 260.605 83.4133 258.342 80.377C251.932 90.9547 240.655 100.875 229.107 105.279C222.925 107.636 216.514 108.466 210.682 106.808C204.794 105.132 199.709 100.98 196.133 93.8272L195.298 92.1572L197.037 91.4844C211.801 85.7864 214.203 73.8193 214.551 67.8213C209.566 68.4765 201.532 70.4351 197.471 78.5576C194.706 84.086 188.85 88.9745 182.72 92.041C179.632 93.5853 176.393 94.7086 173.335 95.2188C170.297 95.725 167.3 95.6458 164.791 94.6426L164.729 94.6162L164.665 94.583C163.425 93.9619 162.457 92.8722 161.724 91.6104C160.984 90.3371 160.418 88.7799 160.018 87.0635C159.217 83.627 159.032 79.3338 159.61 74.8233C160.749 65.9556 164.888 55.8589 173.609 49.542C186.057 21.3092 208.91 4.70705 233.698 0.863297ZM452.609 348.189C403.141 410.148 347.712 468.071 236.333 507.528L235.818 507.711L236.046 508.208C238.709 514.034 245.555 528.231 248.076 532.265L248.277 532.587L248.642 532.479C257.205 529.961 297.628 513.184 341.288 482.472C384.95 451.758 431.919 407.06 453.47 348.673L452.609 348.189ZM209.155 300.139C164.841 342.45 144.17 383.939 135.397 416.984C126.631 450.008 129.743 474.621 133.034 483.18C136.836 493.065 144.808 500.643 153.063 505.433C157.193 507.829 161.408 509.536 165.231 510.485C169.045 511.433 172.511 511.638 175.122 510.985L175.761 510.825L175.436 510.253C159.014 481.39 156.123 443.397 163.107 405.403C170.09 367.416 186.933 329.494 209.891 300.813L209.155 300.139ZM465.792 160.467C429.229 238.962 363.848 290.028 311.226 336.573C284.979 359.789 261.841 381.947 247.32 405.811C232.747 429.762 226.827 455.477 235.023 485.685L235.501 487.451L237.227 486.842C290.065 468.087 353.024 428.068 401.298 381.48C425.44 358.182 445.967 333.183 459.721 308.314C473.465 283.458 480.521 258.585 477.489 235.612L476.744 229.977L474.279 235.1C452.358 280.64 414.789 324.16 378.215 356.728C359.937 373.003 341.94 386.513 326.325 396.154C314.722 403.318 304.546 408.264 296.604 410.685C337.524 380.289 382.993 337.785 417.148 293.713C435.119 270.525 450 246.849 459.432 224.24C468.855 201.649 472.899 179.965 468.989 160.841L467.962 155.808L465.792 160.467ZM445.485 107.771C388.822 211.828 327.547 262.134 281.318 303.923C258.216 324.807 238.735 343.68 225.603 366.118C212.431 388.625 205.692 414.63 207.83 449.711L211.202 449.851C215.797 418.099 234.517 388.177 259.826 359.266C285.131 330.36 316.839 302.658 347.194 275.266C377.492 247.925 406.467 220.871 426.043 193.393C445.629 165.898 456.002 137.702 448.623 108.173L447.566 103.951L445.485 107.771ZM33.1485 353.178C35.7157 368.585 39.5812 379.81 44.3584 388.499C49.1432 397.201 54.806 403.294 60.8555 408.481L62.5049 409.897L63.4756 407.951C66.8826 401.135 70.2254 394.454 73.5459 389.471L74.5332 387.989L73.0069 387.074C64.7592 382.123 49.641 368.712 36.1465 351.839L32.0782 346.753L33.1485 353.178ZM19.5625 257.762C14.4042 326.587 66.0324 366.139 77.8194 376.245L79.4659 377.66L80.4405 375.715C81.2457 374.105 83.7442 369.931 86.294 365.893C87.5591 363.889 88.8228 361.941 89.8682 360.398C90.9577 358.791 91.7098 357.778 91.9951 357.492L93.4561 356.028L91.7364 354.881C86.8669 351.633 73.8493 339.494 59.8946 321.939C45.9702 304.423 31.2538 281.687 22.8584 257.334L19.5625 257.762ZM47.1211 126.123C36.8979 137.685 34.9125 153.346 37.4942 170.08C40.0777 186.823 47.2693 204.928 55.7842 221.751C69.312 248.477 86.3294 272.235 94.0323 282.582C92.2833 281.323 90.243 279.635 87.9893 277.578C82.3125 272.397 75.422 265.032 68.5645 256.801C61.7102 248.573 54.9167 239.511 49.4239 230.94C43.9093 222.336 39.7839 214.348 38.1573 208.248L37.0537 204.109L35.0264 207.88C31.829 213.821 30.6841 223.124 31.541 234.056C32.4036 245.053 35.3088 257.942 40.4492 271.226C50.7279 297.786 70.0207 326.123 100.098 344.175L101.43 344.974L102.344 343.718C115.808 325.2 137.745 303.249 154.608 289.753L156.231 288.454L154.635 287.125C149.69 283.003 126.886 259.366 103.6 228.448C80.2971 197.509 56.7563 159.592 50.0528 126.905L49.3701 123.578L47.1211 126.123Z" fill="#40bfff"/>
<path d="M156.006 101.893C157.672 104.26 160.909 105.976 164.964 107.079C168.963 108.167 173.474 108.583 177.297 108.583H181.391L178.496 111.48C177.767 112.21 176.464 113.897 174.938 116.069C173.543 118.054 172.023 120.357 170.691 122.491C170.981 122.241 171.279 121.988 171.575 121.732C173.906 119.719 176.421 117.552 178.808 115.563C181.188 113.578 183.476 111.744 185.35 110.399C186.283 109.73 187.152 109.155 187.897 108.742C188.268 108.537 188.642 108.351 188.997 108.216C189.329 108.09 189.772 107.96 190.239 107.96L190.66 107.983C191.678 108.09 192.911 108.549 194.063 109.094C195.462 109.757 197.037 110.689 198.515 111.784C199.987 112.876 201.428 114.178 202.513 115.592C203.579 116.983 204.434 118.658 204.435 120.46V121.378L203.666 121.878L167.491 145.581L132.539 172.701L131.823 173.255L130.965 172.97C129.261 172.401 128.055 171.291 127.397 169.795C126.771 168.366 126.701 166.72 126.921 165.093C127.361 161.848 129.035 158.064 131.117 154.592C132.306 152.608 133.955 148.812 135.871 143.994C137.772 139.215 139.887 133.561 142.01 127.933C144.128 122.317 146.258 116.721 148.178 112.105C150.067 107.565 151.84 103.747 153.263 101.85L154.664 99.9844L156.006 101.893Z" fill="#40bfff"/>
</svg>
