<svg width="405" height="455" viewBox="0 0 405 455" fill="none" xmlns="http://www.w3.org/2000/svg">
<path d="M189.036 0.700195C209.186 -2.43073 230.791 4.90788 246.837 23.3564C277.763 58.9168 291.792 127.747 250.412 185.694C303.873 137.91 344.356 80.2446 358.397 44.3975L358.923 43.0605L360.232 43.6455C373.06 49.365 391.12 70.4064 388.511 101.057C398.074 120.423 402.161 143.845 398.128 169.947C402.253 179.85 404.606 195.69 404.436 211.249C404.265 226.822 401.564 242.52 395.264 251.851C372.738 364.217 287.469 417.717 184.529 454.887L184.218 455L183.892 454.957C137.014 448.955 81.9526 412.326 44.4131 358.958C6.9396 305.682 -13.2274 235.508 9.70898 162.038C9.01016 160.703 8.40138 158.654 7.89551 156.189C7.29397 153.258 6.80039 149.538 6.50781 145.278C5.92274 136.757 6.13971 125.983 7.95898 114.859C11.5863 92.6852 21.6691 68.6838 44.9619 58.7715L46.1709 58.2588L46.7363 59.4463C75.5264 119.95 86.3819 163.506 150.005 212.604C181.911 200.913 201.387 169.319 210.355 137.584C214.863 121.63 216.684 105.735 216.113 92.501C215.827 85.8854 214.943 79.9613 213.517 75.043C212.336 70.9776 210.8 67.652 208.97 65.1895C203.785 73.7685 194.663 81.8148 185.322 85.3867C180.322 87.2984 175.135 87.9717 170.418 86.627C165.655 85.2676 161.542 81.8998 158.649 76.0986L157.975 74.7441L159.381 74.1982C171.323 69.577 173.266 59.8716 173.548 55.0068C169.516 55.5382 163.017 57.1265 159.732 63.7139C157.496 68.1977 152.758 72.1633 147.8 74.6504C145.302 75.9027 142.682 76.8137 140.209 77.2275C137.752 77.6381 135.327 77.5734 133.298 76.7598L133.247 76.7383L133.195 76.7119C132.192 76.2082 131.409 75.3241 130.816 74.3008C130.218 73.2681 129.76 72.0052 129.437 70.6133C128.789 67.8261 128.639 64.3438 129.106 60.6855C130.028 53.4934 133.376 45.304 140.431 40.1807C150.5 17.2827 168.986 3.81765 189.036 0.700195ZM366.11 282.399C326.096 332.651 281.26 379.63 191.167 411.632L190.751 411.779L190.935 412.183C193.089 416.908 198.627 428.423 200.666 431.694L200.828 431.955L201.124 431.868C208.051 429.826 240.749 416.218 276.064 391.31C311.382 366.399 349.374 330.147 366.807 282.792L366.11 282.399ZM169.183 243.428C133.338 277.744 116.618 311.394 109.521 338.195C102.431 364.979 104.947 384.942 107.609 391.884C110.685 399.901 117.133 406.048 123.811 409.933C127.151 411.876 130.561 413.26 133.653 414.029C136.738 414.798 139.542 414.965 141.654 414.436L142.171 414.306L141.908 413.842C128.625 390.432 126.286 359.618 131.936 328.803C137.584 297.993 151.208 267.236 169.778 243.975L169.183 243.428ZM376.773 130.147C347.198 193.811 294.312 235.228 251.747 272.979C230.516 291.808 211.801 309.779 200.055 329.134C188.267 348.559 183.478 369.416 190.107 393.916L190.494 395.348L191.891 394.854C234.631 379.642 285.557 347.185 324.605 309.4C344.134 290.505 360.738 270.229 371.863 250.059C382.981 229.899 388.688 209.726 386.235 191.094L385.633 186.523L383.639 190.678C365.907 227.613 335.518 262.911 305.934 289.325C291.149 302.525 276.592 313.482 263.961 321.302C254.576 327.112 246.344 331.123 239.92 333.087C273.02 308.434 309.799 273.961 337.427 238.217C351.963 219.41 363.999 200.207 371.629 181.87C379.251 163.548 382.523 145.961 379.36 130.45L378.529 126.368L376.773 130.147ZM360.348 87.4082C314.514 171.804 264.949 212.604 227.555 246.497C208.868 263.435 193.11 278.742 182.487 296.94C171.833 315.195 166.382 336.287 168.111 364.739L170.839 364.853C174.556 339.1 189.698 314.831 210.17 291.383C230.639 267.939 256.287 245.471 280.841 223.255C305.349 201.08 328.786 179.138 344.621 156.852C360.464 134.552 368.855 111.683 362.886 87.7334L362.031 84.3096L360.348 87.4082ZM26.8135 286.445C28.8901 298.941 32.0166 308.046 35.8809 315.093C39.7512 322.151 44.3322 327.092 49.2256 331.299L50.5596 332.447L51.3447 330.869C54.1006 325.341 56.8043 319.922 59.4902 315.881L60.2891 314.679L59.0547 313.937C52.3832 309.921 40.1538 299.044 29.2383 285.359L25.9473 281.234L26.8135 286.445ZM15.8242 209.059C11.6519 264.879 53.4129 296.958 62.9473 305.154L64.2793 306.302L65.0674 304.725C65.7187 303.419 67.7393 300.033 69.8018 296.758C70.825 295.133 71.8478 293.553 72.6934 292.302C73.5746 290.998 74.1833 290.176 74.4141 289.944L75.5957 288.757L74.2041 287.827C70.2652 285.193 59.7359 275.347 48.4482 261.109C37.185 246.903 25.2812 228.462 18.4902 208.711L15.8242 209.059ZM38.1152 102.292C29.8459 111.669 28.2408 124.371 30.3291 137.943C32.4189 151.523 38.2354 166.207 45.123 179.852C56.0655 201.528 69.8307 220.796 76.0615 229.188C74.6468 228.167 72.9967 226.798 71.1738 225.13C66.582 220.928 61.0078 214.955 55.4609 208.279C49.9167 201.606 44.4215 194.256 39.9785 187.305C35.5178 180.326 32.181 173.847 30.8652 168.899L29.9727 165.543L28.332 168.602C25.7459 173.42 24.8196 180.965 25.5127 189.831C26.2104 198.75 28.5607 209.205 32.7188 219.979C41.0331 241.52 56.6388 264.502 80.9678 279.144L82.0459 279.792L82.7852 278.773C93.676 263.754 111.42 245.951 125.061 235.005L126.373 233.951L125.082 232.873C121.081 229.529 102.636 210.359 83.8008 185.283C64.9514 160.19 45.9098 129.438 40.4873 102.927L39.9346 100.229L38.1152 102.292ZM126.191 94.8545C127.539 96.7742 130.158 98.166 133.438 99.0605C136.672 99.9429 140.321 100.28 143.413 100.28H146.725L144.383 102.63C143.793 103.222 142.739 104.59 141.505 106.352C140.376 107.961 139.147 109.83 138.069 111.561C138.304 111.358 138.546 111.153 138.785 110.945C140.671 109.313 142.705 107.555 144.636 105.941C146.561 104.332 148.411 102.844 149.927 101.753C150.681 101.21 151.385 100.744 151.987 100.409C152.287 100.243 152.59 100.092 152.877 99.9824C153.146 99.8802 153.504 99.7754 153.882 99.7754L154.223 99.7939C155.046 99.8808 156.043 100.253 156.975 100.695C158.106 101.233 159.381 101.989 160.576 102.877C161.767 103.763 162.933 104.818 163.811 105.965C164.673 107.093 165.364 108.452 165.365 109.913V110.658L164.743 111.063L135.481 130.288L107.209 152.283L106.63 152.732L105.936 152.502C104.557 152.04 103.582 151.14 103.05 149.927C102.543 148.768 102.487 147.433 102.665 146.113C103.021 143.481 104.374 140.412 106.059 137.596C107.02 135.987 108.355 132.908 109.904 129.001C111.442 125.125 113.153 120.539 114.87 115.975C116.583 111.42 118.306 106.881 119.859 103.137C121.387 99.4547 122.822 96.3578 123.973 94.8193L125.105 93.3066L126.191 94.8545Z" fill="url(#paint0_radial_3434_31)"/>
<defs>
<radialGradient id="paint0_radial_3434_31" cx="0" cy="0" r="1" gradientUnits="userSpaceOnUse" gradientTransform="translate(202.222 227.5) rotate(90) scale(227.5 202.222)">
<stop stop-color="#00D0FF"/>
<stop offset="1" stop-color="#9DEDFF"/>
</radialGradient>
</defs>
</svg>
