<svg width="696" height="877" viewBox="0 0 696 877" fill="none" xmlns="http://www.w3.org/2000/svg">
<g filter="url(#filter0_f_3415_38)">
<ellipse cx="334" cy="746" rx="187" ry="43" fill="#060606" fill-opacity="0.43"/>
</g>
<path d="M331.5 400L176.5 251.5L114 312L331.5 530L695.5 162.5L629.5 101L331.5 400Z" fill="url(#paint0_linear_3415_38)"/>
<path d="M2.94534 96.5C140.445 78.5 229.945 50.5 329.445 0C329.445 0 494.945 78.5 562.945 81C545.945 96.5 532.945 116 505.945 143C410.945 120 383.945 102.5 329.445 78.5C283.945 104.5 171.945 143 71.4454 156C60.9454 285 83.9453 540.5 329.445 673.5C458.945 605.5 522.445 502 560.445 384.5C567.445 374.5 626.945 315 638.445 311.5C620.945 433.5 558.945 634.5 329.445 747C71.4454 623 -18.0552 367 2.94534 96.5Z" fill="url(#paint1_linear_3415_38)"/>
<defs>
<filter id="filter0_f_3415_38" x="59.7" y="615.7" width="548.6" height="260.6" filterUnits="userSpaceOnUse" color-interpolation-filters="sRGB">
<feFlood flood-opacity="0" result="BackgroundImageFix"/>
<feBlend mode="normal" in="SourceGraphic" in2="BackgroundImageFix" result="shape"/>
<feGaussianBlur stdDeviation="43.65" result="effect1_foregroundBlur_3415_38"/>
</filter>
<linearGradient id="paint0_linear_3415_38" x1="192.134" y1="325.928" x2="440.977" y2="326.572" gradientUnits="userSpaceOnUse">
<stop offset="0.543269" stop-color="#A5D951"/>
<stop offset="0.581731" stop-color="#85BC3C"/>
</linearGradient>
<linearGradient id="paint1_linear_3415_38" x1="-100" y1="431.5" x2="669.5" y2="422" gradientUnits="userSpaceOnUse">
<stop offset="0.55" stop-color="#50676F"/>
<stop offset="0.56" stop-color="#273238"/>
</linearGradient>
</defs>
</svg>
