<svg width="455" height="684" viewBox="0 0 455 684" fill="none" xmlns="http://www.w3.org/2000/svg">
<g id="vest">
<g id="body" filter="url(#filter0_d_3397_4)">
<path id="Vector" d="M21.9198 280.035C24.4432 283.55 24.6203 357.9 23.8581 414.46C28.4329 467.834 24.5453 578.535 27.7052 605.53C44.0306 643.487 125.349 665.682 137.116 658.77C145.042 656.494 147.778 640.801 147.778 640.801L159.805 641.385C159.926 644.883 165.982 658.947 172.32 664.053C202.687 688.515 396.827 674.778 417.266 600.525C415.654 554.053 412.977 347.021 426.214 281.523C430.664 259.507 451.37 184.593 432.373 141.725C428.027 130.166 324.669 94.43 302.127 79.2021C302.058 77.2033 303.965 45.6182 300.464 31.2309C296.619 21.3582 277.506 4.01032 208.1 7.91831C138.694 11.8263 115.318 44.6562 110.65 54.3238C106.916 62.0579 110.076 85.8627 112.123 96.7983C91.361 104.022 61.6909 114.057 36.7955 131.93C-4.90787 198.916 13.7341 274.815 21.9198 280.035Z" fill="url(#paint0_linear_3397_4)"/>
<path id="Vector_2" d="M160.289 640.908L159.829 640.886L147.802 640.302L147.36 640.28L147.285 640.716V640.718C147.285 640.718 147.283 640.722 147.283 640.725C147.282 640.732 147.28 640.743 147.277 640.757C147.272 640.786 147.264 640.829 147.253 640.885C147.232 640.998 147.2 641.164 147.155 641.378C147.066 641.805 146.929 642.421 146.741 643.167C146.364 644.659 145.781 646.669 144.954 648.747C144.126 650.827 143.062 652.957 141.729 654.698C140.394 656.442 138.819 657.761 136.978 658.29L136.917 658.306L136.863 658.339C135.517 659.129 133.08 659.543 129.709 659.524C126.365 659.504 122.19 659.061 117.44 658.213C107.943 656.517 96.1969 653.215 84.304 648.511C72.4104 643.807 60.3863 637.708 50.3258 630.429C40.2829 623.162 32.2335 614.744 28.1929 605.397C26.6269 591.885 26.8072 557.564 26.8123 519.887C26.8173 482.184 26.6459 441.155 24.3582 414.442C24.7391 386.165 24.8854 353.445 24.621 327.35C24.4888 314.3 24.2536 302.903 23.8937 294.546C23.7138 290.369 23.5025 286.945 23.2563 284.451C23.1333 283.205 23.0012 282.183 22.8578 281.411C22.7861 281.026 22.7097 280.694 22.6281 280.424C22.5498 280.166 22.4543 279.922 22.326 279.743L22.2695 279.665L22.1886 279.613C21.7625 279.341 21.256 278.806 20.6952 277.969C20.1397 277.141 19.5528 276.052 18.9544 274.715C17.7579 272.044 16.5303 268.418 15.4115 263.989C13.1744 255.132 11.384 243.101 11.1492 229.136C10.6801 201.23 16.4215 165.646 37.1681 132.278C61.9779 114.49 91.5353 104.491 112.287 97.2702L112.693 97.1291L112.614 96.7068C111.593 91.2531 110.295 82.5873 109.718 74.326C109.429 70.1949 109.321 66.1751 109.516 62.7137C109.712 59.2369 110.212 56.382 111.1 54.5416C115.686 45.0433 138.897 12.3156 208.128 8.41749C242.794 6.46559 264.849 9.82618 278.696 14.8768C292.511 19.9158 298.118 26.6209 299.985 31.3822C301.712 38.5111 302.113 49.9264 302.083 59.8608C302.068 64.8261 301.945 69.4061 301.83 72.8705C301.717 76.3105 301.61 78.6966 301.628 79.2193L301.636 79.474L301.848 79.6162C307.527 83.4529 318.257 88.5588 331.176 94.2276C344.109 99.9019 359.285 106.161 373.88 112.3C388.481 118.442 402.5 124.463 413.139 129.67C418.459 132.274 422.921 134.667 426.183 136.765C427.814 137.814 429.134 138.782 430.107 139.657C431.091 140.542 431.676 141.294 431.905 141.902L431.91 141.915L431.915 141.928C441.355 163.228 440.946 192.554 437.59 219.381C434.235 246.196 427.956 270.381 425.724 281.424C419.094 314.229 416.456 382.411 415.672 448.152C414.889 513.839 415.957 577.155 416.763 600.464C411.686 618.798 395.878 633.468 374.407 644.774C352.92 656.089 325.842 663.99 298.429 668.814C271.02 673.637 243.303 675.379 220.551 674.389C209.175 673.894 199.052 672.716 190.834 670.903C182.6 669.087 176.338 666.647 172.634 663.663C169.552 661.18 166.492 656.468 164.177 651.89C163.025 649.61 162.067 647.383 161.391 645.514C160.707 643.625 160.333 642.156 160.305 641.367L160.289 640.908Z" stroke="#989898"/>
</g>
<path id="Vector 52" d="M301.206 38.2095C287.737 68.1943 231.773 84.6439 204.033 92.6102C175.714 141.621 168.86 333.474 167.916 349.516C182.476 351.013 302.734 362.763 420.019 325.676" stroke="#AFA53D"/>
<path id="Vector 54" d="M110.081 58.7581C108.31 79.8322 134.624 88.4253 136.539 93.9504C150.415 118.984 155.311 130.322 161.036 151.136C148.474 236.122 146.345 275.72 141.827 347.419C118.789 346.717 52.4821 339.011 24.7531 318.46" stroke="#C7BE56"/>
<path id="reflex-bottom" d="M416.622 400.839C334.146 446.225 68.8167 441.418 24.3552 399.934C22.2871 398.005 24.4157 444.959 26.2268 453.902C59.6285 493.768 254.295 524.039 416.928 467.368C418.13 444.313 417.402 423.325 416.622 400.839Z" fill="url(#paint1_linear_3397_4)" stroke="white"/>
<path id="reflex-top" d="M420.418 337.169C267.622 388.996 68.8716 370.874 24.41 329.39C22.3419 327.461 21.7815 369.005 23.5926 377.948C51.8242 412.99 300.732 434.876 418.393 379.765C420.337 363.688 421.197 359.656 420.418 337.169Z" fill="url(#paint2_linear_3397_4)" stroke="white"/>
<path id="Zipback" d="M172.959 148.721C163.485 210.712 138.656 452.998 153.356 643.698" stroke="url(#paint3_linear_3397_4)" stroke-width="15"/>
<path id="zipfront" d="M173.011 150.22C160.433 215.426 139.219 457.161 153.551 642.19" stroke="#383838" stroke-width="3" stroke-linecap="square"/>
<g id="l_ring">
<path id="Vector 47" d="M413.595 139.494C416.195 138.608 418.996 138.49 421.755 139.475C424.282 140.378 426.401 142.073 428.158 144.218L428.504 144.653L428.752 144.972L428.945 145.328C431.201 149.476 432.635 155.297 433.573 161.803C434.528 168.429 435.03 176.244 435.167 184.691C435.441 201.595 434.261 221.381 432.153 239.935C430.05 258.455 426.997 275.985 423.454 288.317C421.71 294.385 419.723 299.656 417.424 303.149C416.306 304.847 414.73 306.729 412.527 307.747C409.861 308.979 407.014 308.613 404.697 306.963L404.531 306.844L404.373 306.711C390.01 294.589 382.793 276.187 380.08 256.64C377.36 237.038 379.072 215.689 383.139 196.81C387.189 178.008 393.689 161.136 400.93 150.653C404.466 145.535 408.705 141.161 413.595 139.494Z" fill="url(#paint4_linear_3397_4)" stroke="#3A3A3A" stroke-width="10"/>
<path id="Vector 50" d="M415.558 142.805C417.338 142.204 419.107 142.158 420.812 142.758C422.406 143.318 423.908 144.429 425.299 146.106L425.575 146.449L425.601 146.481L425.62 146.517C427.505 149.944 428.864 155.119 429.786 161.482C430.709 167.857 431.2 175.469 431.327 183.803C431.581 200.472 430.377 220.063 428.236 238.477C426.096 256.886 423.016 274.143 419.511 286.139C417.761 292.127 415.892 296.85 413.957 299.749C412.992 301.194 411.972 302.244 410.889 302.738C409.762 303.253 408.616 303.143 407.526 302.378L407.509 302.365L407.493 302.352C394.138 291.233 387.151 274.075 384.508 255.122C381.865 236.165 383.558 215.354 387.619 196.847C391.678 178.348 398.114 162.096 404.996 152.273C408.429 147.373 412.026 143.997 415.558 142.805Z" stroke="#828282"/>
</g>
<path id="Vector 55" d="M416.506 593.046C386.781 673.625 189.448 676.467 176.592 657.401C152.474 596.7 166.368 362.578 167.589 354.531C173.086 354.34 298.392 367.417 419.658 329.691" stroke="#AFA53D"/>
<path id="Vector 56" d="M28.031 600.515C44.8041 636.956 110.528 656.69 134.288 649.362C139.198 646.69 132.084 484.84 141.501 352.434C130.921 350.299 58.2561 346.815 24.3748 321.975" stroke="#AFA53D"/>
<g id="Vector 49">
<path id="Vector_3" d="M36.7614 130.931C37.4271 130.016 42.4284 127.644 48.3381 124.938C2.39711 199.575 17.4373 266.182 22.4892 282.016C2.83928 249.178 6.99843 171.835 36.7614 130.931Z" fill="#3A3A3A"/>
<path id="Vector_4" d="M40.88 134.29L48.3381 124.938M48.3381 124.938C42.4284 127.644 37.4271 130.016 36.7614 130.931C6.99843 171.835 2.83928 249.178 22.4892 282.016C17.4373 266.182 2.39711 199.575 48.3381 124.938Z" stroke="#3A3A3A"/>
</g>
<path id="Vector 51" d="M302.662 80.1841C280.701 124.972 221.999 149.021 187.02 150.234" stroke="#AFA53D"/>
<path id="Vector 57" d="M304.195 81.1316C281.821 128.436 221.086 151.554 186.107 152.768" stroke="#AFA53D"/>
<path id="Vector 53" d="M110.641 97.3499C111.196 113.34 127.605 139.287 160.071 152.17" stroke="#DDD46D"/>
<path id="Vector 58" d="M112.123 96.7983C112.608 110.79 128.535 137.254 159.984 149.671" stroke="#DDD46D"/>
<g id="zip">
<path id="Vector 61" d="M161.154 188.755C160.429 187.969 168.368 145.099 173.292 146.145C179.611 147.143 176.874 189.021 176.204 189.856C175.535 190.69 161.88 189.541 161.154 188.755Z" fill="url(#paint5_linear_3397_4)" stroke="black"/>
<path id="Vector 62" d="M174.5 180.99C174.199 180.352 167.707 179.738 165.029 179.696C164.331 179.682 162.785 185.453 162.813 186.263C162.841 187.074 174.405 188.295 174.725 187.473C175.155 186.369 175.066 182.187 174.5 180.99Z" fill="url(#paint6_linear_3397_4)" stroke="black"/>
</g>
<path id="Vector 63" d="M417.809 132.136C373.336 133.679 348.827 278.115 402.595 313.773C406.624 316.444 414.726 317.354 421.91 308.1" stroke="#968E31"/>
<path id="Vector 64" d="M51.7836 123.317C24.6872 164.281 9.07558 229.862 22.5899 276.922C23.1589 278.903 23.2806 282.401 22.7981 282.918" stroke="#968E31"/>
<path id="Vector 65" d="M175.145 665.367C171.534 663.793 163.719 653.256 160.356 642.866C162.667 651.792 168.545 662.594 174.698 666.884C226.568 691.101 399.288 665.599 417.387 610.438C417.387 610.438 417.609 602.426 417.075 601.444C392.035 672.854 220.863 685.295 175.145 665.367Z" fill="#2D2D2D" stroke="#2D2D2D"/>
<g id="Vector 66">
<path id="Vector_5" d="M145.502 648.137C145.973 646.843 146.434 645.412 146.882 643.834C146.364 645.489 145.91 646.909 145.502 648.137C142.802 655.546 139.736 658.463 136.391 658.707C96.9672 661.575 45.527 635.342 28.0145 606.432C27.5497 607.448 28.2224 612.428 28.2224 612.428C65.2781 656.67 129.017 662.464 137.908 659.154C142.119 655.984 142.913 655.917 145.502 648.137Z" fill="#2D2D2D"/>
<path id="Vector_6" d="M146.882 643.834C143.865 654.445 140.321 658.421 136.391 658.707C96.9672 661.575 45.527 635.342 28.0145 606.432C27.5497 607.448 28.2224 612.428 28.2224 612.428C65.2781 656.67 129.017 662.464 137.908 659.154C142.784 655.483 143.079 655.973 146.882 643.834Z" stroke="#2D2D2D"/>
</g>
<g id="Subtract">
<path id="Vector_7" fill-rule="evenodd" clip-rule="evenodd" d="M218.541 257.117C221.241 256.827 224.079 257.881 226.12 260.324C230.053 265.033 231.562 273.898 225.75 281.072C233.118 275.261 238.809 268.118 240.866 263.618L240.943 263.45L241.114 263.532C242.792 264.332 245.087 267.116 244.58 271.016C245.753 273.54 246.175 276.553 245.502 279.864C245.999 281.151 246.23 283.186 246.126 285.172C246.022 287.16 245.581 289.149 244.693 290.307C241.108 304.532 229.474 310.899 215.573 315.085L215.531 315.098L215.488 315.091C209.277 314.07 202.136 309.093 197.415 302.075C192.703 295.068 190.383 285.999 193.821 276.742C193.734 276.568 193.664 276.303 193.61 275.986C193.545 275.608 193.498 275.131 193.482 274.585C193.448 273.494 193.533 272.119 193.834 270.709C194.432 267.897 195.9 264.888 199.053 263.749L199.217 263.69L199.286 263.844C202.804 271.726 204.023 277.347 212.239 283.962C216.549 282.642 219.307 278.714 220.666 274.711C221.35 272.698 221.675 270.679 221.668 268.986C221.665 268.14 221.578 267.378 221.413 266.743C221.277 266.217 221.09 265.784 220.859 265.46C220.124 266.527 218.868 267.505 217.605 267.91C216.929 268.127 216.235 268.185 215.614 267.987C214.987 267.788 214.457 267.336 214.102 266.579L214.019 266.403L214.209 266.341C215.823 265.815 216.133 264.587 216.196 263.967C215.656 264.013 214.782 264.18 214.31 265.004C213.989 265.564 213.338 266.045 212.665 266.335C212.325 266.482 211.972 266.584 211.64 266.623C211.311 266.662 210.988 266.641 210.722 266.526L210.716 266.523L210.709 266.519C210.578 266.449 210.478 266.332 210.405 266.198C210.331 266.063 210.276 265.899 210.24 265.72C210.169 265.36 210.167 264.915 210.248 264.451C210.408 263.537 210.897 262.51 211.863 261.894C213.323 259.025 215.855 257.406 218.541 257.117ZM240.652 294.049C235.061 300.248 228.846 306.002 216.682 309.598L216.626 309.615L216.649 309.667C216.911 310.283 217.588 311.783 217.843 312.212L217.863 312.246L217.903 312.236C218.836 312.013 223.261 310.454 228.093 307.465C232.926 304.477 238.174 300.054 240.742 294.103L240.652 294.049ZM214.632 288.002C209.68 292.189 207.278 296.394 206.193 299.778C205.109 303.159 205.34 305.722 205.659 306.623C206.027 307.663 206.853 308.483 207.722 309.015C208.157 309.281 208.604 309.477 209.011 309.592C209.418 309.707 209.791 309.743 210.075 309.687L210.144 309.673L210.111 309.613C208.465 306.551 208.314 302.604 209.227 298.7C210.14 294.797 212.114 290.944 214.708 288.075L214.632 288.002ZM242.866 274.666C238.595 282.634 231.337 287.635 225.472 292.224C222.547 294.513 219.961 296.705 218.296 299.113C216.625 301.529 215.879 304.166 216.634 307.331L216.678 307.516L216.866 307.46C222.637 305.75 229.587 301.883 234.984 297.271C237.683 294.964 240 292.465 241.586 289.95C243.172 287.437 244.037 284.892 243.808 282.5L243.751 281.913L243.464 282.433C240.91 287.052 236.68 291.394 232.602 294.606C230.565 296.211 228.569 297.531 226.847 298.46C225.567 299.151 224.45 299.619 223.584 299.834C228.12 296.867 233.197 292.665 237.063 288.251C239.096 285.929 240.799 283.543 241.911 281.243C243.021 278.945 243.549 276.717 243.208 274.719L243.119 274.193L242.866 274.666ZM240.901 269.12C234.358 279.647 227.545 284.587 222.389 288.711C219.812 290.772 217.634 292.641 216.125 294.907C214.611 297.18 213.775 299.843 213.857 303.486L214.219 303.515C214.849 300.247 216.991 297.23 219.84 294.348C222.688 291.466 226.22 288.736 229.606 286.033C232.985 283.335 236.22 280.661 238.445 277.901C240.671 275.14 241.907 272.266 241.237 269.175L241.141 268.733L240.901 269.12ZM195.45 292.72C195.661 294.327 196.03 295.507 196.508 296.427C196.986 297.35 197.57 298.006 198.2 298.569L198.372 298.723L198.485 298.526C198.88 297.835 199.269 297.158 199.647 296.656L199.76 296.507L199.599 296.406C198.732 295.857 197.16 294.402 195.778 292.595L195.361 292.05L195.45 292.72ZM194.39 282.779C193.543 289.884 198.937 294.207 200.164 295.306L200.335 295.459L200.448 295.262C200.542 295.099 200.829 294.678 201.12 294.271C201.265 294.069 201.409 293.873 201.528 293.718C201.653 293.556 201.738 293.454 201.77 293.426L201.933 293.281L201.753 293.154C201.242 292.797 199.891 291.482 198.463 289.603C197.037 287.728 195.548 285.308 194.746 282.75L194.39 282.779ZM197.915 269.268C196.765 270.421 196.485 272.034 196.692 273.778C196.899 275.523 197.597 277.43 198.443 279.21C199.788 282.037 201.52 284.572 202.306 285.677C202.123 285.539 201.91 285.355 201.676 285.133C201.087 284.571 200.376 283.778 199.672 282.895C198.968 282.013 198.275 281.045 197.72 280.133C197.162 279.218 196.751 278.373 196.602 277.734L196.501 277.3L196.266 277.682C195.897 278.283 195.734 279.241 195.78 280.377C195.827 281.52 196.085 282.867 196.583 284.266C197.577 287.061 199.536 290.081 202.699 292.082L202.839 292.171L202.943 292.045C204.471 290.187 206.927 288.01 208.801 286.686L208.981 286.559L208.814 286.414C208.299 285.966 205.943 283.418 203.565 280.113C201.186 276.807 198.811 272.777 198.227 269.362L198.168 269.015L197.915 269.268Z" fill="#434343"/>
<path id="Vector_8" d="M209.745 267.238C209.915 267.49 210.256 267.682 210.688 267.814C211.115 267.945 211.599 268.008 212.01 268.024L212.451 268.042L212.127 268.33C212.046 268.402 211.898 268.571 211.725 268.789C211.566 268.989 211.393 269.221 211.24 269.436C211.272 269.411 211.306 269.386 211.339 269.361C211.598 269.163 211.878 268.949 212.144 268.754C212.408 268.559 212.663 268.379 212.87 268.248C212.974 268.183 213.07 268.127 213.152 268.088C213.192 268.068 213.233 268.05 213.272 268.038C213.309 268.026 213.357 268.015 213.407 268.017L213.452 268.021C213.562 268.037 213.692 268.09 213.814 268.151C213.962 268.226 214.128 268.329 214.282 268.449C214.436 268.569 214.586 268.71 214.697 268.861C214.806 269.01 214.891 269.187 214.883 269.374L214.879 269.469L214.795 269.517L210.798 271.813L206.918 274.468L206.839 274.522L206.748 274.488C206.566 274.422 206.441 274.302 206.377 274.144C206.315 273.993 206.315 273.822 206.345 273.655C206.407 273.321 206.603 272.936 206.842 272.586C206.978 272.386 207.172 272 207.399 271.509C207.624 271.023 207.875 270.447 208.128 269.873C208.38 269.301 208.633 268.731 208.859 268.261C209.082 267.799 209.289 267.412 209.45 267.221L209.609 267.034L209.745 267.238Z" fill="#434343"/>
</g>
<g id="SWANHOLM TECHNOLOGY">
<path id="Vector_9" d="M260.335 283.029C260.286 282.592 260.083 282.254 259.726 282.013C259.369 281.77 258.92 281.649 258.378 281.649C257.99 281.649 257.655 281.71 257.372 281.833C257.089 281.953 256.868 282.12 256.712 282.332C256.558 282.541 256.481 282.78 256.481 283.048C256.481 283.272 256.533 283.466 256.638 283.629C256.745 283.792 256.885 283.929 257.058 284.04C257.233 284.148 257.421 284.239 257.621 284.313C257.821 284.383 258.013 284.442 258.198 284.488L259.121 284.728C259.423 284.802 259.732 284.902 260.049 285.028C260.366 285.154 260.66 285.32 260.931 285.527C261.202 285.733 261.42 285.988 261.587 286.293C261.756 286.598 261.84 286.962 261.84 287.387C261.84 287.923 261.702 288.398 261.425 288.814C261.151 289.229 260.752 289.557 260.229 289.797C259.709 290.037 259.08 290.157 258.341 290.157C257.633 290.157 257.021 290.045 256.504 289.82C255.987 289.595 255.582 289.277 255.29 288.864C254.997 288.449 254.836 287.956 254.805 287.387H256.236C256.264 287.729 256.375 288.013 256.568 288.241C256.765 288.466 257.016 288.634 257.321 288.744C257.629 288.852 257.966 288.906 258.332 288.906C258.735 288.906 259.094 288.843 259.408 288.717C259.725 288.587 259.974 288.409 260.155 288.181C260.337 287.95 260.428 287.681 260.428 287.373C260.428 287.093 260.348 286.864 260.188 286.685C260.031 286.507 259.817 286.359 259.546 286.242C259.278 286.125 258.975 286.022 258.637 285.933L257.519 285.628C256.762 285.422 256.162 285.119 255.719 284.719C255.279 284.319 255.059 283.789 255.059 283.131C255.059 282.586 255.207 282.11 255.502 281.704C255.797 281.298 256.198 280.982 256.702 280.758C257.207 280.53 257.776 280.416 258.41 280.416C259.051 280.416 259.615 280.529 260.105 280.753C260.597 280.978 260.985 281.287 261.268 281.681C261.551 282.072 261.699 282.521 261.711 283.029H260.335ZM265.396 290L262.774 280.545H264.274L266.116 287.867H266.204L268.12 280.545H269.606L271.522 287.872H271.61L273.447 280.545H274.952L272.326 290H270.89L268.9 282.918H268.826L266.837 290H265.396ZM276.239 290H274.725L278.127 280.545H279.775L283.178 290H281.664L278.991 282.263H278.917L276.239 290ZM276.493 286.298H281.405V287.498H276.493V286.298ZM292.174 280.545V290H290.863L286.057 283.066H285.97V290H284.543V280.545H285.863L290.674 287.489H290.761V280.545H292.174ZM294.255 290V280.545H295.682V284.654H300.395V280.545H301.826V290H300.395V285.877H295.682V290H294.255ZM312.116 285.273C312.116 286.282 311.932 287.15 311.562 287.876C311.193 288.6 310.687 289.157 310.043 289.548C309.403 289.935 308.675 290.129 307.86 290.129C307.041 290.129 306.31 289.935 305.667 289.548C305.027 289.157 304.522 288.598 304.153 287.872C303.783 287.145 303.599 286.279 303.599 285.273C303.599 284.263 303.783 283.397 304.153 282.674C304.522 281.947 305.027 281.39 305.667 281.002C306.31 280.612 307.041 280.416 307.86 280.416C308.675 280.416 309.403 280.612 310.043 281.002C310.687 281.39 311.193 281.947 311.562 282.674C311.932 283.397 312.116 284.263 312.116 285.273ZM310.704 285.273C310.704 284.503 310.579 283.855 310.33 283.329C310.083 282.8 309.745 282.4 309.314 282.129C308.886 281.855 308.401 281.718 307.86 281.718C307.315 281.718 306.829 281.855 306.401 282.129C305.973 282.4 305.635 282.8 305.385 283.329C305.139 283.855 305.016 284.503 305.016 285.273C305.016 286.042 305.139 286.692 305.385 287.221C305.635 287.747 305.973 288.147 306.401 288.421C306.829 288.692 307.315 288.827 307.86 288.827C308.401 288.827 308.886 288.692 309.314 288.421C309.745 288.147 310.083 287.747 310.33 287.221C310.579 286.692 310.704 286.042 310.704 285.273ZM313.895 290V280.545H315.321V288.772H319.605V290H313.895ZM321.233 280.545H322.964L325.974 287.895H326.084L329.094 280.545H330.826V290H329.468V283.158H329.381L326.592 289.986H325.466L322.678 283.154H322.59V290H321.233V280.545ZM251.763 297.406V296.273H258.518V297.406H255.795V305H254.482V297.406H251.763ZM260.01 305V296.273H265.482V297.406H261.327V300.065H265.196V301.195H261.327V303.866H265.533V305H260.01ZM274.489 299.111H273.16C273.108 298.827 273.013 298.577 272.874 298.361C272.735 298.145 272.564 297.962 272.363 297.811C272.161 297.661 271.935 297.547 271.685 297.47C271.438 297.393 271.175 297.355 270.897 297.355C270.394 297.355 269.944 297.482 269.546 297.734C269.151 297.987 268.839 298.358 268.608 298.847C268.381 299.335 268.268 299.932 268.268 300.636C268.268 301.347 268.381 301.946 268.608 302.435C268.839 302.923 269.152 303.293 269.55 303.543C269.948 303.793 270.395 303.918 270.893 303.918C271.168 303.918 271.429 303.881 271.677 303.807C271.927 303.73 272.152 303.618 272.354 303.47C272.556 303.322 272.726 303.142 272.866 302.929C273.008 302.713 273.106 302.466 273.16 302.188L274.489 302.192C274.418 302.621 274.28 303.016 274.076 303.376C273.874 303.734 273.614 304.044 273.296 304.305C272.981 304.564 272.62 304.764 272.214 304.906C271.807 305.048 271.364 305.119 270.884 305.119C270.128 305.119 269.455 304.94 268.864 304.582C268.273 304.222 267.807 303.706 267.466 303.036C267.128 302.365 266.959 301.565 266.959 300.636C266.959 299.705 267.13 298.905 267.471 298.237C267.812 297.567 268.277 297.053 268.868 296.695C269.459 296.334 270.131 296.153 270.884 296.153C271.347 296.153 271.779 296.22 272.179 296.354C272.583 296.484 272.945 296.678 273.266 296.933C273.587 297.186 273.853 297.496 274.063 297.862C274.273 298.226 274.415 298.642 274.489 299.111ZM276.065 305V296.273H277.382V300.065H281.732V296.273H283.053V305H281.732V301.195H277.382V305H276.065ZM292.015 296.273V305H290.805L286.369 298.599H286.288V305H284.971V296.273H286.19L290.63 302.682H290.711V296.273H292.015ZM301.517 300.636C301.517 301.568 301.346 302.369 301.005 303.04C300.665 303.707 300.197 304.222 299.603 304.582C299.013 304.94 298.341 305.119 297.588 305.119C296.832 305.119 296.157 304.94 295.564 304.582C294.973 304.222 294.507 303.706 294.166 303.036C293.825 302.365 293.655 301.565 293.655 300.636C293.655 299.705 293.825 298.905 294.166 298.237C294.507 297.567 294.973 297.053 295.564 296.695C296.157 296.334 296.832 296.153 297.588 296.153C298.341 296.153 299.013 296.334 299.603 296.695C300.197 297.053 300.665 297.567 301.005 298.237C301.346 298.905 301.517 299.705 301.517 300.636ZM300.213 300.636C300.213 299.926 300.098 299.328 299.868 298.842C299.64 298.354 299.328 297.984 298.93 297.734C298.535 297.482 298.088 297.355 297.588 297.355C297.085 297.355 296.636 297.482 296.241 297.734C295.846 297.984 295.534 298.354 295.304 298.842C295.076 299.328 294.963 299.926 294.963 300.636C294.963 301.347 295.076 301.946 295.304 302.435C295.534 302.92 295.846 303.29 296.241 303.543C296.636 303.793 297.085 303.918 297.588 303.918C298.088 303.918 298.535 303.793 298.93 303.543C299.328 303.29 299.64 302.92 299.868 302.435C300.098 301.946 300.213 301.347 300.213 300.636ZM303.159 305V296.273H304.475V303.866H308.43V305H303.159ZM317.173 300.636C317.173 301.568 317.003 302.369 316.662 303.04C316.321 303.707 315.853 304.222 315.26 304.582C314.669 304.94 313.997 305.119 313.244 305.119C312.488 305.119 311.814 304.94 311.22 304.582C310.629 304.222 310.163 303.706 309.822 303.036C309.481 302.365 309.311 301.565 309.311 300.636C309.311 299.705 309.481 298.905 309.822 298.237C310.163 297.567 310.629 297.053 311.22 296.695C311.814 296.334 312.488 296.153 313.244 296.153C313.997 296.153 314.669 296.334 315.26 296.695C315.853 297.053 316.321 297.567 316.662 298.237C317.003 298.905 317.173 299.705 317.173 300.636ZM315.869 300.636C315.869 299.926 315.754 299.328 315.524 298.842C315.297 298.354 314.984 297.984 314.586 297.734C314.192 297.482 313.744 297.355 313.244 297.355C312.741 297.355 312.292 297.482 311.898 297.734C311.503 297.984 311.19 298.354 310.96 298.842C310.733 299.328 310.619 299.926 310.619 300.636C310.619 301.347 310.733 301.946 310.96 302.435C311.19 302.92 311.503 303.29 311.898 303.543C312.292 303.793 312.741 303.918 313.244 303.918C313.744 303.918 314.192 303.793 314.586 303.543C314.984 303.29 315.297 302.92 315.524 302.435C315.754 301.946 315.869 301.347 315.869 300.636ZM324.721 299.03C324.639 298.771 324.528 298.54 324.389 298.335C324.252 298.128 324.089 297.952 323.899 297.807C323.708 297.659 323.491 297.547 323.247 297.47C323.005 297.393 322.739 297.355 322.45 297.355C321.958 297.355 321.515 297.482 321.12 297.734C320.725 297.987 320.413 298.358 320.183 298.847C319.955 299.332 319.842 299.928 319.842 300.632C319.842 301.339 319.957 301.938 320.187 302.426C320.417 302.915 320.732 303.286 321.133 303.538C321.534 303.791 321.989 303.918 322.501 303.918C322.975 303.918 323.389 303.821 323.741 303.628C324.096 303.435 324.37 303.162 324.563 302.81C324.759 302.455 324.857 302.037 324.857 301.557L325.198 301.621H322.701V300.534H326.132V301.527C326.132 302.26 325.975 302.896 325.663 303.436C325.353 303.973 324.924 304.388 324.376 304.68C323.83 304.973 323.205 305.119 322.501 305.119C321.711 305.119 321.018 304.938 320.421 304.574C319.828 304.21 319.364 303.695 319.032 303.027C318.7 302.357 318.534 301.561 318.534 300.641C318.534 299.945 318.63 299.32 318.823 298.766C319.016 298.212 319.288 297.741 319.637 297.355C319.989 296.966 320.403 296.669 320.877 296.464C321.355 296.257 321.876 296.153 322.441 296.153C322.913 296.153 323.352 296.223 323.758 296.362C324.167 296.501 324.531 296.699 324.849 296.955C325.17 297.21 325.436 297.514 325.646 297.866C325.856 298.216 325.998 298.604 326.072 299.03H324.721ZM326.837 296.273H328.333L330.612 300.24H330.706L332.986 296.273H334.482L331.315 301.574V305H330.003V301.574L326.837 296.273Z" fill="#434343"/>
</g>
<path id="neck" d="M286.42 30.2171C254.038 5.32465 131.889 17.5657 120.248 56.9928C114.997 78.6879 137.088 80.9235 140.967 91.7956C142.591 96.3477 160.013 121.653 165.981 149.463L179.525 150.494C183.138 124.854 194.852 86.8777 199.31 86.27C243.628 80.2304 308.566 47.2409 286.42 30.2171Z" fill="url(#paint7_linear_3397_4)" stroke="#7B7B7B" stroke-width="2"/>
<g id="l_pocket" filter="url(#filter1_i_3397_4)">
<path id="Vector 43" d="M372.978 495.496C341.895 504.579 256.513 510.777 223.466 508.687C221.297 518.267 224.654 648.729 231.99 653.478C253.997 667.724 368.356 647.248 377.328 620.921C379.199 584.835 373.775 518.483 372.978 495.496Z" fill="url(#paint8_linear_3397_4)" stroke="#A29C00" stroke-linecap="round"/>
<g id="Vector 42">
<g id="Group" filter="url(#filter2_i_3397_4)">
<path id="Vector_10" d="M374.286 486.446C322.355 503.756 256.394 506.044 223.362 505.688C221.467 508.756 219.564 554.85 227.146 557.088C242.439 561.603 361.639 556.426 375.967 534.917C378.014 531.844 375.788 500.902 374.286 486.446Z" fill="#DADC61"/>
</g>
<path id="Vector_11" d="M374.286 486.446C322.355 503.756 256.394 506.044 223.362 505.688C221.467 508.756 219.564 554.85 227.146 557.088C242.439 561.603 361.639 556.426 375.967 534.917C378.014 531.844 375.788 500.902 374.286 486.446Z" stroke="#A29C00" stroke-linecap="round"/>
</g>
<path id="Vector 67" d="M223.137 505.608C220.624 519.704 222.377 546.308 223.163 549.634C224.335 554.596 225.439 557.559 229.953 557.903C234.55 558.253 295.07 560.148 346.193 548.369C362.264 544.666 373.981 538.9 376.241 534.819C377.371 532.779 375.109 502.172 374.06 486.365" stroke="#2D2D2D" stroke-width="3"/>
</g>
<g id="r_pocket">
<g id="Vector 45">
<g id="Group_2" filter="url(#filter3_i_3397_4)">
<path id="Vector_12" d="M26.5849 481.994C40.2249 489.527 80.1891 504.384 94.1102 500.665C95.2313 532.989 96.8082 601.018 95.089 614.707C91.618 642.345 32.7411 614.862 27.6327 589.022C23.6424 524.619 26.0187 504.028 26.5849 481.994Z" fill="#EDEF76"/>
</g>
<path id="Vector_13" d="M26.5849 481.994C40.2249 489.527 80.1891 504.384 94.1102 500.665C95.2313 532.989 96.8082 601.018 95.089 614.707C91.618 642.345 32.7411 614.862 27.6327 589.022C23.6424 524.619 26.0187 504.028 26.5849 481.994Z" stroke="#A29C00" stroke-linecap="round"/>
</g>
<path id="Vector 68" d="M94.7454 496.553C93.5929 506.599 92.4606 531.653 87.7236 539.322C70.4421 545.925 19.0713 521.691 24.1867 510.506" stroke="#2D2D2D" stroke-width="3" stroke-linecap="square"/>
<g id="Vector 46">
<g id="Group_3" filter="url(#filter4_i_3397_4)">
<path id="Vector_14" d="M25.628 473.523C26.7604 469.686 28.1024 467.933 29.435 467.887C43.512 481.407 77.6237 491.731 92.9198 495.203C92.4509 505.726 89.3095 535.352 86.8802 537.438C77.7121 545.308 29.3599 523.423 24.5507 514.585C21.8789 509.674 24.7327 476.555 25.628 473.523Z" fill="#EDEF76"/>
</g>
<path id="Vector_15" d="M25.628 473.523C26.7604 469.686 28.1024 467.933 29.435 467.887C43.512 481.407 77.6237 491.731 92.9198 495.203C92.4509 505.726 89.3095 535.352 86.8802 537.438C77.7121 545.308 29.3599 523.423 24.5507 514.585C21.8789 509.674 24.7327 476.555 25.628 473.523Z" stroke="#A29C00"/>
</g>
</g>
<g id="shoulder_right">
<path id="Vector 34" d="M340.263 96.8909C370.126 106.862 410.813 125.963 408.349 127.049C366.617 135.501 361.73 186.468 346.979 215.73C342.513 233.895 274.395 217.246 275.752 198.688C277.405 188.625 299.137 122.832 340.263 96.8909Z" fill="#595959" stroke="#595959"/>
<path id="Vector 33" d="M293.381 202.079C289.327 199.727 288.708 195.171 289.984 190.69C291.261 186.209 315.42 116.264 349.379 100.077C370.899 108.204 401.146 121.295 400.681 122.312C363.533 133.106 352.023 180.695 341.496 204.238C336.784 213.679 332.068 212.632 325.555 211.648C319.041 210.664 304.035 208.26 293.381 202.079Z" fill="url(#paint9_linear_3397_4)" stroke="#CDCDCD"/>
<g id="right_Lights">
<path id="Rectangle 59" d="M301.123 182.557L335.791 200.506C337.452 201.366 338.102 203.41 337.241 205.071C336.381 206.733 334.337 207.382 332.676 206.522L298.008 188.574C296.347 187.714 295.697 185.67 296.557 184.008C297.417 182.347 299.462 181.697 301.123 182.557Z" fill="#00AEFF" stroke="#0081E4"/>
<path id="Rectangle 60" d="M341.57 185.105L307.193 166.605C305.546 165.719 303.492 166.336 302.605 167.983C301.719 169.631 302.335 171.685 303.983 172.571L338.359 191.071C340.007 191.958 342.061 191.341 342.948 189.693C343.834 188.046 343.217 185.991 341.57 185.105Z" fill="#00AEFF" stroke="#0081E4"/>
<path id="Rectangle 61" d="M349.432 168.957L315.174 150.593C313.532 149.713 311.484 150.337 310.6 151.986C309.716 153.635 310.331 155.685 311.973 156.565L346.231 174.928C347.873 175.808 349.92 175.185 350.804 173.536C351.688 171.887 351.074 169.837 349.432 168.957Z" fill="#00AEFF" stroke="#0081E4"/>
<path id="Rectangle 62" d="M356.256 153.659L323.122 135.57C321.534 134.703 319.52 135.331 318.623 136.973C317.727 138.615 318.287 140.649 319.875 141.516L353.009 159.606C354.597 160.472 356.611 159.844 357.508 158.202C358.404 156.56 357.843 154.526 356.256 153.659Z" fill="#00AEFF" stroke="#0081E4"/>
<path id="Rectangle 63" d="M364.17 140.522L331.558 123.491C329.995 122.675 328.058 123.295 327.232 124.877C326.406 126.458 327.004 128.402 328.567 129.218L361.179 146.249C362.742 147.066 364.678 146.445 365.504 144.864C366.33 143.282 365.733 141.338 364.17 140.522Z" fill="#00AEFF" stroke="#0081E4"/>
<path id="Rectangle 64" d="M375.498 126.528L343.363 110.096C341.823 109.309 339.844 110.099 338.943 111.862C338.042 113.624 338.56 115.691 340.1 116.478L372.235 132.91C373.775 133.697 375.754 132.907 376.655 131.144C377.556 129.382 377.038 127.315 375.498 126.528Z" fill="#00AEFF" stroke="#0081E4"/>
<path id="Rectangle 65" d="M388.467 120.131C389.277 118.546 389.345 117.176 388.102 116.052C368.469 106.734 352.879 101.461 352.879 101.461C352.879 101.461 352.394 105.305 353.855 106.053L384.353 121.647C385.815 122.394 387.657 121.715 388.467 120.131Z" fill="#00AEFF" stroke="#0081E4"/>
</g>
</g>
<g id="shoulder_left">
<path id="Vector 35" d="M59.3483 118.641C66.4649 113.891 92.2908 101.989 104.697 99.0569C80.2519 129.923 80.2954 174.448 80.5927 197.452C79.7348 215.993 36.4515 222.997 34.0368 211.073C31.6222 199.15 36.2466 144.957 59.3483 118.641Z" fill="#595959" stroke="#595959"/>
<path id="Vector 36" d="M43.4616 208.745C40.3242 208.274 39.825 204.869 39.6344 199.372C39.4438 193.876 44.2242 144.18 65.7402 115.417C70.648 111.936 84.8992 105.247 95.7886 101.868C78.51 122.979 71.7122 164.239 72.7165 193.196C73.012 201.717 53.4089 210.239 43.4616 208.745Z" fill="url(#paint10_linear_3397_4)" stroke="#CDCDCD"/>
<g id="left_lights">
<path id="Rectangle 59_2" d="M63.1266 181.775C64.9454 180.896 66.862 181.979 66.9428 183.93C66.9957 185.21 66.2157 186.48 65.0217 187.057L49.4138 194.598C47.595 195.477 45.6784 194.394 45.5976 192.443C45.5446 191.163 46.3248 189.893 47.5187 189.316L63.1266 181.775Z" fill="#00AEFF" stroke="#0081E4"/>
<path id="Rectangle 60_2" d="M64.0809 167.307C65.8788 166.697 67.5841 167.833 67.6613 169.693C67.7224 171.167 66.7211 172.604 65.2956 173.088L51.1957 177.872C49.3978 178.482 47.6932 177.346 47.6162 175.486C47.5553 174.012 48.5564 172.575 49.9819 172.092L64.0809 167.307Z" fill="#00AEFF" stroke="#0081E4"/>
<path id="Rectangle 61_2" d="M66.8257 154.425C68.6222 153.822 70.3208 154.96 70.3977 156.817C70.4588 158.296 69.452 159.737 68.0206 160.217L53.689 165.026C51.8926 165.628 50.1939 164.491 50.117 162.634C50.0559 161.155 51.0635 159.714 52.4951 159.234L66.8257 154.425Z" fill="#00AEFF" stroke="#0081E4"/>
<path id="Rectangle 62_2" d="M71.1621 141.257C72.9198 140.785 74.5059 141.931 74.5803 143.728C74.6453 145.295 73.5249 146.806 71.9917 147.218L57.5443 151.103C55.7866 151.576 54.2005 150.43 54.1261 148.633C54.0614 147.066 55.1817 145.556 56.7148 145.143L71.1621 141.257Z" fill="#00AEFF" stroke="#0081E4"/>
<path id="Rectangle 63_2" d="M75.3221 127.539C77.0894 127.038 78.7004 128.183 78.7755 129.994C78.8396 131.542 77.7436 133.039 76.2317 133.468L62.2826 137.419C60.5152 137.92 58.9043 136.775 58.8292 134.965C58.7651 133.416 59.8603 131.919 61.372 131.491L75.3221 127.539Z" fill="#00AEFF" stroke="#0081E4"/>
<path id="Rectangle 64_2" d="M80.8784 114.05C82.6581 113.511 84.3027 114.653 84.3784 116.482C84.4414 118.005 83.3788 119.481 81.8966 119.93L68.6212 123.951C66.8417 124.49 65.1972 123.347 65.1212 121.519C65.0581 119.996 66.1207 118.519 67.603 118.07L80.8784 114.05Z" fill="#00AEFF" stroke="#0081E4"/>
</g>
</g>
<g id="collar_light">
<path id="Vector 80" d="M213.825 108.594C207.462 114.321 204.71 124.206 205.296 127.335C206.497 133.76 224.654 129.796 230.714 125.298C236.774 120.799 239.145 111.58 237.588 104.682C237.269 100.695 220.188 102.867 213.825 108.594Z" fill="url(#paint11_radial_3397_4)" stroke="black"/>
<path id="Ellipse 17" d="M218.753 112.345C221.617 110.106 225.317 110.315 227.06 112.546C228.804 114.777 228.111 118.417 225.246 120.656C222.381 122.894 218.682 122.685 216.939 120.454C215.196 118.223 215.888 114.583 218.753 112.345Z" fill="#39FF1B" stroke="#118957"/>
</g>
<g id="pocket-top-1">
<path id="Vector 60" d="M128.934 501.371C131.434 428.74 133.423 371.137 135.31 338.503L128.279 337.755C126.667 363.867 126.248 423.917 121.421 501.131C123.919 501.044 127.133 501.433 128.934 501.371Z" fill="#2E2E2E" stroke="black"/>
<g id="zip_2">
<path id="Vector 61_2" d="M133.107 364.435C133.703 364.038 136.224 334.497 132.932 334.366C128.768 333.971 123.138 361.993 123.414 362.654C123.69 363.315 132.511 364.831 133.107 364.435Z" fill="url(#paint12_linear_3397_4)" stroke="black"/>
<path id="Vector 62_2" d="M126.047 357.102C126.35 356.732 130.555 357.409 132.253 357.827C132.697 357.933 132.658 361.99 132.498 362.518C132.338 363.047 124.824 361.926 124.767 361.332C124.689 360.534 125.48 357.796 126.047 357.102Z" fill="url(#paint13_linear_3397_4)" stroke="black"/>
</g>
</g>
<g id="pocket-top-2">
<path id="Vector 59" d="M169.065 504.481C167.107 448.015 170.076 389.377 174.443 342.197L181.474 342.954C177.655 377.107 176 459.214 177.577 504.686C174.579 504.79 171.081 504.912 169.065 504.481Z" fill="#2E2E2E" stroke="black"/>
<g id="zip_3">
<path id="Vector 61_3" d="M179.288 368.837C179.884 368.44 182.404 338.899 179.113 338.768C174.949 338.373 169.319 366.395 169.595 367.056C169.871 367.717 178.692 369.234 179.288 368.837Z" fill="url(#paint14_linear_3397_4)" stroke="black"/>
<path id="Vector 62_3" d="M172.228 361.504C172.531 361.134 176.736 361.811 178.434 362.229C178.877 362.336 178.839 366.392 178.679 366.921C178.518 367.449 171.005 366.329 170.947 365.734C170.87 364.936 171.661 362.198 172.228 361.504Z" fill="url(#paint15_linear_3397_4)" stroke="black"/>
</g>
</g>
</g>
<defs>
<filter id="filter0_d_3397_4" x="-1.57695" y="-2.84526" width="456.04" height="694.201" filterUnits="userSpaceOnUse" color-interpolation-filters="sRGB">
<feFlood flood-opacity="0" result="BackgroundImageFix"/>
<feColorMatrix in="SourceAlpha" type="matrix" values="0 0 0 0 0 0 0 0 0 0 0 0 0 0 0 0 0 0 127 0" result="hardAlpha"/>
<feOffset dx="1" dy="3"/>
<feGaussianBlur stdDeviation="6.6"/>
<feComposite in2="hardAlpha" operator="out"/>
<feColorMatrix type="matrix" values="0 0 0 0 0.0625 0 0 0 0 0.0625 0 0 0 0 0.0625 0 0 0 0.63 0"/>
<feBlend mode="normal" in2="BackgroundImageFix" result="effect1_dropShadow_3397_4"/>
<feBlend mode="normal" in="SourceGraphic" in2="effect1_dropShadow_3397_4" result="shape"/>
</filter>
<filter id="filter1_i_3397_4" x="220.333" y="481.775" width="159.885" height="176.875" filterUnits="userSpaceOnUse" color-interpolation-filters="sRGB">
<feFlood flood-opacity="0" result="BackgroundImageFix"/>
<feBlend mode="normal" in="SourceGraphic" in2="BackgroundImageFix" result="shape"/>
<feColorMatrix in="SourceAlpha" type="matrix" values="0 0 0 0 0 0 0 0 0 0 0 0 0 0 0 0 0 0 127 0" result="hardAlpha"/>
<feOffset dx="2" dy="-4"/>
<feGaussianBlur stdDeviation="2"/>
<feComposite in2="hardAlpha" operator="arithmetic" k2="-1" k3="1"/>
<feColorMatrix type="matrix" values="0 0 0 0 0 0 0 0 0 0 0 0 0 0 0 0 0 0 0.25 0"/>
<feBlend mode="normal" in2="shape" result="effect1_innerShadow_3397_4"/>
</filter>
<filter id="filter2_i_3397_4" x="220.664" y="486.446" width="156.128" height="75.1443" filterUnits="userSpaceOnUse" color-interpolation-filters="sRGB">
<feFlood flood-opacity="0" result="BackgroundImageFix"/>
<feBlend mode="normal" in="SourceGraphic" in2="BackgroundImageFix" result="shape"/>
<feColorMatrix in="SourceAlpha" type="matrix" values="0 0 0 0 0 0 0 0 0 0 0 0 0 0 0 0 0 0 127 0" result="hardAlpha"/>
<feOffset dx="-1" dy="3"/>
<feGaussianBlur stdDeviation="2"/>
<feComposite in2="hardAlpha" operator="arithmetic" k2="-1" k3="1"/>
<feColorMatrix type="matrix" values="0 0 0 0 0 0 0 0 0 0 0 0 0 0 0 0 0 0 0.25 0"/>
<feBlend mode="normal" in2="shape" result="effect1_innerShadow_3397_4"/>
</filter>
<filter id="filter3_i_3397_4" x="22.3665" y="481.994" width="73.4833" height="144.239" filterUnits="userSpaceOnUse" color-interpolation-filters="sRGB">
<feFlood flood-opacity="0" result="BackgroundImageFix"/>
<feBlend mode="normal" in="SourceGraphic" in2="BackgroundImageFix" result="shape"/>
<feColorMatrix in="SourceAlpha" type="matrix" values="0 0 0 0 0 0 0 0 0 0 0 0 0 0 0 0 0 0 127 0" result="hardAlpha"/>
<feOffset dx="-3"/>
<feGaussianBlur stdDeviation="2"/>
<feComposite in2="hardAlpha" operator="arithmetic" k2="-1" k3="1"/>
<feColorMatrix type="matrix" values="0 0 0 0 0 0 0 0 0 0 0 0 0 0 0 0 0 0 0.25 0"/>
<feBlend mode="normal" in2="shape" result="effect1_innerShadow_3397_4"/>
</filter>
<filter id="filter4_i_3397_4" x="23.4357" y="467.887" width="69.4841" height="75.2288" filterUnits="userSpaceOnUse" color-interpolation-filters="sRGB">
<feFlood flood-opacity="0" result="BackgroundImageFix"/>
<feBlend mode="normal" in="SourceGraphic" in2="BackgroundImageFix" result="shape"/>
<feColorMatrix in="SourceAlpha" type="matrix" values="0 0 0 0 0 0 0 0 0 0 0 0 0 0 0 0 0 0 127 0" result="hardAlpha"/>
<feOffset dy="4"/>
<feGaussianBlur stdDeviation="2"/>
<feComposite in2="hardAlpha" operator="arithmetic" k2="-1" k3="1"/>
<feColorMatrix type="matrix" values="0 0 0 0 0 0 0 0 0 0 0 0 0 0 0 0 0 0 0.25 0"/>
<feBlend mode="normal" in2="shape" result="effect1_innerShadow_3397_4"/>
</filter>
<linearGradient id="paint0_linear_3397_4" x1="-1.20208" y1="377.895" x2="459.908" y2="315.375" gradientUnits="userSpaceOnUse">
<stop offset="0.119384" stop-color="#F2FF7B"/>
<stop offset="0.788462" stop-color="#BEB550"/>
</linearGradient>
<linearGradient id="paint1_linear_3397_4" x1="14.054" y1="453.992" x2="450.064" y2="417.858" gradientUnits="userSpaceOnUse">
<stop stop-color="#565454"/>
<stop offset="0.0769231" stop-color="#A2A2A2"/>
<stop offset="0.841346" stop-color="#ABABAB"/>
<stop offset="1" stop-color="#E2E2E2"/>
</linearGradient>
<linearGradient id="paint2_linear_3397_4" x1="16.1838" y1="374.29" x2="452.193" y2="338.156" gradientUnits="userSpaceOnUse">
<stop stop-color="#565454"/>
<stop offset="0.0769231" stop-color="#A2A2A2"/>
<stop offset="0.841346" stop-color="#ABABAB"/>
<stop offset="1" stop-color="#E2E2E2"/>
</linearGradient>
<linearGradient id="paint3_linear_3397_4" x1="196.559" y1="326.009" x2="100.09" y2="323.553" gradientUnits="userSpaceOnUse">
<stop offset="0.155964" stop-color="#767171"/>
<stop offset="0.975962" stop-color="#252525"/>
</linearGradient>
<linearGradient id="paint4_linear_3397_4" x1="303.193" y1="200.925" x2="476.562" y2="180.468" gradientUnits="userSpaceOnUse">
<stop stop-color="#D6D6D6"/>
<stop offset="1"/>
</linearGradient>
<linearGradient id="paint5_linear_3397_4" x1="173.894" y1="153.426" x2="167.858" y2="195.077" gradientUnits="userSpaceOnUse">
<stop offset="0.205014"/>
<stop offset="0.576923" stop-color="#333333"/>
<stop offset="0.692308" stop-color="#999999"/>
<stop offset="0.730769" stop-color="#CCCCCC"/>
<stop offset="1" stop-color="#1A1A1A"/>
</linearGradient>
<linearGradient id="paint6_linear_3397_4" x1="170.19" y1="177.489" x2="168.463" y2="187.805" gradientUnits="userSpaceOnUse">
<stop offset="0.432692" stop-color="#A8A8A8"/>
<stop offset="1" stop-color="#424242"/>
</linearGradient>
<linearGradient id="paint7_linear_3397_4" x1="164.103" y1="153.031" x2="230.171" y2="-4.85423" gradientUnits="userSpaceOnUse">
<stop stop-color="#727272"/>
<stop offset="1" stop-color="#191919"/>
</linearGradient>
<linearGradient id="paint8_linear_3397_4" x1="224.011" y1="580.06" x2="377.115" y2="574.75" gradientUnits="userSpaceOnUse">
<stop stop-color="#EAEC54"/>
<stop offset="1" stop-color="#D0D263"/>
</linearGradient>
<linearGradient id="paint9_linear_3397_4" x1="363.281" y1="82.5845" x2="290.004" y2="205.698" gradientUnits="userSpaceOnUse">
<stop offset="0.322113" stop-color="#CDCDCD"/>
<stop offset="1" stop-color="#989898"/>
</linearGradient>
<linearGradient id="paint10_linear_3397_4" x1="53.5939" y1="118.772" x2="85.176" y2="195.224" gradientUnits="userSpaceOnUse">
<stop stop-color="#CDCDCD"/>
<stop offset="1" stop-color="#9F9F9F"/>
</linearGradient>
<radialGradient id="paint11_radial_3397_4" cx="0" cy="0" r="1" gradientUnits="userSpaceOnUse" gradientTransform="translate(229.177 112.379) rotate(140.199) scale(41.6173 53.6755)">
<stop stop-color="#8D8D8D"/>
<stop offset="0.752982" stop-color="#454343"/>
</radialGradient>
<linearGradient id="paint12_linear_3397_4" x1="131.273" y1="339.059" x2="128.192" y2="367.526" gradientUnits="userSpaceOnUse">
<stop offset="0.205014"/>
<stop offset="0.576923" stop-color="#333333"/>
<stop offset="0.692308" stop-color="#999999"/>
<stop offset="0.730769" stop-color="#CCCCCC"/>
<stop offset="1" stop-color="#1A1A1A"/>
</linearGradient>
<linearGradient id="paint13_linear_3397_4" x1="129.384" y1="355.515" x2="128.779" y2="362.603" gradientUnits="userSpaceOnUse">
<stop offset="0.432692" stop-color="#A8A8A8"/>
<stop offset="1" stop-color="#424242"/>
</linearGradient>
<linearGradient id="paint14_linear_3397_4" x1="177.454" y1="343.461" x2="174.372" y2="371.928" gradientUnits="userSpaceOnUse">
<stop offset="0.205014"/>
<stop offset="0.576923" stop-color="#333333"/>
<stop offset="0.692308" stop-color="#999999"/>
<stop offset="0.730769" stop-color="#CCCCCC"/>
<stop offset="1" stop-color="#1A1A1A"/>
</linearGradient>
<linearGradient id="paint15_linear_3397_4" x1="175.564" y1="359.917" x2="174.96" y2="367.005" gradientUnits="userSpaceOnUse">
<stop offset="0.432692" stop-color="#A8A8A8"/>
<stop offset="1" stop-color="#424242"/>
</linearGradient>
</defs>
</svg>
